# MagicaVoxel @ Ephtracy

# group
g CyberBrute-3

# material
mtllib CyberBrute-3.mtl
usemtl palette

# normals
vn -1 0 0
vn 1 0 0
vn 0 0 1
vn 0 0 -1
vn 0 -1 0
vn 0 1 0

# texcoords
vt 0.939453 0.5
vt 0.970703 0.5
vt 0.974609 0.5
vt 0.978516 0.5

# verts
v -3.5 0 1.5
v -3.5 0 -1.5
v -3.5 1 0.5
v -3.5 1 -0.5
v -3.5 2 0.5
v -3.5 2 -0.5
v -3.5 3 1.5
v -3.5 3 -1.5
v 1.5 1 1.5
v 1.5 1 0.5
v 1.5 2 1.5
v 1.5 2 0.5
v -1.5 1 1.5
v -1.5 1 0.5
v -1.5 2 1.5
v -1.5 2 0.5
v 3.5 0 1.5
v 3.5 0 -1.5
v 3.5 1 0.5
v 3.5 1 -0.5
v 3.5 2 0.5
v 3.5 2 -0.5
v 3.5 3 1.5
v 3.5 3 -1.5
v -3.5 0 1.5
v -3.5 3 1.5
v -2.5 0 1.5
v -2.5 3 1.5
v -1.5 1 1.5
v -1.5 2 1.5
v 1.5 1 1.5
v 1.5 2 1.5
v 2.5 0 1.5
v 2.5 3 1.5
v 3.5 0 1.5
v 3.5 3 1.5
v -1.5 1 0.5
v -1.5 2 0.5
v 1.5 1 0.5
v 1.5 2 0.5
v -3.5 0 -1.5
v -3.5 3 -1.5
v -2.5 0 -1.5
v -2.5 3 -1.5
v 2.5 0 -1.5
v 2.5 3 -1.5
v 3.5 0 -1.5
v 3.5 3 -1.5
v -3.5 0 1.5
v -2.5 0 1.5
v 2.5 0 1.5
v 3.5 0 1.5
v -2.5 0 0.5
v 2.5 0 0.5
v -2.5 0 -0.5
v 2.5 0 -0.5
v -3.5 0 -1.5
v -2.5 0 -1.5
v 2.5 0 -1.5
v 3.5 0 -1.5
v -1.5 2 1.5
v 1.5 2 1.5
v -1.5 2 0.5
v 1.5 2 0.5
v -1.5 1 1.5
v 1.5 1 1.5
v -1.5 1 0.5
v 1.5 1 0.5
v -3.5 3 1.5
v -2.5 3 1.5
v 2.5 3 1.5
v 3.5 3 1.5
v -2.5 3 0.5
v 2.5 3 0.5
v -2.5 3 -0.5
v 2.5 3 -0.5
v -3.5 3 -1.5
v -2.5 3 -1.5
v 2.5 3 -1.5
v 3.5 3 -1.5

# faces
f 3/3/1 2/3/1 1/3/1
f 4/3/1 2/3/1 3/3/1
f 5/3/1 3/3/1 1/3/1
f 5/2/1 4/2/1 3/2/1
f 6/3/1 2/3/1 4/3/1
f 6/2/1 4/2/1 5/2/1
f 7/3/1 5/3/1 1/3/1
f 7/3/1 6/3/1 5/3/1
f 8/3/1 2/3/1 6/3/1
f 8/3/1 6/3/1 7/3/1
f 11/2/1 10/2/1 9/2/1
f 12/2/1 10/2/1 11/2/1
f 13/2/2 14/2/2 15/2/2
f 15/2/2 14/2/2 16/2/2
f 17/3/2 18/3/2 19/3/2
f 19/3/2 18/3/2 20/3/2
f 17/3/2 19/3/2 21/3/2
f 19/2/2 20/2/2 21/2/2
f 20/3/2 18/3/2 22/3/2
f 21/2/2 20/2/2 22/2/2
f 17/3/2 21/3/2 23/3/2
f 21/3/2 22/3/2 23/3/2
f 22/3/2 18/3/2 24/3/2
f 23/3/2 22/3/2 24/3/2
f 27/3/3 26/3/3 25/3/3
f 28/3/3 26/3/3 27/3/3
f 29/2/3 28/2/3 27/2/3
f 30/2/3 28/2/3 29/2/3
f 31/2/3 29/2/3 27/2/3
f 32/2/3 28/2/3 30/2/3
f 33/2/3 31/2/3 27/2/3
f 33/2/3 32/2/3 31/2/3
f 34/2/3 28/2/3 32/2/3
f 34/2/3 32/2/3 33/2/3
f 35/3/3 34/3/3 33/3/3
f 36/3/3 34/3/3 35/3/3
f 39/1/3 38/1/3 37/1/3
f 40/1/3 38/1/3 39/1/3
f 41/3/4 42/3/4 43/3/4
f 43/3/4 42/3/4 44/3/4
f 43/2/4 44/2/4 45/2/4
f 45/2/4 44/2/4 46/2/4
f 45/3/4 46/3/4 47/3/4
f 47/3/4 46/3/4 48/3/4
f 53/3/5 50/3/5 49/3/5
f 53/2/5 51/2/5 50/2/5
f 54/3/5 52/3/5 51/3/5
f 54/2/5 51/2/5 53/2/5
f 55/3/5 53/3/5 49/3/5
f 55/4/5 54/4/5 53/4/5
f 56/3/5 52/3/5 54/3/5
f 56/4/5 54/4/5 55/4/5
f 57/3/5 55/3/5 49/3/5
f 58/2/5 56/2/5 55/2/5
f 58/3/5 55/3/5 57/3/5
f 59/3/5 52/3/5 56/3/5
f 59/2/5 56/2/5 58/2/5
f 60/3/5 52/3/5 59/3/5
f 63/2/5 62/2/5 61/2/5
f 64/2/5 62/2/5 63/2/5
f 65/2/6 66/2/6 67/2/6
f 67/2/6 66/2/6 68/2/6
f 69/3/6 70/3/6 73/3/6
f 70/2/6 71/2/6 73/2/6
f 71/3/6 72/3/6 74/3/6
f 73/2/6 71/2/6 74/2/6
f 69/3/6 73/3/6 75/3/6
f 73/4/6 74/4/6 75/4/6
f 74/3/6 72/3/6 76/3/6
f 75/4/6 74/4/6 76/4/6
f 69/3/6 75/3/6 77/3/6
f 75/2/6 76/2/6 78/2/6
f 77/3/6 75/3/6 78/3/6
f 76/3/6 72/3/6 79/3/6
f 78/2/6 76/2/6 79/2/6
f 79/3/6 72/3/6 80/3/6
