# MagicaVoxel @ Ephtracy

# group
g FoundryObjects-8

# material
mtllib FoundryObjects-8.mtl
usemtl palette

# normals
vn -1 0 0
vn 1 0 0
vn 0 0 1
vn 0 0 -1
vn 0 -1 0
vn 0 1 0

# texcoords
vt 0.849609 0.5
vt 0.970703 0.5
vt 0.974609 0.5
vt 0.982422 0.5

# verts
v -8 1 8
v -8 1 -8
v -8 2 8
v -8 2 -8
v -8 4 8
v -8 4 -8
v -8 5 8
v -8 5 -8
v -8 6 8
v -8 6 -8
v -8 7 8
v -8 7 -8
v -7 0 7
v -7 0 -7
v -7 1 7
v -7 1 -7
v -7 7 7
v -7 7 -7
v -7 8 7
v -7 8 -7
v 7 0 7
v 7 0 -7
v 7 1 7
v 7 1 -7
v 7 7 7
v 7 7 -7
v 7 8 7
v 7 8 -7
v 8 1 8
v 8 1 -8
v 8 2 8
v 8 2 -8
v 8 4 8
v 8 4 -8
v 8 5 8
v 8 5 -8
v 8 6 8
v 8 6 -8
v 8 7 8
v 8 7 -8
v -8 1 8
v -8 2 8
v -8 4 8
v -8 5 8
v -8 6 8
v -8 7 8
v -3 1 8
v -3 2 8
v -3 4 8
v -3 5 8
v -3 6 8
v -3 7 8
v 3 1 8
v 3 2 8
v 3 4 8
v 3 5 8
v 3 6 8
v 3 7 8
v 8 1 8
v 8 2 8
v 8 4 8
v 8 5 8
v 8 6 8
v 8 7 8
v -7 0 7
v -7 1 7
v -7 7 7
v -7 8 7
v -3 0 7
v -3 1 7
v -3 7 7
v -3 8 7
v 3 0 7
v 3 1 7
v 3 7 7
v 3 8 7
v 7 0 7
v 7 1 7
v 7 7 7
v 7 8 7
v -7 0 -7
v -7 1 -7
v -7 7 -7
v -7 8 -7
v -3 0 -7
v -3 1 -7
v -3 7 -7
v -3 8 -7
v 3 0 -7
v 3 1 -7
v 3 7 -7
v 3 8 -7
v 7 0 -7
v 7 1 -7
v 7 7 -7
v 7 8 -7
v -8 1 -8
v -8 2 -8
v -8 4 -8
v -8 5 -8
v -8 6 -8
v -8 7 -8
v -6 3 -8
v -6 4 -8
v -3 1 -8
v -3 2 -8
v -3 3 -8
v -3 5 -8
v -3 6 -8
v -3 7 -8
v -2 3 -8
v -2 4 -8
v 2 3 -8
v 2 4 -8
v 3 1 -8
v 3 2 -8
v 3 3 -8
v 3 5 -8
v 3 6 -8
v 3 7 -8
v 6 3 -8
v 6 4 -8
v 8 1 -8
v 8 2 -8
v 8 4 -8
v 8 5 -8
v 8 6 -8
v 8 7 -8
v -7 0 7
v -3 0 7
v 3 0 7
v 7 0 7
v -6 0 6
v -3 0 6
v 3 0 6
v 6 0 6
v -6 0 -6
v -3 0 -6
v 3 0 -6
v 6 0 -6
v -7 0 -7
v -3 0 -7
v 3 0 -7
v 7 0 -7
v -8 1 8
v -3 1 8
v 3 1 8
v 8 1 8
v -7 1 7
v -3 1 7
v 3 1 7
v 7 1 7
v -7 1 -7
v -3 1 -7
v 3 1 -7
v 7 1 -7
v -8 1 -8
v -3 1 -8
v 3 1 -8
v 8 1 -8
v -8 7 8
v -3 7 8
v 3 7 8
v 8 7 8
v -7 7 7
v -3 7 7
v 3 7 7
v 7 7 7
v -7 7 -7
v -3 7 -7
v 3 7 -7
v 7 7 -7
v -8 7 -8
v -3 7 -8
v 3 7 -8
v 8 7 -8
v -7 8 7
v -3 8 7
v 3 8 7
v 7 8 7
v -6 8 6
v -3 8 6
v 3 8 6
v 6 8 6
v -6 8 -6
v -3 8 -6
v 3 8 -6
v 6 8 -6
v -7 8 -7
v -3 8 -7
v 3 8 -7
v 7 8 -7

# faces
f 3/2/1 2/2/1 1/2/1
f 4/2/1 2/2/1 3/2/1
f 5/4/1 4/4/1 3/4/1
f 6/4/1 4/4/1 5/4/1
f 7/1/1 6/1/1 5/1/1
f 8/1/1 6/1/1 7/1/1
f 9/4/1 8/4/1 7/4/1
f 10/4/1 8/4/1 9/4/1
f 11/2/1 10/2/1 9/2/1
f 12/2/1 10/2/1 11/2/1
f 15/2/1 14/2/1 13/2/1
f 16/2/1 14/2/1 15/2/1
f 19/2/1 18/2/1 17/2/1
f 20/2/1 18/2/1 19/2/1
f 21/2/2 22/2/2 23/2/2
f 23/2/2 22/2/2 24/2/2
f 25/2/2 26/2/2 27/2/2
f 27/2/2 26/2/2 28/2/2
f 29/2/2 30/2/2 31/2/2
f 31/2/2 30/2/2 32/2/2
f 31/4/2 32/4/2 33/4/2
f 33/4/2 32/4/2 34/4/2
f 33/1/2 34/1/2 35/1/2
f 35/1/2 34/1/2 36/1/2
f 35/4/2 36/4/2 37/4/2
f 37/4/2 36/4/2 38/4/2
f 37/2/2 38/2/2 39/2/2
f 39/2/2 38/2/2 40/2/2
f 47/2/3 42/2/3 41/2/3
f 48/4/3 43/4/3 42/4/3
f 48/2/3 42/2/3 47/2/3
f 49/1/3 44/1/3 43/1/3
f 49/4/3 43/4/3 48/4/3
f 50/4/3 45/4/3 44/4/3
f 50/1/3 44/1/3 49/1/3
f 51/2/3 46/2/3 45/2/3
f 51/4/3 45/4/3 50/4/3
f 52/2/3 46/2/3 51/2/3
f 53/3/3 48/3/3 47/3/3
f 53/3/3 49/3/3 48/3/3
f 54/3/3 49/3/3 53/3/3
f 55/1/3 50/1/3 49/1/3
f 55/3/3 49/3/3 54/3/3
f 56/3/3 52/3/3 51/3/3
f 56/1/3 50/1/3 55/1/3
f 56/3/3 51/3/3 50/3/3
f 57/3/3 52/3/3 56/3/3
f 58/3/3 52/3/3 57/3/3
f 59/2/3 54/2/3 53/2/3
f 60/4/3 55/4/3 54/4/3
f 60/2/3 54/2/3 59/2/3
f 61/1/3 56/1/3 55/1/3
f 61/4/3 55/4/3 60/4/3
f 62/4/3 57/4/3 56/4/3
f 62/1/3 56/1/3 61/1/3
f 63/2/3 58/2/3 57/2/3
f 63/4/3 57/4/3 62/4/3
f 64/2/3 58/2/3 63/2/3
f 69/2/3 66/2/3 65/2/3
f 70/2/3 66/2/3 69/2/3
f 71/2/3 68/2/3 67/2/3
f 72/2/3 68/2/3 71/2/3
f 73/3/3 70/3/3 69/3/3
f 74/3/3 70/3/3 73/3/3
f 75/3/3 72/3/3 71/3/3
f 76/3/3 72/3/3 75/3/3
f 77/2/3 74/2/3 73/2/3
f 78/2/3 74/2/3 77/2/3
f 79/2/3 76/2/3 75/2/3
f 80/2/3 76/2/3 79/2/3
f 81/2/4 82/2/4 85/2/4
f 85/2/4 82/2/4 86/2/4
f 83/2/4 84/2/4 87/2/4
f 87/2/4 84/2/4 88/2/4
f 85/3/4 86/3/4 89/3/4
f 89/3/4 86/3/4 90/3/4
f 87/3/4 88/3/4 91/3/4
f 91/3/4 88/3/4 92/3/4
f 89/2/4 90/2/4 93/2/4
f 93/2/4 90/2/4 94/2/4
f 91/2/4 92/2/4 95/2/4
f 95/2/4 92/2/4 96/2/4
f 98/4/4 99/4/4 103/4/4
f 99/1/4 100/1/4 104/1/4
f 103/4/4 99/4/4 104/4/4
f 97/2/4 98/2/4 105/2/4
f 98/4/4 103/4/4 106/4/4
f 105/2/4 98/2/4 106/2/4
f 103/1/4 104/1/4 107/1/4
f 106/4/4 103/4/4 107/4/4
f 104/1/4 100/1/4 108/1/4
f 107/1/4 104/1/4 108/1/4
f 100/4/4 101/4/4 108/4/4
f 101/2/4 102/2/4 109/2/4
f 108/4/4 101/4/4 109/4/4
f 109/2/4 102/2/4 110/2/4
f 106/3/4 107/3/4 111/3/4
f 107/1/4 108/1/4 111/1/4
f 105/3/4 106/3/4 111/3/4
f 111/1/4 108/1/4 112/1/4
f 105/3/4 111/3/4 113/3/4
f 111/3/4 112/3/4 113/3/4
f 112/1/4 108/1/4 114/1/4
f 113/3/4 112/3/4 114/3/4
f 105/3/4 113/3/4 115/3/4
f 115/3/4 113/3/4 116/3/4
f 113/1/4 114/1/4 117/1/4
f 116/3/4 113/3/4 117/3/4
f 109/3/4 110/3/4 118/3/4
f 117/1/4 114/1/4 118/1/4
f 108/3/4 109/3/4 118/3/4
f 114/1/4 108/1/4 118/1/4
f 118/3/4 110/3/4 119/3/4
f 119/3/4 110/3/4 120/3/4
f 116/4/4 117/4/4 121/4/4
f 117/1/4 118/1/4 121/1/4
f 121/1/4 118/1/4 122/1/4
f 115/2/4 116/2/4 123/2/4
f 116/4/4 121/4/4 124/4/4
f 123/2/4 116/2/4 124/2/4
f 121/4/4 122/4/4 124/4/4
f 122/1/4 118/1/4 125/1/4
f 124/4/4 122/4/4 125/4/4
f 118/4/4 119/4/4 126/4/4
f 125/1/4 118/1/4 126/1/4
f 119/2/4 120/2/4 127/2/4
f 126/4/4 119/4/4 127/4/4
f 127/2/4 120/2/4 128/2/4
f 133/2/5 130/2/5 129/2/5
f 134/3/5 131/3/5 130/3/5
f 134/2/5 130/2/5 133/2/5
f 135/2/5 132/2/5 131/2/5
f 135/3/5 131/3/5 134/3/5
f 136/2/5 132/2/5 135/2/5
f 137/4/5 134/4/5 133/4/5
f 137/2/5 133/2/5 129/2/5
f 138/3/5 135/3/5 134/3/5
f 138/4/5 134/4/5 137/4/5
f 139/4/5 136/4/5 135/4/5
f 139/3/5 135/3/5 138/3/5
f 140/2/5 132/2/5 136/2/5
f 140/4/5 136/4/5 139/4/5
f 141/2/5 138/2/5 137/2/5
f 141/2/5 137/2/5 129/2/5
f 142/3/5 139/3/5 138/3/5
f 142/2/5 138/2/5 141/2/5
f 143/2/5 140/2/5 139/2/5
f 143/3/5 139/3/5 142/3/5
f 144/2/5 132/2/5 140/2/5
f 144/2/5 140/2/5 143/2/5
f 149/2/5 146/2/5 145/2/5
f 150/3/5 147/3/5 146/3/5
f 150/2/5 146/2/5 149/2/5
f 151/2/5 148/2/5 147/2/5
f 151/3/5 147/3/5 150/3/5
f 152/2/5 148/2/5 151/2/5
f 153/2/5 149/2/5 145/2/5
f 156/2/5 148/2/5 152/2/5
f 157/2/5 153/2/5 145/2/5
f 157/2/5 154/2/5 153/2/5
f 158/3/5 155/3/5 154/3/5
f 158/2/5 154/2/5 157/2/5
f 159/2/5 156/2/5 155/2/5
f 159/3/5 155/3/5 158/3/5
f 160/2/5 148/2/5 156/2/5
f 160/2/5 156/2/5 159/2/5
f 161/2/6 162/2/6 165/2/6
f 162/3/6 163/3/6 166/3/6
f 165/2/6 162/2/6 166/2/6
f 163/2/6 164/2/6 167/2/6
f 166/3/6 163/3/6 167/3/6
f 167/2/6 164/2/6 168/2/6
f 161/2/6 165/2/6 169/2/6
f 168/2/6 164/2/6 172/2/6
f 161/2/6 169/2/6 173/2/6
f 169/2/6 170/2/6 173/2/6
f 170/3/6 171/3/6 174/3/6
f 173/2/6 170/2/6 174/2/6
f 171/2/6 172/2/6 175/2/6
f 174/3/6 171/3/6 175/3/6
f 172/2/6 164/2/6 176/2/6
f 175/2/6 172/2/6 176/2/6
f 177/2/6 178/2/6 181/2/6
f 178/3/6 179/3/6 182/3/6
f 181/2/6 178/2/6 182/2/6
f 179/2/6 180/2/6 183/2/6
f 182/3/6 179/3/6 183/3/6
f 183/2/6 180/2/6 184/2/6
f 181/4/6 182/4/6 185/4/6
f 177/2/6 181/2/6 185/2/6
f 182/3/6 183/3/6 186/3/6
f 185/4/6 182/4/6 186/4/6
f 183/4/6 184/4/6 187/4/6
f 186/3/6 183/3/6 187/3/6
f 184/2/6 180/2/6 188/2/6
f 187/4/6 184/4/6 188/4/6
f 185/2/6 186/2/6 189/2/6
f 177/2/6 185/2/6 189/2/6
f 186/3/6 187/3/6 190/3/6
f 189/2/6 186/2/6 190/2/6
f 187/2/6 188/2/6 191/2/6
f 190/3/6 187/3/6 191/3/6
f 188/2/6 180/2/6 192/2/6
f 191/2/6 188/2/6 192/2/6
