# MagicaVoxel @ Ephtracy

# group
g FoundryObjects-1

# material
mtllib FoundryObjects-1.mtl
usemtl palette

# normals
vn -1 0 0
vn 1 0 0
vn 0 0 1
vn 0 0 -1
vn 0 -1 0
vn 0 1 0

# texcoords
vt 0.908203 0.5
vt 0.974609 0.5
vt 0.978516 0.5

# verts
v -16 0 0.5
v -16 0 -0.5
v -16 10 0.5
v -16 10 -0.5
v -16 11 0.5
v -16 11 -0.5
v -16 24 0.5
v -16 24 -0.5
v -16 25 0.5
v -16 25 -0.5
v -16 32 0.5
v -16 32 -0.5
v 14 0 0.5
v 14 0 -0.5
v 14 32 0.5
v 14 32 -0.5
v -14 0 0.5
v -14 0 -0.5
v -14 32 0.5
v -14 32 -0.5
v 16 0 0.5
v 16 0 -0.5
v 16 10 0.5
v 16 10 -0.5
v 16 11 0.5
v 16 11 -0.5
v 16 24 0.5
v 16 24 -0.5
v 16 25 0.5
v 16 25 -0.5
v 16 32 0.5
v 16 32 -0.5
v -16 0 0.5
v -16 10 0.5
v -16 11 0.5
v -16 24 0.5
v -16 25 0.5
v -16 32 0.5
v -15 0 0.5
v -15 10 0.5
v -15 11 0.5
v -15 24 0.5
v -15 25 0.5
v -15 32 0.5
v -14 0 0.5
v -14 32 0.5
v 14 0 0.5
v 14 32 0.5
v 15 0 0.5
v 15 10 0.5
v 15 11 0.5
v 15 24 0.5
v 15 25 0.5
v 15 32 0.5
v 16 0 0.5
v 16 10 0.5
v 16 11 0.5
v 16 24 0.5
v 16 25 0.5
v 16 32 0.5
v -16 0 -0.5
v -16 10 -0.5
v -16 11 -0.5
v -16 24 -0.5
v -16 25 -0.5
v -16 32 -0.5
v -15 0 -0.5
v -15 10 -0.5
v -15 11 -0.5
v -15 24 -0.5
v -15 25 -0.5
v -15 32 -0.5
v -14 0 -0.5
v -14 32 -0.5
v 14 0 -0.5
v 14 32 -0.5
v 15 0 -0.5
v 15 10 -0.5
v 15 11 -0.5
v 15 24 -0.5
v 15 25 -0.5
v 15 32 -0.5
v 16 0 -0.5
v 16 10 -0.5
v 16 11 -0.5
v 16 24 -0.5
v 16 25 -0.5
v 16 32 -0.5
v -16 0 0.5
v -15 0 0.5
v -14 0 0.5
v 14 0 0.5
v 15 0 0.5
v 16 0 0.5
v -16 0 -0.5
v -15 0 -0.5
v -14 0 -0.5
v 14 0 -0.5
v 15 0 -0.5
v 16 0 -0.5
v -16 32 0.5
v -15 32 0.5
v -14 32 0.5
v 14 32 0.5
v 15 32 0.5
v 16 32 0.5
v -16 32 -0.5
v -15 32 -0.5
v -14 32 -0.5
v 14 32 -0.5
v 15 32 -0.5
v 16 32 -0.5

# faces
f 3/2/1 2/2/1 1/2/1
f 4/2/1 2/2/1 3/2/1
f 5/1/1 4/1/1 3/1/1
f 6/1/1 4/1/1 5/1/1
f 7/2/1 6/2/1 5/2/1
f 8/2/1 6/2/1 7/2/1
f 9/1/1 8/1/1 7/1/1
f 10/1/1 8/1/1 9/1/1
f 11/2/1 10/2/1 9/2/1
f 12/2/1 10/2/1 11/2/1
f 15/3/1 14/3/1 13/3/1
f 16/3/1 14/3/1 15/3/1
f 17/3/2 18/3/2 19/3/2
f 19/3/2 18/3/2 20/3/2
f 21/2/2 22/2/2 23/2/2
f 23/2/2 22/2/2 24/2/2
f 23/1/2 24/1/2 25/1/2
f 25/1/2 24/1/2 26/1/2
f 25/2/2 26/2/2 27/2/2
f 27/2/2 26/2/2 28/2/2
f 27/1/2 28/1/2 29/1/2
f 29/1/2 28/1/2 30/1/2
f 29/2/2 30/2/2 31/2/2
f 31/2/2 30/2/2 32/2/2
f 39/2/3 34/2/3 33/2/3
f 40/1/3 35/1/3 34/1/3
f 40/2/3 34/2/3 39/2/3
f 41/2/3 36/2/3 35/2/3
f 41/1/3 35/1/3 40/1/3
f 42/1/3 37/1/3 36/1/3
f 42/2/3 36/2/3 41/2/3
f 43/2/3 38/2/3 37/2/3
f 43/1/3 37/1/3 42/1/3
f 44/2/3 38/2/3 43/2/3
f 45/3/3 42/3/3 41/3/3
f 45/3/3 40/3/3 39/3/3
f 45/3/3 44/3/3 43/3/3
f 45/3/3 43/3/3 42/3/3
f 45/3/3 41/3/3 40/3/3
f 46/3/3 44/3/3 45/3/3
f 49/3/3 48/3/3 47/3/3
f 50/3/3 48/3/3 49/3/3
f 51/3/3 48/3/3 50/3/3
f 52/3/3 48/3/3 51/3/3
f 53/3/3 48/3/3 52/3/3
f 54/3/3 48/3/3 53/3/3
f 55/2/3 50/2/3 49/2/3
f 56/1/3 51/1/3 50/1/3
f 56/2/3 50/2/3 55/2/3
f 57/2/3 52/2/3 51/2/3
f 57/1/3 51/1/3 56/1/3
f 58/1/3 53/1/3 52/1/3
f 58/2/3 52/2/3 57/2/3
f 59/2/3 54/2/3 53/2/3
f 59/1/3 53/1/3 58/1/3
f 60/2/3 54/2/3 59/2/3
f 61/2/4 62/2/4 67/2/4
f 62/1/4 63/1/4 68/1/4
f 67/2/4 62/2/4 68/2/4
f 63/2/4 64/2/4 69/2/4
f 68/1/4 63/1/4 69/1/4
f 64/1/4 65/1/4 70/1/4
f 69/2/4 64/2/4 70/2/4
f 65/2/4 66/2/4 71/2/4
f 70/1/4 65/1/4 71/1/4
f 71/2/4 66/2/4 72/2/4
f 69/3/4 70/3/4 73/3/4
f 67/3/4 68/3/4 73/3/4
f 71/3/4 72/3/4 73/3/4
f 70/3/4 71/3/4 73/3/4
f 68/3/4 69/3/4 73/3/4
f 73/3/4 72/3/4 74/3/4
f 75/3/4 76/3/4 77/3/4
f 77/3/4 76/3/4 78/3/4
f 78/3/4 76/3/4 79/3/4
f 79/3/4 76/3/4 80/3/4
f 80/3/4 76/3/4 81/3/4
f 81/3/4 76/3/4 82/3/4
f 77/2/4 78/2/4 83/2/4
f 78/1/4 79/1/4 84/1/4
f 83/2/4 78/2/4 84/2/4
f 79/2/4 80/2/4 85/2/4
f 84/1/4 79/1/4 85/1/4
f 80/1/4 81/1/4 86/1/4
f 85/2/4 80/2/4 86/2/4
f 81/2/4 82/2/4 87/2/4
f 86/1/4 81/1/4 87/1/4
f 87/2/4 82/2/4 88/2/4
f 95/2/5 90/2/5 89/2/5
f 96/3/5 91/3/5 90/3/5
f 96/2/5 90/2/5 95/2/5
f 97/3/5 91/3/5 96/3/5
f 98/3/5 93/3/5 92/3/5
f 99/2/5 94/2/5 93/2/5
f 99/3/5 93/3/5 98/3/5
f 100/2/5 94/2/5 99/2/5
f 101/2/6 102/2/6 107/2/6
f 102/3/6 103/3/6 108/3/6
f 107/2/6 102/2/6 108/2/6
f 108/3/6 103/3/6 109/3/6
f 104/3/6 105/3/6 110/3/6
f 105/2/6 106/2/6 111/2/6
f 110/3/6 105/3/6 111/3/6
f 111/2/6 106/2/6 112/2/6
