# MagicaVoxel @ Ephtracy

# group
g FoundryObjects-5

# material
mtllib FoundryObjects-5.mtl
usemtl palette

# normals
vn -1 0 0
vn 1 0 0
vn 0 0 1
vn 0 0 -1
vn 0 -1 0
vn 0 1 0

# texcoords
vt 0.943359 0.5
vt 0.970703 0.5
vt 0.974609 0.5

# verts
v -8 1 7
v -8 1 -7
v -8 2 7
v -8 2 2
v -8 2 -2
v -8 2 -7
v -8 3 1
v -8 3 -1
v -8 13 1
v -8 13 -1
v -8 14 7
v -8 14 2
v -8 14 -2
v -8 14 -7
v -8 15 7
v -8 15 -7
v -7 0 7
v -7 0 -7
v -7 1 8
v -7 1 7
v -7 1 -7
v -7 1 -8
v -7 2 8
v -7 2 7
v -7 2 -7
v -7 2 -8
v -7 14 8
v -7 14 7
v -7 14 -7
v -7 14 -8
v -7 15 8
v -7 15 7
v -7 15 -7
v -7 15 -8
v -7 16 7
v -7 16 -7
v 7 0 7
v 7 0 -7
v 7 1 8
v 7 1 7
v 7 1 -7
v 7 1 -8
v 7 2 8
v 7 2 7
v 7 2 -7
v 7 2 -8
v 7 14 8
v 7 14 7
v 7 14 -7
v 7 14 -8
v 7 15 8
v 7 15 7
v 7 15 -7
v 7 15 -8
v 7 16 7
v 7 16 -7
v 8 1 7
v 8 1 -7
v 8 2 7
v 8 2 2
v 8 2 -2
v 8 2 -7
v 8 3 1
v 8 3 -1
v 8 13 1
v 8 13 -1
v 8 14 7
v 8 14 2
v 8 14 -2
v 8 14 -7
v 8 15 7
v 8 15 -7
v -7 1 8
v -7 2 8
v -7 14 8
v -7 15 8
v -2 2 8
v -2 14 8
v -1 3 8
v -1 13 8
v 1 3 8
v 1 13 8
v 2 2 8
v 2 14 8
v 7 1 8
v 7 2 8
v 7 14 8
v 7 15 8
v -8 1 7
v -8 2 7
v -8 14 7
v -8 15 7
v -7 0 7
v -7 1 7
v -7 2 7
v -7 14 7
v -7 15 7
v -7 16 7
v 7 0 7
v 7 1 7
v 7 2 7
v 7 14 7
v 7 15 7
v 7 16 7
v 8 1 7
v 8 2 7
v 8 14 7
v 8 15 7
v -8 1 -7
v -8 2 -7
v -8 14 -7
v -8 15 -7
v -7 0 -7
v -7 1 -7
v -7 2 -7
v -7 14 -7
v -7 15 -7
v -7 16 -7
v 7 0 -7
v 7 1 -7
v 7 2 -7
v 7 14 -7
v 7 15 -7
v 7 16 -7
v 8 1 -7
v 8 2 -7
v 8 14 -7
v 8 15 -7
v -7 1 -8
v -7 2 -8
v -7 14 -8
v -7 15 -8
v -2 2 -8
v -2 14 -8
v -1 3 -8
v -1 13 -8
v 1 3 -8
v 1 13 -8
v 2 2 -8
v 2 14 -8
v 7 1 -8
v 7 2 -8
v 7 14 -8
v 7 15 -8
v -7 0 7
v 7 0 7
v -6 0 6
v 6 0 6
v -6 0 -6
v 6 0 -6
v -7 0 -7
v 7 0 -7
v -7 1 8
v 7 1 8
v -8 1 7
v -7 1 7
v 7 1 7
v 8 1 7
v -8 1 -7
v -7 1 -7
v 7 1 -7
v 8 1 -7
v -7 1 -8
v 7 1 -8
v -7 15 8
v 7 15 8
v -8 15 7
v -7 15 7
v 7 15 7
v 8 15 7
v -8 15 -7
v -7 15 -7
v 7 15 -7
v 8 15 -7
v -7 15 -8
v 7 15 -8
v -7 16 7
v 7 16 7
v -6 16 6
v 6 16 6
v -6 16 -6
v 6 16 -6
v -7 16 -7
v 7 16 -7

# faces
f 3/3/1 2/3/1 1/3/1
f 4/3/1 2/3/1 3/3/1
f 5/3/1 2/3/1 4/3/1
f 6/3/1 2/3/1 5/3/1
f 7/3/1 5/3/1 4/3/1
f 8/3/1 5/3/1 7/3/1
f 9/3/1 7/3/1 4/3/1
f 9/2/1 8/2/1 7/2/1
f 10/3/1 5/3/1 8/3/1
f 10/2/1 8/2/1 9/2/1
f 11/1/1 4/1/1 3/1/1
f 12/3/1 9/3/1 4/3/1
f 12/1/1 4/1/1 11/1/1
f 12/3/1 10/3/1 9/3/1
f 13/3/1 5/3/1 10/3/1
f 13/3/1 10/3/1 12/3/1
f 13/1/1 6/1/1 5/1/1
f 14/1/1 6/1/1 13/1/1
f 15/3/1 12/3/1 11/3/1
f 15/3/1 13/3/1 12/3/1
f 15/3/1 14/3/1 13/3/1
f 16/3/1 14/3/1 15/3/1
f 20/3/1 18/3/1 17/3/1
f 21/3/1 18/3/1 20/3/1
f 23/3/1 20/3/1 19/3/1
f 24/3/1 20/3/1 23/3/1
f 25/3/1 22/3/1 21/3/1
f 26/3/1 22/3/1 25/3/1
f 27/1/1 24/1/1 23/1/1
f 28/1/1 24/1/1 27/1/1
f 29/1/1 26/1/1 25/1/1
f 30/1/1 26/1/1 29/1/1
f 31/3/1 28/3/1 27/3/1
f 32/3/1 28/3/1 31/3/1
f 33/3/1 30/3/1 29/3/1
f 34/3/1 30/3/1 33/3/1
f 35/3/1 33/3/1 32/3/1
f 36/3/1 33/3/1 35/3/1
f 37/3/2 38/3/2 40/3/2
f 40/3/2 38/3/2 41/3/2
f 39/3/2 40/3/2 43/3/2
f 43/3/2 40/3/2 44/3/2
f 41/3/2 42/3/2 45/3/2
f 45/3/2 42/3/2 46/3/2
f 43/1/2 44/1/2 47/1/2
f 47/1/2 44/1/2 48/1/2
f 45/1/2 46/1/2 49/1/2
f 49/1/2 46/1/2 50/1/2
f 47/3/2 48/3/2 51/3/2
f 51/3/2 48/3/2 52/3/2
f 49/3/2 50/3/2 53/3/2
f 53/3/2 50/3/2 54/3/2
f 52/3/2 53/3/2 55/3/2
f 55/3/2 53/3/2 56/3/2
f 57/3/2 58/3/2 59/3/2
f 59/3/2 58/3/2 60/3/2
f 60/3/2 58/3/2 61/3/2
f 61/3/2 58/3/2 62/3/2
f 60/3/2 61/3/2 63/3/2
f 63/3/2 61/3/2 64/3/2
f 60/3/2 63/3/2 65/3/2
f 63/2/2 64/2/2 65/2/2
f 64/3/2 61/3/2 66/3/2
f 65/2/2 64/2/2 66/2/2
f 59/1/2 60/1/2 67/1/2
f 60/3/2 65/3/2 68/3/2
f 67/1/2 60/1/2 68/1/2
f 65/3/2 66/3/2 68/3/2
f 66/3/2 61/3/2 69/3/2
f 68/3/2 66/3/2 69/3/2
f 61/1/2 62/1/2 69/1/2
f 69/1/2 62/1/2 70/1/2
f 67/3/2 68/3/2 71/3/2
f 68/3/2 69/3/2 71/3/2
f 69/3/2 70/3/2 71/3/2
f 71/3/2 70/3/2 72/3/2
f 77/3/3 74/3/3 73/3/3
f 77/1/3 75/1/3 74/1/3
f 78/3/3 76/3/3 75/3/3
f 78/1/3 75/1/3 77/1/3
f 79/3/3 78/3/3 77/3/3
f 80/3/3 78/3/3 79/3/3
f 81/3/3 79/3/3 77/3/3
f 81/2/3 80/2/3 79/2/3
f 82/3/3 78/3/3 80/3/3
f 82/2/3 80/2/3 81/2/3
f 83/3/3 77/3/3 73/3/3
f 83/3/3 81/3/3 77/3/3
f 83/3/3 82/3/3 81/3/3
f 84/3/3 78/3/3 82/3/3
f 84/3/3 82/3/3 83/3/3
f 84/3/3 76/3/3 78/3/3
f 85/3/3 83/3/3 73/3/3
f 86/1/3 84/1/3 83/1/3
f 86/3/3 83/3/3 85/3/3
f 87/3/3 76/3/3 84/3/3
f 87/1/3 84/1/3 86/1/3
f 88/3/3 76/3/3 87/3/3
f 94/3/3 90/3/3 89/3/3
f 95/1/3 91/1/3 90/1/3
f 95/3/3 90/3/3 94/3/3
f 96/3/3 92/3/3 91/3/3
f 96/1/3 91/1/3 95/1/3
f 97/3/3 92/3/3 96/3/3
f 99/3/3 94/3/3 93/3/3
f 100/3/3 94/3/3 99/3/3
f 103/3/3 98/3/3 97/3/3
f 104/3/3 98/3/3 103/3/3
f 105/3/3 101/3/3 100/3/3
f 106/1/3 102/1/3 101/1/3
f 106/3/3 101/3/3 105/3/3
f 107/3/3 103/3/3 102/3/3
f 107/1/3 102/1/3 106/1/3
f 108/3/3 103/3/3 107/3/3
f 109/3/4 110/3/4 114/3/4
f 110/1/4 111/1/4 115/1/4
f 114/3/4 110/3/4 115/3/4
f 111/3/4 112/3/4 116/3/4
f 115/1/4 111/1/4 116/1/4
f 116/3/4 112/3/4 117/3/4
f 113/3/4 114/3/4 119/3/4
f 119/3/4 114/3/4 120/3/4
f 117/3/4 118/3/4 123/3/4
f 123/3/4 118/3/4 124/3/4
f 120/3/4 121/3/4 125/3/4
f 121/1/4 122/1/4 126/1/4
f 125/3/4 121/3/4 126/3/4
f 122/3/4 123/3/4 127/3/4
f 126/1/4 122/1/4 127/1/4
f 127/3/4 123/3/4 128/3/4
f 129/3/4 130/3/4 133/3/4
f 130/1/4 131/1/4 133/1/4
f 131/3/4 132/3/4 134/3/4
f 133/1/4 131/1/4 134/1/4
f 133/3/4 134/3/4 135/3/4
f 135/3/4 134/3/4 136/3/4
f 133/3/4 135/3/4 137/3/4
f 135/2/4 136/2/4 137/2/4
f 136/3/4 134/3/4 138/3/4
f 137/2/4 136/2/4 138/2/4
f 129/3/4 133/3/4 139/3/4
f 133/3/4 137/3/4 139/3/4
f 137/3/4 138/3/4 139/3/4
f 138/3/4 134/3/4 140/3/4
f 139/3/4 138/3/4 140/3/4
f 134/3/4 132/3/4 140/3/4
f 129/3/4 139/3/4 141/3/4
f 139/1/4 140/1/4 142/1/4
f 141/3/4 139/3/4 142/3/4
f 140/3/4 132/3/4 143/3/4
f 142/1/4 140/1/4 143/1/4
f 143/3/4 132/3/4 144/3/4
f 147/3/5 146/3/5 145/3/5
f 148/3/5 146/3/5 147/3/5
f 149/3/5 147/3/5 145/3/5
f 149/1/5 148/1/5 147/1/5
f 150/3/5 146/3/5 148/3/5
f 150/1/5 148/1/5 149/1/5
f 151/3/5 149/3/5 145/3/5
f 151/3/5 150/3/5 149/3/5
f 152/3/5 146/3/5 150/3/5
f 152/3/5 150/3/5 151/3/5
f 156/3/5 154/3/5 153/3/5
f 157/3/5 154/3/5 156/3/5
f 159/3/5 156/3/5 155/3/5
f 160/3/5 156/3/5 159/3/5
f 161/3/5 158/3/5 157/3/5
f 162/3/5 158/3/5 161/3/5
f 163/3/5 161/3/5 160/3/5
f 164/3/5 161/3/5 163/3/5
f 165/3/6 166/3/6 168/3/6
f 168/3/6 166/3/6 169/3/6
f 167/3/6 168/3/6 171/3/6
f 171/3/6 168/3/6 172/3/6
f 169/3/6 170/3/6 173/3/6
f 173/3/6 170/3/6 174/3/6
f 172/3/6 173/3/6 175/3/6
f 175/3/6 173/3/6 176/3/6
f 177/3/6 178/3/6 179/3/6
f 179/3/6 178/3/6 180/3/6
f 177/3/6 179/3/6 181/3/6
f 179/1/6 180/1/6 181/1/6
f 180/3/6 178/3/6 182/3/6
f 181/1/6 180/1/6 182/1/6
f 177/3/6 181/3/6 183/3/6
f 181/3/6 182/3/6 183/3/6
f 182/3/6 178/3/6 184/3/6
f 183/3/6 182/3/6 184/3/6
