# MagicaVoxel @ Ephtracy

# group
g FoundryObjects-6

# material
mtllib FoundryObjects-6.mtl
usemtl palette

# normals
vn -1 0 0
vn 1 0 0
vn 0 0 1
vn 0 0 -1
vn 0 -1 0
vn 0 1 0

# texcoords
vt 0.908203 0.5
vt 0.974609 0.5
vt 0.978516 0.5

# verts
v -16 3 0.5
v -16 3 -0.5
v -16 13 0.5
v -16 13 -0.5
v -15 2 0.5
v -15 2 -0.5
v -15 3 0.5
v -15 3 -0.5
v -15 13 0.5
v -15 13 -0.5
v -15 14 0.5
v -15 14 -0.5
v -10 0 0.5
v -10 0 -0.5
v -10 1 0.5
v -10 1 -0.5
v -10 2 0.5
v -10 2 -0.5
v -9 3 0.5
v -9 3 -0.5
v -9 4 0.5
v -9 4 -0.5
v -8 4 0.5
v -8 4 -0.5
v -8 5 0.5
v -8 5 -0.5
v -7 5 0.5
v -7 5 -0.5
v -7 6 0.5
v -7 6 -0.5
v -6 6 0.5
v -6 6 -0.5
v -6 7 0.5
v -6 7 -0.5
v -5 7 0.5
v -5 7 -0.5
v -5 8 0.5
v -5 8 -0.5
v -5 12 0.5
v -5 12 -0.5
v -5 13 0.5
v -5 13 -0.5
v -4 8 0.5
v -4 8 -0.5
v -4 12 0.5
v -4 12 -0.5
v 2 12 0.5
v 2 12 -0.5
v 2 13 0.5
v 2 13 -0.5
v 3 7 0.5
v 3 7 -0.5
v 3 12 0.5
v 3 12 -0.5
v 4 6 0.5
v 4 6 -0.5
v 4 7 0.5
v 4 7 -0.5
v 5 5 0.5
v 5 5 -0.5
v 5 6 0.5
v 5 6 -0.5
v 7 3 0.5
v 7 3 -0.5
v 7 4 0.5
v 7 4 -0.5
v 8 0 0.5
v 8 0 -0.5
v 8 1 0.5
v 8 1 -0.5
v 8 3 0.5
v 8 3 -0.5
v 14 3 0.5
v 14 3 -0.5
v 14 4 0.5
v 14 4 -0.5
v 14 12 0.5
v 14 12 -0.5
v 14 13 0.5
v 14 13 -0.5
v 15 4 0.5
v 15 4 -0.5
v 15 12 0.5
v 15 12 -0.5
v -15 4 0.5
v -15 4 -0.5
v -15 12 0.5
v -15 12 -0.5
v -14 3 0.5
v -14 3 -0.5
v -14 4 0.5
v -14 4 -0.5
v -14 12 0.5
v -14 12 -0.5
v -14 13 0.5
v -14 13 -0.5
v -8 0 0.5
v -8 0 -0.5
v -8 1 0.5
v -8 1 -0.5
v -8 3 0.5
v -8 3 -0.5
v -7 3 0.5
v -7 3 -0.5
v -7 4 0.5
v -7 4 -0.5
v -5 5 0.5
v -5 5 -0.5
v -5 6 0.5
v -5 6 -0.5
v -4 6 0.5
v -4 6 -0.5
v -4 7 0.5
v -4 7 -0.5
v -3 7 0.5
v -3 7 -0.5
v -3 12 0.5
v -3 12 -0.5
v -2 12 0.5
v -2 12 -0.5
v -2 13 0.5
v -2 13 -0.5
v 4 8 0.5
v 4 8 -0.5
v 4 12 0.5
v 4 12 -0.5
v 5 7 0.5
v 5 7 -0.5
v 5 8 0.5
v 5 8 -0.5
v 5 12 0.5
v 5 12 -0.5
v 5 13 0.5
v 5 13 -0.5
v 6 6 0.5
v 6 6 -0.5
v 6 7 0.5
v 6 7 -0.5
v 7 5 0.5
v 7 5 -0.5
v 7 6 0.5
v 7 6 -0.5
v 8 4 0.5
v 8 4 -0.5
v 8 5 0.5
v 8 5 -0.5
v 9 3 0.5
v 9 3 -0.5
v 9 4 0.5
v 9 4 -0.5
v 10 0 0.5
v 10 0 -0.5
v 10 1 0.5
v 10 1 -0.5
v 10 2 0.5
v 10 2 -0.5
v 15 2 0.5
v 15 2 -0.5
v 15 3 0.5
v 15 3 -0.5
v 15 13 0.5
v 15 13 -0.5
v 15 14 0.5
v 15 14 -0.5
v 16 3 0.5
v 16 3 -0.5
v 16 13 0.5
v 16 13 -0.5
v -16 3 0.5
v -16 13 0.5
v -15 2 0.5
v -15 3 0.5
v -15 4 0.5
v -15 12 0.5
v -15 13 0.5
v -15 14 0.5
v -14 3 0.5
v -14 4 0.5
v -14 12 0.5
v -14 13 0.5
v -10 0 0.5
v -10 1 0.5
v -10 2 0.5
v -10 3 0.5
v -9 3 0.5
v -9 4 0.5
v -8 0 0.5
v -8 1 0.5
v -8 3 0.5
v -8 4 0.5
v -8 5 0.5
v -7 3 0.5
v -7 4 0.5
v -7 5 0.5
v -7 6 0.5
v -6 4 0.5
v -6 5 0.5
v -6 6 0.5
v -6 7 0.5
v -5 5 0.5
v -5 6 0.5
v -5 7 0.5
v -5 8 0.5
v -5 12 0.5
v -5 13 0.5
v -5 14 0.5
v -4 6 0.5
v -4 7 0.5
v -4 8 0.5
v -4 12 0.5
v -4 13 0.5
v -4 14 0.5
v -3 7 0.5
v -3 12 0.5
v -3 13 0.5
v -3 14 0.5
v -2 12 0.5
v -2 13 0.5
v -2 14 0.5
v 2 12 0.5
v 2 13 0.5
v 2 14 0.5
v 3 7 0.5
v 3 12 0.5
v 3 13 0.5
v 3 14 0.5
v 4 6 0.5
v 4 7 0.5
v 4 8 0.5
v 4 12 0.5
v 4 13 0.5
v 4 14 0.5
v 5 5 0.5
v 5 6 0.5
v 5 7 0.5
v 5 8 0.5
v 5 12 0.5
v 5 13 0.5
v 5 14 0.5
v 6 4 0.5
v 6 5 0.5
v 6 6 0.5
v 6 7 0.5
v 7 3 0.5
v 7 4 0.5
v 7 5 0.5
v 7 6 0.5
v 8 0 0.5
v 8 1 0.5
v 8 3 0.5
v 8 4 0.5
v 8 5 0.5
v 9 3 0.5
v 9 4 0.5
v 10 0 0.5
v 10 1 0.5
v 10 2 0.5
v 10 3 0.5
v 14 3 0.5
v 14 4 0.5
v 14 12 0.5
v 14 13 0.5
v 15 2 0.5
v 15 3 0.5
v 15 4 0.5
v 15 12 0.5
v 15 13 0.5
v 15 14 0.5
v 16 3 0.5
v 16 13 0.5
v -16 3 -0.5
v -16 13 -0.5
v -15 2 -0.5
v -15 3 -0.5
v -15 4 -0.5
v -15 12 -0.5
v -15 13 -0.5
v -15 14 -0.5
v -14 3 -0.5
v -14 4 -0.5
v -14 12 -0.5
v -14 13 -0.5
v -10 0 -0.5
v -10 1 -0.5
v -10 2 -0.5
v -10 3 -0.5
v -9 3 -0.5
v -9 4 -0.5
v -8 0 -0.5
v -8 1 -0.5
v -8 3 -0.5
v -8 4 -0.5
v -8 5 -0.5
v -7 3 -0.5
v -7 4 -0.5
v -7 5 -0.5
v -7 6 -0.5
v -6 4 -0.5
v -6 5 -0.5
v -6 6 -0.5
v -6 7 -0.5
v -5 5 -0.5
v -5 6 -0.5
v -5 7 -0.5
v -5 8 -0.5
v -5 12 -0.5
v -5 13 -0.5
v -5 14 -0.5
v -4 6 -0.5
v -4 7 -0.5
v -4 8 -0.5
v -4 12 -0.5
v -4 13 -0.5
v -4 14 -0.5
v -3 7 -0.5
v -3 12 -0.5
v -3 13 -0.5
v -3 14 -0.5
v -2 12 -0.5
v -2 13 -0.5
v -2 14 -0.5
v 2 12 -0.5
v 2 13 -0.5
v 2 14 -0.5
v 3 7 -0.5
v 3 12 -0.5
v 3 13 -0.5
v 3 14 -0.5
v 4 6 -0.5
v 4 7 -0.5
v 4 8 -0.5
v 4 12 -0.5
v 4 13 -0.5
v 4 14 -0.5
v 5 5 -0.5
v 5 6 -0.5
v 5 7 -0.5
v 5 8 -0.5
v 5 12 -0.5
v 5 13 -0.5
v 5 14 -0.5
v 6 4 -0.5
v 6 5 -0.5
v 6 6 -0.5
v 6 7 -0.5
v 7 3 -0.5
v 7 4 -0.5
v 7 5 -0.5
v 7 6 -0.5
v 8 0 -0.5
v 8 1 -0.5
v 8 3 -0.5
v 8 4 -0.5
v 8 5 -0.5
v 9 3 -0.5
v 9 4 -0.5
v 10 0 -0.5
v 10 1 -0.5
v 10 2 -0.5
v 10 3 -0.5
v 14 3 -0.5
v 14 4 -0.5
v 14 12 -0.5
v 14 13 -0.5
v 15 2 -0.5
v 15 3 -0.5
v 15 4 -0.5
v 15 12 -0.5
v 15 13 -0.5
v 15 14 -0.5
v 16 3 -0.5
v 16 13 -0.5
v -10 0 0.5
v -8 0 0.5
v 8 0 0.5
v 10 0 0.5
v -10 0 -0.5
v -8 0 -0.5
v 8 0 -0.5
v 10 0 -0.5
v -15 2 0.5
v -10 2 0.5
v 10 2 0.5
v 15 2 0.5
v -15 2 -0.5
v -10 2 -0.5
v 10 2 -0.5
v 15 2 -0.5
v -16 3 0.5
v -15 3 0.5
v -8 3 0.5
v -7 3 0.5
v 7 3 0.5
v 8 3 0.5
v 15 3 0.5
v 16 3 0.5
v -16 3 -0.5
v -15 3 -0.5
v -8 3 -0.5
v -7 3 -0.5
v 7 3 -0.5
v 8 3 -0.5
v 15 3 -0.5
v 16 3 -0.5
v -7 4 0.5
v -6 4 0.5
v 6 4 0.5
v 7 4 0.5
v -7 4 -0.5
v -6 4 -0.5
v 6 4 -0.5
v 7 4 -0.5
v -5 6 0.5
v -4 6 0.5
v 4 6 0.5
v 5 6 0.5
v -5 6 -0.5
v -4 6 -0.5
v 4 6 -0.5
v 5 6 -0.5
v -4 7 0.5
v -3 7 0.5
v 3 7 0.5
v 4 7 0.5
v -4 7 -0.5
v -3 7 -0.5
v 3 7 -0.5
v 4 7 -0.5
v -15 12 0.5
v -14 12 0.5
v -5 12 0.5
v -4 12 0.5
v -3 12 0.5
v -2 12 0.5
v 2 12 0.5
v 3 12 0.5
v 4 12 0.5
v 5 12 0.5
v 14 12 0.5
v 15 12 0.5
v -15 12 -0.5
v -14 12 -0.5
v -5 12 -0.5
v -4 12 -0.5
v -3 12 -0.5
v -2 12 -0.5
v 2 12 -0.5
v 3 12 -0.5
v 4 12 -0.5
v 5 12 -0.5
v 14 12 -0.5
v 15 12 -0.5
v -14 13 0.5
v -5 13 0.5
v -2 13 0.5
v 2 13 0.5
v 5 13 0.5
v 14 13 0.5
v -14 13 -0.5
v -5 13 -0.5
v -2 13 -0.5
v 2 13 -0.5
v 5 13 -0.5
v 14 13 -0.5
v -14 3 0.5
v -10 3 0.5
v -9 3 0.5
v 9 3 0.5
v 10 3 0.5
v 14 3 0.5
v -14 3 -0.5
v -10 3 -0.5
v -9 3 -0.5
v 9 3 -0.5
v 10 3 -0.5
v 14 3 -0.5
v -15 4 0.5
v -14 4 0.5
v -9 4 0.5
v -8 4 0.5
v 8 4 0.5
v 9 4 0.5
v 14 4 0.5
v 15 4 0.5
v -15 4 -0.5
v -14 4 -0.5
v -9 4 -0.5
v -8 4 -0.5
v 8 4 -0.5
v 9 4 -0.5
v 14 4 -0.5
v 15 4 -0.5
v -8 5 0.5
v -7 5 0.5
v -5 5 0.5
v 5 5 0.5
v 7 5 0.5
v 8 5 0.5
v -8 5 -0.5
v -7 5 -0.5
v -5 5 -0.5
v 5 5 -0.5
v 7 5 -0.5
v 8 5 -0.5
v -7 6 0.5
v -6 6 0.5
v 6 6 0.5
v 7 6 0.5
v -7 6 -0.5
v -6 6 -0.5
v 6 6 -0.5
v 7 6 -0.5
v -6 7 0.5
v -5 7 0.5
v 5 7 0.5
v 6 7 0.5
v -6 7 -0.5
v -5 7 -0.5
v 5 7 -0.5
v 6 7 -0.5
v -5 8 0.5
v -4 8 0.5
v 4 8 0.5
v 5 8 0.5
v -5 8 -0.5
v -4 8 -0.5
v 4 8 -0.5
v 5 8 -0.5
v -16 13 0.5
v -15 13 0.5
v 15 13 0.5
v 16 13 0.5
v -16 13 -0.5
v -15 13 -0.5
v 15 13 -0.5
v 16 13 -0.5
v -15 14 0.5
v -5 14 0.5
v -4 14 0.5
v -3 14 0.5
v -2 14 0.5
v 2 14 0.5
v 3 14 0.5
v 4 14 0.5
v 5 14 0.5
v 15 14 0.5
v -15 14 -0.5
v -5 14 -0.5
v -4 14 -0.5
v -3 14 -0.5
v -2 14 -0.5
v 2 14 -0.5
v 3 14 -0.5
v 4 14 -0.5
v 5 14 -0.5
v 15 14 -0.5

# faces
f 3/3/1 2/3/1 1/3/1
f 4/3/1 2/3/1 3/3/1
f 7/2/1 6/2/1 5/2/1
f 8/2/1 6/2/1 7/2/1
f 11/2/1 10/2/1 9/2/1
f 12/2/1 10/2/1 11/2/1
f 15/2/1 14/2/1 13/2/1
f 16/2/1 14/2/1 15/2/1
f 17/3/1 16/3/1 15/3/1
f 18/3/1 16/3/1 17/3/1
f 21/3/1 20/3/1 19/3/1
f 22/3/1 20/3/1 21/3/1
f 25/3/1 24/3/1 23/3/1
f 26/3/1 24/3/1 25/3/1
f 29/3/1 28/3/1 27/3/1
f 30/3/1 28/3/1 29/3/1
f 33/3/1 32/3/1 31/3/1
f 34/3/1 32/3/1 33/3/1
f 37/3/1 36/3/1 35/3/1
f 38/3/1 36/3/1 37/3/1
f 41/3/1 40/3/1 39/3/1
f 42/3/1 40/3/1 41/3/1
f 45/3/1 44/3/1 43/3/1
f 46/3/1 44/3/1 45/3/1
f 49/3/1 48/3/1 47/3/1
f 50/3/1 48/3/1 49/3/1
f 53/3/1 52/3/1 51/3/1
f 54/3/1 52/3/1 53/3/1
f 57/3/1 56/3/1 55/3/1
f 58/3/1 56/3/1 57/3/1
f 61/3/1 60/3/1 59/3/1
f 62/3/1 60/3/1 61/3/1
f 65/3/1 64/3/1 63/3/1
f 66/3/1 64/3/1 65/3/1
f 69/2/1 68/2/1 67/2/1
f 70/2/1 68/2/1 69/2/1
f 71/3/1 70/3/1 69/3/1
f 72/3/1 70/3/1 71/3/1
f 75/2/1 74/2/1 73/2/1
f 76/2/1 74/2/1 75/2/1
f 79/2/1 78/2/1 77/2/1
f 80/2/1 78/2/1 79/2/1
f 83/3/1 82/3/1 81/3/1
f 84/3/1 82/3/1 83/3/1
f 85/3/2 86/3/2 87/3/2
f 87/3/2 86/3/2 88/3/2
f 89/2/2 90/2/2 91/2/2
f 91/2/2 90/2/2 92/2/2
f 93/2/2 94/2/2 95/2/2
f 95/2/2 94/2/2 96/2/2
f 97/2/2 98/2/2 99/2/2
f 99/2/2 98/2/2 100/2/2
f 99/3/2 100/3/2 101/3/2
f 101/3/2 100/3/2 102/3/2
f 103/3/2 104/3/2 105/3/2
f 105/3/2 104/3/2 106/3/2
f 107/3/2 108/3/2 109/3/2
f 109/3/2 108/3/2 110/3/2
f 111/3/2 112/3/2 113/3/2
f 113/3/2 112/3/2 114/3/2
f 115/3/2 116/3/2 117/3/2
f 117/3/2 116/3/2 118/3/2
f 119/3/2 120/3/2 121/3/2
f 121/3/2 120/3/2 122/3/2
f 123/3/2 124/3/2 125/3/2
f 125/3/2 124/3/2 126/3/2
f 127/3/2 128/3/2 129/3/2
f 129/3/2 128/3/2 130/3/2
f 131/3/2 132/3/2 133/3/2
f 133/3/2 132/3/2 134/3/2
f 135/3/2 136/3/2 137/3/2
f 137/3/2 136/3/2 138/3/2
f 139/3/2 140/3/2 141/3/2
f 141/3/2 140/3/2 142/3/2
f 143/3/2 144/3/2 145/3/2
f 145/3/2 144/3/2 146/3/2
f 147/3/2 148/3/2 149/3/2
f 149/3/2 148/3/2 150/3/2
f 151/2/2 152/2/2 153/2/2
f 153/2/2 152/2/2 154/2/2
f 153/3/2 154/3/2 155/3/2
f 155/3/2 154/3/2 156/3/2
f 157/2/2 158/2/2 159/2/2
f 159/2/2 158/2/2 160/2/2
f 161/2/2 162/2/2 163/2/2
f 163/2/2 162/2/2 164/2/2
f 165/3/2 166/3/2 167/3/2
f 167/3/2 166/3/2 168/3/2
f 172/3/3 170/3/3 169/3/3
f 173/3/3 170/3/3 172/3/3
f 174/3/3 170/3/3 173/3/3
f 175/3/3 170/3/3 174/3/3
f 177/2/3 172/2/3 171/2/3
f 177/2/3 173/2/3 172/2/3
f 178/2/3 173/2/3 177/2/3
f 179/2/3 176/2/3 175/2/3
f 179/2/3 175/2/3 174/2/3
f 180/2/3 176/2/3 179/2/3
f 183/2/3 177/2/3 171/2/3
f 184/2/3 177/2/3 183/2/3
f 185/3/3 183/3/3 182/3/3
f 185/3/3 184/3/3 183/3/3
f 187/2/3 182/2/3 181/2/3
f 188/3/3 186/3/3 185/3/3
f 188/2/3 182/2/3 187/2/3
f 188/3/3 185/3/3 182/3/3
f 189/3/3 186/3/3 188/3/3
f 190/3/3 186/3/3 189/3/3
f 192/3/3 191/3/3 190/3/3
f 192/3/3 190/3/3 189/3/3
f 193/3/3 191/3/3 192/3/3
f 194/3/3 191/3/3 193/3/3
f 196/3/3 195/3/3 194/3/3
f 196/3/3 194/3/3 193/3/3
f 197/3/3 195/3/3 196/3/3
f 198/3/3 195/3/3 197/3/3
f 200/2/3 197/2/3 196/2/3
f 200/3/3 199/3/3 198/3/3
f 200/3/3 198/3/3 197/3/3
f 201/3/3 199/3/3 200/3/3
f 202/3/3 199/3/3 201/3/3
f 205/2/3 176/2/3 180/2/3
f 206/2/3 176/2/3 205/2/3
f 207/3/3 203/3/3 202/3/3
f 207/3/3 202/3/3 201/3/3
f 208/3/3 203/3/3 207/3/3
f 209/3/3 203/3/3 208/3/3
f 210/3/3 206/3/3 205/3/3
f 210/3/3 205/3/3 204/3/3
f 211/3/3 206/3/3 210/3/3
f 212/3/3 206/3/3 211/3/3
f 213/3/3 209/3/3 208/3/3
f 213/3/3 210/3/3 209/3/3
f 213/3/3 211/3/3 210/3/3
f 214/3/3 211/3/3 213/3/3
f 215/1/3 212/1/3 211/1/3
f 215/3/3 211/3/3 214/3/3
f 216/1/3 212/1/3 215/1/3
f 217/3/3 215/3/3 214/3/3
f 217/3/3 216/3/3 215/3/3
f 218/3/3 216/3/3 217/3/3
f 219/3/3 216/3/3 218/3/3
f 221/2/3 219/2/3 218/2/3
f 222/2/3 219/2/3 221/2/3
f 224/3/3 221/3/3 220/3/3
f 224/3/3 222/3/3 221/3/3
f 225/3/3 222/3/3 224/3/3
f 226/3/3 222/3/3 225/3/3
f 228/3/3 224/3/3 223/3/3
f 228/3/3 225/3/3 224/3/3
f 229/3/3 225/3/3 228/3/3
f 230/3/3 225/3/3 229/3/3
f 231/1/3 226/1/3 225/1/3
f 231/3/3 225/3/3 230/3/3
f 232/1/3 226/1/3 231/1/3
f 233/2/3 200/2/3 196/2/3
f 234/3/3 228/3/3 227/3/3
f 234/3/3 229/3/3 228/3/3
f 235/3/3 229/3/3 234/3/3
f 236/3/3 229/3/3 235/3/3
f 237/3/3 232/3/3 231/3/3
f 237/3/3 231/3/3 230/3/3
f 238/3/3 232/3/3 237/3/3
f 239/3/3 232/3/3 238/3/3
f 240/2/3 233/2/3 196/2/3
f 241/3/3 235/3/3 234/3/3
f 241/2/3 233/2/3 240/2/3
f 241/3/3 234/3/3 233/3/3
f 242/3/3 235/3/3 241/3/3
f 243/3/3 235/3/3 242/3/3
f 245/3/3 241/3/3 240/3/3
f 245/3/3 242/3/3 241/3/3
f 246/3/3 242/3/3 245/3/3
f 247/3/3 242/3/3 246/3/3
f 250/3/3 245/3/3 244/3/3
f 250/3/3 246/3/3 245/3/3
f 251/3/3 246/3/3 250/3/3
f 252/3/3 246/3/3 251/3/3
f 253/3/3 250/3/3 249/3/3
f 253/3/3 251/3/3 250/3/3
f 254/3/3 251/3/3 253/3/3
f 255/2/3 249/2/3 248/2/3
f 256/3/3 253/3/3 249/3/3
f 256/2/3 249/2/3 255/2/3
f 257/3/3 253/3/3 256/3/3
f 258/3/3 253/3/3 257/3/3
f 259/2/3 258/2/3 257/2/3
f 262/2/3 239/2/3 238/2/3
f 263/2/3 260/2/3 259/2/3
f 263/2/3 259/2/3 257/2/3
f 264/2/3 260/2/3 263/2/3
f 265/2/3 260/2/3 264/2/3
f 266/2/3 262/2/3 261/2/3
f 267/2/3 239/2/3 262/2/3
f 267/2/3 262/2/3 266/2/3
f 268/2/3 239/2/3 267/2/3
f 269/3/3 265/3/3 264/3/3
f 269/3/3 266/3/3 265/3/3
f 269/3/3 267/3/3 266/3/3
f 270/3/3 267/3/3 269/3/3
f 271/3/4 272/3/4 274/3/4
f 274/3/4 272/3/4 275/3/4
f 275/3/4 272/3/4 276/3/4
f 276/3/4 272/3/4 277/3/4
f 273/2/4 274/2/4 279/2/4
f 274/2/4 275/2/4 279/2/4
f 279/2/4 275/2/4 280/2/4
f 277/2/4 278/2/4 281/2/4
f 276/2/4 277/2/4 281/2/4
f 281/2/4 278/2/4 282/2/4
f 273/2/4 279/2/4 285/2/4
f 285/2/4 279/2/4 286/2/4
f 284/3/4 285/3/4 287/3/4
f 285/3/4 286/3/4 287/3/4
f 283/2/4 284/2/4 289/2/4
f 287/3/4 288/3/4 290/3/4
f 289/2/4 284/2/4 290/2/4
f 284/3/4 287/3/4 290/3/4
f 290/3/4 288/3/4 291/3/4
f 291/3/4 288/3/4 292/3/4
f 292/3/4 293/3/4 294/3/4
f 291/3/4 292/3/4 294/3/4
f 294/3/4 293/3/4 295/3/4
f 295/3/4 293/3/4 296/3/4
f 296/3/4 297/3/4 298/3/4
f 295/3/4 296/3/4 298/3/4
f 298/3/4 297/3/4 299/3/4
f 299/3/4 297/3/4 300/3/4
f 298/2/4 299/2/4 302/2/4
f 300/3/4 301/3/4 302/3/4
f 299/3/4 300/3/4 302/3/4
f 302/3/4 301/3/4 303/3/4
f 303/3/4 301/3/4 304/3/4
f 282/2/4 278/2/4 307/2/4
f 307/2/4 278/2/4 308/2/4
f 304/3/4 305/3/4 309/3/4
f 303/3/4 304/3/4 309/3/4
f 309/3/4 305/3/4 310/3/4
f 310/3/4 305/3/4 311/3/4
f 307/3/4 308/3/4 312/3/4
f 306/3/4 307/3/4 312/3/4
f 312/3/4 308/3/4 313/3/4
f 313/3/4 308/3/4 314/3/4
f 310/3/4 311/3/4 315/3/4
f 311/3/4 312/3/4 315/3/4
f 312/3/4 313/3/4 315/3/4
f 315/3/4 313/3/4 316/3/4
f 313/1/4 314/1/4 317/1/4
f 316/3/4 313/3/4 317/3/4
f 317/1/4 314/1/4 318/1/4
f 316/3/4 317/3/4 319/3/4
f 317/3/4 318/3/4 319/3/4
f 319/3/4 318/3/4 320/3/4
f 320/3/4 318/3/4 321/3/4
f 320/2/4 321/2/4 323/2/4
f 323/2/4 321/2/4 324/2/4
f 322/3/4 323/3/4 326/3/4
f 323/3/4 324/3/4 326/3/4
f 326/3/4 324/3/4 327/3/4
f 327/3/4 324/3/4 328/3/4
f 325/3/4 326/3/4 330/3/4
f 326/3/4 327/3/4 330/3/4
f 330/3/4 327/3/4 331/3/4
f 331/3/4 327/3/4 332/3/4
f 327/1/4 328/1/4 333/1/4
f 332/3/4 327/3/4 333/3/4
f 333/1/4 328/1/4 334/1/4
f 298/2/4 302/2/4 335/2/4
f 329/3/4 330/3/4 336/3/4
f 330/3/4 331/3/4 336/3/4
f 336/3/4 331/3/4 337/3/4
f 337/3/4 331/3/4 338/3/4
f 333/3/4 334/3/4 339/3/4
f 332/3/4 333/3/4 339/3/4
f 339/3/4 334/3/4 340/3/4
f 340/3/4 334/3/4 341/3/4
f 298/2/4 335/2/4 342/2/4
f 336/3/4 337/3/4 343/3/4
f 342/2/4 335/2/4 343/2/4
f 335/3/4 336/3/4 343/3/4
f 343/3/4 337/3/4 344/3/4
f 344/3/4 337/3/4 345/3/4
f 342/3/4 343/3/4 347/3/4
f 343/3/4 344/3/4 347/3/4
f 347/3/4 344/3/4 348/3/4
f 348/3/4 344/3/4 349/3/4
f 346/3/4 347/3/4 352/3/4
f 347/3/4 348/3/4 352/3/4
f 352/3/4 348/3/4 353/3/4
f 353/3/4 348/3/4 354/3/4
f 351/3/4 352/3/4 355/3/4
f 352/3/4 353/3/4 355/3/4
f 355/3/4 353/3/4 356/3/4
f 350/2/4 351/2/4 357/2/4
f 351/3/4 355/3/4 358/3/4
f 357/2/4 351/2/4 358/2/4
f 358/3/4 355/3/4 359/3/4
f 359/3/4 355/3/4 360/3/4
f 359/2/4 360/2/4 361/2/4
f 340/2/4 341/2/4 364/2/4
f 361/2/4 362/2/4 365/2/4
f 359/2/4 361/2/4 365/2/4
f 365/2/4 362/2/4 366/2/4
f 366/2/4 362/2/4 367/2/4
f 363/2/4 364/2/4 368/2/4
f 364/2/4 341/2/4 369/2/4
f 368/2/4 364/2/4 369/2/4
f 369/2/4 341/2/4 370/2/4
f 366/3/4 367/3/4 371/3/4
f 367/3/4 368/3/4 371/3/4
f 368/3/4 369/3/4 371/3/4
f 371/3/4 369/3/4 372/3/4
f 377/2/5 374/2/5 373/2/5
f 378/2/5 374/2/5 377/2/5
f 379/2/5 376/2/5 375/2/5
f 380/2/5 376/2/5 379/2/5
f 385/2/5 382/2/5 381/2/5
f 386/2/5 382/2/5 385/2/5
f 387/2/5 384/2/5 383/2/5
f 388/2/5 384/2/5 387/2/5
f 397/3/5 390/3/5 389/3/5
f 398/3/5 390/3/5 397/3/5
f 399/3/5 392/3/5 391/3/5
f 400/3/5 392/3/5 399/3/5
f 401/3/5 394/3/5 393/3/5
f 402/3/5 394/3/5 401/3/5
f 403/3/5 396/3/5 395/3/5
f 404/3/5 396/3/5 403/3/5
f 409/3/5 406/3/5 405/3/5
f 410/2/5 407/2/5 406/2/5
f 410/3/5 406/3/5 409/3/5
f 411/3/5 408/3/5 407/3/5
f 411/2/5 407/2/5 410/2/5
f 412/3/5 408/3/5 411/3/5
f 417/3/5 414/3/5 413/3/5
f 418/3/5 414/3/5 417/3/5
f 419/3/5 416/3/5 415/3/5
f 420/3/5 416/3/5 419/3/5
f 425/3/5 422/3/5 421/3/5
f 426/3/5 422/3/5 425/3/5
f 427/3/5 424/3/5 423/3/5
f 428/3/5 424/3/5 427/3/5
f 441/2/5 430/2/5 429/2/5
f 442/2/5 430/2/5 441/2/5
f 443/3/5 432/3/5 431/3/5
f 444/3/5 432/3/5 443/3/5
f 445/3/5 434/3/5 433/3/5
f 446/3/5 434/3/5 445/3/5
f 447/3/5 436/3/5 435/3/5
f 448/3/5 436/3/5 447/3/5
f 449/3/5 438/3/5 437/3/5
f 450/3/5 438/3/5 449/3/5
f 451/2/5 440/2/5 439/2/5
f 452/2/5 440/2/5 451/2/5
f 459/2/5 454/2/5 453/2/5
f 460/2/5 454/2/5 459/2/5
f 461/2/5 456/2/5 455/2/5
f 462/2/5 456/2/5 461/2/5
f 463/2/5 458/2/5 457/2/5
f 464/2/5 458/2/5 463/2/5
f 465/2/6 466/2/6 471/2/6
f 466/3/6 467/3/6 472/3/6
f 471/2/6 466/2/6 472/2/6
f 472/3/6 467/3/6 473/3/6
f 468/3/6 469/3/6 474/3/6
f 469/2/6 470/2/6 475/2/6
f 474/3/6 469/3/6 475/3/6
f 475/2/6 470/2/6 476/2/6
f 477/2/6 478/2/6 485/2/6
f 485/2/6 478/2/6 486/2/6
f 479/3/6 480/3/6 487/3/6
f 487/3/6 480/3/6 488/3/6
f 481/3/6 482/3/6 489/3/6
f 489/3/6 482/3/6 490/3/6
f 483/2/6 484/2/6 491/2/6
f 491/2/6 484/2/6 492/2/6
f 493/3/6 494/3/6 499/3/6
f 499/3/6 494/3/6 500/3/6
f 495/2/6 496/2/6 501/2/6
f 501/2/6 496/2/6 502/2/6
f 497/3/6 498/3/6 503/3/6
f 503/3/6 498/3/6 504/3/6
f 505/3/6 506/3/6 509/3/6
f 509/3/6 506/3/6 510/3/6
f 507/3/6 508/3/6 511/3/6
f 511/3/6 508/3/6 512/3/6
f 513/3/6 514/3/6 517/3/6
f 517/3/6 514/3/6 518/3/6
f 515/3/6 516/3/6 519/3/6
f 519/3/6 516/3/6 520/3/6
f 521/3/6 522/3/6 525/3/6
f 525/3/6 522/3/6 526/3/6
f 523/3/6 524/3/6 527/3/6
f 527/3/6 524/3/6 528/3/6
f 529/3/6 530/3/6 533/3/6
f 533/3/6 530/3/6 534/3/6
f 531/3/6 532/3/6 535/3/6
f 535/3/6 532/3/6 536/3/6
f 537/2/6 538/2/6 547/2/6
f 538/3/6 539/3/6 548/3/6
f 547/2/6 538/2/6 548/2/6
f 539/1/6 540/1/6 549/1/6
f 548/3/6 539/3/6 549/3/6
f 540/3/6 541/3/6 550/3/6
f 549/1/6 540/1/6 550/1/6
f 541/2/6 542/2/6 551/2/6
f 550/3/6 541/3/6 551/3/6
f 542/3/6 543/3/6 552/3/6
f 551/2/6 542/2/6 552/2/6
f 543/1/6 544/1/6 553/1/6
f 552/3/6 543/3/6 553/3/6
f 544/3/6 545/3/6 554/3/6
f 553/1/6 544/1/6 554/1/6
f 545/2/6 546/2/6 555/2/6
f 554/3/6 545/3/6 555/3/6
f 555/2/6 546/2/6 556/2/6
