# MagicaVoxel @ Ephtracy

# group
g FoundryObjects-16

# material
mtllib FoundryObjects-16.mtl
usemtl palette

# normals
vn -1 0 0
vn 1 0 0
vn 0 0 1
vn 0 0 -1
vn 0 -1 0
vn 0 1 0

# texcoords
vt 0.306641 0.5
vt 0.845703 0.5
vt 0.908203 0.5
vt 0.970703 0.5
vt 0.974609 0.5
vt 0.978516 0.5

# verts
v -32 0 0.5
v -32 0 -0.5
v -32 10 0.5
v -32 10 -0.5
v -32 11 0.5
v -32 11 -0.5
v -32 24 0.5
v -32 24 -0.5
v -32 25 0.5
v -32 25 -0.5
v -32 32 0.5
v -32 32 -0.5
v 32 0 0.5
v 32 0 -0.5
v 32 10 0.5
v 32 10 -0.5
v 32 11 0.5
v 32 11 -0.5
v 32 24 0.5
v 32 24 -0.5
v 32 25 0.5
v 32 25 -0.5
v 32 32 0.5
v 32 32 -0.5
v -32 0 0.5
v -32 10 0.5
v -32 11 0.5
v -32 24 0.5
v -32 25 0.5
v -32 32 0.5
v -31 0 0.5
v -31 10 0.5
v -31 11 0.5
v -31 24 0.5
v -31 25 0.5
v -31 32 0.5
v -30 0 0.5
v -30 32 0.5
v -29 1 0.5
v -29 4 0.5
v -29 15 0.5
v -29 17 0.5
v -29 30 0.5
v -29 31 0.5
v -27 3 0.5
v -27 4 0.5
v -27 13 0.5
v -27 19 0.5
v -27 29 0.5
v -25 1 0.5
v -25 3 0.5
v -25 30 0.5
v -25 31 0.5
v -9 1 0.5
v -9 3 0.5
v -9 30 0.5
v -9 31 0.5
v -8 19 0.5
v -8 23 0.5
v -6 17 0.5
v -6 21 0.5
v -5 12 0.5
v -5 13 0.5
v -4 15 0.5
v -4 19 0.5
v -3 14 0.5
v -3 15 0.5
v -3 17 0.5
v -3 18 0.5
v -2 14 0.5
v -2 15 0.5
v -2 17 0.5
v -2 18 0.5
v 2 14 0.5
v 2 15 0.5
v 2 17 0.5
v 2 18 0.5
v 3 14 0.5
v 3 15 0.5
v 3 17 0.5
v 3 18 0.5
v 4 15 0.5
v 4 19 0.5
v 5 12 0.5
v 5 13 0.5
v 6 17 0.5
v 6 21 0.5
v 8 1 0.5
v 8 3 0.5
v 8 19 0.5
v 8 23 0.5
v 9 30 0.5
v 9 31 0.5
v 24 1 0.5
v 24 3 0.5
v 25 30 0.5
v 25 31 0.5
v 27 3 0.5
v 27 4 0.5
v 27 13 0.5
v 27 19 0.5
v 27 29 0.5
v 29 1 0.5
v 29 4 0.5
v 29 15 0.5
v 29 17 0.5
v 29 30 0.5
v 29 31 0.5
v 30 0 0.5
v 30 32 0.5
v 31 0 0.5
v 31 10 0.5
v 31 11 0.5
v 31 24 0.5
v 31 25 0.5
v 31 32 0.5
v 32 0 0.5
v 32 10 0.5
v 32 11 0.5
v 32 24 0.5
v 32 25 0.5
v 32 32 0.5
v -32 0 -0.5
v -32 10 -0.5
v -32 11 -0.5
v -32 24 -0.5
v -32 25 -0.5
v -32 32 -0.5
v -31 0 -0.5
v -31 10 -0.5
v -31 11 -0.5
v -31 24 -0.5
v -31 25 -0.5
v -31 32 -0.5
v -30 0 -0.5
v -30 32 -0.5
v -29 1 -0.5
v -29 4 -0.5
v -29 15 -0.5
v -29 17 -0.5
v -29 30 -0.5
v -29 31 -0.5
v -27 3 -0.5
v -27 4 -0.5
v -27 13 -0.5
v -27 19 -0.5
v -27 29 -0.5
v -25 1 -0.5
v -25 3 -0.5
v -25 30 -0.5
v -25 31 -0.5
v -9 1 -0.5
v -9 3 -0.5
v -9 30 -0.5
v -9 31 -0.5
v -8 19 -0.5
v -8 23 -0.5
v -6 17 -0.5
v -6 21 -0.5
v -5 12 -0.5
v -5 13 -0.5
v -4 15 -0.5
v -4 19 -0.5
v -3 14 -0.5
v -3 15 -0.5
v -3 17 -0.5
v -3 18 -0.5
v -2 14 -0.5
v -2 15 -0.5
v -2 17 -0.5
v -2 18 -0.5
v 2 14 -0.5
v 2 15 -0.5
v 2 17 -0.5
v 2 18 -0.5
v 3 14 -0.5
v 3 15 -0.5
v 3 17 -0.5
v 3 18 -0.5
v 4 15 -0.5
v 4 19 -0.5
v 5 12 -0.5
v 5 13 -0.5
v 6 17 -0.5
v 6 21 -0.5
v 8 1 -0.5
v 8 3 -0.5
v 8 19 -0.5
v 8 23 -0.5
v 9 30 -0.5
v 9 31 -0.5
v 24 1 -0.5
v 24 3 -0.5
v 25 30 -0.5
v 25 31 -0.5
v 27 3 -0.5
v 27 4 -0.5
v 27 13 -0.5
v 27 19 -0.5
v 27 29 -0.5
v 29 1 -0.5
v 29 4 -0.5
v 29 15 -0.5
v 29 17 -0.5
v 29 30 -0.5
v 29 31 -0.5
v 30 0 -0.5
v 30 32 -0.5
v 31 0 -0.5
v 31 10 -0.5
v 31 11 -0.5
v 31 24 -0.5
v 31 25 -0.5
v 31 32 -0.5
v 32 0 -0.5
v 32 10 -0.5
v 32 11 -0.5
v 32 24 -0.5
v 32 25 -0.5
v 32 32 -0.5
v -32 0 0.5
v -31 0 0.5
v -30 0 0.5
v 30 0 0.5
v 31 0 0.5
v 32 0 0.5
v -32 0 -0.5
v -31 0 -0.5
v -30 0 -0.5
v 30 0 -0.5
v 31 0 -0.5
v 32 0 -0.5
v -32 32 0.5
v -31 32 0.5
v -30 32 0.5
v 30 32 0.5
v 31 32 0.5
v 32 32 0.5
v -32 32 -0.5
v -31 32 -0.5
v -30 32 -0.5
v 30 32 -0.5
v 31 32 -0.5
v 32 32 -0.5

# faces
f 3/5/1 2/5/1 1/5/1
f 4/5/1 2/5/1 3/5/1
f 5/3/1 4/3/1 3/3/1
f 6/3/1 4/3/1 5/3/1
f 7/5/1 6/5/1 5/5/1
f 8/5/1 6/5/1 7/5/1
f 9/3/1 8/3/1 7/3/1
f 10/3/1 8/3/1 9/3/1
f 11/5/1 10/5/1 9/5/1
f 12/5/1 10/5/1 11/5/1
f 13/5/2 14/5/2 15/5/2
f 15/5/2 14/5/2 16/5/2
f 15/3/2 16/3/2 17/3/2
f 17/3/2 16/3/2 18/3/2
f 17/5/2 18/5/2 19/5/2
f 19/5/2 18/5/2 20/5/2
f 19/3/2 20/3/2 21/3/2
f 21/3/2 20/3/2 22/3/2
f 21/5/2 22/5/2 23/5/2
f 23/5/2 22/5/2 24/5/2
f 31/5/3 26/5/3 25/5/3
f 32/3/3 27/3/3 26/3/3
f 32/5/3 26/5/3 31/5/3
f 33/5/3 28/5/3 27/5/3
f 33/3/3 27/3/3 32/3/3
f 34/3/3 29/3/3 28/3/3
f 34/5/3 28/5/3 33/5/3
f 35/5/3 30/5/3 29/5/3
f 35/3/3 29/3/3 34/3/3
f 36/5/3 30/5/3 35/5/3
f 37/6/3 34/6/3 33/6/3
f 37/6/3 32/6/3 31/6/3
f 37/6/3 36/6/3 35/6/3
f 37/6/3 35/6/3 34/6/3
f 37/6/3 33/6/3 32/6/3
f 38/6/3 36/6/3 37/6/3
f 39/5/3 38/5/3 37/5/3
f 40/5/3 38/5/3 39/5/3
f 41/5/3 38/5/3 40/5/3
f 42/5/3 38/5/3 41/5/3
f 43/5/3 38/5/3 42/5/3
f 44/5/3 38/5/3 43/5/3
f 45/1/3 40/1/3 39/1/3
f 46/4/3 41/4/3 40/4/3
f 46/1/3 40/1/3 45/1/3
f 47/4/3 41/4/3 46/4/3
f 48/4/3 43/4/3 42/4/3
f 49/4/3 43/4/3 48/4/3
f 50/5/3 39/5/3 37/5/3
f 50/1/3 45/1/3 39/1/3
f 51/6/3 46/6/3 45/6/3
f 51/1/3 45/1/3 50/1/3
f 51/6/3 47/6/3 46/6/3
f 52/4/3 43/4/3 49/4/3
f 52/1/3 44/1/3 43/1/3
f 53/5/3 38/5/3 44/5/3
f 53/1/3 44/1/3 52/1/3
f 54/4/3 51/4/3 50/4/3
f 54/5/3 50/5/3 37/5/3
f 55/6/3 47/6/3 51/6/3
f 55/4/3 51/4/3 54/4/3
f 56/4/3 52/4/3 49/4/3
f 56/4/3 53/4/3 52/4/3
f 57/5/3 38/5/3 53/5/3
f 57/4/3 53/4/3 56/4/3
f 58/6/3 49/6/3 48/6/3
f 58/4/3 48/4/3 42/4/3
f 59/6/3 49/6/3 58/6/3
f 60/5/3 42/5/3 41/5/3
f 60/4/3 58/4/3 42/4/3
f 60/4/3 59/4/3 58/4/3
f 61/4/3 59/4/3 60/4/3
f 62/6/3 47/6/3 55/6/3
f 63/4/3 41/4/3 47/4/3
f 63/6/3 47/6/3 62/6/3
f 64/5/3 60/5/3 41/5/3
f 64/4/3 41/4/3 63/4/3
f 64/4/3 63/4/3 62/4/3
f 64/5/3 61/5/3 60/5/3
f 65/5/3 61/5/3 64/5/3
f 66/4/3 64/4/3 62/4/3
f 66/4/3 65/4/3 64/4/3
f 67/4/3 65/4/3 66/4/3
f 68/4/3 65/4/3 67/4/3
f 69/4/3 65/4/3 68/4/3
f 70/4/3 66/4/3 62/4/3
f 70/2/3 67/2/3 66/2/3
f 71/6/3 68/6/3 67/6/3
f 71/2/3 67/2/3 70/2/3
f 72/2/3 69/2/3 68/2/3
f 72/6/3 68/6/3 71/6/3
f 73/4/3 65/4/3 69/4/3
f 73/2/3 69/2/3 72/2/3
f 74/6/3 71/6/3 70/6/3
f 74/4/3 70/4/3 62/4/3
f 75/2/3 72/2/3 71/2/3
f 75/6/3 71/6/3 74/6/3
f 76/6/3 73/6/3 72/6/3
f 76/2/3 72/2/3 75/2/3
f 77/4/3 65/4/3 73/4/3
f 77/6/3 73/6/3 76/6/3
f 78/4/3 74/4/3 62/4/3
f 78/2/3 75/2/3 74/2/3
f 79/6/3 76/6/3 75/6/3
f 79/2/3 75/2/3 78/2/3
f 80/2/3 77/2/3 76/2/3
f 80/6/3 76/6/3 79/6/3
f 81/4/3 65/4/3 77/4/3
f 81/2/3 77/2/3 80/2/3
f 82/4/3 80/4/3 79/4/3
f 82/4/3 79/4/3 78/4/3
f 82/4/3 81/4/3 80/4/3
f 83/5/3 61/5/3 65/5/3
f 83/4/3 81/4/3 82/4/3
f 83/4/3 65/4/3 81/4/3
f 84/6/3 62/6/3 55/6/3
f 84/4/3 82/4/3 78/4/3
f 84/4/3 78/4/3 62/4/3
f 85/4/3 82/4/3 84/4/3
f 86/5/3 83/5/3 82/5/3
f 87/4/3 59/4/3 61/4/3
f 87/5/3 83/5/3 86/5/3
f 87/5/3 61/5/3 83/5/3
f 88/5/3 54/5/3 37/5/3
f 88/1/3 55/1/3 54/1/3
f 89/6/3 85/6/3 84/6/3
f 89/1/3 55/1/3 88/1/3
f 89/6/3 84/6/3 55/6/3
f 90/4/3 87/4/3 86/4/3
f 91/4/3 59/4/3 87/4/3
f 91/4/3 87/4/3 90/4/3
f 91/6/3 49/6/3 59/6/3
f 92/4/3 56/4/3 49/4/3
f 92/1/3 57/1/3 56/1/3
f 93/5/3 38/5/3 57/5/3
f 93/1/3 57/1/3 92/1/3
f 94/4/3 89/4/3 88/4/3
f 94/5/3 88/5/3 37/5/3
f 95/6/3 85/6/3 89/6/3
f 95/4/3 89/4/3 94/4/3
f 96/4/3 92/4/3 49/4/3
f 96/4/3 93/4/3 92/4/3
f 97/5/3 38/5/3 93/5/3
f 97/4/3 93/4/3 96/4/3
f 98/6/3 85/6/3 95/6/3
f 98/1/3 95/1/3 94/1/3
f 99/6/3 85/6/3 98/6/3
f 100/4/3 82/4/3 85/4/3
f 100/6/3 85/6/3 99/6/3
f 101/4/3 90/4/3 86/4/3
f 101/6/3 91/6/3 90/6/3
f 102/4/3 96/4/3 49/4/3
f 102/6/3 91/6/3 101/6/3
f 102/6/3 49/6/3 91/6/3
f 103/1/3 98/1/3 94/1/3
f 103/5/3 94/5/3 37/5/3
f 103/1/3 99/1/3 98/1/3
f 104/4/3 100/4/3 99/4/3
f 104/1/3 99/1/3 103/1/3
f 105/4/3 82/4/3 100/4/3
f 105/4/3 100/4/3 104/4/3
f 105/5/3 86/5/3 82/5/3
f 106/4/3 101/4/3 86/4/3
f 106/5/3 86/5/3 105/5/3
f 106/4/3 102/4/3 101/4/3
f 107/1/3 97/1/3 96/1/3
f 107/4/3 102/4/3 106/4/3
f 107/4/3 96/4/3 102/4/3
f 108/5/3 38/5/3 97/5/3
f 108/1/3 97/1/3 107/1/3
f 109/5/3 104/5/3 103/5/3
f 109/5/3 103/5/3 37/5/3
f 109/5/3 108/5/3 107/5/3
f 109/5/3 106/5/3 105/5/3
f 109/5/3 105/5/3 104/5/3
f 109/5/3 107/5/3 106/5/3
f 110/5/3 38/5/3 108/5/3
f 110/5/3 108/5/3 109/5/3
f 111/6/3 110/6/3 109/6/3
f 112/6/3 110/6/3 111/6/3
f 113/6/3 110/6/3 112/6/3
f 114/6/3 110/6/3 113/6/3
f 115/6/3 110/6/3 114/6/3
f 116/6/3 110/6/3 115/6/3
f 117/5/3 112/5/3 111/5/3
f 118/3/3 113/3/3 112/3/3
f 118/5/3 112/5/3 117/5/3
f 119/5/3 114/5/3 113/5/3
f 119/3/3 113/3/3 118/3/3
f 120/3/3 115/3/3 114/3/3
f 120/5/3 114/5/3 119/5/3
f 121/5/3 116/5/3 115/5/3
f 121/3/3 115/3/3 120/3/3
f 122/5/3 116/5/3 121/5/3
f 123/5/4 124/5/4 129/5/4
f 124/3/4 125/3/4 130/3/4
f 129/5/4 124/5/4 130/5/4
f 125/5/4 126/5/4 131/5/4
f 130/3/4 125/3/4 131/3/4
f 126/3/4 127/3/4 132/3/4
f 131/5/4 126/5/4 132/5/4
f 127/5/4 128/5/4 133/5/4
f 132/3/4 127/3/4 133/3/4
f 133/5/4 128/5/4 134/5/4
f 131/6/4 132/6/4 135/6/4
f 129/6/4 130/6/4 135/6/4
f 133/6/4 134/6/4 135/6/4
f 132/6/4 133/6/4 135/6/4
f 130/6/4 131/6/4 135/6/4
f 135/6/4 134/6/4 136/6/4
f 135/5/4 136/5/4 137/5/4
f 137/5/4 136/5/4 138/5/4
f 138/5/4 136/5/4 139/5/4
f 139/5/4 136/5/4 140/5/4
f 140/5/4 136/5/4 141/5/4
f 141/5/4 136/5/4 142/5/4
f 137/1/4 138/1/4 143/1/4
f 138/4/4 139/4/4 144/4/4
f 143/1/4 138/1/4 144/1/4
f 144/4/4 139/4/4 145/4/4
f 140/4/4 141/4/4 146/4/4
f 146/4/4 141/4/4 147/4/4
f 135/5/4 137/5/4 148/5/4
f 137/1/4 143/1/4 148/1/4
f 143/6/4 144/6/4 149/6/4
f 148/1/4 143/1/4 149/1/4
f 144/6/4 145/6/4 149/6/4
f 147/4/4 141/4/4 150/4/4
f 141/1/4 142/1/4 150/1/4
f 142/5/4 136/5/4 151/5/4
f 150/1/4 142/1/4 151/1/4
f 148/4/4 149/4/4 152/4/4
f 135/5/4 148/5/4 152/5/4
f 149/6/4 145/6/4 153/6/4
f 152/4/4 149/4/4 153/4/4
f 147/4/4 150/4/4 154/4/4
f 150/4/4 151/4/4 154/4/4
f 151/5/4 136/5/4 155/5/4
f 154/4/4 151/4/4 155/4/4
f 146/6/4 147/6/4 156/6/4
f 140/4/4 146/4/4 156/4/4
f 156/6/4 147/6/4 157/6/4
f 139/5/4 140/5/4 158/5/4
f 140/4/4 156/4/4 158/4/4
f 156/4/4 157/4/4 158/4/4
f 158/4/4 157/4/4 159/4/4
f 153/6/4 145/6/4 160/6/4
f 145/4/4 139/4/4 161/4/4
f 160/6/4 145/6/4 161/6/4
f 139/5/4 158/5/4 162/5/4
f 161/4/4 139/4/4 162/4/4
f 160/4/4 161/4/4 162/4/4
f 158/5/4 159/5/4 162/5/4
f 162/5/4 159/5/4 163/5/4
f 160/4/4 162/4/4 164/4/4
f 162/4/4 163/4/4 164/4/4
f 164/4/4 163/4/4 165/4/4
f 165/4/4 163/4/4 166/4/4
f 166/4/4 163/4/4 167/4/4
f 160/4/4 164/4/4 168/4/4
f 164/2/4 165/2/4 168/2/4
f 165/6/4 166/6/4 169/6/4
f 168/2/4 165/2/4 169/2/4
f 166/2/4 167/2/4 170/2/4
f 169/6/4 166/6/4 170/6/4
f 167/4/4 163/4/4 171/4/4
f 170/2/4 167/2/4 171/2/4
f 168/6/4 169/6/4 172/6/4
f 160/4/4 168/4/4 172/4/4
f 169/2/4 170/2/4 173/2/4
f 172/6/4 169/6/4 173/6/4
f 170/6/4 171/6/4 174/6/4
f 173/2/4 170/2/4 174/2/4
f 171/4/4 163/4/4 175/4/4
f 174/6/4 171/6/4 175/6/4
f 160/4/4 172/4/4 176/4/4
f 172/2/4 173/2/4 176/2/4
f 173/6/4 174/6/4 177/6/4
f 176/2/4 173/2/4 177/2/4
f 174/2/4 175/2/4 178/2/4
f 177/6/4 174/6/4 178/6/4
f 175/4/4 163/4/4 179/4/4
f 178/2/4 175/2/4 179/2/4
f 177/4/4 178/4/4 180/4/4
f 176/4/4 177/4/4 180/4/4
f 178/4/4 179/4/4 180/4/4
f 163/5/4 159/5/4 181/5/4
f 180/4/4 179/4/4 181/4/4
f 179/4/4 163/4/4 181/4/4
f 153/6/4 160/6/4 182/6/4
f 176/4/4 180/4/4 182/4/4
f 160/4/4 176/4/4 182/4/4
f 182/4/4 180/4/4 183/4/4
f 180/5/4 181/5/4 184/5/4
f 159/4/4 157/4/4 185/4/4
f 184/5/4 181/5/4 185/5/4
f 181/5/4 159/5/4 185/5/4
f 135/5/4 152/5/4 186/5/4
f 152/1/4 153/1/4 186/1/4
f 182/6/4 183/6/4 187/6/4
f 186/1/4 153/1/4 187/1/4
f 153/6/4 182/6/4 187/6/4
f 184/4/4 185/4/4 188/4/4
f 185/4/4 157/4/4 189/4/4
f 188/4/4 185/4/4 189/4/4
f 157/6/4 147/6/4 189/6/4
f 147/4/4 154/4/4 190/4/4
f 154/1/4 155/1/4 190/1/4
f 155/5/4 136/5/4 191/5/4
f 190/1/4 155/1/4 191/1/4
f 186/4/4 187/4/4 192/4/4
f 135/5/4 186/5/4 192/5/4
f 187/6/4 183/6/4 193/6/4
f 192/4/4 187/4/4 193/4/4
f 147/4/4 190/4/4 194/4/4
f 190/4/4 191/4/4 194/4/4
f 191/5/4 136/5/4 195/5/4
f 194/4/4 191/4/4 195/4/4
f 193/6/4 183/6/4 196/6/4
f 192/1/4 193/1/4 196/1/4
f 196/6/4 183/6/4 197/6/4
f 183/4/4 180/4/4 198/4/4
f 197/6/4 183/6/4 198/6/4
f 184/4/4 188/4/4 199/4/4
f 188/6/4 189/6/4 199/6/4
f 147/4/4 194/4/4 200/4/4
f 199/6/4 189/6/4 200/6/4
f 189/6/4 147/6/4 200/6/4
f 192/1/4 196/1/4 201/1/4
f 135/5/4 192/5/4 201/5/4
f 196/1/4 197/1/4 201/1/4
f 197/4/4 198/4/4 202/4/4
f 201/1/4 197/1/4 202/1/4
f 198/4/4 180/4/4 203/4/4
f 202/4/4 198/4/4 203/4/4
f 180/5/4 184/5/4 203/5/4
f 184/4/4 199/4/4 204/4/4
f 203/5/4 184/5/4 204/5/4
f 199/4/4 200/4/4 204/4/4
f 194/1/4 195/1/4 205/1/4
f 204/4/4 200/4/4 205/4/4
f 200/4/4 194/4/4 205/4/4
f 195/5/4 136/5/4 206/5/4
f 205/1/4 195/1/4 206/1/4
f 201/5/4 202/5/4 207/5/4
f 135/5/4 201/5/4 207/5/4
f 205/5/4 206/5/4 207/5/4
f 203/5/4 204/5/4 207/5/4
f 202/5/4 203/5/4 207/5/4
f 204/5/4 205/5/4 207/5/4
f 206/5/4 136/5/4 208/5/4
f 207/5/4 206/5/4 208/5/4
f 207/6/4 208/6/4 209/6/4
f 209/6/4 208/6/4 210/6/4
f 210/6/4 208/6/4 211/6/4
f 211/6/4 208/6/4 212/6/4
f 212/6/4 208/6/4 213/6/4
f 213/6/4 208/6/4 214/6/4
f 209/5/4 210/5/4 215/5/4
f 210/3/4 211/3/4 216/3/4
f 215/5/4 210/5/4 216/5/4
f 211/5/4 212/5/4 217/5/4
f 216/3/4 211/3/4 217/3/4
f 212/3/4 213/3/4 218/3/4
f 217/5/4 212/5/4 218/5/4
f 213/5/4 214/5/4 219/5/4
f 218/3/4 213/3/4 219/3/4
f 219/5/4 214/5/4 220/5/4
f 227/5/5 222/5/5 221/5/5
f 228/6/5 223/6/5 222/6/5
f 228/5/5 222/5/5 227/5/5
f 229/5/5 224/5/5 223/5/5
f 229/6/5 223/6/5 228/6/5
f 230/6/5 225/6/5 224/6/5
f 230/5/5 224/5/5 229/5/5
f 231/5/5 226/5/5 225/5/5
f 231/6/5 225/6/5 230/6/5
f 232/5/5 226/5/5 231/5/5
f 233/5/6 234/5/6 239/5/6
f 234/6/6 235/6/6 240/6/6
f 239/5/6 234/5/6 240/5/6
f 235/5/6 236/5/6 241/5/6
f 240/6/6 235/6/6 241/6/6
f 236/6/6 237/6/6 242/6/6
f 241/5/6 236/5/6 242/5/6
f 237/5/6 238/5/6 243/5/6
f 242/6/6 237/6/6 243/6/6
f 243/5/6 238/5/6 244/5/6
