# MagicaVoxel @ Ephtracy

# group
g FoundryObjects-13

# material
mtllib FoundryObjects-13.mtl
usemtl palette

# normals
vn -1 0 0
vn 1 0 0
vn 0 0 1
vn 0 0 -1
vn 0 -1 0
vn 0 1 0

# texcoords
vt 0.306641 0.5
vt 0.970703 0.5
vt 0.974609 0.5
vt 0.978516 0.5

# verts
v -30 16 0.5
v -30 16 -0.5
v -30 32 0.5
v -30 32 -0.5
v 5 16 0.5
v 5 16 -0.5
v 5 20 0.5
v 5 20 -0.5
v -5 16 0.5
v -5 16 -0.5
v -5 20 0.5
v -5 20 -0.5
v 30 16 0.5
v 30 16 -0.5
v 30 32 0.5
v 30 32 -0.5
v -30 16 0.5
v -30 32 0.5
v -29 17 0.5
v -29 30 0.5
v -29 31 0.5
v -27 19 0.5
v -27 29 0.5
v -25 30 0.5
v -25 31 0.5
v -9 30 0.5
v -9 31 0.5
v -8 19 0.5
v -8 23 0.5
v -6 17 0.5
v -6 21 0.5
v -5 16 0.5
v -5 20 0.5
v 5 16 0.5
v 5 20 0.5
v 6 17 0.5
v 6 21 0.5
v 8 19 0.5
v 8 23 0.5
v 9 30 0.5
v 9 31 0.5
v 25 30 0.5
v 25 31 0.5
v 27 19 0.5
v 27 29 0.5
v 29 17 0.5
v 29 30 0.5
v 29 31 0.5
v 30 16 0.5
v 30 32 0.5
v -30 16 -0.5
v -30 32 -0.5
v -29 17 -0.5
v -29 30 -0.5
v -29 31 -0.5
v -27 19 -0.5
v -27 29 -0.5
v -25 30 -0.5
v -25 31 -0.5
v -9 30 -0.5
v -9 31 -0.5
v -8 19 -0.5
v -8 23 -0.5
v -6 17 -0.5
v -6 21 -0.5
v -5 16 -0.5
v -5 20 -0.5
v 5 16 -0.5
v 5 20 -0.5
v 6 17 -0.5
v 6 21 -0.5
v 8 19 -0.5
v 8 23 -0.5
v 9 30 -0.5
v 9 31 -0.5
v 25 30 -0.5
v 25 31 -0.5
v 27 19 -0.5
v 27 29 -0.5
v 29 17 -0.5
v 29 30 -0.5
v 29 31 -0.5
v 30 16 -0.5
v 30 32 -0.5
v -30 16 0.5
v -5 16 0.5
v 5 16 0.5
v 30 16 0.5
v -30 16 -0.5
v -5 16 -0.5
v 5 16 -0.5
v 30 16 -0.5
v -5 20 0.5
v 5 20 0.5
v -5 20 -0.5
v 5 20 -0.5
v -30 32 0.5
v 30 32 0.5
v -30 32 -0.5
v 30 32 -0.5

# faces
f 3/3/1 2/3/1 1/3/1
f 4/3/1 2/3/1 3/3/1
f 7/3/1 6/3/1 5/3/1
f 8/3/1 6/3/1 7/3/1
f 9/3/2 10/3/2 11/3/2
f 11/3/2 10/3/2 12/3/2
f 13/3/2 14/3/2 15/3/2
f 15/3/2 14/3/2 16/3/2
f 19/3/3 18/3/3 17/3/3
f 20/3/3 18/3/3 19/3/3
f 21/3/3 18/3/3 20/3/3
f 22/2/3 20/2/3 19/2/3
f 23/2/3 20/2/3 22/2/3
f 24/1/3 21/1/3 20/1/3
f 24/2/3 20/2/3 23/2/3
f 25/3/3 18/3/3 21/3/3
f 25/1/3 21/1/3 24/1/3
f 26/2/3 24/2/3 23/2/3
f 26/2/3 25/2/3 24/2/3
f 27/3/3 18/3/3 25/3/3
f 27/2/3 25/2/3 26/2/3
f 28/4/3 23/4/3 22/4/3
f 28/2/3 22/2/3 19/2/3
f 29/4/3 23/4/3 28/4/3
f 30/3/3 19/3/3 17/3/3
f 30/2/3 28/2/3 19/2/3
f 30/2/3 29/2/3 28/2/3
f 31/2/3 29/2/3 30/2/3
f 32/3/3 30/3/3 17/3/3
f 32/3/3 31/3/3 30/3/3
f 33/3/3 31/3/3 32/3/3
f 35/3/3 31/3/3 33/3/3
f 36/3/3 35/3/3 34/3/3
f 37/2/3 29/2/3 31/2/3
f 37/3/3 35/3/3 36/3/3
f 37/3/3 31/3/3 35/3/3
f 38/2/3 37/2/3 36/2/3
f 39/4/3 23/4/3 29/4/3
f 39/2/3 37/2/3 38/2/3
f 39/2/3 29/2/3 37/2/3
f 40/2/3 26/2/3 23/2/3
f 40/1/3 27/1/3 26/1/3
f 41/3/3 18/3/3 27/3/3
f 41/1/3 27/1/3 40/1/3
f 42/2/3 40/2/3 23/2/3
f 42/2/3 41/2/3 40/2/3
f 43/3/3 18/3/3 41/3/3
f 43/2/3 41/2/3 42/2/3
f 44/2/3 38/2/3 36/2/3
f 44/4/3 39/4/3 38/4/3
f 45/4/3 23/4/3 39/4/3
f 45/4/3 39/4/3 44/4/3
f 45/2/3 42/2/3 23/2/3
f 46/2/3 44/2/3 36/2/3
f 46/3/3 36/3/3 34/3/3
f 46/2/3 45/2/3 44/2/3
f 47/2/3 42/2/3 45/2/3
f 47/2/3 45/2/3 46/2/3
f 47/1/3 43/1/3 42/1/3
f 48/3/3 18/3/3 43/3/3
f 48/1/3 43/1/3 47/1/3
f 49/3/3 47/3/3 46/3/3
f 49/3/3 46/3/3 34/3/3
f 49/3/3 48/3/3 47/3/3
f 50/3/3 18/3/3 48/3/3
f 50/3/3 48/3/3 49/3/3
f 51/3/4 52/3/4 53/3/4
f 53/3/4 52/3/4 54/3/4
f 54/3/4 52/3/4 55/3/4
f 53/2/4 54/2/4 56/2/4
f 56/2/4 54/2/4 57/2/4
f 54/1/4 55/1/4 58/1/4
f 57/2/4 54/2/4 58/2/4
f 55/3/4 52/3/4 59/3/4
f 58/1/4 55/1/4 59/1/4
f 57/2/4 58/2/4 60/2/4
f 58/2/4 59/2/4 60/2/4
f 59/3/4 52/3/4 61/3/4
f 60/2/4 59/2/4 61/2/4
f 56/4/4 57/4/4 62/4/4
f 53/2/4 56/2/4 62/2/4
f 62/4/4 57/4/4 63/4/4
f 51/3/4 53/3/4 64/3/4
f 53/2/4 62/2/4 64/2/4
f 62/2/4 63/2/4 64/2/4
f 64/2/4 63/2/4 65/2/4
f 51/3/4 64/3/4 66/3/4
f 64/3/4 65/3/4 66/3/4
f 66/3/4 65/3/4 67/3/4
f 67/3/4 65/3/4 69/3/4
f 68/3/4 69/3/4 70/3/4
f 65/2/4 63/2/4 71/2/4
f 70/3/4 69/3/4 71/3/4
f 69/3/4 65/3/4 71/3/4
f 70/2/4 71/2/4 72/2/4
f 63/4/4 57/4/4 73/4/4
f 72/2/4 71/2/4 73/2/4
f 71/2/4 63/2/4 73/2/4
f 57/2/4 60/2/4 74/2/4
f 60/1/4 61/1/4 74/1/4
f 61/3/4 52/3/4 75/3/4
f 74/1/4 61/1/4 75/1/4
f 57/2/4 74/2/4 76/2/4
f 74/2/4 75/2/4 76/2/4
f 75/3/4 52/3/4 77/3/4
f 76/2/4 75/2/4 77/2/4
f 70/2/4 72/2/4 78/2/4
f 72/4/4 73/4/4 78/4/4
f 73/4/4 57/4/4 79/4/4
f 78/4/4 73/4/4 79/4/4
f 57/2/4 76/2/4 79/2/4
f 70/2/4 78/2/4 80/2/4
f 68/3/4 70/3/4 80/3/4
f 78/2/4 79/2/4 80/2/4
f 79/2/4 76/2/4 81/2/4
f 80/2/4 79/2/4 81/2/4
f 76/1/4 77/1/4 81/1/4
f 77/3/4 52/3/4 82/3/4
f 81/1/4 77/1/4 82/1/4
f 80/3/4 81/3/4 83/3/4
f 68/3/4 80/3/4 83/3/4
f 81/3/4 82/3/4 83/3/4
f 82/3/4 52/3/4 84/3/4
f 83/3/4 82/3/4 84/3/4
f 89/3/5 86/3/5 85/3/5
f 90/3/5 86/3/5 89/3/5
f 91/3/5 88/3/5 87/3/5
f 92/3/5 88/3/5 91/3/5
f 95/3/5 94/3/5 93/3/5
f 96/3/5 94/3/5 95/3/5
f 97/3/6 98/3/6 99/3/6
f 99/3/6 98/3/6 100/3/6
