# MagicaVoxel @ Ephtracy

# group
g HellProps-2

# material
mtllib HellProps-2.mtl
usemtl palette

# normals
vn -1 0 0
vn 1 0 0
vn 0 0 1
vn 0 0 -1
vn 0 -1 0
vn 0 1 0

# texcoords
vt 0.876953 0.5
vt 0.880859 0.5
vt 0.884766 0.5
vt 0.970703 0.5
vt 0.974609 0.5
vt 0.978516 0.5

# verts
v -6 1 -3
v -6 1 -4
v -6 3 -3
v -6 3 -4
v -5 0 1
v -5 0 -0
v -5 0 -1
v -5 0 -3
v -5 0 -4
v -5 1 -0
v -5 1 -1
v -5 1 -2
v -5 1 -3
v -5 1 -4
v -5 3 -1
v -5 3 -2
v -5 3 -3
v -5 3 -4
v -5 4 1
v -5 4 -1
v -5 4 -2
v -5 4 -3
v -5 4 -4
v -4 1 3
v -4 1 2
v -4 1 -3
v -4 1 -4
v -4 3 3
v -4 3 2
v -4 3 -1
v -4 3 -2
v -4 3 -3
v -4 3 -4
v -4 4 -1
v -4 4 -2
v -3 0 3
v -3 0 2
v -3 0 1
v -3 1 3
v -3 1 2
v -3 1 1
v -3 1 -0
v -3 2 1
v -3 2 -0
v -3 2 -1
v -3 3 3
v -3 3 2
v -3 3 -0
v -3 3 -1
v -3 3 -2
v -3 3 -3
v -3 4 3
v -3 4 2
v -3 4 -2
v -3 4 -3
v -3 7 -2
v -3 7 -3
v -2 0 4
v -2 0 3
v -2 0 -0
v -2 0 -1
v -2 1 4
v -2 1 3
v -2 1 2
v -2 1 1
v -2 1 -0
v -2 1 -1
v -2 2 2
v -2 2 1
v -2 2 -0
v -2 3 1
v -2 3 -0
v -2 4 1
v -2 4 -0
v -2 5 1
v -2 5 -0
v -1 0 6
v -1 0 4
v -1 0 -4
v -1 0 -5
v -1 1 6
v -1 1 4
v -1 1 3
v -1 1 2
v -1 1 -4
v -1 1 -5
v -1 1 -6
v -1 2 4
v -1 2 2
v -1 2 1
v -1 3 2
v -1 3 1
v -1 3 -4
v -1 3 -6
v -1 4 2
v -1 4 1
v 0 3 3
v 0 3 2
v 0 4 3
v 0 4 2
v 1 1 4
v 1 1 3
v 1 2 4
v 1 2 3
v 1 3 3
v 1 3 -3
v 1 3 -5
v 1 4 4
v 1 4 3
v 1 4 -1
v 1 4 -2
v 1 4 -3
v 1 4 -5
v 1 6 -1
v 1 6 -2
v 2 2 2
v 2 2 1
v 2 3 2
v 2 3 1
v 3 1 3
v 3 1 2
v 3 3 3
v 3 3 2
v 4 1 1
v 4 1 -0
v 4 2 -0
v 4 2 -1
v 4 3 1
v 4 3 -0
v 4 3 -1
v 5 1 -3
v 5 1 -4
v 5 3 -3
v 5 3 -4
v -5 1 -3
v -5 1 -4
v -5 3 -3
v -5 3 -4
v -4 1 1
v -4 1 -0
v -4 2 -0
v -4 2 -1
v -4 3 1
v -4 3 -1
v -4 3 -2
v -4 3 -3
v -4 4 -2
v -4 4 -3
v -3 1 3
v -3 1 2
v -3 3 3
v -3 3 2
v -2 4 -2
v -2 4 -3
v -2 7 -2
v -2 7 -3
v -1 3 3
v -1 3 2
v -1 3 -3
v -1 3 -4
v -1 4 3
v -1 4 2
v -1 4 1
v -1 4 -0
v -1 4 -3
v -1 4 -4
v -1 5 1
v -1 5 -0
v 0 1 4
v 0 1 3
v 0 2 4
v 0 2 3
v 1 1 3
v 1 1 2
v 1 1 -5
v 1 1 -6
v 1 2 3
v 1 2 2
v 1 2 1
v 1 3 2
v 1 3 1
v 1 3 -5
v 1 3 -6
v 2 0 6
v 2 0 5
v 2 1 6
v 2 1 5
v 2 1 4
v 2 1 3
v 2 2 4
v 2 2 3
v 2 2 1
v 2 2 -0
v 2 3 3
v 2 3 1
v 2 3 -0
v 2 4 4
v 2 4 3
v 2 4 -1
v 2 4 -2
v 2 6 -1
v 2 6 -2
v 3 0 5
v 3 0 3
v 3 1 5
v 3 1 3
v 3 1 1
v 3 1 -0
v 3 2 1
v 3 2 -0
v 3 2 -1
v 3 2 -4
v 3 2 -5
v 3 3 3
v 3 3 2
v 3 3 1
v 3 3 -0
v 3 3 -1
v 3 3 -4
v 3 3 -5
v 3 4 3
v 3 4 2
v 3 4 1
v 4 0 3
v 4 0 2
v 4 0 1
v 4 1 3
v 4 1 2
v 4 1 1
v 4 1 -3
v 4 1 -4
v 4 1 -5
v 4 2 -4
v 4 2 -5
v 4 3 3
v 4 3 2
v 4 3 1
v 4 3 -0
v 4 3 -3
v 4 3 -4
v 4 3 -5
v 4 4 1
v 4 4 -0
v 4 4 -4
v 4 4 -5
v 5 0 1
v 5 0 -2
v 5 0 -3
v 5 0 -4
v 5 0 -5
v 5 1 1
v 5 1 -0
v 5 1 -1
v 5 1 -2
v 5 1 -3
v 5 1 -4
v 5 1 -5
v 5 2 -1
v 5 2 -2
v 5 3 1
v 5 3 -0
v 5 3 -3
v 5 3 -4
v 5 4 -0
v 5 4 -3
v 5 4 -4
v 6 1 -3
v 6 1 -4
v 6 3 -3
v 6 3 -4
v -1 0 6
v -1 1 6
v 1 0 6
v 1 1 6
v 2 0 6
v 2 1 6
v 2 0 5
v 2 1 5
v 3 0 5
v 3 1 5
v -2 0 4
v -2 1 4
v -1 0 4
v -1 1 4
v -1 2 4
v 0 1 4
v 0 2 4
v 1 1 4
v 1 2 4
v 1 4 4
v 2 1 4
v 2 2 4
v 2 4 4
v -4 1 3
v -4 3 3
v -3 0 3
v -3 1 3
v -3 3 3
v -3 4 3
v -2 0 3
v -2 1 3
v -1 3 3
v -1 4 3
v 0 1 3
v 0 2 3
v 0 3 3
v 0 4 3
v 1 1 3
v 1 2 3
v 1 3 3
v 1 4 3
v 2 3 3
v 2 4 3
v 3 0 3
v 3 1 3
v 3 3 3
v 3 4 3
v 4 0 3
v 4 1 3
v 4 3 3
v -2 1 2
v -2 2 2
v -1 1 2
v -1 2 2
v -1 3 2
v -1 4 2
v 0 3 2
v 0 4 2
v 1 1 2
v 1 2 2
v 1 3 2
v 2 1 2
v 2 2 2
v 2 3 2
v 3 1 2
v 3 3 2
v -5 0 1
v -5 4 1
v -4 0 1
v -4 1 1
v -4 3 1
v -3 0 1
v -3 1 1
v -3 2 1
v -2 1 1
v -2 2 1
v -2 3 1
v -2 4 1
v -2 5 1
v -1 2 1
v -1 3 1
v -1 4 1
v -1 5 1
v 1 2 1
v 1 3 1
v 2 2 1
v 2 3 1
v 3 3 1
v 3 4 1
v 4 0 1
v 4 1 1
v 4 3 1
v 4 4 1
v 5 0 1
v 5 1 1
v 5 3 1
v -4 1 -0
v -4 2 -0
v -3 1 -0
v -3 2 -0
v -3 3 -0
v -2 2 -0
v -2 3 -0
v 2 2 -0
v 2 3 -0
v 3 1 -0
v 3 2 -0
v 3 3 -0
v 4 1 -0
v 4 2 -0
v 4 3 -0
v 4 4 -0
v 5 3 -0
v 5 4 -0
v -5 0 -1
v -5 1 -1
v -4 0 -1
v -4 1 -1
v -4 2 -1
v -4 3 -1
v -3 0 -1
v -3 1 -1
v -3 2 -1
v -3 3 -1
v -2 0 -1
v -2 1 -1
v 1 4 -1
v 1 6 -1
v 2 4 -1
v 2 6 -1
v 3 2 -1
v 3 3 -1
v 4 2 -1
v 4 3 -1
v -5 3 -2
v -5 4 -2
v -4 3 -2
v -4 4 -2
v -3 4 -2
v -3 7 -2
v -2 4 -2
v -2 7 -2
v -6 1 -3
v -6 3 -3
v -5 1 -3
v -5 3 -3
v -4 3 -3
v -4 4 -3
v -3 3 -3
v -3 4 -3
v 5 1 -3
v 5 3 -3
v 6 1 -3
v 6 3 -3
v 1 1 3
v 1 2 3
v 1 3 3
v 2 1 3
v 2 2 3
v 2 3 3
v -4 1 2
v -4 3 2
v -3 1 2
v -3 3 2
v -3 4 2
v -1 3 2
v -1 4 2
v 2 2 1
v 2 3 1
v 3 1 1
v 3 2 1
v 4 1 1
v 4 3 1
v -5 0 -0
v -5 1 -0
v -4 0 -0
v -4 1 -0
v -2 0 -0
v -2 1 -0
v -2 4 -0
v -2 5 -0
v -1 4 -0
v -1 5 -0
v -5 3 -1
v -5 4 -1
v -4 3 -1
v -4 4 -1
v -4 3 -2
v -4 4 -2
v -3 3 -2
v -3 4 -2
v 1 4 -2
v 1 6 -2
v 2 4 -2
v 2 6 -2
v -5 1 -3
v -5 3 -3
v -4 1 -3
v -4 3 -3
v -3 4 -3
v -3 7 -3
v -2 4 -3
v -2 7 -3
v -1 3 -3
v -1 4 -3
v 1 3 -3
v 1 4 -3
v 4 1 -3
v 4 3 -3
v 5 1 -3
v 5 3 -3
v -6 1 -4
v -6 3 -4
v -5 0 -4
v -5 1 -4
v -5 3 -4
v -5 4 -4
v -4 0 -4
v -4 1 -4
v -4 3 -4
v -3 1 -4
v -3 3 -4
v -2 0 -4
v -2 1 -4
v -1 0 -4
v -1 1 -4
v -1 3 -4
v -1 4 -4
v 3 2 -4
v 3 3 -4
v 4 2 -4
v 4 3 -4
v 4 4 -4
v 5 1 -4
v 5 3 -4
v 5 4 -4
v 6 1 -4
v 6 3 -4
v -1 0 -5
v -1 1 -5
v 1 0 -5
v 1 1 -5
v 1 3 -5
v 1 4 -5
v 2 2 -5
v 2 3 -5
v 3 1 -5
v 3 2 -5
v 3 3 -5
v 3 4 -5
v 4 0 -5
v 4 1 -5
v 4 2 -5
v 4 3 -5
v 4 4 -5
v 5 0 -5
v 5 1 -5
v -1 1 -6
v -1 3 -6
v 1 1 -6
v 1 3 -6
v -1 0 6
v 1 0 6
v 2 0 6
v 1 0 5
v 2 0 5
v 3 0 5
v -2 0 4
v -1 0 4
v 0 0 4
v 1 0 4
v -3 0 3
v -2 0 3
v -1 0 3
v 0 0 3
v 1 0 3
v 2 0 3
v 3 0 3
v 4 0 3
v -3 0 2
v -1 0 2
v 1 0 2
v 2 0 2
v 3 0 2
v 4 0 2
v -5 0 1
v -4 0 1
v -3 0 1
v -2 0 1
v -1 0 1
v 0 0 1
v 4 0 1
v 5 0 1
v -5 0 -0
v -4 0 -0
v -2 0 -0
v -1 0 -0
v 0 0 -0
v 1 0 -0
v 2 0 -0
v -5 0 -1
v -4 0 -1
v -3 0 -1
v -2 0 -1
v 0 0 -1
v 1 0 -1
v 2 0 -1
v 3 0 -1
v -4 0 -2
v -3 0 -2
v -2 0 -2
v -1 0 -2
v 0 0 -2
v 1 0 -2
v 2 0 -2
v 3 0 -2
v 4 0 -2
v 5 0 -2
v -5 0 -3
v -4 0 -3
v -3 0 -3
v -2 0 -3
v -1 0 -3
v 1 0 -3
v 2 0 -3
v 4 0 -3
v 5 0 -3
v -5 0 -4
v -4 0 -4
v -2 0 -4
v -1 0 -4
v 1 0 -4
v 4 0 -4
v 5 0 -4
v -1 0 -5
v 1 0 -5
v 4 0 -5
v 5 0 -5
v -4 1 3
v -3 1 3
v -4 1 2
v -3 1 2
v -5 1 -0
v -4 1 -0
v -2 1 -0
v -5 1 -1
v -4 1 -1
v -3 1 -1
v -2 1 -1
v -6 1 -3
v -5 1 -3
v 5 1 -3
v 6 1 -3
v -6 1 -4
v -5 1 -4
v 5 1 -4
v 6 1 -4
v -1 1 -5
v 1 1 -5
v -1 1 -6
v 1 1 -6
v -3 3 3
v -1 3 3
v 0 3 3
v 1 3 3
v 2 3 3
v 3 3 3
v -3 3 2
v -1 3 2
v 0 3 2
v 1 3 2
v 2 3 2
v 3 3 2
v -4 3 1
v -2 3 1
v 1 3 1
v 2 3 1
v 4 3 1
v -3 3 -0
v -2 3 -0
v 2 3 -0
v 3 3 -0
v 4 3 -0
v -4 3 -1
v -3 3 -1
v 3 3 -1
v 4 3 -1
v -5 3 -3
v -4 3 -3
v 4 3 -3
v 5 3 -3
v -5 3 -4
v -4 3 -4
v 3 3 -4
v 4 3 -4
v 5 3 -4
v 3 3 -5
v 4 3 -5
v -1 1 6
v 1 1 6
v 2 1 6
v 1 1 5
v 2 1 5
v 3 1 5
v -2 1 4
v -1 1 4
v 0 1 4
v 1 1 4
v 2 1 4
v -3 1 3
v -2 1 3
v -1 1 3
v 0 1 3
v 1 1 3
v 2 1 3
v 3 1 3
v -3 1 2
v -2 1 2
v -1 1 2
v 1 1 2
v 2 1 2
v 3 1 2
v -4 1 1
v -3 1 1
v -2 1 1
v 3 1 1
v 4 1 1
v -4 1 -0
v -3 1 -0
v 3 1 -0
v 4 1 -0
v -5 1 -3
v -4 1 -3
v 4 1 -3
v 5 1 -3
v -5 1 -4
v -4 1 -4
v 4 1 -4
v 5 1 -4
v 4 1 -5
v 5 1 -5
v -1 2 4
v 0 2 4
v 0 2 3
v 1 2 3
v -2 2 2
v -1 2 2
v 1 2 2
v 2 2 2
v -3 2 1
v -2 2 1
v -1 2 1
v 1 2 1
v 2 2 1
v 3 2 1
v -4 2 -0
v -3 2 -0
v -2 2 -0
v 2 2 -0
v 3 2 -0
v 4 2 -0
v -4 2 -1
v -3 2 -1
v 3 2 -1
v 4 2 -1
v 3 2 -4
v 4 2 -4
v 3 2 -5
v 4 2 -5
v -4 3 3
v -3 3 3
v 3 3 3
v 4 3 3
v -4 3 2
v -3 3 2
v 3 3 2
v 4 3 2
v 3 3 1
v 4 3 1
v 5 3 1
v 4 3 -0
v 5 3 -0
v -5 3 -1
v -4 3 -1
v -5 3 -2
v -4 3 -2
v -3 3 -2
v -6 3 -3
v -5 3 -3
v -4 3 -3
v -3 3 -3
v -1 3 -3
v 1 3 -3
v 5 3 -3
v 6 3 -3
v -6 3 -4
v -5 3 -4
v -1 3 -4
v 5 3 -4
v 6 3 -4
v 1 3 -5
v -1 3 -6
v 1 3 -6
v 1 4 4
v 2 4 4
v -3 4 3
v -1 4 3
v 0 4 3
v 1 4 3
v 2 4 3
v 3 4 3
v -3 4 2
v -1 4 2
v 0 4 2
v 2 4 2
v 3 4 2
v -5 4 1
v -2 4 1
v -1 4 1
v 0 4 1
v 1 4 1
v 2 4 1
v 3 4 1
v 4 4 1
v -2 4 -0
v -1 4 -0
v 0 4 -0
v 1 4 -0
v 2 4 -0
v 4 4 -0
v 5 4 -0
v -5 4 -1
v -4 4 -1
v -3 4 -1
v 1 4 -1
v 2 4 -1
v 4 4 -1
v -5 4 -2
v -4 4 -2
v -3 4 -2
v -2 4 -2
v 0 4 -2
v 1 4 -2
v 2 4 -2
v -5 4 -3
v -4 4 -3
v -3 4 -3
v -2 4 -3
v -1 4 -3
v 1 4 -3
v 4 4 -3
v 5 4 -3
v -5 4 -4
v -1 4 -4
v 3 4 -4
v 4 4 -4
v 5 4 -4
v 1 4 -5
v 3 4 -5
v 4 4 -5
v -2 5 1
v -1 5 1
v -2 5 -0
v -1 5 -0
v 1 6 -1
v 2 6 -1
v 1 6 -2
v 2 6 -2
v -3 7 -2
v -2 7 -2
v -3 7 -3
v -2 7 -3

# faces
f 3/1/1 2/1/1 1/1/1
f 4/1/1 2/1/1 3/1/1
f 10/2/1 6/2/1 5/2/1
f 11/2/1 8/2/1 7/2/1
f 12/2/1 8/2/1 11/2/1
f 13/1/1 9/1/1 8/1/1
f 13/2/1 8/2/1 12/2/1
f 14/1/1 9/1/1 13/1/1
f 15/1/1 12/1/1 11/1/1
f 15/2/1 11/2/1 10/2/1
f 16/2/1 13/2/1 12/2/1
f 16/1/1 12/1/1 15/1/1
f 17/2/1 13/2/1 16/2/1
f 19/2/1 10/2/1 5/2/1
f 19/2/1 15/2/1 10/2/1
f 20/2/1 15/2/1 19/2/1
f 21/2/1 17/2/1 16/2/1
f 22/1/1 18/1/1 17/1/1
f 22/2/1 17/2/1 21/2/1
f 23/1/1 18/1/1 22/1/1
f 28/1/1 25/1/1 24/1/1
f 29/1/1 25/1/1 28/1/1
f 32/1/1 27/1/1 26/1/1
f 33/1/1 27/1/1 32/1/1
f 34/1/1 31/1/1 30/1/1
f 35/1/1 31/1/1 34/1/1
f 39/1/1 37/1/1 36/1/1
f 40/2/1 38/2/1 37/2/1
f 40/1/1 37/1/1 39/1/1
f 41/2/1 38/2/1 40/2/1
f 43/3/1 42/3/1 41/3/1
f 44/3/1 42/3/1 43/3/1
f 48/3/1 45/3/1 44/3/1
f 49/3/1 45/3/1 48/3/1
f 52/1/1 47/1/1 46/1/1
f 53/1/1 47/1/1 52/1/1
f 54/5/1 51/5/1 50/5/1
f 55/5/1 51/5/1 54/5/1
f 56/5/1 55/5/1 54/5/1
f 57/5/1 55/5/1 56/5/1
f 62/2/1 59/2/1 58/2/1
f 63/2/1 59/2/1 62/2/1
f 66/3/1 61/3/1 60/3/1
f 67/3/1 61/3/1 66/3/1
f 68/3/1 65/3/1 64/3/1
f 69/3/1 65/3/1 68/3/1
f 71/3/1 70/3/1 69/3/1
f 72/3/1 70/3/1 71/3/1
f 75/5/1 74/5/1 73/5/1
f 76/5/1 74/5/1 75/5/1
f 81/1/1 78/1/1 77/1/1
f 82/1/1 78/1/1 81/1/1
f 85/1/1 80/1/1 79/1/1
f 86/1/1 80/1/1 85/1/1
f 88/3/1 84/3/1 83/3/1
f 88/3/1 83/3/1 82/3/1
f 89/3/1 84/3/1 88/3/1
f 91/3/1 90/3/1 89/3/1
f 92/3/1 90/3/1 91/3/1
f 93/3/1 87/3/1 86/3/1
f 93/3/1 86/3/1 85/3/1
f 94/3/1 87/3/1 93/3/1
f 95/1/1 92/1/1 91/1/1
f 96/1/1 92/1/1 95/1/1
f 99/2/1 98/2/1 97/2/1
f 100/2/1 98/2/1 99/2/1
f 103/3/1 102/3/1 101/3/1
f 104/3/1 102/3/1 103/3/1
f 105/2/1 104/2/1 103/2/1
f 108/2/1 105/2/1 103/2/1
f 109/2/1 105/2/1 108/2/1
f 112/2/1 107/2/1 106/2/1
f 113/2/1 107/2/1 112/2/1
f 114/5/1 111/5/1 110/5/1
f 115/5/1 111/5/1 114/5/1
f 118/2/1 117/2/1 116/2/1
f 119/2/1 117/2/1 118/2/1
f 122/1/1 121/1/1 120/1/1
f 123/1/1 121/1/1 122/1/1
f 126/1/1 125/1/1 124/1/1
f 128/1/1 126/1/1 124/1/1
f 129/2/1 127/2/1 126/2/1
f 129/1/1 126/1/1 128/1/1
f 130/2/1 127/2/1 129/2/1
f 133/1/1 132/1/1 131/1/1
f 134/1/1 132/1/1 133/1/1
f 135/1/2 136/1/2 137/1/2
f 137/1/2 136/1/2 138/1/2
f 139/2/2 140/2/2 141/2/2
f 139/2/2 141/2/2 143/2/2
f 141/2/2 142/2/2 143/2/2
f 143/2/2 142/2/2 144/2/2
f 145/2/2 146/2/2 147/2/2
f 147/2/2 146/2/2 148/2/2
f 149/1/2 150/1/2 151/1/2
f 151/1/2 150/1/2 152/1/2
f 153/5/2 154/5/2 155/5/2
f 155/5/2 154/5/2 156/5/2
f 157/1/2 158/1/2 161/1/2
f 161/1/2 158/1/2 162/1/2
f 159/1/2 160/1/2 165/1/2
f 165/1/2 160/1/2 166/1/2
f 163/5/2 164/5/2 167/5/2
f 167/5/2 164/5/2 168/5/2
f 169/3/2 170/3/2 171/3/2
f 171/3/2 170/3/2 172/3/2
f 173/3/2 174/3/2 177/3/2
f 177/3/2 174/3/2 178/3/2
f 178/3/2 179/3/2 180/3/2
f 180/3/2 179/3/2 181/3/2
f 175/3/2 176/3/2 182/3/2
f 182/3/2 176/3/2 183/3/2
f 184/3/2 185/3/2 186/3/2
f 186/3/2 185/3/2 187/3/2
f 188/3/2 189/3/2 190/3/2
f 190/3/2 189/3/2 191/3/2
f 190/2/2 191/2/2 194/2/2
f 192/3/2 193/3/2 195/3/2
f 195/3/2 193/3/2 196/3/2
f 190/2/2 194/2/2 197/2/2
f 197/2/2 194/2/2 198/2/2
f 199/5/2 200/5/2 201/5/2
f 201/5/2 200/5/2 202/5/2
f 203/3/2 204/3/2 205/3/2
f 205/3/2 204/3/2 206/3/2
f 207/3/2 208/3/2 209/3/2
f 209/3/2 208/3/2 210/3/2
f 210/3/2 211/3/2 217/3/2
f 217/3/2 211/3/2 218/3/2
f 212/3/2 213/3/2 219/3/2
f 219/3/2 213/3/2 220/3/2
f 214/2/2 215/2/2 221/2/2
f 215/3/2 216/3/2 222/3/2
f 221/2/2 215/2/2 222/2/2
f 222/3/2 216/3/2 223/3/2
f 224/3/2 225/3/2 227/3/2
f 225/2/2 226/2/2 228/2/2
f 227/3/2 225/3/2 228/3/2
f 228/2/2 226/2/2 229/2/2
f 230/1/2 231/1/2 233/1/2
f 231/3/2 232/3/2 233/3/2
f 233/3/2 232/3/2 234/3/2
f 227/1/2 228/1/2 235/1/2
f 228/2/2 229/2/2 236/2/2
f 235/1/2 228/1/2 236/1/2
f 236/2/2 229/2/2 237/2/2
f 230/1/2 233/1/2 239/1/2
f 239/1/2 233/1/2 240/1/2
f 237/1/2 238/1/2 242/1/2
f 242/1/2 238/1/2 243/1/2
f 240/3/2 241/3/2 244/3/2
f 244/3/2 241/3/2 245/3/2
f 246/3/2 247/3/2 251/3/2
f 251/3/2 247/3/2 252/3/2
f 252/3/2 247/3/2 253/3/2
f 247/2/2 248/2/2 254/2/2
f 253/3/2 247/3/2 254/3/2
f 248/1/2 249/1/2 255/1/2
f 254/2/2 248/2/2 255/2/2
f 249/3/2 250/3/2 256/3/2
f 255/1/2 249/1/2 256/1/2
f 256/3/2 250/3/2 257/3/2
f 252/2/2 253/2/2 258/2/2
f 253/1/2 254/1/2 258/1/2
f 254/2/2 255/2/2 259/2/2
f 258/1/2 254/1/2 259/1/2
f 251/1/2 252/1/2 260/1/2
f 252/2/2 258/2/2 261/2/2
f 260/1/2 252/1/2 261/1/2
f 258/2/2 259/2/2 261/2/2
f 259/2/2 255/2/2 262/2/2
f 261/2/2 259/2/2 262/2/2
f 261/2/2 262/2/2 264/2/2
f 262/1/2 263/1/2 265/1/2
f 264/2/2 262/2/2 265/2/2
f 265/1/2 263/1/2 266/1/2
f 267/1/2 268/1/2 269/1/2
f 269/1/2 268/1/2 270/1/2
f 273/1/3 272/1/3 271/1/3
f 274/1/3 272/1/3 273/1/3
f 275/3/3 274/3/3 273/3/3
f 276/3/3 274/3/3 275/3/3
f 279/3/3 278/3/3 277/3/3
f 280/3/3 278/3/3 279/3/3
f 283/2/3 282/2/3 281/2/3
f 284/2/3 282/2/3 283/2/3
f 286/3/3 285/3/3 284/3/3
f 287/3/3 285/3/3 286/3/3
f 291/3/3 289/3/3 288/3/3
f 292/2/3 290/2/3 289/2/3
f 292/3/3 289/3/3 291/3/3
f 293/2/3 290/2/3 292/2/3
f 297/1/3 295/1/3 294/1/3
f 298/1/3 295/1/3 297/1/3
f 300/1/3 297/1/3 296/1/3
f 301/1/3 297/1/3 300/1/3
f 302/1/3 299/1/3 298/1/3
f 303/1/3 299/1/3 302/1/3
f 308/3/3 305/3/3 304/3/3
f 309/3/3 305/3/3 308/3/3
f 310/2/3 307/2/3 306/2/3
f 311/2/3 307/2/3 310/2/3
f 316/2/3 313/2/3 312/2/3
f 317/2/3 313/2/3 316/2/3
f 318/3/3 315/3/3 314/3/3
f 319/1/3 316/1/3 315/1/3
f 319/3/3 315/3/3 318/3/3
f 320/1/3 316/1/3 319/1/3
f 323/3/3 322/3/3 321/3/3
f 324/3/3 322/3/3 323/3/3
f 327/1/3 326/1/3 325/1/3
f 327/3/3 325/3/3 324/3/3
f 328/1/3 326/1/3 327/1/3
f 330/3/3 327/3/3 324/3/3
f 331/3/3 327/3/3 330/3/3
f 332/3/3 330/3/3 329/3/3
f 333/3/3 330/3/3 332/3/3
f 335/2/3 333/2/3 332/2/3
f 335/2/3 334/2/3 333/2/3
f 336/2/3 334/2/3 335/2/3
f 339/2/3 338/2/3 337/2/3
f 340/2/3 338/2/3 339/2/3
f 341/2/3 338/2/3 340/2/3
f 342/1/3 340/1/3 339/1/3
f 343/1/3 340/1/3 342/1/3
f 345/3/3 344/3/3 343/3/3
f 346/3/3 344/3/3 345/3/3
f 347/2/3 338/2/3 341/2/3
f 348/2/3 338/2/3 347/2/3
f 350/3/3 347/3/3 346/3/3
f 351/5/3 349/5/3 348/5/3
f 351/3/3 347/3/3 350/3/3
f 351/5/3 348/5/3 347/5/3
f 352/5/3 349/5/3 351/5/3
f 353/5/3 349/5/3 352/5/3
f 356/3/3 355/3/3 354/3/3
f 357/3/3 355/3/3 356/3/3
f 362/1/3 359/1/3 358/1/3
f 363/1/3 359/1/3 362/1/3
f 364/3/3 361/3/3 360/3/3
f 365/1/3 362/1/3 361/1/3
f 365/3/3 361/3/3 364/3/3
f 366/1/3 362/1/3 365/1/3
f 369/3/3 368/3/3 367/3/3
f 370/3/3 368/3/3 369/3/3
f 372/3/3 371/3/3 370/3/3
f 373/3/3 371/3/3 372/3/3
f 377/3/3 375/3/3 374/3/3
f 378/3/3 375/3/3 377/3/3
f 379/3/3 377/3/3 376/3/3
f 380/3/3 377/3/3 379/3/3
f 383/2/3 382/2/3 381/2/3
f 384/2/3 382/2/3 383/2/3
f 387/2/3 386/2/3 385/2/3
f 388/2/3 386/2/3 387/2/3
f 391/1/3 388/1/3 387/1/3
f 392/1/3 388/1/3 391/1/3
f 393/3/3 390/3/3 389/3/3
f 394/3/3 390/3/3 393/3/3
f 395/3/3 392/3/3 391/3/3
f 396/3/3 392/3/3 395/3/3
f 399/5/3 398/5/3 397/5/3
f 400/5/3 398/5/3 399/5/3
f 403/3/3 402/3/3 401/3/3
f 404/3/3 402/3/3 403/3/3
f 407/2/3 406/2/3 405/2/3
f 408/2/3 406/2/3 407/2/3
f 411/5/3 410/5/3 409/5/3
f 412/5/3 410/5/3 411/5/3
f 415/1/3 414/1/3 413/1/3
f 416/1/3 414/1/3 415/1/3
f 419/1/3 418/1/3 417/1/3
f 420/1/3 418/1/3 419/1/3
f 423/1/3 422/1/3 421/1/3
f 424/1/3 422/1/3 423/1/3
f 425/3/4 426/3/4 428/3/4
f 426/2/4 427/2/4 429/2/4
f 428/3/4 426/3/4 429/3/4
f 429/2/4 427/2/4 430/2/4
f 431/1/4 432/1/4 433/1/4
f 433/1/4 432/1/4 434/1/4
f 434/1/4 435/1/4 436/1/4
f 436/1/4 435/1/4 437/1/4
f 438/2/4 439/2/4 441/2/4
f 440/2/4 441/2/4 442/2/4
f 441/2/4 439/2/4 443/2/4
f 442/2/4 441/2/4 443/2/4
f 444/2/4 445/2/4 446/2/4
f 446/2/4 445/2/4 447/2/4
f 446/1/4 447/1/4 448/1/4
f 448/1/4 447/1/4 449/1/4
f 450/5/4 451/5/4 452/5/4
f 452/5/4 451/5/4 453/5/4
f 454/2/4 455/2/4 456/2/4
f 456/2/4 455/2/4 457/2/4
f 458/1/4 459/1/4 460/1/4
f 460/1/4 459/1/4 461/1/4
f 462/5/4 463/5/4 464/5/4
f 464/5/4 463/5/4 465/5/4
f 466/2/4 467/2/4 468/2/4
f 468/2/4 467/2/4 469/2/4
f 470/5/4 471/5/4 472/5/4
f 472/5/4 471/5/4 473/5/4
f 474/1/4 475/1/4 476/1/4
f 476/1/4 475/1/4 477/1/4
f 478/2/4 479/2/4 480/2/4
f 480/2/4 479/2/4 481/2/4
f 482/1/4 483/1/4 485/1/4
f 485/1/4 483/1/4 486/1/4
f 484/1/4 485/1/4 488/1/4
f 488/1/4 485/1/4 489/1/4
f 486/1/4 487/1/4 490/1/4
f 488/3/4 489/3/4 491/3/4
f 489/1/4 490/1/4 491/1/4
f 490/1/4 487/1/4 492/1/4
f 491/1/4 490/1/4 492/1/4
f 488/3/4 491/3/4 493/3/4
f 491/3/4 492/3/4 493/3/4
f 493/3/4 492/3/4 494/3/4
f 493/2/4 494/2/4 495/2/4
f 494/3/4 492/3/4 496/3/4
f 495/2/4 494/2/4 496/2/4
f 492/1/4 487/1/4 497/1/4
f 496/3/4 492/3/4 497/3/4
f 497/1/4 487/1/4 498/1/4
f 499/1/4 500/1/4 501/1/4
f 501/1/4 500/1/4 502/1/4
f 502/1/4 503/1/4 505/1/4
f 505/1/4 503/1/4 506/1/4
f 504/1/4 505/1/4 507/1/4
f 507/1/4 505/1/4 508/1/4
f 509/1/4 510/1/4 511/1/4
f 511/1/4 510/1/4 512/1/4
f 511/2/4 512/2/4 515/2/4
f 513/2/4 514/2/4 515/2/4
f 512/2/4 513/2/4 515/2/4
f 515/2/4 514/2/4 516/2/4
f 511/2/4 515/2/4 517/2/4
f 515/3/4 516/3/4 518/3/4
f 517/2/4 515/2/4 518/2/4
f 516/2/4 514/2/4 519/2/4
f 518/3/4 516/3/4 519/3/4
f 519/2/4 514/2/4 520/2/4
f 511/2/4 517/2/4 521/2/4
f 517/3/4 518/3/4 522/3/4
f 521/2/4 517/2/4 522/2/4
f 522/3/4 518/3/4 523/3/4
f 519/3/4 520/3/4 524/3/4
f 524/3/4 520/3/4 525/3/4
f 521/3/4 522/3/4 526/3/4
f 526/3/4 522/3/4 527/3/4
f 528/3/4 529/3/4 530/3/4
f 530/3/4 529/3/4 531/3/4
f 535/1/5 533/1/5 532/1/5
f 535/3/5 534/3/5 533/3/5
f 536/3/5 534/3/5 535/3/5
f 539/1/5 535/1/5 532/1/5
f 540/1/5 535/1/5 539/1/5
f 541/2/5 536/2/5 535/2/5
f 541/1/5 535/1/5 540/1/5
f 543/2/5 539/2/5 538/2/5
f 544/1/5 540/1/5 539/1/5
f 544/2/5 539/2/5 543/2/5
f 545/2/5 541/2/5 540/2/5
f 545/1/5 540/1/5 544/1/5
f 546/2/5 536/2/5 541/2/5
f 546/2/5 541/2/5 545/2/5
f 547/3/5 537/3/5 536/3/5
f 547/2/5 536/2/5 546/2/5
f 548/3/5 537/3/5 547/3/5
f 550/1/5 543/1/5 542/1/5
f 550/1/5 544/1/5 543/1/5
f 551/2/5 546/2/5 545/2/5
f 551/1/5 544/1/5 550/1/5
f 551/2/5 545/2/5 544/2/5
f 552/3/5 547/3/5 546/3/5
f 552/2/5 546/2/5 551/2/5
f 553/2/5 548/2/5 547/2/5
f 553/3/5 547/3/5 552/3/5
f 554/3/5 549/3/5 548/3/5
f 554/2/5 548/2/5 553/2/5
f 555/3/5 549/3/5 554/3/5
f 558/2/5 551/2/5 550/2/5
f 559/2/5 551/2/5 558/2/5
f 560/3/5 552/3/5 551/3/5
f 560/2/5 551/2/5 559/2/5
f 561/3/5 552/3/5 560/3/5
f 562/2/5 553/2/5 552/2/5
f 562/2/5 554/2/5 553/2/5
f 562/2/5 555/2/5 554/2/5
f 564/2/5 557/2/5 556/2/5
f 565/1/5 559/1/5 558/1/5
f 565/2/5 557/2/5 564/2/5
f 565/1/5 558/1/5 557/1/5
f 566/3/5 560/3/5 559/3/5
f 566/1/5 559/1/5 565/1/5
f 567/4/5 561/4/5 560/4/5
f 567/3/5 560/3/5 566/3/5
f 568/3/5 552/3/5 561/3/5
f 568/4/5 561/4/5 567/4/5
f 569/2/5 562/2/5 552/2/5
f 569/3/5 552/3/5 568/3/5
f 570/2/5 562/2/5 569/2/5
f 574/3/5 567/3/5 566/3/5
f 574/3/5 568/3/5 567/3/5
f 575/2/5 569/2/5 568/2/5
f 575/3/5 568/3/5 574/3/5
f 576/3/5 570/3/5 569/3/5
f 576/2/5 569/2/5 575/2/5
f 577/2/5 562/2/5 570/2/5
f 577/3/5 570/3/5 576/3/5
f 578/2/5 562/2/5 577/2/5
f 579/1/5 573/1/5 572/1/5
f 579/2/5 572/2/5 571/2/5
f 580/3/5 574/3/5 573/3/5
f 580/1/5 573/1/5 579/1/5
f 581/2/5 575/2/5 574/2/5
f 581/3/5 574/3/5 580/3/5
f 582/2/5 575/2/5 581/2/5
f 583/3/5 576/3/5 575/3/5
f 583/2/5 575/2/5 582/2/5
f 584/4/5 577/4/5 576/4/5
f 584/3/5 576/3/5 583/3/5
f 585/3/5 578/3/5 577/3/5
f 585/4/5 577/4/5 584/4/5
f 586/2/5 562/2/5 578/2/5
f 586/3/5 578/3/5 585/3/5
f 587/3/5 563/3/5 562/3/5
f 587/2/5 562/2/5 586/2/5
f 588/3/5 563/3/5 587/3/5
f 589/2/5 579/2/5 571/2/5
f 590/3/5 580/3/5 579/3/5
f 590/2/5 579/2/5 589/2/5
f 591/4/5 581/4/5 580/4/5
f 591/3/5 580/3/5 590/3/5
f 592/3/5 582/3/5 581/3/5
f 592/4/5 581/4/5 591/4/5
f 593/2/5 584/2/5 583/2/5
f 593/3/5 582/3/5 592/3/5
f 593/2/5 583/2/5 582/2/5
f 594/3/5 585/3/5 584/3/5
f 594/2/5 584/2/5 593/2/5
f 595/2/5 586/2/5 585/2/5
f 595/3/5 585/3/5 594/3/5
f 595/2/5 588/2/5 587/2/5
f 595/2/5 587/2/5 586/2/5
f 596/2/5 588/2/5 595/2/5
f 597/2/5 588/2/5 596/2/5
f 598/1/5 590/1/5 589/1/5
f 599/3/5 591/3/5 590/3/5
f 599/1/5 590/1/5 598/1/5
f 599/3/5 592/3/5 591/3/5
f 600/2/5 593/2/5 592/2/5
f 600/3/5 592/3/5 599/3/5
f 600/2/5 594/2/5 593/2/5
f 600/2/5 596/2/5 595/2/5
f 600/2/5 595/2/5 594/2/5
f 601/2/5 596/2/5 600/2/5
f 602/2/5 596/2/5 601/2/5
f 603/1/5 597/1/5 596/1/5
f 603/2/5 596/2/5 602/2/5
f 604/1/5 597/1/5 603/1/5
f 605/1/5 602/1/5 601/1/5
f 606/2/5 603/2/5 602/2/5
f 606/1/5 602/1/5 605/1/5
f 607/3/5 604/3/5 603/3/5
f 607/2/5 603/2/5 606/2/5
f 608/3/5 604/3/5 607/3/5
f 611/1/5 610/1/5 609/1/5
f 612/1/5 610/1/5 611/1/5
f 616/2/5 614/2/5 613/2/5
f 617/3/5 615/3/5 614/3/5
f 617/2/5 614/2/5 616/2/5
f 618/3/5 615/3/5 617/3/5
f 619/3/5 615/3/5 618/3/5
f 624/1/5 621/1/5 620/1/5
f 625/1/5 621/1/5 624/1/5
f 626/1/5 623/1/5 622/1/5
f 627/1/5 623/1/5 626/1/5
f 630/3/5 629/3/5 628/3/5
f 631/3/5 629/3/5 630/3/5
f 638/1/5 633/1/5 632/1/5
f 639/1/5 633/1/5 638/1/5
f 640/2/5 637/2/5 636/2/5
f 640/2/5 635/2/5 634/2/5
f 640/2/5 636/2/5 635/2/5
f 641/2/5 637/2/5 640/2/5
f 642/2/5 637/2/5 641/2/5
f 643/2/5 637/2/5 642/2/5
f 646/2/5 642/2/5 641/2/5
f 647/2/5 642/2/5 646/2/5
f 649/2/5 645/2/5 644/2/5
f 650/2/5 645/2/5 649/2/5
f 651/1/5 648/1/5 647/1/5
f 652/1/5 648/1/5 651/1/5
f 653/1/5 648/1/5 652/1/5
f 654/2/5 649/2/5 644/2/5
f 655/2/5 649/2/5 654/2/5
f 656/3/5 653/3/5 652/3/5
f 657/3/5 653/3/5 656/3/5
f 662/1/5 659/1/5 658/1/5
f 663/1/5 659/1/5 662/1/5
f 665/1/5 661/1/5 660/1/5
f 666/1/5 661/1/5 665/1/5
f 667/3/5 665/3/5 664/3/5
f 668/3/5 665/3/5 667/3/5
f 669/1/6 670/1/6 672/1/6
f 670/3/6 671/3/6 672/3/6
f 672/3/6 671/3/6 673/3/6
f 669/1/6 672/1/6 676/1/6
f 676/1/6 672/1/6 677/1/6
f 672/2/6 673/2/6 678/2/6
f 677/1/6 672/1/6 678/1/6
f 673/3/6 674/3/6 679/3/6
f 678/2/6 673/2/6 679/2/6
f 675/2/6 676/2/6 681/2/6
f 681/2/6 676/2/6 682/2/6
f 677/2/6 678/2/6 683/2/6
f 683/2/6 678/2/6 684/2/6
f 679/3/6 674/3/6 685/3/6
f 685/3/6 674/3/6 686/3/6
f 681/1/6 682/1/6 687/1/6
f 680/1/6 681/1/6 687/1/6
f 687/1/6 682/1/6 688/1/6
f 688/1/6 682/1/6 689/1/6
f 684/3/6 685/3/6 690/3/6
f 685/2/6 686/2/6 691/2/6
f 690/3/6 685/3/6 691/3/6
f 691/2/6 686/2/6 692/2/6
f 687/2/6 688/2/6 694/2/6
f 694/2/6 688/2/6 695/2/6
f 693/1/6 694/1/6 698/1/6
f 698/1/6 694/1/6 699/1/6
f 696/2/6 697/2/6 700/2/6
f 700/2/6 697/2/6 701/2/6
f 702/1/6 703/1/6 706/1/6
f 706/1/6 703/1/6 707/1/6
f 704/1/6 705/1/6 708/1/6
f 708/1/6 705/1/6 709/1/6
f 708/3/6 709/3/6 710/3/6
f 710/3/6 709/3/6 711/3/6
f 712/3/6 713/3/6 714/3/6
f 712/3/6 714/3/6 717/3/6
f 714/3/6 715/3/6 717/3/6
f 717/3/6 715/3/6 718/3/6
f 716/3/6 717/3/6 721/3/6
f 721/3/6 717/3/6 722/3/6
f 718/3/6 719/3/6 723/3/6
f 723/3/6 719/3/6 724/3/6
f 720/3/6 721/3/6 727/3/6
f 727/3/6 721/3/6 728/3/6
f 724/3/6 725/3/6 729/3/6
f 729/3/6 725/3/6 730/3/6
f 726/3/6 727/3/6 732/3/6
f 732/3/6 727/3/6 733/3/6
f 730/3/6 731/3/6 734/3/6
f 734/3/6 731/3/6 735/3/6
f 736/3/6 737/3/6 738/3/6
f 738/3/6 737/3/6 739/3/6
f 740/1/6 741/1/6 744/1/6
f 744/1/6 741/1/6 745/1/6
f 742/1/6 743/1/6 746/1/6
f 746/1/6 743/1/6 747/1/6
f 746/2/6 747/2/6 748/2/6
f 748/2/6 747/2/6 749/2/6
f 749/1/6 750/1/6 751/1/6
f 751/1/6 750/1/6 752/1/6
f 753/1/6 754/1/6 755/1/6
f 755/1/6 754/1/6 756/1/6
f 756/3/6 757/3/6 760/3/6
f 760/3/6 757/3/6 761/3/6
f 758/1/6 759/1/6 766/1/6
f 766/1/6 759/1/6 767/1/6
f 762/3/6 763/3/6 768/3/6
f 764/1/6 765/1/6 769/1/6
f 769/1/6 765/1/6 770/1/6
f 768/3/6 763/3/6 771/3/6
f 768/3/6 771/3/6 772/3/6
f 772/3/6 771/3/6 773/3/6
f 774/2/6 775/2/6 779/2/6
f 779/2/6 775/2/6 780/2/6
f 776/1/6 777/1/6 782/1/6
f 782/1/6 777/1/6 783/1/6
f 780/2/6 781/2/6 784/2/6
f 778/2/6 779/2/6 784/2/6
f 779/2/6 780/2/6 784/2/6
f 784/2/6 781/2/6 785/2/6
f 785/2/6 781/2/6 786/2/6
f 783/1/6 784/1/6 789/1/6
f 784/2/6 785/2/6 790/2/6
f 789/1/6 784/1/6 790/1/6
f 790/2/6 785/2/6 791/2/6
f 785/3/6 786/3/6 792/3/6
f 791/2/6 785/2/6 792/2/6
f 792/3/6 786/3/6 793/3/6
f 787/2/6 788/2/6 795/2/6
f 789/3/6 790/3/6 796/3/6
f 790/2/6 791/2/6 797/2/6
f 796/3/6 790/3/6 797/3/6
f 791/3/6 792/3/6 798/3/6
f 797/2/6 791/2/6 798/2/6
f 792/1/6 793/1/6 799/1/6
f 798/3/6 792/3/6 799/3/6
f 793/1/6 794/1/6 799/1/6
f 799/1/6 794/1/6 800/1/6
f 787/2/6 795/2/6 802/2/6
f 802/2/6 795/2/6 803/2/6
f 803/2/6 795/2/6 804/2/6
f 797/3/6 798/3/6 805/3/6
f 798/2/6 799/2/6 805/2/6
f 799/3/6 800/3/6 806/3/6
f 805/2/6 799/2/6 806/2/6
f 800/2/6 801/2/6 807/2/6
f 806/3/6 800/3/6 807/3/6
f 803/1/6 804/1/6 809/1/6
f 804/2/6 795/2/6 810/2/6
f 809/1/6 804/1/6 810/1/6
f 795/3/6 796/3/6 811/3/6
f 810/2/6 795/2/6 811/2/6
f 796/1/6 797/1/6 812/1/6
f 797/3/6 805/3/6 812/3/6
f 812/3/6 805/3/6 813/3/6
f 806/2/6 807/2/6 814/2/6
f 808/2/6 809/2/6 815/2/6
f 815/2/6 809/2/6 816/2/6
f 811/3/6 796/3/6 818/3/6
f 812/1/6 813/1/6 819/1/6
f 796/1/6 812/1/6 819/1/6
f 818/3/6 796/3/6 819/3/6
f 813/2/6 814/2/6 820/2/6
f 819/1/6 813/1/6 820/1/6
f 814/2/6 807/2/6 821/2/6
f 820/2/6 814/2/6 821/2/6
f 807/2/6 801/2/6 821/2/6
f 821/2/6 801/2/6 822/2/6
f 818/1/6 819/1/6 823/1/6
f 815/1/6 816/1/6 823/1/6
f 816/1/6 817/1/6 823/1/6
f 817/1/6 818/1/6 823/1/6
f 823/1/6 819/1/6 824/1/6
f 820/2/6 821/2/6 825/2/6
f 821/1/6 822/1/6 826/1/6
f 825/2/6 821/2/6 826/2/6
f 826/1/6 822/1/6 827/1/6
f 820/2/6 825/2/6 828/2/6
f 825/3/6 826/3/6 829/3/6
f 828/2/6 825/2/6 829/2/6
f 829/3/6 826/3/6 830/3/6
f 831/5/6 832/5/6 833/5/6
f 833/5/6 832/5/6 834/5/6
f 835/5/6 836/5/6 837/5/6
f 837/5/6 836/5/6 838/5/6
f 839/5/6 840/5/6 841/5/6
f 841/5/6 840/5/6 842/5/6
