# MagicaVoxel @ Ephtracy

# group
g HellProps-0

# material
mtllib HellProps-0.mtl
usemtl palette

# normals
vn -1 0 0
vn 1 0 0
vn 0 0 1
vn 0 0 -1
vn 0 -1 0
vn 0 1 0

# texcoords
vt 0.306641 0.5
vt 0.939453 0.5
vt 0.970703 0.5
vt 0.974609 0.5

# verts
v -5.5 3 0.5
v -5.5 3 -0.5
v -5.5 7 0.5
v -5.5 7 -0.5
v -4.5 1 0.5
v -4.5 1 -0.5
v -4.5 3 0.5
v -4.5 3 -0.5
v -4.5 7 0.5
v -4.5 7 -0.5
v -4.5 8 0.5
v -4.5 8 -0.5
v -3.5 0 0.5
v -3.5 0 -0.5
v -3.5 1 0.5
v -3.5 1 -0.5
v -3.5 8 0.5
v -3.5 8 -0.5
v -3.5 10 0.5
v -3.5 10 -0.5
v -2.5 2 1.5
v -2.5 2 0.5
v -2.5 2 -0.5
v -2.5 2 -1.5
v -2.5 4 1.5
v -2.5 4 0.5
v -2.5 4 -0.5
v -2.5 4 -1.5
v -2.5 5 1.5
v -2.5 5 -1.5
v -1.5 1 1.5
v -1.5 1 -1.5
v -1.5 2 2.5
v -1.5 2 1.5
v -1.5 2 -1.5
v -1.5 2 -2.5
v -1.5 4 2.5
v -1.5 4 1.5
v -1.5 4 -1.5
v -1.5 4 -2.5
v -1.5 5 2.5
v -1.5 5 1.5
v -1.5 5 -1.5
v -1.5 5 -2.5
v -0.5 0 3.5
v -0.5 0 2.5
v -0.5 0 -2.5
v -0.5 0 -3.5
v -0.5 1 4.5
v -0.5 1 3.5
v -0.5 1 -3.5
v -0.5 1 -4.5
v -0.5 2 2.5
v -0.5 2 -2.5
v -0.5 3 5.5
v -0.5 3 4.5
v -0.5 3 -4.5
v -0.5 3 -5.5
v -0.5 4 3.5
v -0.5 4 2.5
v -0.5 4 -2.5
v -0.5 4 -3.5
v -0.5 6 3.5
v -0.5 6 2.5
v -0.5 6 -2.5
v -0.5 6 -3.5
v -0.5 7 5.5
v -0.5 7 4.5
v -0.5 7 -4.5
v -0.5 7 -5.5
v -0.5 8 4.5
v -0.5 8 3.5
v -0.5 8 -3.5
v -0.5 8 -4.5
v -0.5 10 3.5
v -0.5 10 2.5
v -0.5 10 -2.5
v -0.5 10 -3.5
v 1.5 4 1.5
v 1.5 4 -1.5
v 1.5 5 1.5
v 1.5 5 -1.5
v 2.5 0 0.5
v 2.5 0 -0.5
v 2.5 2 0.5
v 2.5 2 -0.5
v 2.5 6 0.5
v 2.5 6 -0.5
v 2.5 10 0.5
v 2.5 10 -0.5
v 3.5 4 0.5
v 3.5 4 -0.5
v 3.5 6 0.5
v 3.5 6 -0.5
v -3.5 4 0.5
v -3.5 4 -0.5
v -3.5 6 0.5
v -3.5 6 -0.5
v -2.5 0 0.5
v -2.5 0 -0.5
v -2.5 2 0.5
v -2.5 2 -0.5
v -2.5 6 0.5
v -2.5 6 -0.5
v -2.5 10 0.5
v -2.5 10 -0.5
v -1.5 4 1.5
v -1.5 4 -1.5
v -1.5 5 1.5
v -1.5 5 -1.5
v 0.5 0 3.5
v 0.5 0 2.5
v 0.5 0 -2.5
v 0.5 0 -3.5
v 0.5 1 4.5
v 0.5 1 3.5
v 0.5 1 -3.5
v 0.5 1 -4.5
v 0.5 2 2.5
v 0.5 2 -2.5
v 0.5 3 5.5
v 0.5 3 4.5
v 0.5 3 -4.5
v 0.5 3 -5.5
v 0.5 4 3.5
v 0.5 4 2.5
v 0.5 4 -2.5
v 0.5 4 -3.5
v 0.5 6 3.5
v 0.5 6 2.5
v 0.5 6 -2.5
v 0.5 6 -3.5
v 0.5 7 5.5
v 0.5 7 4.5
v 0.5 7 -4.5
v 0.5 7 -5.5
v 0.5 8 4.5
v 0.5 8 3.5
v 0.5 8 -3.5
v 0.5 8 -4.5
v 0.5 10 3.5
v 0.5 10 2.5
v 0.5 10 -2.5
v 0.5 10 -3.5
v 1.5 1 1.5
v 1.5 1 -1.5
v 1.5 2 2.5
v 1.5 2 1.5
v 1.5 2 -1.5
v 1.5 2 -2.5
v 1.5 4 2.5
v 1.5 4 1.5
v 1.5 4 -1.5
v 1.5 4 -2.5
v 1.5 5 2.5
v 1.5 5 1.5
v 1.5 5 -1.5
v 1.5 5 -2.5
v 2.5 2 1.5
v 2.5 2 0.5
v 2.5 2 -0.5
v 2.5 2 -1.5
v 2.5 4 1.5
v 2.5 4 0.5
v 2.5 4 -0.5
v 2.5 4 -1.5
v 2.5 5 1.5
v 2.5 5 -1.5
v 3.5 0 0.5
v 3.5 0 -0.5
v 3.5 1 0.5
v 3.5 1 -0.5
v 3.5 8 0.5
v 3.5 8 -0.5
v 3.5 10 0.5
v 3.5 10 -0.5
v 4.5 1 0.5
v 4.5 1 -0.5
v 4.5 3 0.5
v 4.5 3 -0.5
v 4.5 7 0.5
v 4.5 7 -0.5
v 4.5 8 0.5
v 4.5 8 -0.5
v 5.5 3 0.5
v 5.5 3 -0.5
v 5.5 7 0.5
v 5.5 7 -0.5
v -0.5 3 5.5
v -0.5 7 5.5
v 0.5 3 5.5
v 0.5 7 5.5
v -0.5 1 4.5
v -0.5 3 4.5
v -0.5 7 4.5
v -0.5 8 4.5
v 0.5 1 4.5
v 0.5 3 4.5
v 0.5 7 4.5
v 0.5 8 4.5
v -0.5 0 3.5
v -0.5 1 3.5
v -0.5 8 3.5
v -0.5 10 3.5
v 0.5 0 3.5
v 0.5 1 3.5
v 0.5 8 3.5
v 0.5 10 3.5
v -1.5 2 2.5
v -1.5 4 2.5
v -1.5 5 2.5
v -0.5 2 2.5
v -0.5 4 2.5
v 0.5 2 2.5
v 0.5 4 2.5
v 1.5 2 2.5
v 1.5 4 2.5
v 1.5 5 2.5
v -2.5 2 1.5
v -2.5 4 1.5
v -2.5 5 1.5
v -1.5 1 1.5
v -1.5 2 1.5
v -1.5 4 1.5
v -1.5 5 1.5
v 1.5 1 1.5
v 1.5 2 1.5
v 1.5 4 1.5
v 1.5 5 1.5
v 2.5 2 1.5
v 2.5 4 1.5
v 2.5 5 1.5
v -5.5 3 0.5
v -5.5 7 0.5
v -4.5 1 0.5
v -4.5 3 0.5
v -4.5 7 0.5
v -4.5 8 0.5
v -3.5 0 0.5
v -3.5 1 0.5
v -3.5 4 0.5
v -3.5 6 0.5
v -3.5 8 0.5
v -3.5 10 0.5
v -2.5 0 0.5
v -2.5 2 0.5
v -2.5 4 0.5
v -2.5 6 0.5
v -2.5 10 0.5
v 2.5 0 0.5
v 2.5 2 0.5
v 2.5 4 0.5
v 2.5 6 0.5
v 2.5 10 0.5
v 3.5 0 0.5
v 3.5 1 0.5
v 3.5 4 0.5
v 3.5 6 0.5
v 3.5 8 0.5
v 3.5 10 0.5
v 4.5 1 0.5
v 4.5 3 0.5
v 4.5 7 0.5
v 4.5 8 0.5
v 5.5 3 0.5
v 5.5 7 0.5
v -1.5 4 -1.5
v -1.5 5 -1.5
v 1.5 4 -1.5
v 1.5 5 -1.5
v -0.5 0 -2.5
v -0.5 2 -2.5
v -0.5 6 -2.5
v -0.5 10 -2.5
v 0.5 0 -2.5
v 0.5 2 -2.5
v 0.5 6 -2.5
v 0.5 10 -2.5
v -0.5 4 -3.5
v -0.5 6 -3.5
v 0.5 4 -3.5
v 0.5 6 -3.5
v -0.5 4 3.5
v -0.5 6 3.5
v 0.5 4 3.5
v 0.5 6 3.5
v -0.5 0 2.5
v -0.5 2 2.5
v -0.5 6 2.5
v -0.5 10 2.5
v 0.5 0 2.5
v 0.5 2 2.5
v 0.5 6 2.5
v 0.5 10 2.5
v -1.5 4 1.5
v -1.5 5 1.5
v 1.5 4 1.5
v 1.5 5 1.5
v -5.5 3 -0.5
v -5.5 7 -0.5
v -4.5 1 -0.5
v -4.5 3 -0.5
v -4.5 7 -0.5
v -4.5 8 -0.5
v -3.5 0 -0.5
v -3.5 1 -0.5
v -3.5 4 -0.5
v -3.5 6 -0.5
v -3.5 8 -0.5
v -3.5 10 -0.5
v -2.5 0 -0.5
v -2.5 2 -0.5
v -2.5 4 -0.5
v -2.5 6 -0.5
v -2.5 10 -0.5
v 2.5 0 -0.5
v 2.5 2 -0.5
v 2.5 4 -0.5
v 2.5 6 -0.5
v 2.5 10 -0.5
v 3.5 0 -0.5
v 3.5 1 -0.5
v 3.5 4 -0.5
v 3.5 6 -0.5
v 3.5 8 -0.5
v 3.5 10 -0.5
v 4.5 1 -0.5
v 4.5 3 -0.5
v 4.5 7 -0.5
v 4.5 8 -0.5
v 5.5 3 -0.5
v 5.5 7 -0.5
v -2.5 2 -1.5
v -2.5 4 -1.5
v -2.5 5 -1.5
v -1.5 1 -1.5
v -1.5 2 -1.5
v -1.5 4 -1.5
v -1.5 5 -1.5
v 1.5 1 -1.5
v 1.5 2 -1.5
v 1.5 4 -1.5
v 1.5 5 -1.5
v 2.5 2 -1.5
v 2.5 4 -1.5
v 2.5 5 -1.5
v -1.5 2 -2.5
v -1.5 4 -2.5
v -1.5 5 -2.5
v -0.5 2 -2.5
v -0.5 4 -2.5
v 0.5 2 -2.5
v 0.5 4 -2.5
v 1.5 2 -2.5
v 1.5 4 -2.5
v 1.5 5 -2.5
v -0.5 0 -3.5
v -0.5 1 -3.5
v -0.5 8 -3.5
v -0.5 10 -3.5
v 0.5 0 -3.5
v 0.5 1 -3.5
v 0.5 8 -3.5
v 0.5 10 -3.5
v -0.5 1 -4.5
v -0.5 3 -4.5
v -0.5 7 -4.5
v -0.5 8 -4.5
v 0.5 1 -4.5
v 0.5 3 -4.5
v 0.5 7 -4.5
v 0.5 8 -4.5
v -0.5 3 -5.5
v -0.5 7 -5.5
v 0.5 3 -5.5
v 0.5 7 -5.5
v -0.5 0 3.5
v 0.5 0 3.5
v -0.5 0 2.5
v 0.5 0 2.5
v -3.5 0 0.5
v -2.5 0 0.5
v 2.5 0 0.5
v 3.5 0 0.5
v -3.5 0 -0.5
v -2.5 0 -0.5
v 2.5 0 -0.5
v 3.5 0 -0.5
v -0.5 0 -2.5
v 0.5 0 -2.5
v -0.5 0 -3.5
v 0.5 0 -3.5
v -0.5 1 4.5
v 0.5 1 4.5
v -0.5 1 3.5
v 0.5 1 3.5
v -1.5 1 1.5
v 1.5 1 1.5
v -4.5 1 0.5
v -3.5 1 0.5
v 3.5 1 0.5
v 4.5 1 0.5
v -4.5 1 -0.5
v -3.5 1 -0.5
v 3.5 1 -0.5
v 4.5 1 -0.5
v -1.5 1 -1.5
v 1.5 1 -1.5
v -0.5 1 -3.5
v 0.5 1 -3.5
v -0.5 1 -4.5
v 0.5 1 -4.5
v -1.5 2 2.5
v -0.5 2 2.5
v 0.5 2 2.5
v 1.5 2 2.5
v -2.5 2 1.5
v -1.5 2 1.5
v 1.5 2 1.5
v 2.5 2 1.5
v -2.5 2 0.5
v 2.5 2 0.5
v -2.5 2 -0.5
v 2.5 2 -0.5
v -2.5 2 -1.5
v -1.5 2 -1.5
v 1.5 2 -1.5
v 2.5 2 -1.5
v -1.5 2 -2.5
v -0.5 2 -2.5
v 0.5 2 -2.5
v 1.5 2 -2.5
v -0.5 3 5.5
v 0.5 3 5.5
v -0.5 3 4.5
v 0.5 3 4.5
v -5.5 3 0.5
v -4.5 3 0.5
v 4.5 3 0.5
v 5.5 3 0.5
v -5.5 3 -0.5
v -4.5 3 -0.5
v 4.5 3 -0.5
v 5.5 3 -0.5
v -0.5 3 -4.5
v 0.5 3 -4.5
v -0.5 3 -5.5
v 0.5 3 -5.5
v -0.5 6 3.5
v 0.5 6 3.5
v -0.5 6 2.5
v 0.5 6 2.5
v -3.5 6 0.5
v -2.5 6 0.5
v 2.5 6 0.5
v 3.5 6 0.5
v -3.5 6 -0.5
v -2.5 6 -0.5
v 2.5 6 -0.5
v 3.5 6 -0.5
v -0.5 6 -2.5
v 0.5 6 -2.5
v -0.5 6 -3.5
v 0.5 6 -3.5
v -0.5 4 3.5
v 0.5 4 3.5
v -0.5 4 2.5
v 0.5 4 2.5
v -1.5 4 1.5
v 1.5 4 1.5
v -3.5 4 0.5
v -2.5 4 0.5
v 2.5 4 0.5
v 3.5 4 0.5
v -3.5 4 -0.5
v -2.5 4 -0.5
v 2.5 4 -0.5
v 3.5 4 -0.5
v -1.5 4 -1.5
v 1.5 4 -1.5
v -0.5 4 -2.5
v 0.5 4 -2.5
v -0.5 4 -3.5
v 0.5 4 -3.5
v -1.5 5 2.5
v 1.5 5 2.5
v -2.5 5 1.5
v -1.5 5 1.5
v 1.5 5 1.5
v 2.5 5 1.5
v -2.5 5 -1.5
v -1.5 5 -1.5
v 1.5 5 -1.5
v 2.5 5 -1.5
v -1.5 5 -2.5
v 1.5 5 -2.5
v -0.5 7 5.5
v 0.5 7 5.5
v -0.5 7 4.5
v 0.5 7 4.5
v -5.5 7 0.5
v -4.5 7 0.5
v 4.5 7 0.5
v 5.5 7 0.5
v -5.5 7 -0.5
v -4.5 7 -0.5
v 4.5 7 -0.5
v 5.5 7 -0.5
v -0.5 7 -4.5
v 0.5 7 -4.5
v -0.5 7 -5.5
v 0.5 7 -5.5
v -0.5 8 4.5
v 0.5 8 4.5
v -0.5 8 3.5
v 0.5 8 3.5
v -4.5 8 0.5
v -3.5 8 0.5
v 3.5 8 0.5
v 4.5 8 0.5
v -4.5 8 -0.5
v -3.5 8 -0.5
v 3.5 8 -0.5
v 4.5 8 -0.5
v -0.5 8 -3.5
v 0.5 8 -3.5
v -0.5 8 -4.5
v 0.5 8 -4.5
v -0.5 10 3.5
v 0.5 10 3.5
v -0.5 10 2.5
v 0.5 10 2.5
v -3.5 10 0.5
v -2.5 10 0.5
v 2.5 10 0.5
v 3.5 10 0.5
v -3.5 10 -0.5
v -2.5 10 -0.5
v 2.5 10 -0.5
v 3.5 10 -0.5
v -0.5 10 -2.5
v 0.5 10 -2.5
v -0.5 10 -3.5
v 0.5 10 -3.5

# faces
f 3/3/1 2/3/1 1/3/1
f 4/3/1 2/3/1 3/3/1
f 7/3/1 6/3/1 5/3/1
f 8/3/1 6/3/1 7/3/1
f 11/3/1 10/3/1 9/3/1
f 12/3/1 10/3/1 11/3/1
f 15/3/1 14/3/1 13/3/1
f 16/3/1 14/3/1 15/3/1
f 19/3/1 18/3/1 17/3/1
f 20/3/1 18/3/1 19/3/1
f 25/4/1 22/4/1 21/4/1
f 26/4/1 22/4/1 25/4/1
f 27/4/1 24/4/1 23/4/1
f 28/4/1 24/4/1 27/4/1
f 29/3/1 26/3/1 25/3/1
f 29/3/1 27/3/1 26/3/1
f 29/3/1 28/3/1 27/3/1
f 30/3/1 28/3/1 29/3/1
f 34/4/1 32/4/1 31/4/1
f 35/4/1 32/4/1 34/4/1
f 37/4/1 34/4/1 33/4/1
f 38/4/1 34/4/1 37/4/1
f 39/4/1 36/4/1 35/4/1
f 40/4/1 36/4/1 39/4/1
f 41/3/1 38/3/1 37/3/1
f 42/3/1 38/3/1 41/3/1
f 43/3/1 40/3/1 39/3/1
f 44/3/1 40/3/1 43/3/1
f 50/3/1 46/3/1 45/3/1
f 51/3/1 48/3/1 47/3/1
f 53/3/1 50/3/1 49/3/1
f 53/3/1 46/3/1 50/3/1
f 54/3/1 52/3/1 51/3/1
f 54/3/1 51/3/1 47/3/1
f 56/3/1 53/3/1 49/3/1
f 57/3/1 52/3/1 54/3/1
f 59/3/1 56/3/1 55/3/1
f 59/3/1 53/3/1 56/3/1
f 60/3/1 53/3/1 59/3/1
f 61/3/1 58/3/1 57/3/1
f 61/3/1 57/3/1 54/3/1
f 62/3/1 58/3/1 61/3/1
f 63/3/1 59/3/1 55/3/1
f 66/3/1 58/3/1 62/3/1
f 67/3/1 64/3/1 63/3/1
f 67/3/1 63/3/1 55/3/1
f 68/3/1 64/3/1 67/3/1
f 69/3/1 66/3/1 65/3/1
f 69/3/1 58/3/1 66/3/1
f 70/3/1 58/3/1 69/3/1
f 71/3/1 64/3/1 68/3/1
f 72/3/1 64/3/1 71/3/1
f 73/3/1 69/3/1 65/3/1
f 74/3/1 69/3/1 73/3/1
f 75/3/1 64/3/1 72/3/1
f 76/3/1 64/3/1 75/3/1
f 77/3/1 73/3/1 65/3/1
f 78/3/1 73/3/1 77/3/1
f 81/3/1 80/3/1 79/3/1
f 82/3/1 80/3/1 81/3/1
f 85/3/1 84/3/1 83/3/1
f 86/3/1 84/3/1 85/3/1
f 89/3/1 88/3/1 87/3/1
f 90/3/1 88/3/1 89/3/1
f 93/3/1 92/3/1 91/3/1
f 94/3/1 92/3/1 93/3/1
f 95/3/2 96/3/2 97/3/2
f 97/3/2 96/3/2 98/3/2
f 99/3/2 100/3/2 101/3/2
f 101/3/2 100/3/2 102/3/2
f 103/3/2 104/3/2 105/3/2
f 105/3/2 104/3/2 106/3/2
f 107/3/2 108/3/2 109/3/2
f 109/3/2 108/3/2 110/3/2
f 111/3/2 112/3/2 116/3/2
f 113/3/2 114/3/2 117/3/2
f 115/3/2 116/3/2 119/3/2
f 116/3/2 112/3/2 119/3/2
f 117/3/2 118/3/2 120/3/2
f 113/3/2 117/3/2 120/3/2
f 115/3/2 119/3/2 122/3/2
f 120/3/2 118/3/2 123/3/2
f 121/3/2 122/3/2 125/3/2
f 122/3/2 119/3/2 125/3/2
f 125/3/2 119/3/2 126/3/2
f 123/3/2 124/3/2 127/3/2
f 120/3/2 123/3/2 127/3/2
f 127/3/2 124/3/2 128/3/2
f 121/3/2 125/3/2 129/3/2
f 128/3/2 124/3/2 132/3/2
f 129/3/2 130/3/2 133/3/2
f 121/3/2 129/3/2 133/3/2
f 133/3/2 130/3/2 134/3/2
f 131/3/2 132/3/2 135/3/2
f 132/3/2 124/3/2 135/3/2
f 135/3/2 124/3/2 136/3/2
f 134/3/2 130/3/2 137/3/2
f 137/3/2 130/3/2 138/3/2
f 131/3/2 135/3/2 139/3/2
f 139/3/2 135/3/2 140/3/2
f 138/3/2 130/3/2 141/3/2
f 141/3/2 130/3/2 142/3/2
f 131/3/2 139/3/2 143/3/2
f 143/3/2 139/3/2 144/3/2
f 145/4/2 146/4/2 148/4/2
f 148/4/2 146/4/2 149/4/2
f 147/4/2 148/4/2 151/4/2
f 151/4/2 148/4/2 152/4/2
f 149/4/2 150/4/2 153/4/2
f 153/4/2 150/4/2 154/4/2
f 151/3/2 152/3/2 155/3/2
f 155/3/2 152/3/2 156/3/2
f 153/3/2 154/3/2 157/3/2
f 157/3/2 154/3/2 158/3/2
f 159/4/2 160/4/2 163/4/2
f 163/4/2 160/4/2 164/4/2
f 161/4/2 162/4/2 165/4/2
f 165/4/2 162/4/2 166/4/2
f 163/3/2 164/3/2 167/3/2
f 164/3/2 165/3/2 167/3/2
f 165/3/2 166/3/2 167/3/2
f 167/3/2 166/3/2 168/3/2
f 169/3/2 170/3/2 171/3/2
f 171/3/2 170/3/2 172/3/2
f 173/3/2 174/3/2 175/3/2
f 175/3/2 174/3/2 176/3/2
f 177/3/2 178/3/2 179/3/2
f 179/3/2 178/3/2 180/3/2
f 181/3/2 182/3/2 183/3/2
f 183/3/2 182/3/2 184/3/2
f 185/3/2 186/3/2 187/3/2
f 187/3/2 186/3/2 188/3/2
f 191/3/3 190/3/3 189/3/3
f 192/3/3 190/3/3 191/3/3
f 197/3/3 194/3/3 193/3/3
f 198/3/3 194/3/3 197/3/3
f 199/3/3 196/3/3 195/3/3
f 200/3/3 196/3/3 199/3/3
f 205/3/3 202/3/3 201/3/3
f 206/3/3 202/3/3 205/3/3
f 207/3/3 204/3/3 203/3/3
f 208/3/3 204/3/3 207/3/3
f 212/4/3 210/4/3 209/4/3
f 213/3/3 211/3/3 210/3/3
f 213/4/3 210/4/3 212/4/3
f 215/3/3 211/3/3 213/3/3
f 216/4/3 215/4/3 214/4/3
f 217/3/3 211/3/3 215/3/3
f 217/4/3 215/4/3 216/4/3
f 218/3/3 211/3/3 217/3/3
f 223/4/3 220/4/3 219/4/3
f 224/3/3 221/3/3 220/3/3
f 224/4/3 220/4/3 223/4/3
f 225/3/3 221/3/3 224/3/3
f 226/4/3 223/4/3 222/4/3
f 227/4/3 223/4/3 226/4/3
f 230/4/3 228/4/3 227/4/3
f 231/3/3 229/3/3 228/3/3
f 231/4/3 228/4/3 230/4/3
f 232/3/3 229/3/3 231/3/3
f 236/3/3 234/3/3 233/3/3
f 237/3/3 234/3/3 236/3/3
f 240/3/3 236/3/3 235/3/3
f 240/3/3 238/3/3 237/3/3
f 240/3/3 237/3/3 236/3/3
f 241/3/3 238/3/3 240/3/3
f 242/3/3 238/3/3 241/3/3
f 243/3/3 238/3/3 242/3/3
f 245/3/3 240/3/3 239/3/3
f 245/3/3 241/3/3 240/3/3
f 246/3/3 241/3/3 245/3/3
f 247/3/3 241/3/3 246/3/3
f 248/3/3 244/3/3 243/3/3
f 248/3/3 243/3/3 242/3/3
f 249/3/3 244/3/3 248/3/3
f 255/3/3 251/3/3 250/3/3
f 255/3/3 252/3/3 251/3/3
f 256/3/3 252/3/3 255/3/3
f 257/3/3 252/3/3 256/3/3
f 258/3/3 254/3/3 253/3/3
f 259/3/3 254/3/3 258/3/3
f 260/3/3 254/3/3 259/3/3
f 261/3/3 257/3/3 256/3/3
f 261/3/3 259/3/3 258/3/3
f 261/3/3 258/3/3 257/3/3
f 262/3/3 259/3/3 261/3/3
f 263/3/3 259/3/3 262/3/3
f 264/3/3 259/3/3 263/3/3
f 265/3/3 263/3/3 262/3/3
f 266/3/3 263/3/3 265/3/3
f 269/3/3 268/3/3 267/3/3
f 270/3/3 268/3/3 269/3/3
f 275/3/3 272/3/3 271/3/3
f 276/3/3 272/3/3 275/3/3
f 277/3/3 274/3/3 273/3/3
f 278/3/3 274/3/3 277/3/3
f 281/3/3 280/3/3 279/3/3
f 282/3/3 280/3/3 281/3/3
f 283/3/4 284/3/4 285/3/4
f 285/3/4 284/3/4 286/3/4
f 287/3/4 288/3/4 291/3/4
f 291/3/4 288/3/4 292/3/4
f 289/3/4 290/3/4 293/3/4
f 293/3/4 290/3/4 294/3/4
f 295/3/4 296/3/4 297/3/4
f 297/3/4 296/3/4 298/3/4
f 299/3/4 300/3/4 302/3/4
f 302/3/4 300/3/4 303/3/4
f 301/3/4 302/3/4 306/3/4
f 303/3/4 304/3/4 306/3/4
f 302/3/4 303/3/4 306/3/4
f 306/3/4 304/3/4 307/3/4
f 307/3/4 304/3/4 308/3/4
f 308/3/4 304/3/4 309/3/4
f 305/3/4 306/3/4 311/3/4
f 306/3/4 307/3/4 311/3/4
f 311/3/4 307/3/4 312/3/4
f 312/3/4 307/3/4 313/3/4
f 309/3/4 310/3/4 314/3/4
f 308/3/4 309/3/4 314/3/4
f 314/3/4 310/3/4 315/3/4
f 316/3/4 317/3/4 321/3/4
f 317/3/4 318/3/4 321/3/4
f 321/3/4 318/3/4 322/3/4
f 322/3/4 318/3/4 323/3/4
f 319/3/4 320/3/4 324/3/4
f 324/3/4 320/3/4 325/3/4
f 325/3/4 320/3/4 326/3/4
f 322/3/4 323/3/4 327/3/4
f 324/3/4 325/3/4 327/3/4
f 323/3/4 324/3/4 327/3/4
f 327/3/4 325/3/4 328/3/4
f 328/3/4 325/3/4 329/3/4
f 329/3/4 325/3/4 330/3/4
f 328/3/4 329/3/4 331/3/4
f 331/3/4 329/3/4 332/3/4
f 333/4/4 334/4/4 337/4/4
f 334/3/4 335/3/4 338/3/4
f 337/4/4 334/4/4 338/4/4
f 338/3/4 335/3/4 339/3/4
f 336/4/4 337/4/4 340/4/4
f 340/4/4 337/4/4 341/4/4
f 341/4/4 342/4/4 344/4/4
f 342/3/4 343/3/4 345/3/4
f 344/4/4 342/4/4 345/4/4
f 345/3/4 343/3/4 346/3/4
f 347/4/4 348/4/4 350/4/4
f 348/3/4 349/3/4 351/3/4
f 350/4/4 348/4/4 351/4/4
f 351/3/4 349/3/4 353/3/4
f 352/4/4 353/4/4 354/4/4
f 353/3/4 349/3/4 355/3/4
f 354/4/4 353/4/4 355/4/4
f 355/3/4 349/3/4 356/3/4
f 357/3/4 358/3/4 361/3/4
f 361/3/4 358/3/4 362/3/4
f 359/3/4 360/3/4 363/3/4
f 363/3/4 360/3/4 364/3/4
f 365/3/4 366/3/4 369/3/4
f 369/3/4 366/3/4 370/3/4
f 367/3/4 368/3/4 371/3/4
f 371/3/4 368/3/4 372/3/4
f 373/3/4 374/3/4 375/3/4
f 375/3/4 374/3/4 376/3/4
f 379/3/5 378/3/5 377/3/5
f 380/3/5 378/3/5 379/3/5
f 385/3/5 382/3/5 381/3/5
f 386/3/5 382/3/5 385/3/5
f 387/3/5 384/3/5 383/3/5
f 388/3/5 384/3/5 387/3/5
f 391/3/5 390/3/5 389/3/5
f 392/3/5 390/3/5 391/3/5
f 395/3/5 394/3/5 393/3/5
f 396/3/5 394/3/5 395/3/5
f 403/3/5 400/3/5 399/3/5
f 404/3/5 400/3/5 403/3/5
f 405/3/5 402/3/5 401/3/5
f 406/3/5 402/3/5 405/3/5
f 407/4/5 398/4/5 397/4/5
f 408/4/5 398/4/5 407/4/5
f 411/3/5 410/3/5 409/3/5
f 412/3/5 410/3/5 411/3/5
f 418/4/5 414/4/5 413/4/5
f 418/4/5 416/4/5 415/4/5
f 418/4/5 415/4/5 414/4/5
f 419/4/5 416/4/5 418/4/5
f 421/4/5 418/4/5 417/4/5
f 422/4/5 420/4/5 419/4/5
f 423/4/5 418/4/5 421/4/5
f 424/4/5 422/4/5 419/4/5
f 425/4/5 418/4/5 423/4/5
f 426/4/5 418/4/5 425/4/5
f 427/4/5 424/4/5 419/4/5
f 428/4/5 424/4/5 427/4/5
f 429/4/5 427/4/5 426/4/5
f 430/4/5 427/4/5 429/4/5
f 431/4/5 427/4/5 430/4/5
f 432/4/5 427/4/5 431/4/5
f 435/3/5 434/3/5 433/3/5
f 436/3/5 434/3/5 435/3/5
f 441/3/5 438/3/5 437/3/5
f 442/3/5 438/3/5 441/3/5
f 443/3/5 440/3/5 439/3/5
f 444/3/5 440/3/5 443/3/5
f 447/3/5 446/3/5 445/3/5
f 448/3/5 446/3/5 447/3/5
f 451/3/5 450/3/5 449/3/5
f 452/3/5 450/3/5 451/3/5
f 457/3/5 454/3/5 453/3/5
f 458/3/5 454/3/5 457/3/5
f 459/3/5 456/3/5 455/3/5
f 460/3/5 456/3/5 459/3/5
f 463/3/5 462/3/5 461/3/5
f 464/3/5 462/3/5 463/3/5
f 465/3/6 466/3/6 467/3/6
f 467/3/6 466/3/6 468/3/6
f 471/3/6 472/3/6 475/3/6
f 475/3/6 472/3/6 476/3/6
f 473/3/6 474/3/6 477/3/6
f 477/3/6 474/3/6 478/3/6
f 469/2/6 470/2/6 479/2/6
f 479/2/6 470/2/6 480/2/6
f 481/3/6 482/3/6 483/3/6
f 483/3/6 482/3/6 484/3/6
f 485/3/6 486/3/6 488/3/6
f 488/3/6 486/3/6 489/3/6
f 487/3/6 488/3/6 491/3/6
f 491/3/6 488/3/6 492/3/6
f 489/3/6 490/3/6 493/3/6
f 493/3/6 490/3/6 494/3/6
f 492/3/6 493/3/6 495/3/6
f 495/3/6 493/3/6 496/3/6
f 497/3/6 498/3/6 499/3/6
f 499/3/6 498/3/6 500/3/6
f 501/3/6 502/3/6 505/3/6
f 505/3/6 502/3/6 506/3/6
f 503/3/6 504/3/6 507/3/6
f 507/3/6 504/3/6 508/3/6
f 509/3/6 510/3/6 511/3/6
f 511/3/6 510/3/6 512/3/6
f 513/3/6 514/3/6 515/3/6
f 515/3/6 514/3/6 516/3/6
f 517/3/6 518/3/6 521/3/6
f 521/3/6 518/3/6 522/3/6
f 519/3/6 520/3/6 523/3/6
f 523/3/6 520/3/6 524/3/6
f 525/3/6 526/3/6 527/3/6
f 527/3/6 526/3/6 528/3/6
f 529/3/6 530/3/6 531/3/6
f 531/3/6 530/3/6 532/3/6
f 533/3/6 534/3/6 537/3/6
f 537/3/6 534/3/6 538/3/6
f 535/3/6 536/3/6 539/3/6
f 539/3/6 536/3/6 540/3/6
f 541/3/6 542/3/6 543/3/6
f 543/3/6 542/3/6 544/3/6
