# MagicaVoxel @ Ephtracy

# group
g DemonSoldier-2

# material
mtllib DemonSoldier-2.mtl
usemtl palette

# normals
vn -1 0 0
vn 1 0 0
vn 0 0 1
vn 0 0 -1
vn 0 -1 0
vn 0 1 0

# texcoords
vt 0.876953 0.5
vt 0.970703 0.5
vt 0.974609 0.5

# verts
v -9 0 1
v -9 0 -0
v -9 1 1
v -9 1 -0
v -9 2 1
v -9 2 -0
v -9 3 1
v -9 3 -0
v -8 0 -0
v -8 0 -1
v -8 1 2
v -8 1 1
v -8 1 -0
v -8 1 -1
v -8 2 2
v -8 2 1
v -8 2 -0
v -8 2 -1
v -8 3 -0
v -8 3 -1
v -7 0 -1
v -7 0 -2
v -7 1 3
v -7 1 2
v -7 1 1
v -7 1 -0
v -7 1 -1
v -7 1 -2
v -7 2 3
v -7 2 2
v -7 2 1
v -7 2 -0
v -7 2 -1
v -7 2 -2
v -7 3 -1
v -7 3 -2
v -5 0 -2
v -5 0 -3
v -5 1 3
v -5 1 2
v -5 1 1
v -5 1 -0
v -5 1 -2
v -5 1 -3
v -5 2 3
v -5 2 2
v -5 2 1
v -5 2 -0
v -5 2 -2
v -5 2 -3
v -5 3 -2
v -5 3 -3
v -3 1 3
v -3 1 2
v -3 1 1
v -3 1 -0
v -3 2 3
v -3 2 2
v -3 2 1
v -3 2 -0
v 0 0 -0
v 0 0 -1
v 0 1 -0
v 0 1 -1
v 0 2 -0
v 0 2 -1
v 0 3 -0
v 0 3 -1
v 2 0 1
v 2 0 -0
v 2 1 1
v 2 1 -0
v 2 2 1
v 2 2 -0
v 2 3 1
v 2 3 -0
v 3 0 2
v 3 0 1
v 3 1 2
v 3 1 1
v 3 2 2
v 3 2 1
v 3 3 2
v 3 3 1
v 4 0 3
v 4 0 2
v 4 1 3
v 4 1 2
v 4 2 3
v 4 2 2
v 4 3 3
v 4 3 2
v 5 0 4
v 5 0 3
v 5 1 4
v 5 1 3
v 5 2 4
v 5 2 3
v 5 3 4
v 5 3 3
v -8 0 1
v -8 0 -0
v -8 1 1
v -8 1 -0
v -8 2 1
v -8 2 -0
v -8 3 1
v -8 3 -0
v -6 1 3
v -6 1 2
v -6 1 1
v -6 1 -0
v -6 2 3
v -6 2 2
v -6 2 1
v -6 2 -0
v -5 0 -0
v -5 0 -1
v -5 1 -0
v -5 1 -1
v -5 2 -0
v -5 2 -1
v -5 3 -0
v -5 3 -1
v -4 1 3
v -4 1 2
v -4 1 1
v -4 1 -0
v -4 2 3
v -4 2 2
v -4 2 1
v -4 2 -0
v -2 1 3
v -2 1 2
v -2 1 1
v -2 1 -0
v -2 2 3
v -2 2 2
v -2 2 1
v -2 2 -0
v -1 1 2
v -1 1 1
v -1 2 2
v -1 2 1
v 1 0 -2
v 1 0 -3
v 1 1 -2
v 1 1 -3
v 1 2 -2
v 1 2 -3
v 1 3 -2
v 1 3 -3
v 3 0 -1
v 3 0 -2
v 3 1 -1
v 3 1 -2
v 3 2 -1
v 3 2 -2
v 3 3 -1
v 3 3 -2
v 4 0 -0
v 4 0 -1
v 4 1 -0
v 4 1 -1
v 4 2 -0
v 4 2 -1
v 4 3 -0
v 4 3 -1
v 5 0 2
v 5 0 -0
v 5 1 2
v 5 1 -0
v 5 2 2
v 5 2 -0
v 5 3 2
v 5 3 -0
v 6 0 4
v 6 0 2
v 6 1 4
v 6 1 2
v 6 2 4
v 6 2 2
v 6 3 4
v 6 3 2
v 5 0 4
v 5 1 4
v 5 2 4
v 5 3 4
v 6 0 4
v 6 1 4
v 6 2 4
v 6 3 4
v -7 1 3
v -7 2 3
v -6 1 3
v -6 2 3
v -5 1 3
v -5 2 3
v -4 1 3
v -4 2 3
v -3 1 3
v -3 2 3
v -2 1 3
v -2 2 3
v 4 0 3
v 4 1 3
v 4 2 3
v 4 3 3
v 5 0 3
v 5 1 3
v 5 2 3
v 5 3 3
v -8 1 2
v -8 2 2
v -7 1 2
v -7 2 2
v -6 1 2
v -6 2 2
v -5 1 2
v -5 2 2
v -4 1 2
v -4 2 2
v -3 1 2
v -3 2 2
v -2 1 2
v -2 2 2
v -1 1 2
v -1 2 2
v 3 0 2
v 3 1 2
v 3 2 2
v 3 3 2
v 4 0 2
v 4 1 2
v 4 2 2
v 4 3 2
v -9 0 1
v -9 1 1
v -9 2 1
v -9 3 1
v -8 0 1
v -8 1 1
v -8 2 1
v -8 3 1
v 2 0 1
v 2 1 1
v 2 2 1
v 2 3 1
v 3 0 1
v 3 1 1
v 3 2 1
v 3 3 1
v -8 0 -0
v -8 1 -0
v -8 2 -0
v -8 3 -0
v -7 1 -0
v -7 2 -0
v -6 1 -0
v -6 2 -0
v -5 0 -0
v -5 1 -0
v -5 2 -0
v -5 3 -0
v 0 0 -0
v 0 1 -0
v 0 2 -0
v 0 3 -0
v 2 0 -0
v 2 1 -0
v 2 2 -0
v 2 3 -0
v -5 0 -1
v -5 1 -1
v -5 2 -1
v -5 3 -1
v 0 0 -1
v 0 1 -1
v 0 2 -1
v 0 3 -1
v 5 0 2
v 5 1 2
v 5 2 2
v 5 3 2
v 6 0 2
v 6 1 2
v 6 2 2
v 6 3 2
v -8 1 1
v -8 2 1
v -7 1 1
v -7 2 1
v -6 1 1
v -6 2 1
v -5 1 1
v -5 2 1
v -4 1 1
v -4 2 1
v -3 1 1
v -3 2 1
v -2 1 1
v -2 2 1
v -1 1 1
v -1 2 1
v -9 0 -0
v -9 1 -0
v -9 2 -0
v -9 3 -0
v -8 0 -0
v -8 1 -0
v -8 2 -0
v -8 3 -0
v -7 1 -0
v -7 2 -0
v -6 1 -0
v -6 2 -0
v -5 1 -0
v -5 2 -0
v -4 1 -0
v -4 2 -0
v -3 1 -0
v -3 2 -0
v -2 1 -0
v -2 2 -0
v 4 0 -0
v 4 1 -0
v 4 2 -0
v 4 3 -0
v 5 0 -0
v 5 1 -0
v 5 2 -0
v 5 3 -0
v -8 0 -1
v -8 1 -1
v -8 2 -1
v -8 3 -1
v -7 0 -1
v -7 1 -1
v -7 2 -1
v -7 3 -1
v 3 0 -1
v 3 1 -1
v 3 2 -1
v 3 3 -1
v 4 0 -1
v 4 1 -1
v 4 2 -1
v 4 3 -1
v -7 0 -2
v -7 1 -2
v -7 2 -2
v -7 3 -2
v -5 0 -2
v -5 1 -2
v -5 2 -2
v -5 3 -2
v 1 0 -2
v 1 1 -2
v 1 2 -2
v 1 3 -2
v 3 0 -2
v 3 1 -2
v 3 2 -2
v 3 3 -2
v -5 0 -3
v -5 1 -3
v -5 2 -3
v -5 3 -3
v 1 0 -3
v 1 1 -3
v 1 2 -3
v 1 3 -3
v 5 0 4
v 6 0 4
v 4 0 3
v 5 0 3
v 3 0 2
v 4 0 2
v 5 0 2
v 6 0 2
v -9 0 1
v -8 0 1
v 2 0 1
v 3 0 1
v -9 0 -0
v -8 0 -0
v -5 0 -0
v 0 0 -0
v 2 0 -0
v 4 0 -0
v 5 0 -0
v -8 0 -1
v -7 0 -1
v -5 0 -1
v 0 0 -1
v 3 0 -1
v 4 0 -1
v -7 0 -2
v -5 0 -2
v 1 0 -2
v 3 0 -2
v -5 0 -3
v 1 0 -3
v -7 1 3
v -6 1 3
v -5 1 3
v -4 1 3
v -3 1 3
v -2 1 3
v -8 1 2
v -7 1 2
v -6 1 2
v -5 1 2
v -4 1 2
v -3 1 2
v -2 1 2
v -1 1 2
v -8 1 1
v -7 1 1
v -6 1 1
v -5 1 1
v -4 1 1
v -3 1 1
v -2 1 1
v -1 1 1
v -7 1 -0
v -6 1 -0
v -5 1 -0
v -4 1 -0
v -3 1 -0
v -2 1 -0
v 5 2 4
v 6 2 4
v 4 2 3
v 5 2 3
v 3 2 2
v 4 2 2
v 5 2 2
v 6 2 2
v -9 2 1
v -8 2 1
v 2 2 1
v 3 2 1
v -9 2 -0
v -8 2 -0
v -7 2 -0
v -6 2 -0
v -5 2 -0
v 0 2 -0
v 2 2 -0
v 4 2 -0
v 5 2 -0
v -8 2 -1
v -7 2 -1
v -5 2 -1
v 0 2 -1
v 3 2 -1
v 4 2 -1
v -7 2 -2
v -5 2 -2
v 1 2 -2
v 3 2 -2
v -5 2 -3
v 1 2 -3
v 5 1 4
v 6 1 4
v 4 1 3
v 5 1 3
v 3 1 2
v 4 1 2
v 5 1 2
v 6 1 2
v -9 1 1
v -8 1 1
v 2 1 1
v 3 1 1
v -9 1 -0
v -8 1 -0
v -7 1 -0
v -6 1 -0
v -5 1 -0
v 0 1 -0
v 2 1 -0
v 4 1 -0
v 5 1 -0
v -8 1 -1
v -7 1 -1
v -5 1 -1
v 0 1 -1
v 3 1 -1
v 4 1 -1
v -7 1 -2
v -5 1 -2
v 1 1 -2
v 3 1 -2
v -5 1 -3
v 1 1 -3
v -7 2 3
v -6 2 3
v -5 2 3
v -4 2 3
v -3 2 3
v -2 2 3
v -8 2 2
v -7 2 2
v -6 2 2
v -5 2 2
v -4 2 2
v -3 2 2
v -2 2 2
v -1 2 2
v -8 2 1
v -7 2 1
v -6 2 1
v -5 2 1
v -4 2 1
v -3 2 1
v -2 2 1
v -1 2 1
v -7 2 -0
v -6 2 -0
v -5 2 -0
v -4 2 -0
v -3 2 -0
v -2 2 -0
v 5 3 4
v 6 3 4
v 4 3 3
v 5 3 3
v 3 3 2
v 4 3 2
v 5 3 2
v 6 3 2
v -9 3 1
v -8 3 1
v 2 3 1
v 3 3 1
v -9 3 -0
v -8 3 -0
v -5 3 -0
v 0 3 -0
v 2 3 -0
v 4 3 -0
v 5 3 -0
v -8 3 -1
v -7 3 -1
v -5 3 -1
v 0 3 -1
v 3 3 -1
v 4 3 -1
v -7 3 -2
v -5 3 -2
v 1 3 -2
v 3 3 -2
v -5 3 -3
v 1 3 -3

# faces
f 3/1/1 2/1/1 1/1/1
f 4/1/1 2/1/1 3/1/1
f 7/1/1 6/1/1 5/1/1
f 8/1/1 6/1/1 7/1/1
f 13/1/1 10/1/1 9/1/1
f 14/1/1 10/1/1 13/1/1
f 15/2/1 12/2/1 11/2/1
f 16/2/1 12/2/1 15/2/1
f 19/1/1 18/1/1 17/1/1
f 20/1/1 18/1/1 19/1/1
f 27/1/1 22/1/1 21/1/1
f 28/1/1 22/1/1 27/1/1
f 29/3/1 24/3/1 23/3/1
f 30/3/1 24/3/1 29/3/1
f 31/3/1 26/3/1 25/3/1
f 32/3/1 26/3/1 31/3/1
f 35/1/1 34/1/1 33/1/1
f 36/1/1 34/1/1 35/1/1
f 43/1/1 38/1/1 37/1/1
f 44/1/1 38/1/1 43/1/1
f 45/3/1 40/3/1 39/3/1
f 46/3/1 40/3/1 45/3/1
f 47/3/1 42/3/1 41/3/1
f 48/3/1 42/3/1 47/3/1
f 51/1/1 50/1/1 49/1/1
f 52/1/1 50/1/1 51/1/1
f 57/3/1 54/3/1 53/3/1
f 58/3/1 54/3/1 57/3/1
f 59/3/1 56/3/1 55/3/1
f 60/3/1 56/3/1 59/3/1
f 63/1/1 62/1/1 61/1/1
f 64/1/1 62/1/1 63/1/1
f 67/1/1 66/1/1 65/1/1
f 68/1/1 66/1/1 67/1/1
f 71/1/1 70/1/1 69/1/1
f 72/1/1 70/1/1 71/1/1
f 75/1/1 74/1/1 73/1/1
f 76/1/1 74/1/1 75/1/1
f 79/1/1 78/1/1 77/1/1
f 80/1/1 78/1/1 79/1/1
f 83/1/1 82/1/1 81/1/1
f 84/1/1 82/1/1 83/1/1
f 87/1/1 86/1/1 85/1/1
f 88/1/1 86/1/1 87/1/1
f 91/1/1 90/1/1 89/1/1
f 92/1/1 90/1/1 91/1/1
f 95/1/1 94/1/1 93/1/1
f 96/1/1 94/1/1 95/1/1
f 99/1/1 98/1/1 97/1/1
f 100/1/1 98/1/1 99/1/1
f 101/1/2 102/1/2 103/1/2
f 103/1/2 102/1/2 104/1/2
f 105/1/2 106/1/2 107/1/2
f 107/1/2 106/1/2 108/1/2
f 109/3/2 110/3/2 113/3/2
f 113/3/2 110/3/2 114/3/2
f 111/3/2 112/3/2 115/3/2
f 115/3/2 112/3/2 116/3/2
f 117/1/2 118/1/2 119/1/2
f 119/1/2 118/1/2 120/1/2
f 121/1/2 122/1/2 123/1/2
f 123/1/2 122/1/2 124/1/2
f 125/3/2 126/3/2 129/3/2
f 129/3/2 126/3/2 130/3/2
f 127/3/2 128/3/2 131/3/2
f 131/3/2 128/3/2 132/3/2
f 133/3/2 134/3/2 137/3/2
f 137/3/2 134/3/2 138/3/2
f 135/3/2 136/3/2 139/3/2
f 139/3/2 136/3/2 140/3/2
f 141/2/2 142/2/2 143/2/2
f 143/2/2 142/2/2 144/2/2
f 145/1/2 146/1/2 147/1/2
f 147/1/2 146/1/2 148/1/2
f 149/1/2 150/1/2 151/1/2
f 151/1/2 150/1/2 152/1/2
f 153/1/2 154/1/2 155/1/2
f 155/1/2 154/1/2 156/1/2
f 157/1/2 158/1/2 159/1/2
f 159/1/2 158/1/2 160/1/2
f 161/1/2 162/1/2 163/1/2
f 163/1/2 162/1/2 164/1/2
f 165/1/2 166/1/2 167/1/2
f 167/1/2 166/1/2 168/1/2
f 169/1/2 170/1/2 171/1/2
f 171/1/2 170/1/2 172/1/2
f 173/1/2 174/1/2 175/1/2
f 175/1/2 174/1/2 176/1/2
f 177/1/2 178/1/2 179/1/2
f 179/1/2 178/1/2 180/1/2
f 181/1/2 182/1/2 183/1/2
f 183/1/2 182/1/2 184/1/2
f 189/1/3 186/1/3 185/1/3
f 190/1/3 186/1/3 189/1/3
f 191/1/3 188/1/3 187/1/3
f 192/1/3 188/1/3 191/1/3
f 195/3/3 194/3/3 193/3/3
f 196/3/3 194/3/3 195/3/3
f 199/3/3 198/3/3 197/3/3
f 200/3/3 198/3/3 199/3/3
f 203/3/3 202/3/3 201/3/3
f 204/3/3 202/3/3 203/3/3
f 209/1/3 206/1/3 205/1/3
f 210/1/3 206/1/3 209/1/3
f 211/1/3 208/1/3 207/1/3
f 212/1/3 208/1/3 211/1/3
f 215/2/3 214/2/3 213/2/3
f 216/2/3 214/2/3 215/2/3
f 219/2/3 218/2/3 217/2/3
f 220/2/3 218/2/3 219/2/3
f 223/2/3 222/2/3 221/2/3
f 224/2/3 222/2/3 223/2/3
f 227/2/3 226/2/3 225/2/3
f 228/2/3 226/2/3 227/2/3
f 233/1/3 230/1/3 229/1/3
f 234/1/3 230/1/3 233/1/3
f 235/1/3 232/1/3 231/1/3
f 236/1/3 232/1/3 235/1/3
f 241/1/3 238/1/3 237/1/3
f 242/1/3 238/1/3 241/1/3
f 243/1/3 240/1/3 239/1/3
f 244/1/3 240/1/3 243/1/3
f 249/1/3 246/1/3 245/1/3
f 250/1/3 246/1/3 249/1/3
f 251/1/3 248/1/3 247/1/3
f 252/1/3 248/1/3 251/1/3
f 257/1/3 254/1/3 253/1/3
f 258/1/3 256/1/3 255/1/3
f 259/1/3 257/1/3 253/1/3
f 260/1/3 256/1/3 258/1/3
f 261/1/3 259/1/3 253/1/3
f 262/1/3 259/1/3 261/1/3
f 263/1/3 256/1/3 260/1/3
f 264/1/3 256/1/3 263/1/3
f 269/1/3 266/1/3 265/1/3
f 270/1/3 266/1/3 269/1/3
f 271/1/3 268/1/3 267/1/3
f 272/1/3 268/1/3 271/1/3
f 277/1/3 274/1/3 273/1/3
f 278/1/3 274/1/3 277/1/3
f 279/1/3 276/1/3 275/1/3
f 280/1/3 276/1/3 279/1/3
f 281/1/4 282/1/4 285/1/4
f 285/1/4 282/1/4 286/1/4
f 283/1/4 284/1/4 287/1/4
f 287/1/4 284/1/4 288/1/4
f 289/2/4 290/2/4 291/2/4
f 291/2/4 290/2/4 292/2/4
f 293/2/4 294/2/4 295/2/4
f 295/2/4 294/2/4 296/2/4
f 297/2/4 298/2/4 299/2/4
f 299/2/4 298/2/4 300/2/4
f 301/2/4 302/2/4 303/2/4
f 303/2/4 302/2/4 304/2/4
f 305/1/4 306/1/4 309/1/4
f 309/1/4 306/1/4 310/1/4
f 307/1/4 308/1/4 311/1/4
f 311/1/4 308/1/4 312/1/4
f 313/3/4 314/3/4 315/3/4
f 315/3/4 314/3/4 316/3/4
f 317/3/4 318/3/4 319/3/4
f 319/3/4 318/3/4 320/3/4
f 321/3/4 322/3/4 323/3/4
f 323/3/4 322/3/4 324/3/4
f 325/1/4 326/1/4 329/1/4
f 329/1/4 326/1/4 330/1/4
f 327/1/4 328/1/4 331/1/4
f 331/1/4 328/1/4 332/1/4
f 333/1/4 334/1/4 337/1/4
f 337/1/4 334/1/4 338/1/4
f 335/1/4 336/1/4 339/1/4
f 339/1/4 336/1/4 340/1/4
f 341/1/4 342/1/4 345/1/4
f 345/1/4 342/1/4 346/1/4
f 343/1/4 344/1/4 347/1/4
f 347/1/4 344/1/4 348/1/4
f 349/1/4 350/1/4 353/1/4
f 353/1/4 350/1/4 354/1/4
f 351/1/4 352/1/4 355/1/4
f 355/1/4 352/1/4 356/1/4
f 357/1/4 358/1/4 361/1/4
f 361/1/4 358/1/4 362/1/4
f 359/1/4 360/1/4 363/1/4
f 363/1/4 360/1/4 364/1/4
f 365/1/4 366/1/4 369/1/4
f 369/1/4 366/1/4 370/1/4
f 367/1/4 368/1/4 371/1/4
f 371/1/4 368/1/4 372/1/4
f 376/1/5 374/1/5 373/1/5
f 378/1/5 376/1/5 375/1/5
f 379/1/5 374/1/5 376/1/5
f 379/1/5 376/1/5 378/1/5
f 380/1/5 374/1/5 379/1/5
f 384/1/5 378/1/5 377/1/5
f 384/1/5 379/1/5 378/1/5
f 385/1/5 382/1/5 381/1/5
f 386/1/5 382/1/5 385/1/5
f 389/1/5 384/1/5 383/1/5
f 390/1/5 379/1/5 384/1/5
f 390/1/5 384/1/5 389/1/5
f 391/1/5 379/1/5 390/1/5
f 392/1/5 387/1/5 386/1/5
f 393/1/5 387/1/5 392/1/5
f 394/1/5 387/1/5 393/1/5
f 395/1/5 389/1/5 388/1/5
f 395/1/5 390/1/5 389/1/5
f 396/1/5 390/1/5 395/1/5
f 397/1/5 390/1/5 396/1/5
f 398/1/5 394/1/5 393/1/5
f 398/1/5 396/1/5 395/1/5
f 398/1/5 395/1/5 394/1/5
f 399/1/5 396/1/5 398/1/5
f 400/1/5 396/1/5 399/1/5
f 401/1/5 396/1/5 400/1/5
f 402/1/5 400/1/5 399/1/5
f 403/1/5 400/1/5 402/1/5
f 411/3/5 405/3/5 404/3/5
f 412/3/5 405/3/5 411/3/5
f 413/3/5 407/3/5 406/3/5
f 414/3/5 407/3/5 413/3/5
f 415/3/5 409/3/5 408/3/5
f 416/3/5 409/3/5 415/3/5
f 418/2/5 414/2/5 413/2/5
f 418/2/5 417/2/5 416/2/5
f 418/2/5 416/2/5 415/2/5
f 418/2/5 415/2/5 414/2/5
f 418/2/5 412/2/5 411/2/5
f 418/2/5 413/2/5 412/2/5
f 418/2/5 411/2/5 410/2/5
f 419/2/5 417/2/5 418/2/5
f 420/2/5 417/2/5 419/2/5
f 421/2/5 417/2/5 420/2/5
f 422/2/5 417/2/5 421/2/5
f 423/2/5 417/2/5 422/2/5
f 424/2/5 417/2/5 423/2/5
f 425/2/5 417/2/5 424/2/5
f 426/3/5 420/3/5 419/3/5
f 427/3/5 420/3/5 426/3/5
f 428/3/5 422/3/5 421/3/5
f 429/3/5 422/3/5 428/3/5
f 430/3/5 424/3/5 423/3/5
f 431/3/5 424/3/5 430/3/5
f 435/1/5 433/1/5 432/1/5
f 437/1/5 435/1/5 434/1/5
f 438/1/5 433/1/5 435/1/5
f 438/1/5 435/1/5 437/1/5
f 439/1/5 433/1/5 438/1/5
f 443/1/5 437/1/5 436/1/5
f 443/1/5 438/1/5 437/1/5
f 444/1/5 441/1/5 440/1/5
f 445/1/5 441/1/5 444/1/5
f 450/1/5 443/1/5 442/1/5
f 451/1/5 438/1/5 443/1/5
f 451/1/5 443/1/5 450/1/5
f 452/1/5 438/1/5 451/1/5
f 453/1/5 448/1/5 447/1/5
f 453/1/5 446/1/5 445/1/5
f 453/1/5 447/1/5 446/1/5
f 454/1/5 448/1/5 453/1/5
f 455/1/5 448/1/5 454/1/5
f 456/1/5 450/1/5 449/1/5
f 456/1/5 451/1/5 450/1/5
f 457/1/5 451/1/5 456/1/5
f 458/1/5 451/1/5 457/1/5
f 459/1/5 455/1/5 454/1/5
f 459/1/5 457/1/5 456/1/5
f 459/1/5 456/1/5 455/1/5
f 460/1/5 457/1/5 459/1/5
f 461/1/5 457/1/5 460/1/5
f 462/1/5 457/1/5 461/1/5
f 463/1/5 461/1/5 460/1/5
f 464/1/5 461/1/5 463/1/5
f 465/1/6 466/1/6 468/1/6
f 467/1/6 468/1/6 470/1/6
f 468/1/6 466/1/6 471/1/6
f 470/1/6 468/1/6 471/1/6
f 471/1/6 466/1/6 472/1/6
f 469/1/6 470/1/6 476/1/6
f 470/1/6 471/1/6 476/1/6
f 473/1/6 474/1/6 477/1/6
f 477/1/6 474/1/6 478/1/6
f 475/1/6 476/1/6 483/1/6
f 476/1/6 471/1/6 484/1/6
f 483/1/6 476/1/6 484/1/6
f 484/1/6 471/1/6 485/1/6
f 480/1/6 481/1/6 486/1/6
f 478/1/6 479/1/6 486/1/6
f 479/1/6 480/1/6 486/1/6
f 486/1/6 481/1/6 487/1/6
f 487/1/6 481/1/6 488/1/6
f 482/1/6 483/1/6 489/1/6
f 483/1/6 484/1/6 489/1/6
f 489/1/6 484/1/6 490/1/6
f 490/1/6 484/1/6 491/1/6
f 487/1/6 488/1/6 492/1/6
f 489/1/6 490/1/6 492/1/6
f 488/1/6 489/1/6 492/1/6
f 492/1/6 490/1/6 493/1/6
f 493/1/6 490/1/6 494/1/6
f 494/1/6 490/1/6 495/1/6
f 493/1/6 494/1/6 496/1/6
f 496/1/6 494/1/6 497/1/6
f 498/3/6 499/3/6 505/3/6
f 505/3/6 499/3/6 506/3/6
f 500/3/6 501/3/6 507/3/6
f 507/3/6 501/3/6 508/3/6
f 502/3/6 503/3/6 509/3/6
f 509/3/6 503/3/6 510/3/6
f 507/2/6 508/2/6 512/2/6
f 510/2/6 511/2/6 512/2/6
f 509/2/6 510/2/6 512/2/6
f 508/2/6 509/2/6 512/2/6
f 505/2/6 506/2/6 512/2/6
f 506/2/6 507/2/6 512/2/6
f 504/2/6 505/2/6 512/2/6
f 512/2/6 511/2/6 513/2/6
f 513/2/6 511/2/6 514/2/6
f 514/2/6 511/2/6 515/2/6
f 515/2/6 511/2/6 516/2/6
f 516/2/6 511/2/6 517/2/6
f 517/2/6 511/2/6 518/2/6
f 518/2/6 511/2/6 519/2/6
f 513/3/6 514/3/6 520/3/6
f 520/3/6 514/3/6 521/3/6
f 515/3/6 516/3/6 522/3/6
f 522/3/6 516/3/6 523/3/6
f 517/3/6 518/3/6 524/3/6
f 524/3/6 518/3/6 525/3/6
f 526/1/6 527/1/6 529/1/6
f 528/1/6 529/1/6 531/1/6
f 529/1/6 527/1/6 532/1/6
f 531/1/6 529/1/6 532/1/6
f 532/1/6 527/1/6 533/1/6
f 530/1/6 531/1/6 537/1/6
f 531/1/6 532/1/6 537/1/6
f 534/1/6 535/1/6 538/1/6
f 538/1/6 535/1/6 539/1/6
f 536/1/6 537/1/6 542/1/6
f 537/1/6 532/1/6 543/1/6
f 542/1/6 537/1/6 543/1/6
f 543/1/6 532/1/6 544/1/6
f 539/1/6 540/1/6 545/1/6
f 545/1/6 540/1/6 546/1/6
f 546/1/6 540/1/6 547/1/6
f 541/1/6 542/1/6 548/1/6
f 542/1/6 543/1/6 548/1/6
f 548/1/6 543/1/6 549/1/6
f 549/1/6 543/1/6 550/1/6
f 546/1/6 547/1/6 551/1/6
f 548/1/6 549/1/6 551/1/6
f 547/1/6 548/1/6 551/1/6
f 551/1/6 549/1/6 552/1/6
f 552/1/6 549/1/6 553/1/6
f 553/1/6 549/1/6 554/1/6
f 552/1/6 553/1/6 555/1/6
f 555/1/6 553/1/6 556/1/6
