# MagicaVoxel @ Ephtracy

# group
g MansionObjects-2

# material
mtllib MansionObjects-2.mtl
usemtl palette

# normals
vn -1 0 0
vn 1 0 0
vn 0 0 1
vn 0 0 -1
vn 0 -1 0
vn 0 1 0

# texcoords
vt 0.939453 0.5
vt 0.943359 0.5
vt 0.947266 0.5
vt 0.951172 0.5

# verts
v -5.5 18 0.5
v -5.5 18 -0.5
v -5.5 19 0.5
v -5.5 19 -0.5
v -4.5 16 0.5
v -4.5 16 -0.5
v -4.5 18 1.5
v -4.5 18 0.5
v -4.5 18 -0.5
v -4.5 18 -1.5
v -4.5 19 1.5
v -4.5 19 0.5
v -4.5 19 -0.5
v -4.5 19 -1.5
v -4.5 21 0.5
v -4.5 21 -0.5
v -4.5 22 0.5
v -4.5 22 -0.5
v -3.5 15 0.5
v -3.5 15 -0.5
v -3.5 16 0.5
v -3.5 16 -0.5
v -2.5 0 0.5
v -2.5 0 -0.5
v -2.5 1 0.5
v -2.5 1 -0.5
v -1.5 0 1.5
v -1.5 0 0.5
v -1.5 0 -0.5
v -1.5 0 -1.5
v -1.5 1 1.5
v -1.5 1 0.5
v -1.5 1 -0.5
v -1.5 1 -1.5
v -1.5 2 0.5
v -1.5 2 -0.5
v -1.5 7 0.5
v -1.5 7 -0.5
v -1.5 10 0.5
v -1.5 10 -0.5
v -1.5 19 0.5
v -1.5 19 -0.5
v -1.5 20 0.5
v -1.5 20 -0.5
v -0.5 0 2.5
v -0.5 0 1.5
v -0.5 0 -1.5
v -0.5 0 -2.5
v -0.5 1 2.5
v -0.5 1 1.5
v -0.5 1 0.5
v -0.5 1 -0.5
v -0.5 1 -1.5
v -0.5 1 -2.5
v -0.5 2 1.5
v -0.5 2 0.5
v -0.5 2 -0.5
v -0.5 2 -1.5
v -0.5 7 1.5
v -0.5 7 0.5
v -0.5 7 -0.5
v -0.5 7 -1.5
v -0.5 10 1.5
v -0.5 10 0.5
v -0.5 10 -0.5
v -0.5 10 -1.5
v -0.5 13 0.5
v -0.5 13 -0.5
v -0.5 15 0.5
v -0.5 15 -0.5
v -0.5 16 0.5
v -0.5 16 -0.5
v -0.5 18 0.5
v -0.5 18 -0.5
v -0.5 19 1.5
v -0.5 19 0.5
v -0.5 19 -0.5
v -0.5 19 -1.5
v -0.5 20 1.5
v -0.5 20 0.5
v -0.5 20 -0.5
v -0.5 20 -1.5
v -0.5 22 0.5
v -0.5 22 -0.5
v -0.5 23 0.5
v -0.5 23 -0.5
v 2.5 16 0.5
v 2.5 16 -0.5
v 2.5 17 0.5
v 2.5 17 -0.5
v 2.5 18 0.5
v 2.5 18 -0.5
v 2.5 19 0.5
v 2.5 19 -0.5
v 3.5 17 0.5
v 3.5 17 -0.5
v 3.5 18 1.5
v 3.5 18 0.5
v 3.5 18 -0.5
v 3.5 18 -1.5
v 3.5 19 1.5
v 3.5 19 0.5
v 3.5 19 -0.5
v 3.5 19 -1.5
v 3.5 21 0.5
v 3.5 21 -0.5
v 3.5 22 0.5
v 3.5 22 -0.5
v -3.5 17 0.5
v -3.5 17 -0.5
v -3.5 18 1.5
v -3.5 18 0.5
v -3.5 18 -0.5
v -3.5 18 -1.5
v -3.5 19 1.5
v -3.5 19 0.5
v -3.5 19 -0.5
v -3.5 19 -1.5
v -3.5 21 0.5
v -3.5 21 -0.5
v -3.5 22 0.5
v -3.5 22 -0.5
v -2.5 16 0.5
v -2.5 16 -0.5
v -2.5 17 0.5
v -2.5 17 -0.5
v -2.5 18 0.5
v -2.5 18 -0.5
v -2.5 19 0.5
v -2.5 19 -0.5
v 0.5 0 2.5
v 0.5 0 1.5
v 0.5 0 -1.5
v 0.5 0 -2.5
v 0.5 1 2.5
v 0.5 1 1.5
v 0.5 1 0.5
v 0.5 1 -0.5
v 0.5 1 -1.5
v 0.5 1 -2.5
v 0.5 2 1.5
v 0.5 2 0.5
v 0.5 2 -0.5
v 0.5 2 -1.5
v 0.5 7 1.5
v 0.5 7 0.5
v 0.5 7 -0.5
v 0.5 7 -1.5
v 0.5 10 1.5
v 0.5 10 0.5
v 0.5 10 -0.5
v 0.5 10 -1.5
v 0.5 13 0.5
v 0.5 13 -0.5
v 0.5 15 0.5
v 0.5 15 -0.5
v 0.5 16 0.5
v 0.5 16 -0.5
v 0.5 18 0.5
v 0.5 18 -0.5
v 0.5 19 1.5
v 0.5 19 0.5
v 0.5 19 -0.5
v 0.5 19 -1.5
v 0.5 20 1.5
v 0.5 20 0.5
v 0.5 20 -0.5
v 0.5 20 -1.5
v 0.5 22 0.5
v 0.5 22 -0.5
v 0.5 23 0.5
v 0.5 23 -0.5
v 1.5 0 1.5
v 1.5 0 0.5
v 1.5 0 -0.5
v 1.5 0 -1.5
v 1.5 1 1.5
v 1.5 1 0.5
v 1.5 1 -0.5
v 1.5 1 -1.5
v 1.5 2 0.5
v 1.5 2 -0.5
v 1.5 7 0.5
v 1.5 7 -0.5
v 1.5 10 0.5
v 1.5 10 -0.5
v 1.5 19 0.5
v 1.5 19 -0.5
v 1.5 20 0.5
v 1.5 20 -0.5
v 2.5 0 0.5
v 2.5 0 -0.5
v 2.5 1 0.5
v 2.5 1 -0.5
v 3.5 15 0.5
v 3.5 15 -0.5
v 3.5 16 0.5
v 3.5 16 -0.5
v 4.5 16 0.5
v 4.5 16 -0.5
v 4.5 18 1.5
v 4.5 18 0.5
v 4.5 18 -0.5
v 4.5 18 -1.5
v 4.5 19 1.5
v 4.5 19 0.5
v 4.5 19 -0.5
v 4.5 19 -1.5
v 4.5 21 0.5
v 4.5 21 -0.5
v 4.5 22 0.5
v 4.5 22 -0.5
v 5.5 18 0.5
v 5.5 18 -0.5
v 5.5 19 0.5
v 5.5 19 -0.5
v -0.5 0 2.5
v -0.5 1 2.5
v 0.5 0 2.5
v 0.5 1 2.5
v -4.5 18 1.5
v -4.5 19 1.5
v -3.5 18 1.5
v -3.5 19 1.5
v -1.5 0 1.5
v -1.5 1 1.5
v -0.5 0 1.5
v -0.5 1 1.5
v -0.5 2 1.5
v -0.5 7 1.5
v -0.5 10 1.5
v -0.5 19 1.5
v -0.5 20 1.5
v 0.5 0 1.5
v 0.5 1 1.5
v 0.5 2 1.5
v 0.5 7 1.5
v 0.5 10 1.5
v 0.5 19 1.5
v 0.5 20 1.5
v 1.5 0 1.5
v 1.5 1 1.5
v 3.5 18 1.5
v 3.5 19 1.5
v 4.5 18 1.5
v 4.5 19 1.5
v -5.5 18 0.5
v -5.5 19 0.5
v -4.5 16 0.5
v -4.5 18 0.5
v -4.5 19 0.5
v -4.5 21 0.5
v -4.5 22 0.5
v -3.5 15 0.5
v -3.5 16 0.5
v -3.5 17 0.5
v -3.5 18 0.5
v -3.5 19 0.5
v -3.5 21 0.5
v -3.5 22 0.5
v -2.5 0 0.5
v -2.5 1 0.5
v -2.5 15 0.5
v -2.5 16 0.5
v -2.5 17 0.5
v -2.5 18 0.5
v -2.5 19 0.5
v -1.5 0 0.5
v -1.5 1 0.5
v -1.5 2 0.5
v -1.5 7 0.5
v -1.5 10 0.5
v -1.5 19 0.5
v -1.5 20 0.5
v -0.5 1 0.5
v -0.5 2 0.5
v -0.5 7 0.5
v -0.5 10 0.5
v -0.5 13 0.5
v -0.5 15 0.5
v -0.5 16 0.5
v -0.5 18 0.5
v -0.5 19 0.5
v -0.5 20 0.5
v -0.5 22 0.5
v -0.5 23 0.5
v 0.5 1 0.5
v 0.5 2 0.5
v 0.5 7 0.5
v 0.5 10 0.5
v 0.5 13 0.5
v 0.5 15 0.5
v 0.5 16 0.5
v 0.5 18 0.5
v 0.5 19 0.5
v 0.5 20 0.5
v 0.5 22 0.5
v 0.5 23 0.5
v 1.5 0 0.5
v 1.5 1 0.5
v 1.5 2 0.5
v 1.5 7 0.5
v 1.5 10 0.5
v 1.5 19 0.5
v 1.5 20 0.5
v 2.5 0 0.5
v 2.5 1 0.5
v 2.5 15 0.5
v 2.5 16 0.5
v 2.5 17 0.5
v 2.5 18 0.5
v 2.5 19 0.5
v 3.5 15 0.5
v 3.5 16 0.5
v 3.5 17 0.5
v 3.5 18 0.5
v 3.5 19 0.5
v 3.5 21 0.5
v 3.5 22 0.5
v 4.5 16 0.5
v 4.5 18 0.5
v 4.5 19 0.5
v 4.5 21 0.5
v 4.5 22 0.5
v 5.5 18 0.5
v 5.5 19 0.5
v -5.5 18 -0.5
v -5.5 19 -0.5
v -4.5 16 -0.5
v -4.5 18 -0.5
v -4.5 19 -0.5
v -4.5 21 -0.5
v -4.5 22 -0.5
v -3.5 15 -0.5
v -3.5 16 -0.5
v -3.5 17 -0.5
v -3.5 18 -0.5
v -3.5 19 -0.5
v -3.5 21 -0.5
v -3.5 22 -0.5
v -2.5 0 -0.5
v -2.5 1 -0.5
v -2.5 15 -0.5
v -2.5 16 -0.5
v -2.5 17 -0.5
v -2.5 18 -0.5
v -2.5 19 -0.5
v -1.5 0 -0.5
v -1.5 1 -0.5
v -1.5 2 -0.5
v -1.5 7 -0.5
v -1.5 10 -0.5
v -1.5 19 -0.5
v -1.5 20 -0.5
v -0.5 1 -0.5
v -0.5 2 -0.5
v -0.5 7 -0.5
v -0.5 10 -0.5
v -0.5 13 -0.5
v -0.5 15 -0.5
v -0.5 16 -0.5
v -0.5 18 -0.5
v -0.5 19 -0.5
v -0.5 20 -0.5
v -0.5 22 -0.5
v -0.5 23 -0.5
v 0.5 1 -0.5
v 0.5 2 -0.5
v 0.5 7 -0.5
v 0.5 10 -0.5
v 0.5 13 -0.5
v 0.5 15 -0.5
v 0.5 16 -0.5
v 0.5 18 -0.5
v 0.5 19 -0.5
v 0.5 20 -0.5
v 0.5 22 -0.5
v 0.5 23 -0.5
v 1.5 0 -0.5
v 1.5 1 -0.5
v 1.5 2 -0.5
v 1.5 7 -0.5
v 1.5 10 -0.5
v 1.5 19 -0.5
v 1.5 20 -0.5
v 2.5 0 -0.5
v 2.5 1 -0.5
v 2.5 15 -0.5
v 2.5 16 -0.5
v 2.5 17 -0.5
v 2.5 18 -0.5
v 2.5 19 -0.5
v 3.5 15 -0.5
v 3.5 16 -0.5
v 3.5 17 -0.5
v 3.5 18 -0.5
v 3.5 19 -0.5
v 3.5 21 -0.5
v 3.5 22 -0.5
v 4.5 16 -0.5
v 4.5 18 -0.5
v 4.5 19 -0.5
v 4.5 21 -0.5
v 4.5 22 -0.5
v 5.5 18 -0.5
v 5.5 19 -0.5
v -4.5 18 -1.5
v -4.5 19 -1.5
v -3.5 18 -1.5
v -3.5 19 -1.5
v -1.5 0 -1.5
v -1.5 1 -1.5
v -0.5 0 -1.5
v -0.5 1 -1.5
v -0.5 2 -1.5
v -0.5 7 -1.5
v -0.5 10 -1.5
v -0.5 19 -1.5
v -0.5 20 -1.5
v 0.5 0 -1.5
v 0.5 1 -1.5
v 0.5 2 -1.5
v 0.5 7 -1.5
v 0.5 10 -1.5
v 0.5 19 -1.5
v 0.5 20 -1.5
v 1.5 0 -1.5
v 1.5 1 -1.5
v 3.5 18 -1.5
v 3.5 19 -1.5
v 4.5 18 -1.5
v 4.5 19 -1.5
v -0.5 0 -2.5
v -0.5 1 -2.5
v 0.5 0 -2.5
v 0.5 1 -2.5
v -0.5 0 2.5
v 0.5 0 2.5
v -1.5 0 1.5
v -0.5 0 1.5
v 0.5 0 1.5
v 1.5 0 1.5
v -2.5 0 0.5
v -1.5 0 0.5
v 1.5 0 0.5
v 2.5 0 0.5
v -2.5 0 -0.5
v -1.5 0 -0.5
v 1.5 0 -0.5
v 2.5 0 -0.5
v -1.5 0 -1.5
v -0.5 0 -1.5
v 0.5 0 -1.5
v 1.5 0 -1.5
v -0.5 0 -2.5
v 0.5 0 -2.5
v -0.5 7 1.5
v 0.5 7 1.5
v -1.5 7 0.5
v -0.5 7 0.5
v 0.5 7 0.5
v 1.5 7 0.5
v -1.5 7 -0.5
v -0.5 7 -0.5
v 0.5 7 -0.5
v 1.5 7 -0.5
v -0.5 7 -1.5
v 0.5 7 -1.5
v -3.5 15 0.5
v -2.5 15 0.5
v -0.5 15 0.5
v 0.5 15 0.5
v 2.5 15 0.5
v 3.5 15 0.5
v -3.5 15 -0.5
v -2.5 15 -0.5
v -0.5 15 -0.5
v 0.5 15 -0.5
v 2.5 15 -0.5
v 3.5 15 -0.5
v -4.5 16 0.5
v -3.5 16 0.5
v 3.5 16 0.5
v 4.5 16 0.5
v -4.5 16 -0.5
v -3.5 16 -0.5
v 3.5 16 -0.5
v 4.5 16 -0.5
v -4.5 18 1.5
v -3.5 18 1.5
v 3.5 18 1.5
v 4.5 18 1.5
v -5.5 18 0.5
v -4.5 18 0.5
v -3.5 18 0.5
v -2.5 18 0.5
v 2.5 18 0.5
v 3.5 18 0.5
v 4.5 18 0.5
v 5.5 18 0.5
v -5.5 18 -0.5
v -4.5 18 -0.5
v -3.5 18 -0.5
v -2.5 18 -0.5
v 2.5 18 -0.5
v 3.5 18 -0.5
v 4.5 18 -0.5
v 5.5 18 -0.5
v -4.5 18 -1.5
v -3.5 18 -1.5
v 3.5 18 -1.5
v 4.5 18 -1.5
v -0.5 19 1.5
v 0.5 19 1.5
v -1.5 19 0.5
v -0.5 19 0.5
v 0.5 19 0.5
v 1.5 19 0.5
v -1.5 19 -0.5
v -0.5 19 -0.5
v 0.5 19 -0.5
v 1.5 19 -0.5
v -0.5 19 -1.5
v 0.5 19 -1.5
v -0.5 1 2.5
v 0.5 1 2.5
v -1.5 1 1.5
v -0.5 1 1.5
v 0.5 1 1.5
v 1.5 1 1.5
v -2.5 1 0.5
v -1.5 1 0.5
v -0.5 1 0.5
v 0.5 1 0.5
v 1.5 1 0.5
v 2.5 1 0.5
v -2.5 1 -0.5
v -1.5 1 -0.5
v -0.5 1 -0.5
v 0.5 1 -0.5
v 1.5 1 -0.5
v 2.5 1 -0.5
v -1.5 1 -1.5
v -0.5 1 -1.5
v 0.5 1 -1.5
v 1.5 1 -1.5
v -0.5 1 -2.5
v 0.5 1 -2.5
v -0.5 2 1.5
v 0.5 2 1.5
v -1.5 2 0.5
v -0.5 2 0.5
v 0.5 2 0.5
v 1.5 2 0.5
v -1.5 2 -0.5
v -0.5 2 -0.5
v 0.5 2 -0.5
v 1.5 2 -0.5
v -0.5 2 -1.5
v 0.5 2 -1.5
v -0.5 10 1.5
v 0.5 10 1.5
v -1.5 10 0.5
v -0.5 10 0.5
v 0.5 10 0.5
v 1.5 10 0.5
v -1.5 10 -0.5
v -0.5 10 -0.5
v 0.5 10 -0.5
v 1.5 10 -0.5
v -0.5 10 -1.5
v 0.5 10 -1.5
v -2.5 16 0.5
v -0.5 16 0.5
v 0.5 16 0.5
v 2.5 16 0.5
v -2.5 16 -0.5
v -0.5 16 -0.5
v 0.5 16 -0.5
v 2.5 16 -0.5
v -3.5 17 0.5
v -2.5 17 0.5
v 2.5 17 0.5
v 3.5 17 0.5
v -3.5 17 -0.5
v -2.5 17 -0.5
v 2.5 17 -0.5
v 3.5 17 -0.5
v -4.5 19 1.5
v -3.5 19 1.5
v 3.5 19 1.5
v 4.5 19 1.5
v -5.5 19 0.5
v -4.5 19 0.5
v -3.5 19 0.5
v -2.5 19 0.5
v 2.5 19 0.5
v 3.5 19 0.5
v 4.5 19 0.5
v 5.5 19 0.5
v -5.5 19 -0.5
v -4.5 19 -0.5
v -3.5 19 -0.5
v -2.5 19 -0.5
v 2.5 19 -0.5
v 3.5 19 -0.5
v 4.5 19 -0.5
v 5.5 19 -0.5
v -4.5 19 -1.5
v -3.5 19 -1.5
v 3.5 19 -1.5
v 4.5 19 -1.5
v -0.5 20 1.5
v 0.5 20 1.5
v -1.5 20 0.5
v -0.5 20 0.5
v 0.5 20 0.5
v 1.5 20 0.5
v -1.5 20 -0.5
v -0.5 20 -0.5
v 0.5 20 -0.5
v 1.5 20 -0.5
v -0.5 20 -1.5
v 0.5 20 -1.5
v -4.5 22 0.5
v -3.5 22 0.5
v 3.5 22 0.5
v 4.5 22 0.5
v -4.5 22 -0.5
v -3.5 22 -0.5
v 3.5 22 -0.5
v 4.5 22 -0.5
v -0.5 23 0.5
v 0.5 23 0.5
v -0.5 23 -0.5
v 0.5 23 -0.5

# faces
f 3/1/1 2/1/1 1/1/1
f 4/1/1 2/1/1 3/1/1
f 8/2/1 6/2/1 5/2/1
f 9/2/1 6/2/1 8/2/1
f 11/1/1 8/1/1 7/1/1
f 12/1/1 8/1/1 11/1/1
f 13/1/1 10/1/1 9/1/1
f 14/1/1 10/1/1 13/1/1
f 15/3/1 13/3/1 12/3/1
f 16/3/1 13/3/1 15/3/1
f 17/4/1 16/4/1 15/4/1
f 18/4/1 16/4/1 17/4/1
f 21/2/1 20/2/1 19/2/1
f 22/2/1 20/2/1 21/2/1
f 25/1/1 24/1/1 23/1/1
f 26/1/1 24/1/1 25/1/1
f 31/1/1 28/1/1 27/1/1
f 32/1/1 28/1/1 31/1/1
f 33/1/1 30/1/1 29/1/1
f 34/1/1 30/1/1 33/1/1
f 35/1/1 33/1/1 32/1/1
f 36/1/1 33/1/1 35/1/1
f 39/1/1 38/1/1 37/1/1
f 40/1/1 38/1/1 39/1/1
f 43/1/1 42/1/1 41/1/1
f 44/1/1 42/1/1 43/1/1
f 49/1/1 46/1/1 45/1/1
f 50/1/1 46/1/1 49/1/1
f 53/1/1 48/1/1 47/1/1
f 54/1/1 48/1/1 53/1/1
f 55/1/1 51/1/1 50/1/1
f 56/1/1 51/1/1 55/1/1
f 57/1/1 53/1/1 52/1/1
f 58/1/1 53/1/1 57/1/1
f 60/2/1 57/2/1 56/2/1
f 61/2/1 57/2/1 60/2/1
f 63/1/1 60/1/1 59/1/1
f 64/1/1 60/1/1 63/1/1
f 65/1/1 62/1/1 61/1/1
f 66/1/1 62/1/1 65/1/1
f 67/2/1 65/2/1 64/2/1
f 68/2/1 65/2/1 67/2/1
f 69/1/1 68/1/1 67/1/1
f 70/1/1 68/1/1 69/1/1
f 73/1/1 72/1/1 71/1/1
f 74/1/1 72/1/1 73/1/1
f 76/2/1 74/2/1 73/2/1
f 77/2/1 74/2/1 76/2/1
f 79/1/1 76/1/1 75/1/1
f 80/1/1 76/1/1 79/1/1
f 81/1/1 78/1/1 77/1/1
f 82/1/1 78/1/1 81/1/1
f 83/3/1 81/3/1 80/3/1
f 84/3/1 81/3/1 83/3/1
f 85/4/1 84/4/1 83/4/1
f 86/4/1 84/4/1 85/4/1
f 89/2/1 88/2/1 87/2/1
f 90/2/1 88/2/1 89/2/1
f 93/1/1 92/1/1 91/1/1
f 94/1/1 92/1/1 93/1/1
f 98/2/1 96/2/1 95/2/1
f 99/2/1 96/2/1 98/2/1
f 101/1/1 98/1/1 97/1/1
f 102/1/1 98/1/1 101/1/1
f 103/1/1 100/1/1 99/1/1
f 104/1/1 100/1/1 103/1/1
f 105/3/1 103/3/1 102/3/1
f 106/3/1 103/3/1 105/3/1
f 107/4/1 106/4/1 105/4/1
f 108/4/1 106/4/1 107/4/1
f 109/2/2 110/2/2 112/2/2
f 112/2/2 110/2/2 113/2/2
f 111/1/2 112/1/2 115/1/2
f 115/1/2 112/1/2 116/1/2
f 113/1/2 114/1/2 117/1/2
f 117/1/2 114/1/2 118/1/2
f 116/3/2 117/3/2 119/3/2
f 119/3/2 117/3/2 120/3/2
f 119/4/2 120/4/2 121/4/2
f 121/4/2 120/4/2 122/4/2
f 123/2/2 124/2/2 125/2/2
f 125/2/2 124/2/2 126/2/2
f 127/1/2 128/1/2 129/1/2
f 129/1/2 128/1/2 130/1/2
f 131/1/2 132/1/2 135/1/2
f 135/1/2 132/1/2 136/1/2
f 133/1/2 134/1/2 139/1/2
f 139/1/2 134/1/2 140/1/2
f 136/1/2 137/1/2 141/1/2
f 141/1/2 137/1/2 142/1/2
f 138/1/2 139/1/2 143/1/2
f 143/1/2 139/1/2 144/1/2
f 142/2/2 143/2/2 146/2/2
f 146/2/2 143/2/2 147/2/2
f 145/1/2 146/1/2 149/1/2
f 149/1/2 146/1/2 150/1/2
f 147/1/2 148/1/2 151/1/2
f 151/1/2 148/1/2 152/1/2
f 150/2/2 151/2/2 153/2/2
f 153/2/2 151/2/2 154/2/2
f 153/1/2 154/1/2 155/1/2
f 155/1/2 154/1/2 156/1/2
f 157/1/2 158/1/2 159/1/2
f 159/1/2 158/1/2 160/1/2
f 159/2/2 160/2/2 162/2/2
f 162/2/2 160/2/2 163/2/2
f 161/1/2 162/1/2 165/1/2
f 165/1/2 162/1/2 166/1/2
f 163/1/2 164/1/2 167/1/2
f 167/1/2 164/1/2 168/1/2
f 166/3/2 167/3/2 169/3/2
f 169/3/2 167/3/2 170/3/2
f 169/4/2 170/4/2 171/4/2
f 171/4/2 170/4/2 172/4/2
f 173/1/2 174/1/2 177/1/2
f 177/1/2 174/1/2 178/1/2
f 175/1/2 176/1/2 179/1/2
f 179/1/2 176/1/2 180/1/2
f 178/1/2 179/1/2 181/1/2
f 181/1/2 179/1/2 182/1/2
f 183/1/2 184/1/2 185/1/2
f 185/1/2 184/1/2 186/1/2
f 187/1/2 188/1/2 189/1/2
f 189/1/2 188/1/2 190/1/2
f 191/1/2 192/1/2 193/1/2
f 193/1/2 192/1/2 194/1/2
f 195/2/2 196/2/2 197/2/2
f 197/2/2 196/2/2 198/2/2
f 199/2/2 200/2/2 202/2/2
f 202/2/2 200/2/2 203/2/2
f 201/1/2 202/1/2 205/1/2
f 205/1/2 202/1/2 206/1/2
f 203/1/2 204/1/2 207/1/2
f 207/1/2 204/1/2 208/1/2
f 206/3/2 207/3/2 209/3/2
f 209/3/2 207/3/2 210/3/2
f 209/4/2 210/4/2 211/4/2
f 211/4/2 210/4/2 212/4/2
f 213/1/2 214/1/2 215/1/2
f 215/1/2 214/1/2 216/1/2
f 219/1/3 218/1/3 217/1/3
f 220/1/3 218/1/3 219/1/3
f 223/1/3 222/1/3 221/1/3
f 224/1/3 222/1/3 223/1/3
f 227/1/3 226/1/3 225/1/3
f 228/1/3 226/1/3 227/1/3
f 235/1/3 229/1/3 228/1/3
f 236/1/3 229/1/3 235/1/3
f 237/1/3 231/1/3 230/1/3
f 238/1/3 231/1/3 237/1/3
f 239/1/3 233/1/3 232/1/3
f 240/1/3 233/1/3 239/1/3
f 241/1/3 235/1/3 234/1/3
f 242/1/3 235/1/3 241/1/3
f 245/1/3 244/1/3 243/1/3
f 246/1/3 244/1/3 245/1/3
f 250/1/3 248/1/3 247/1/3
f 251/1/3 248/1/3 250/1/3
f 255/2/3 250/2/3 249/2/3
f 256/2/3 250/2/3 255/2/3
f 257/2/3 250/2/3 256/2/3
f 258/3/3 252/3/3 251/3/3
f 259/4/3 253/4/3 252/4/3
f 259/3/3 252/3/3 258/3/3
f 260/4/3 253/4/3 259/4/3
f 263/2/3 255/2/3 254/2/3
f 263/2/3 256/2/3 255/2/3
f 264/2/3 256/2/3 263/2/3
f 265/2/3 256/2/3 264/2/3
f 266/1/3 258/1/3 257/1/3
f 267/1/3 258/1/3 266/1/3
f 268/1/3 262/1/3 261/1/3
f 269/1/3 262/1/3 268/1/3
f 275/1/3 270/1/3 269/1/3
f 276/1/3 270/1/3 275/1/3
f 277/1/3 272/1/3 271/1/3
f 278/1/3 272/1/3 277/1/3
f 280/1/3 264/1/3 263/1/3
f 281/1/3 264/1/3 280/1/3
f 283/1/3 274/1/3 273/1/3
f 284/1/3 274/1/3 283/1/3
f 288/2/3 277/2/3 276/2/3
f 289/2/3 277/2/3 288/2/3
f 290/2/3 279/2/3 278/2/3
f 291/1/3 282/1/3 281/1/3
f 291/1/3 280/1/3 279/1/3
f 291/2/3 279/2/3 290/2/3
f 291/1/3 281/1/3 280/1/3
f 292/1/3 282/1/3 291/1/3
f 293/1/3 282/1/3 292/1/3
f 294/2/3 283/2/3 282/2/3
f 294/1/3 282/1/3 293/1/3
f 295/2/3 283/2/3 294/2/3
f 296/3/3 285/3/3 284/3/3
f 297/4/3 286/4/3 285/4/3
f 297/3/3 285/3/3 296/3/3
f 298/4/3 286/4/3 297/4/3
f 300/1/3 288/1/3 287/1/3
f 301/1/3 288/1/3 300/1/3
f 302/1/3 290/1/3 289/1/3
f 303/1/3 290/1/3 302/1/3
f 304/1/3 296/1/3 295/1/3
f 305/1/3 296/1/3 304/1/3
f 306/1/3 300/1/3 299/1/3
f 307/1/3 300/1/3 306/1/3
f 308/1/3 293/1/3 292/1/3
f 309/1/3 293/1/3 308/1/3
f 313/2/3 309/2/3 308/2/3
f 313/2/3 310/2/3 309/2/3
f 314/2/3 310/2/3 313/2/3
f 315/2/3 310/2/3 314/2/3
f 316/1/3 312/1/3 311/1/3
f 317/1/3 312/1/3 316/1/3
f 320/2/3 315/2/3 314/2/3
f 320/2/3 316/2/3 315/2/3
f 321/2/3 316/2/3 320/2/3
f 322/3/3 318/3/3 317/3/3
f 323/4/3 319/4/3 318/4/3
f 323/3/3 318/3/3 322/3/3
f 324/4/3 319/4/3 323/4/3
f 325/1/3 322/1/3 321/1/3
f 326/1/3 322/1/3 325/1/3
f 327/1/4 328/1/4 330/1/4
f 330/1/4 328/1/4 331/1/4
f 329/2/4 330/2/4 335/2/4
f 335/2/4 330/2/4 336/2/4
f 336/2/4 330/2/4 337/2/4
f 331/3/4 332/3/4 338/3/4
f 332/4/4 333/4/4 339/4/4
f 338/3/4 332/3/4 339/3/4
f 339/4/4 333/4/4 340/4/4
f 334/2/4 335/2/4 343/2/4
f 335/2/4 336/2/4 343/2/4
f 343/2/4 336/2/4 344/2/4
f 344/2/4 336/2/4 345/2/4
f 337/1/4 338/1/4 346/1/4
f 346/1/4 338/1/4 347/1/4
f 341/1/4 342/1/4 348/1/4
f 348/1/4 342/1/4 349/1/4
f 349/1/4 350/1/4 355/1/4
f 355/1/4 350/1/4 356/1/4
f 351/1/4 352/1/4 357/1/4
f 357/1/4 352/1/4 358/1/4
f 343/1/4 344/1/4 360/1/4
f 360/1/4 344/1/4 361/1/4
f 353/1/4 354/1/4 363/1/4
f 363/1/4 354/1/4 364/1/4
f 356/2/4 357/2/4 368/2/4
f 368/2/4 357/2/4 369/2/4
f 358/2/4 359/2/4 370/2/4
f 361/1/4 362/1/4 371/1/4
f 359/1/4 360/1/4 371/1/4
f 370/2/4 359/2/4 371/2/4
f 360/1/4 361/1/4 371/1/4
f 371/1/4 362/1/4 372/1/4
f 372/1/4 362/1/4 373/1/4
f 362/2/4 363/2/4 374/2/4
f 373/1/4 362/1/4 374/1/4
f 374/2/4 363/2/4 375/2/4
f 364/3/4 365/3/4 376/3/4
f 365/4/4 366/4/4 377/4/4
f 376/3/4 365/3/4 377/3/4
f 377/4/4 366/4/4 378/4/4
f 367/1/4 368/1/4 380/1/4
f 380/1/4 368/1/4 381/1/4
f 369/1/4 370/1/4 382/1/4
f 382/1/4 370/1/4 383/1/4
f 375/1/4 376/1/4 384/1/4
f 384/1/4 376/1/4 385/1/4
f 379/1/4 380/1/4 386/1/4
f 386/1/4 380/1/4 387/1/4
f 372/1/4 373/1/4 388/1/4
f 388/1/4 373/1/4 389/1/4
f 388/2/4 389/2/4 393/2/4
f 389/2/4 390/2/4 393/2/4
f 393/2/4 390/2/4 394/2/4
f 394/2/4 390/2/4 395/2/4
f 391/1/4 392/1/4 396/1/4
f 396/1/4 392/1/4 397/1/4
f 394/2/4 395/2/4 400/2/4
f 395/2/4 396/2/4 400/2/4
f 400/2/4 396/2/4 401/2/4
f 397/3/4 398/3/4 402/3/4
f 398/4/4 399/4/4 403/4/4
f 402/3/4 398/3/4 403/3/4
f 403/4/4 399/4/4 404/4/4
f 401/1/4 402/1/4 405/1/4
f 405/1/4 402/1/4 406/1/4
f 407/1/4 408/1/4 409/1/4
f 409/1/4 408/1/4 410/1/4
f 411/1/4 412/1/4 413/1/4
f 413/1/4 412/1/4 414/1/4
f 414/1/4 415/1/4 421/1/4
f 421/1/4 415/1/4 422/1/4
f 416/1/4 417/1/4 423/1/4
f 423/1/4 417/1/4 424/1/4
f 418/1/4 419/1/4 425/1/4
f 425/1/4 419/1/4 426/1/4
f 420/1/4 421/1/4 427/1/4
f 427/1/4 421/1/4 428/1/4
f 429/1/4 430/1/4 431/1/4
f 431/1/4 430/1/4 432/1/4
f 433/1/4 434/1/4 435/1/4
f 435/1/4 434/1/4 436/1/4
f 440/1/5 438/1/5 437/1/5
f 441/1/5 438/1/5 440/1/5
f 444/1/5 440/1/5 439/1/5
f 444/1/5 442/1/5 441/1/5
f 444/1/5 441/1/5 440/1/5
f 445/1/5 442/1/5 444/1/5
f 447/1/5 444/1/5 443/1/5
f 447/1/5 446/1/5 445/1/5
f 447/1/5 445/1/5 444/1/5
f 448/1/5 446/1/5 447/1/5
f 449/1/5 446/1/5 448/1/5
f 450/1/5 446/1/5 449/1/5
f 451/1/5 449/1/5 448/1/5
f 452/1/5 449/1/5 451/1/5
f 453/1/5 449/1/5 452/1/5
f 454/1/5 449/1/5 453/1/5
f 455/1/5 453/1/5 452/1/5
f 456/1/5 453/1/5 455/1/5
f 460/1/5 458/1/5 457/1/5
f 461/1/5 458/1/5 460/1/5
f 463/1/5 460/1/5 459/1/5
f 464/1/5 460/1/5 463/1/5
f 465/1/5 462/1/5 461/1/5
f 466/1/5 462/1/5 465/1/5
f 467/1/5 465/1/5 464/1/5
f 468/1/5 465/1/5 467/1/5
f 475/2/5 470/2/5 469/2/5
f 476/1/5 471/1/5 470/1/5
f 476/2/5 470/2/5 475/2/5
f 477/1/5 471/1/5 476/1/5
f 478/1/5 473/1/5 472/1/5
f 479/2/5 474/2/5 473/2/5
f 479/1/5 473/1/5 478/1/5
f 480/2/5 474/2/5 479/2/5
f 485/2/5 482/2/5 481/2/5
f 486/2/5 482/2/5 485/2/5
f 487/2/5 484/2/5 483/2/5
f 488/2/5 484/2/5 487/2/5
f 494/1/5 490/1/5 489/1/5
f 495/1/5 490/1/5 494/1/5
f 498/1/5 492/1/5 491/1/5
f 499/1/5 492/1/5 498/1/5
f 501/1/5 494/1/5 493/1/5
f 502/1/5 494/1/5 501/1/5
f 503/1/5 496/1/5 495/1/5
f 504/1/5 496/1/5 503/1/5
f 505/1/5 498/1/5 497/1/5
f 506/1/5 498/1/5 505/1/5
f 507/1/5 500/1/5 499/1/5
f 508/1/5 500/1/5 507/1/5
f 509/1/5 503/1/5 502/1/5
f 510/1/5 503/1/5 509/1/5
f 511/1/5 507/1/5 506/1/5
f 512/1/5 507/1/5 511/1/5
f 516/1/5 514/1/5 513/1/5
f 517/1/5 514/1/5 516/1/5
f 519/1/5 516/1/5 515/1/5
f 520/1/5 516/1/5 519/1/5
f 521/1/5 518/1/5 517/1/5
f 522/1/5 518/1/5 521/1/5
f 523/1/5 521/1/5 520/1/5
f 524/1/5 521/1/5 523/1/5
f 525/1/6 526/1/6 528/1/6
f 528/1/6 526/1/6 529/1/6
f 527/1/6 528/1/6 532/1/6
f 532/1/6 528/1/6 533/1/6
f 529/1/6 530/1/6 534/1/6
f 534/1/6 530/1/6 535/1/6
f 531/1/6 532/1/6 537/1/6
f 537/1/6 532/1/6 538/1/6
f 535/1/6 536/1/6 541/1/6
f 541/1/6 536/1/6 542/1/6
f 538/1/6 539/1/6 543/1/6
f 543/1/6 539/1/6 544/1/6
f 540/1/6 541/1/6 545/1/6
f 545/1/6 541/1/6 546/1/6
f 544/1/6 545/1/6 547/1/6
f 547/1/6 545/1/6 548/1/6
f 549/1/6 550/1/6 552/1/6
f 552/1/6 550/1/6 553/1/6
f 551/1/6 552/1/6 555/1/6
f 555/1/6 552/1/6 556/1/6
f 553/1/6 554/1/6 557/1/6
f 557/1/6 554/1/6 558/1/6
f 556/1/6 557/1/6 559/1/6
f 559/1/6 557/1/6 560/1/6
f 561/1/6 562/1/6 564/1/6
f 564/1/6 562/1/6 565/1/6
f 563/1/6 564/1/6 567/1/6
f 567/1/6 564/1/6 568/1/6
f 565/1/6 566/1/6 569/1/6
f 569/1/6 566/1/6 570/1/6
f 568/1/6 569/1/6 571/1/6
f 571/1/6 569/1/6 572/1/6
f 573/1/6 574/1/6 577/1/6
f 577/1/6 574/1/6 578/1/6
f 575/1/6 576/1/6 579/1/6
f 579/1/6 576/1/6 580/1/6
f 581/2/6 582/2/6 585/2/6
f 585/2/6 582/2/6 586/2/6
f 583/2/6 584/2/6 587/2/6
f 587/2/6 584/2/6 588/2/6
f 589/1/6 590/1/6 594/1/6
f 594/1/6 590/1/6 595/1/6
f 591/1/6 592/1/6 598/1/6
f 598/1/6 592/1/6 599/1/6
f 593/1/6 594/1/6 601/1/6
f 601/1/6 594/1/6 602/1/6
f 595/1/6 596/1/6 603/1/6
f 603/1/6 596/1/6 604/1/6
f 597/1/6 598/1/6 605/1/6
f 605/1/6 598/1/6 606/1/6
f 599/1/6 600/1/6 607/1/6
f 607/1/6 600/1/6 608/1/6
f 602/1/6 603/1/6 609/1/6
f 609/1/6 603/1/6 610/1/6
f 606/1/6 607/1/6 611/1/6
f 611/1/6 607/1/6 612/1/6
f 613/1/6 614/1/6 616/1/6
f 616/1/6 614/1/6 617/1/6
f 615/1/6 616/1/6 619/1/6
f 619/1/6 616/1/6 620/1/6
f 617/1/6 618/1/6 621/1/6
f 621/1/6 618/1/6 622/1/6
f 620/1/6 621/1/6 623/1/6
f 623/1/6 621/1/6 624/1/6
f 625/4/6 626/4/6 629/4/6
f 629/4/6 626/4/6 630/4/6
f 627/4/6 628/4/6 631/4/6
f 631/4/6 628/4/6 632/4/6
f 633/4/6 634/4/6 635/4/6
f 635/4/6 634/4/6 636/4/6
