# MagicaVoxel @ Ephtracy

# group
g MansionObjects-6

# material
mtllib MansionObjects-6.mtl
usemtl palette

# normals
vn -1 0 0
vn 1 0 0
vn 0 0 1
vn 0 0 -1
vn 0 -1 0
vn 0 1 0

# texcoords
vt 0.939453 0.5
vt 0.943359 0.5
vt 0.947266 0.5
vt 0.951172 0.5

# verts
v -4.5 25 3.5
v -4.5 25 2.5
v -4.5 25 -2.5
v -4.5 25 -3.5
v -4.5 26 3.5
v -4.5 26 2.5
v -4.5 26 -2.5
v -4.5 26 -3.5
v -3.5 24 3.5
v -3.5 24 2.5
v -3.5 24 -2.5
v -3.5 24 -3.5
v -3.5 25 4.5
v -3.5 25 3.5
v -3.5 25 2.5
v -3.5 25 1.5
v -3.5 25 -1.5
v -3.5 25 -2.5
v -3.5 25 -3.5
v -3.5 25 -4.5
v -3.5 26 4.5
v -3.5 26 3.5
v -3.5 26 2.5
v -3.5 26 1.5
v -3.5 26 0.5
v -3.5 26 -0.5
v -3.5 26 -1.5
v -3.5 26 -2.5
v -3.5 26 -3.5
v -3.5 26 -4.5
v -3.5 27 3.5
v -3.5 27 2.5
v -3.5 27 0.5
v -3.5 27 -0.5
v -3.5 27 -2.5
v -3.5 27 -3.5
v -2.5 27 0.5
v -2.5 27 -0.5
v -2.5 28 0.5
v -2.5 28 -0.5
v -1.5 28 0.5
v -1.5 28 -0.5
v -1.5 29 0.5
v -1.5 29 -0.5
v -1.5 31 0.5
v -1.5 31 -0.5
v -1.5 32 0.5
v -1.5 32 -0.5
v -0.5 26 3.5
v -0.5 26 2.5
v -0.5 26 -2.5
v -0.5 26 -3.5
v -0.5 27 3.5
v -0.5 27 2.5
v -0.5 27 1.5
v -0.5 27 -1.5
v -0.5 27 -2.5
v -0.5 27 -3.5
v -0.5 28 2.5
v -0.5 28 1.5
v -0.5 28 0.5
v -0.5 28 -0.5
v -0.5 28 -1.5
v -0.5 28 -2.5
v -0.5 29 1.5
v -0.5 29 0.5
v -0.5 29 -0.5
v -0.5 29 -1.5
v -0.5 31 1.5
v -0.5 31 0.5
v -0.5 31 -0.5
v -0.5 31 -1.5
v -0.5 32 1.5
v -0.5 32 0.5
v -0.5 32 -0.5
v -0.5 32 -1.5
v 0.5 28 0.5
v 0.5 28 -0.5
v 0.5 29 0.5
v 0.5 29 -0.5
v 1.5 27 0.5
v 1.5 27 -0.5
v 1.5 28 0.5
v 1.5 28 -0.5
v 2.5 24 3.5
v 2.5 24 2.5
v 2.5 24 -2.5
v 2.5 24 -3.5
v 2.5 25 4.5
v 2.5 25 3.5
v 2.5 25 2.5
v 2.5 25 1.5
v 2.5 25 -1.5
v 2.5 25 -2.5
v 2.5 25 -3.5
v 2.5 25 -4.5
v 2.5 26 4.5
v 2.5 26 3.5
v 2.5 26 2.5
v 2.5 26 1.5
v 2.5 26 0.5
v 2.5 26 -0.5
v 2.5 26 -1.5
v 2.5 26 -2.5
v 2.5 26 -3.5
v 2.5 26 -4.5
v 2.5 27 3.5
v 2.5 27 2.5
v 2.5 27 0.5
v 2.5 27 -0.5
v 2.5 27 -2.5
v 2.5 27 -3.5
v -2.5 24 3.5
v -2.5 24 2.5
v -2.5 24 -2.5
v -2.5 24 -3.5
v -2.5 25 4.5
v -2.5 25 3.5
v -2.5 25 2.5
v -2.5 25 1.5
v -2.5 25 -1.5
v -2.5 25 -2.5
v -2.5 25 -3.5
v -2.5 25 -4.5
v -2.5 26 4.5
v -2.5 26 3.5
v -2.5 26 2.5
v -2.5 26 1.5
v -2.5 26 0.5
v -2.5 26 -0.5
v -2.5 26 -1.5
v -2.5 26 -2.5
v -2.5 26 -3.5
v -2.5 26 -4.5
v -2.5 27 3.5
v -2.5 27 2.5
v -2.5 27 0.5
v -2.5 27 -0.5
v -2.5 27 -2.5
v -2.5 27 -3.5
v -1.5 27 0.5
v -1.5 27 -0.5
v -1.5 28 0.5
v -1.5 28 -0.5
v -0.5 28 0.5
v -0.5 28 -0.5
v -0.5 29 0.5
v -0.5 29 -0.5
v 0.5 26 3.5
v 0.5 26 2.5
v 0.5 26 -2.5
v 0.5 26 -3.5
v 0.5 27 3.5
v 0.5 27 2.5
v 0.5 27 1.5
v 0.5 27 -1.5
v 0.5 27 -2.5
v 0.5 27 -3.5
v 0.5 28 2.5
v 0.5 28 1.5
v 0.5 28 0.5
v 0.5 28 -0.5
v 0.5 28 -1.5
v 0.5 28 -2.5
v 0.5 29 1.5
v 0.5 29 0.5
v 0.5 29 -0.5
v 0.5 29 -1.5
v 0.5 31 1.5
v 0.5 31 0.5
v 0.5 31 -0.5
v 0.5 31 -1.5
v 0.5 32 1.5
v 0.5 32 0.5
v 0.5 32 -0.5
v 0.5 32 -1.5
v 1.5 28 0.5
v 1.5 28 -0.5
v 1.5 29 0.5
v 1.5 29 -0.5
v 1.5 31 0.5
v 1.5 31 -0.5
v 1.5 32 0.5
v 1.5 32 -0.5
v 2.5 27 0.5
v 2.5 27 -0.5
v 2.5 28 0.5
v 2.5 28 -0.5
v 3.5 24 3.5
v 3.5 24 2.5
v 3.5 24 -2.5
v 3.5 24 -3.5
v 3.5 25 4.5
v 3.5 25 3.5
v 3.5 25 2.5
v 3.5 25 1.5
v 3.5 25 -1.5
v 3.5 25 -2.5
v 3.5 25 -3.5
v 3.5 25 -4.5
v 3.5 26 4.5
v 3.5 26 3.5
v 3.5 26 2.5
v 3.5 26 1.5
v 3.5 26 0.5
v 3.5 26 -0.5
v 3.5 26 -1.5
v 3.5 26 -2.5
v 3.5 26 -3.5
v 3.5 26 -4.5
v 3.5 27 3.5
v 3.5 27 2.5
v 3.5 27 0.5
v 3.5 27 -0.5
v 3.5 27 -2.5
v 3.5 27 -3.5
v 4.5 25 3.5
v 4.5 25 2.5
v 4.5 25 -2.5
v 4.5 25 -3.5
v 4.5 26 3.5
v 4.5 26 2.5
v 4.5 26 -2.5
v 4.5 26 -3.5
v -3.5 25 4.5
v -3.5 26 4.5
v -2.5 25 4.5
v -2.5 26 4.5
v 2.5 25 4.5
v 2.5 26 4.5
v 3.5 25 4.5
v 3.5 26 4.5
v -4.5 25 3.5
v -4.5 26 3.5
v -3.5 24 3.5
v -3.5 25 3.5
v -3.5 26 3.5
v -3.5 27 3.5
v -2.5 24 3.5
v -2.5 25 3.5
v -2.5 26 3.5
v -2.5 27 3.5
v -1.5 25 3.5
v -1.5 26 3.5
v -0.5 26 3.5
v -0.5 27 3.5
v 0.5 26 3.5
v 0.5 27 3.5
v 1.5 25 3.5
v 1.5 26 3.5
v 2.5 24 3.5
v 2.5 25 3.5
v 2.5 26 3.5
v 2.5 27 3.5
v 3.5 24 3.5
v 3.5 25 3.5
v 3.5 26 3.5
v 3.5 27 3.5
v 4.5 25 3.5
v 4.5 26 3.5
v -0.5 27 2.5
v -0.5 28 2.5
v 0.5 27 2.5
v 0.5 28 2.5
v -0.5 28 1.5
v -0.5 29 1.5
v -0.5 31 1.5
v -0.5 32 1.5
v 0.5 28 1.5
v 0.5 29 1.5
v 0.5 31 1.5
v 0.5 32 1.5
v -3.5 26 0.5
v -3.5 27 0.5
v -2.5 26 0.5
v -2.5 27 0.5
v -2.5 28 0.5
v -1.5 27 0.5
v -1.5 28 0.5
v -1.5 29 0.5
v -1.5 31 0.5
v -1.5 32 0.5
v -0.5 28 0.5
v -0.5 29 0.5
v -0.5 31 0.5
v -0.5 32 0.5
v 0.5 28 0.5
v 0.5 29 0.5
v 0.5 31 0.5
v 0.5 32 0.5
v 1.5 27 0.5
v 1.5 28 0.5
v 1.5 29 0.5
v 1.5 31 0.5
v 1.5 32 0.5
v 2.5 26 0.5
v 2.5 27 0.5
v 2.5 28 0.5
v 3.5 26 0.5
v 3.5 27 0.5
v -0.5 28 -0.5
v -0.5 29 -0.5
v 0.5 28 -0.5
v 0.5 29 -0.5
v -0.5 27 -1.5
v -0.5 28 -1.5
v 0.5 27 -1.5
v 0.5 28 -1.5
v -4.5 25 -2.5
v -4.5 26 -2.5
v -3.5 24 -2.5
v -3.5 25 -2.5
v -3.5 26 -2.5
v -3.5 27 -2.5
v -2.5 24 -2.5
v -2.5 25 -2.5
v -2.5 26 -2.5
v -2.5 27 -2.5
v -1.5 25 -2.5
v -1.5 26 -2.5
v -0.5 26 -2.5
v -0.5 27 -2.5
v 0.5 26 -2.5
v 0.5 27 -2.5
v 1.5 25 -2.5
v 1.5 26 -2.5
v 2.5 24 -2.5
v 2.5 25 -2.5
v 2.5 26 -2.5
v 2.5 27 -2.5
v 3.5 24 -2.5
v 3.5 25 -2.5
v 3.5 26 -2.5
v 3.5 27 -2.5
v 4.5 25 -2.5
v 4.5 26 -2.5
v -4.5 25 2.5
v -4.5 26 2.5
v -3.5 24 2.5
v -3.5 25 2.5
v -3.5 26 2.5
v -3.5 27 2.5
v -2.5 24 2.5
v -2.5 25 2.5
v -2.5 26 2.5
v -2.5 27 2.5
v -1.5 25 2.5
v -1.5 26 2.5
v -0.5 26 2.5
v -0.5 27 2.5
v 0.5 26 2.5
v 0.5 27 2.5
v 1.5 25 2.5
v 1.5 26 2.5
v 2.5 24 2.5
v 2.5 25 2.5
v 2.5 26 2.5
v 2.5 27 2.5
v 3.5 24 2.5
v 3.5 25 2.5
v 3.5 26 2.5
v 3.5 27 2.5
v 4.5 25 2.5
v 4.5 26 2.5
v -0.5 27 1.5
v -0.5 28 1.5
v 0.5 27 1.5
v 0.5 28 1.5
v -0.5 28 0.5
v -0.5 29 0.5
v 0.5 28 0.5
v 0.5 29 0.5
v -3.5 26 -0.5
v -3.5 27 -0.5
v -2.5 26 -0.5
v -2.5 27 -0.5
v -2.5 28 -0.5
v -1.5 27 -0.5
v -1.5 28 -0.5
v -1.5 29 -0.5
v -1.5 31 -0.5
v -1.5 32 -0.5
v -0.5 28 -0.5
v -0.5 29 -0.5
v -0.5 31 -0.5
v -0.5 32 -0.5
v 0.5 28 -0.5
v 0.5 29 -0.5
v 0.5 31 -0.5
v 0.5 32 -0.5
v 1.5 27 -0.5
v 1.5 28 -0.5
v 1.5 29 -0.5
v 1.5 31 -0.5
v 1.5 32 -0.5
v 2.5 26 -0.5
v 2.5 27 -0.5
v 2.5 28 -0.5
v 3.5 26 -0.5
v 3.5 27 -0.5
v -0.5 28 -1.5
v -0.5 29 -1.5
v -0.5 31 -1.5
v -0.5 32 -1.5
v 0.5 28 -1.5
v 0.5 29 -1.5
v 0.5 31 -1.5
v 0.5 32 -1.5
v -0.5 27 -2.5
v -0.5 28 -2.5
v 0.5 27 -2.5
v 0.5 28 -2.5
v -4.5 25 -3.5
v -4.5 26 -3.5
v -3.5 24 -3.5
v -3.5 25 -3.5
v -3.5 26 -3.5
v -3.5 27 -3.5
v -2.5 24 -3.5
v -2.5 25 -3.5
v -2.5 26 -3.5
v -2.5 27 -3.5
v -1.5 25 -3.5
v -1.5 26 -3.5
v -0.5 26 -3.5
v -0.5 27 -3.5
v 0.5 26 -3.5
v 0.5 27 -3.5
v 1.5 25 -3.5
v 1.5 26 -3.5
v 2.5 24 -3.5
v 2.5 25 -3.5
v 2.5 26 -3.5
v 2.5 27 -3.5
v 3.5 24 -3.5
v 3.5 25 -3.5
v 3.5 26 -3.5
v 3.5 27 -3.5
v 4.5 25 -3.5
v 4.5 26 -3.5
v -3.5 25 -4.5
v -3.5 26 -4.5
v -2.5 25 -4.5
v -2.5 26 -4.5
v 2.5 25 -4.5
v 2.5 26 -4.5
v 3.5 25 -4.5
v 3.5 26 -4.5
v -3.5 24 3.5
v -2.5 24 3.5
v 2.5 24 3.5
v 3.5 24 3.5
v -3.5 24 2.5
v -2.5 24 2.5
v 2.5 24 2.5
v 3.5 24 2.5
v -3.5 24 -2.5
v -2.5 24 -2.5
v 2.5 24 -2.5
v 3.5 24 -2.5
v -3.5 24 -3.5
v -2.5 24 -3.5
v 2.5 24 -3.5
v 3.5 24 -3.5
v -3.5 25 4.5
v -2.5 25 4.5
v 2.5 25 4.5
v 3.5 25 4.5
v -4.5 25 3.5
v -3.5 25 3.5
v -2.5 25 3.5
v -1.5 25 3.5
v 1.5 25 3.5
v 2.5 25 3.5
v 3.5 25 3.5
v 4.5 25 3.5
v -4.5 25 2.5
v -3.5 25 2.5
v -2.5 25 2.5
v -1.5 25 2.5
v 1.5 25 2.5
v 2.5 25 2.5
v 3.5 25 2.5
v 4.5 25 2.5
v -3.5 25 1.5
v -2.5 25 1.5
v 2.5 25 1.5
v 3.5 25 1.5
v -3.5 25 -1.5
v -2.5 25 -1.5
v 2.5 25 -1.5
v 3.5 25 -1.5
v -4.5 25 -2.5
v -3.5 25 -2.5
v -2.5 25 -2.5
v -1.5 25 -2.5
v 1.5 25 -2.5
v 2.5 25 -2.5
v 3.5 25 -2.5
v 4.5 25 -2.5
v -4.5 25 -3.5
v -3.5 25 -3.5
v -2.5 25 -3.5
v -1.5 25 -3.5
v 1.5 25 -3.5
v 2.5 25 -3.5
v 3.5 25 -3.5
v 4.5 25 -3.5
v -3.5 25 -4.5
v -2.5 25 -4.5
v 2.5 25 -4.5
v 3.5 25 -4.5
v -0.5 27 2.5
v 0.5 27 2.5
v -0.5 27 1.5
v 0.5 27 1.5
v -2.5 27 0.5
v -1.5 27 0.5
v 1.5 27 0.5
v 2.5 27 0.5
v -2.5 27 -0.5
v -1.5 27 -0.5
v 1.5 27 -0.5
v 2.5 27 -0.5
v -0.5 27 -1.5
v 0.5 27 -1.5
v -0.5 27 -2.5
v 0.5 27 -2.5
v -0.5 28 1.5
v 0.5 28 1.5
v -1.5 28 0.5
v -0.5 28 0.5
v 0.5 28 0.5
v 1.5 28 0.5
v -1.5 28 -0.5
v -0.5 28 -0.5
v 0.5 28 -0.5
v 1.5 28 -0.5
v -0.5 28 -1.5
v 0.5 28 -1.5
v -0.5 29 0.5
v 0.5 29 0.5
v -0.5 29 -0.5
v 0.5 29 -0.5
v -0.5 31 1.5
v 0.5 31 1.5
v -1.5 31 0.5
v -0.5 31 0.5
v 0.5 31 0.5
v 1.5 31 0.5
v -1.5 31 -0.5
v -0.5 31 -0.5
v 0.5 31 -0.5
v 1.5 31 -0.5
v -0.5 31 -1.5
v 0.5 31 -1.5
v -3.5 26 4.5
v -2.5 26 4.5
v 2.5 26 4.5
v 3.5 26 4.5
v -4.5 26 3.5
v -3.5 26 3.5
v -2.5 26 3.5
v -1.5 26 3.5
v -0.5 26 3.5
v 0.5 26 3.5
v 1.5 26 3.5
v 2.5 26 3.5
v 3.5 26 3.5
v 4.5 26 3.5
v -4.5 26 2.5
v -3.5 26 2.5
v -2.5 26 2.5
v -1.5 26 2.5
v -0.5 26 2.5
v 0.5 26 2.5
v 1.5 26 2.5
v 2.5 26 2.5
v 3.5 26 2.5
v 4.5 26 2.5
v -3.5 26 1.5
v -2.5 26 1.5
v 2.5 26 1.5
v 3.5 26 1.5
v -3.5 26 0.5
v -2.5 26 0.5
v 2.5 26 0.5
v 3.5 26 0.5
v -3.5 26 -0.5
v -2.5 26 -0.5
v 2.5 26 -0.5
v 3.5 26 -0.5
v -3.5 26 -1.5
v -2.5 26 -1.5
v 2.5 26 -1.5
v 3.5 26 -1.5
v -4.5 26 -2.5
v -3.5 26 -2.5
v -2.5 26 -2.5
v -1.5 26 -2.5
v -0.5 26 -2.5
v 0.5 26 -2.5
v 1.5 26 -2.5
v 2.5 26 -2.5
v 3.5 26 -2.5
v 4.5 26 -2.5
v -4.5 26 -3.5
v -3.5 26 -3.5
v -2.5 26 -3.5
v -1.5 26 -3.5
v -0.5 26 -3.5
v 0.5 26 -3.5
v 1.5 26 -3.5
v 2.5 26 -3.5
v 3.5 26 -3.5
v 4.5 26 -3.5
v -3.5 26 -4.5
v -2.5 26 -4.5
v 2.5 26 -4.5
v 3.5 26 -4.5
v -3.5 27 3.5
v -2.5 27 3.5
v -0.5 27 3.5
v 0.5 27 3.5
v 2.5 27 3.5
v 3.5 27 3.5
v -3.5 27 2.5
v -2.5 27 2.5
v -0.5 27 2.5
v 0.5 27 2.5
v 2.5 27 2.5
v 3.5 27 2.5
v -3.5 27 0.5
v -2.5 27 0.5
v 2.5 27 0.5
v 3.5 27 0.5
v -3.5 27 -0.5
v -2.5 27 -0.5
v 2.5 27 -0.5
v 3.5 27 -0.5
v -3.5 27 -2.5
v -2.5 27 -2.5
v -0.5 27 -2.5
v 0.5 27 -2.5
v 2.5 27 -2.5
v 3.5 27 -2.5
v -3.5 27 -3.5
v -2.5 27 -3.5
v -0.5 27 -3.5
v 0.5 27 -3.5
v 2.5 27 -3.5
v 3.5 27 -3.5
v -0.5 28 2.5
v 0.5 28 2.5
v -0.5 28 1.5
v 0.5 28 1.5
v -2.5 28 0.5
v -1.5 28 0.5
v 1.5 28 0.5
v 2.5 28 0.5
v -2.5 28 -0.5
v -1.5 28 -0.5
v 1.5 28 -0.5
v 2.5 28 -0.5
v -0.5 28 -1.5
v 0.5 28 -1.5
v -0.5 28 -2.5
v 0.5 28 -2.5
v -0.5 29 1.5
v 0.5 29 1.5
v -1.5 29 0.5
v -0.5 29 0.5
v 0.5 29 0.5
v 1.5 29 0.5
v -1.5 29 -0.5
v -0.5 29 -0.5
v 0.5 29 -0.5
v 1.5 29 -0.5
v -0.5 29 -1.5
v 0.5 29 -1.5
v -0.5 32 1.5
v 0.5 32 1.5
v -1.5 32 0.5
v -0.5 32 0.5
v 0.5 32 0.5
v 1.5 32 0.5
v -1.5 32 -0.5
v -0.5 32 -0.5
v 0.5 32 -0.5
v 1.5 32 -0.5
v -0.5 32 -1.5
v 0.5 32 -1.5

# faces
f 5/1/1 2/1/1 1/1/1
f 6/1/1 2/1/1 5/1/1
f 7/1/1 4/1/1 3/1/1
f 8/1/1 4/1/1 7/1/1
f 14/3/1 10/3/1 9/3/1
f 15/3/1 10/3/1 14/3/1
f 18/3/1 12/3/1 11/3/1
f 19/3/1 12/3/1 18/3/1
f 21/1/1 14/1/1 13/1/1
f 22/1/1 14/1/1 21/1/1
f 23/1/1 16/1/1 15/1/1
f 24/2/1 17/2/1 16/2/1
f 24/1/1 16/1/1 23/1/1
f 25/2/1 17/2/1 24/2/1
f 26/2/1 17/2/1 25/2/1
f 27/1/1 18/1/1 17/1/1
f 27/2/1 17/2/1 26/2/1
f 28/1/1 18/1/1 27/1/1
f 29/1/1 20/1/1 19/1/1
f 30/1/1 20/1/1 29/1/1
f 31/4/1 23/4/1 22/4/1
f 32/4/1 23/4/1 31/4/1
f 33/2/1 26/2/1 25/2/1
f 34/2/1 26/2/1 33/2/1
f 35/4/1 29/4/1 28/4/1
f 36/4/1 29/4/1 35/4/1
f 39/2/1 38/2/1 37/2/1
f 40/2/1 38/2/1 39/2/1
f 43/2/1 42/2/1 41/2/1
f 44/2/1 42/2/1 43/2/1
f 47/1/1 46/1/1 45/1/1
f 48/1/1 46/1/1 47/1/1
f 53/2/1 50/2/1 49/2/1
f 54/2/1 50/2/1 53/2/1
f 57/2/1 52/2/1 51/2/1
f 58/2/1 52/2/1 57/2/1
f 59/2/1 55/2/1 54/2/1
f 60/2/1 55/2/1 59/2/1
f 63/2/1 57/2/1 56/2/1
f 64/2/1 57/2/1 63/2/1
f 65/2/1 61/2/1 60/2/1
f 66/2/1 61/2/1 65/2/1
f 67/2/1 63/2/1 62/2/1
f 68/2/1 63/2/1 67/2/1
f 70/1/1 67/1/1 66/1/1
f 71/1/1 67/1/1 70/1/1
f 73/1/1 70/1/1 69/1/1
f 74/1/1 70/1/1 73/1/1
f 75/1/1 72/1/1 71/1/1
f 76/1/1 72/1/1 75/1/1
f 79/2/1 78/2/1 77/2/1
f 80/2/1 78/2/1 79/2/1
f 83/2/1 82/2/1 81/2/1
f 84/2/1 82/2/1 83/2/1
f 90/3/1 86/3/1 85/3/1
f 91/3/1 86/3/1 90/3/1
f 94/3/1 88/3/1 87/3/1
f 95/3/1 88/3/1 94/3/1
f 97/1/1 90/1/1 89/1/1
f 98/1/1 90/1/1 97/1/1
f 99/1/1 92/1/1 91/1/1
f 100/2/1 93/2/1 92/2/1
f 100/1/1 92/1/1 99/1/1
f 101/2/1 93/2/1 100/2/1
f 102/2/1 93/2/1 101/2/1
f 103/1/1 94/1/1 93/1/1
f 103/2/1 93/2/1 102/2/1
f 104/1/1 94/1/1 103/1/1
f 105/1/1 96/1/1 95/1/1
f 106/1/1 96/1/1 105/1/1
f 107/4/1 99/4/1 98/4/1
f 108/4/1 99/4/1 107/4/1
f 109/2/1 102/2/1 101/2/1
f 110/2/1 102/2/1 109/2/1
f 111/4/1 105/4/1 104/4/1
f 112/4/1 105/4/1 111/4/1
f 113/3/2 114/3/2 118/3/2
f 118/3/2 114/3/2 119/3/2
f 115/3/2 116/3/2 122/3/2
f 122/3/2 116/3/2 123/3/2
f 117/1/2 118/1/2 125/1/2
f 125/1/2 118/1/2 126/1/2
f 119/1/2 120/1/2 127/1/2
f 120/2/2 121/2/2 128/2/2
f 127/1/2 120/1/2 128/1/2
f 128/2/2 121/2/2 129/2/2
f 129/2/2 121/2/2 130/2/2
f 121/1/2 122/1/2 131/1/2
f 130/2/2 121/2/2 131/2/2
f 131/1/2 122/1/2 132/1/2
f 123/1/2 124/1/2 133/1/2
f 133/1/2 124/1/2 134/1/2
f 126/4/2 127/4/2 135/4/2
f 135/4/2 127/4/2 136/4/2
f 129/2/2 130/2/2 137/2/2
f 137/2/2 130/2/2 138/2/2
f 132/4/2 133/4/2 139/4/2
f 139/4/2 133/4/2 140/4/2
f 141/2/2 142/2/2 143/2/2
f 143/2/2 142/2/2 144/2/2
f 145/2/2 146/2/2 147/2/2
f 147/2/2 146/2/2 148/2/2
f 149/2/2 150/2/2 153/2/2
f 153/2/2 150/2/2 154/2/2
f 151/2/2 152/2/2 157/2/2
f 157/2/2 152/2/2 158/2/2
f 154/2/2 155/2/2 159/2/2
f 159/2/2 155/2/2 160/2/2
f 156/2/2 157/2/2 163/2/2
f 163/2/2 157/2/2 164/2/2
f 160/2/2 161/2/2 165/2/2
f 165/2/2 161/2/2 166/2/2
f 162/2/2 163/2/2 167/2/2
f 167/2/2 163/2/2 168/2/2
f 166/1/2 167/1/2 170/1/2
f 170/1/2 167/1/2 171/1/2
f 169/1/2 170/1/2 173/1/2
f 173/1/2 170/1/2 174/1/2
f 171/1/2 172/1/2 175/1/2
f 175/1/2 172/1/2 176/1/2
f 177/2/2 178/2/2 179/2/2
f 179/2/2 178/2/2 180/2/2
f 181/1/2 182/1/2 183/1/2
f 183/1/2 182/1/2 184/1/2
f 185/2/2 186/2/2 187/2/2
f 187/2/2 186/2/2 188/2/2
f 189/3/2 190/3/2 194/3/2
f 194/3/2 190/3/2 195/3/2
f 191/3/2 192/3/2 198/3/2
f 198/3/2 192/3/2 199/3/2
f 193/1/2 194/1/2 201/1/2
f 201/1/2 194/1/2 202/1/2
f 195/1/2 196/1/2 203/1/2
f 196/2/2 197/2/2 204/2/2
f 203/1/2 196/1/2 204/1/2
f 204/2/2 197/2/2 205/2/2
f 205/2/2 197/2/2 206/2/2
f 197/1/2 198/1/2 207/1/2
f 206/2/2 197/2/2 207/2/2
f 207/1/2 198/1/2 208/1/2
f 199/1/2 200/1/2 209/1/2
f 209/1/2 200/1/2 210/1/2
f 202/4/2 203/4/2 211/4/2
f 211/4/2 203/4/2 212/4/2
f 205/2/2 206/2/2 213/2/2
f 213/2/2 206/2/2 214/2/2
f 208/4/2 209/4/2 215/4/2
f 215/4/2 209/4/2 216/4/2
f 217/1/2 218/1/2 221/1/2
f 221/1/2 218/1/2 222/1/2
f 219/1/2 220/1/2 223/1/2
f 223/1/2 220/1/2 224/1/2
f 227/1/3 226/1/3 225/1/3
f 228/1/3 226/1/3 227/1/3
f 231/1/3 230/1/3 229/1/3
f 232/1/3 230/1/3 231/1/3
f 236/1/3 234/1/3 233/1/3
f 237/1/3 234/1/3 236/1/3
f 239/3/3 236/3/3 235/3/3
f 240/3/3 236/3/3 239/3/3
f 241/4/3 238/4/3 237/4/3
f 242/4/3 238/4/3 241/4/3
f 243/1/3 241/1/3 240/1/3
f 244/1/3 241/1/3 243/1/3
f 245/2/3 244/2/3 243/2/3
f 247/2/3 245/2/3 243/2/3
f 247/2/3 246/2/3 245/2/3
f 248/2/3 246/2/3 247/2/3
f 249/2/3 247/2/3 243/2/3
f 250/2/3 247/2/3 249/2/3
f 252/1/3 250/1/3 249/1/3
f 253/1/3 250/1/3 252/1/3
f 255/3/3 252/3/3 251/3/3
f 256/3/3 252/3/3 255/3/3
f 257/4/3 254/4/3 253/4/3
f 258/4/3 254/4/3 257/4/3
f 259/1/3 257/1/3 256/1/3
f 260/1/3 257/1/3 259/1/3
f 263/2/3 262/2/3 261/2/3
f 264/2/3 262/2/3 263/2/3
f 269/2/3 266/2/3 265/2/3
f 270/2/3 266/2/3 269/2/3
f 271/1/3 268/1/3 267/1/3
f 272/1/3 268/1/3 271/1/3
f 275/2/3 274/2/3 273/2/3
f 276/2/3 274/2/3 275/2/3
f 278/2/3 277/2/3 276/2/3
f 279/2/3 277/2/3 278/2/3
f 283/2/3 280/2/3 279/2/3
f 284/2/3 280/2/3 283/2/3
f 285/1/3 282/1/3 281/1/3
f 286/1/3 282/1/3 285/1/3
f 288/1/3 285/1/3 284/1/3
f 289/1/3 285/1/3 288/1/3
f 292/2/3 288/2/3 287/2/3
f 293/2/3 288/2/3 292/2/3
f 294/1/3 290/1/3 289/1/3
f 295/1/3 290/1/3 294/1/3
f 297/2/3 292/2/3 291/2/3
f 298/2/3 292/2/3 297/2/3
f 299/2/3 297/2/3 296/2/3
f 300/2/3 297/2/3 299/2/3
f 303/2/3 302/2/3 301/2/3
f 304/2/3 302/2/3 303/2/3
f 307/2/3 306/2/3 305/2/3
f 308/2/3 306/2/3 307/2/3
f 312/1/3 310/1/3 309/1/3
f 313/1/3 310/1/3 312/1/3
f 315/3/3 312/3/3 311/3/3
f 316/3/3 312/3/3 315/3/3
f 317/4/3 314/4/3 313/4/3
f 318/4/3 314/4/3 317/4/3
f 319/1/3 317/1/3 316/1/3
f 320/1/3 317/1/3 319/1/3
f 321/2/3 320/2/3 319/2/3
f 323/2/3 321/2/3 319/2/3
f 323/2/3 322/2/3 321/2/3
f 324/2/3 322/2/3 323/2/3
f 325/2/3 323/2/3 319/2/3
f 326/2/3 323/2/3 325/2/3
f 328/1/3 326/1/3 325/1/3
f 329/1/3 326/1/3 328/1/3
f 331/3/3 328/3/3 327/3/3
f 332/3/3 328/3/3 331/3/3
f 333/4/3 330/4/3 329/4/3
f 334/4/3 330/4/3 333/4/3
f 335/1/3 333/1/3 332/1/3
f 336/1/3 333/1/3 335/1/3
f 337/1/4 338/1/4 340/1/4
f 340/1/4 338/1/4 341/1/4
f 339/3/4 340/3/4 343/3/4
f 343/3/4 340/3/4 344/3/4
f 341/4/4 342/4/4 345/4/4
f 345/4/4 342/4/4 346/4/4
f 344/1/4 345/1/4 347/1/4
f 347/1/4 345/1/4 348/1/4
f 347/2/4 348/2/4 349/2/4
f 347/2/4 349/2/4 351/2/4
f 349/2/4 350/2/4 351/2/4
f 351/2/4 350/2/4 352/2/4
f 347/2/4 351/2/4 353/2/4
f 353/2/4 351/2/4 354/2/4
f 353/1/4 354/1/4 356/1/4
f 356/1/4 354/1/4 357/1/4
f 355/3/4 356/3/4 359/3/4
f 359/3/4 356/3/4 360/3/4
f 357/4/4 358/4/4 361/4/4
f 361/4/4 358/4/4 362/4/4
f 360/1/4 361/1/4 363/1/4
f 363/1/4 361/1/4 364/1/4
f 365/2/4 366/2/4 367/2/4
f 367/2/4 366/2/4 368/2/4
f 369/2/4 370/2/4 371/2/4
f 371/2/4 370/2/4 372/2/4
f 373/2/4 374/2/4 375/2/4
f 375/2/4 374/2/4 376/2/4
f 376/2/4 377/2/4 378/2/4
f 378/2/4 377/2/4 379/2/4
f 379/2/4 380/2/4 383/2/4
f 383/2/4 380/2/4 384/2/4
f 381/1/4 382/1/4 385/1/4
f 385/1/4 382/1/4 386/1/4
f 384/1/4 385/1/4 388/1/4
f 388/1/4 385/1/4 389/1/4
f 387/2/4 388/2/4 392/2/4
f 392/2/4 388/2/4 393/2/4
f 389/1/4 390/1/4 394/1/4
f 394/1/4 390/1/4 395/1/4
f 391/2/4 392/2/4 397/2/4
f 397/2/4 392/2/4 398/2/4
f 396/2/4 397/2/4 399/2/4
f 399/2/4 397/2/4 400/2/4
f 401/2/4 402/2/4 405/2/4
f 405/2/4 402/2/4 406/2/4
f 403/1/4 404/1/4 407/1/4
f 407/1/4 404/1/4 408/1/4
f 409/2/4 410/2/4 411/2/4
f 411/2/4 410/2/4 412/2/4
f 413/1/4 414/1/4 416/1/4
f 416/1/4 414/1/4 417/1/4
f 415/3/4 416/3/4 419/3/4
f 419/3/4 416/3/4 420/3/4
f 417/4/4 418/4/4 421/4/4
f 421/4/4 418/4/4 422/4/4
f 420/1/4 421/1/4 423/1/4
f 423/1/4 421/1/4 424/1/4
f 423/2/4 424/2/4 425/2/4
f 423/2/4 425/2/4 427/2/4
f 425/2/4 426/2/4 427/2/4
f 427/2/4 426/2/4 428/2/4
f 423/2/4 427/2/4 429/2/4
f 429/2/4 427/2/4 430/2/4
f 429/1/4 430/1/4 432/1/4
f 432/1/4 430/1/4 433/1/4
f 431/3/4 432/3/4 435/3/4
f 435/3/4 432/3/4 436/3/4
f 433/4/4 434/4/4 437/4/4
f 437/4/4 434/4/4 438/4/4
f 436/1/4 437/1/4 439/1/4
f 439/1/4 437/1/4 440/1/4
f 441/1/4 442/1/4 443/1/4
f 443/1/4 442/1/4 444/1/4
f 445/1/4 446/1/4 447/1/4
f 447/1/4 446/1/4 448/1/4
f 453/3/5 450/3/5 449/3/5
f 454/3/5 450/3/5 453/3/5
f 455/3/5 452/3/5 451/3/5
f 456/3/5 452/3/5 455/3/5
f 461/3/5 458/3/5 457/3/5
f 462/3/5 458/3/5 461/3/5
f 463/3/5 460/3/5 459/3/5
f 464/3/5 460/3/5 463/3/5
f 470/1/5 466/1/5 465/1/5
f 471/1/5 466/1/5 470/1/5
f 474/1/5 468/1/5 467/1/5
f 475/1/5 468/1/5 474/1/5
f 477/1/5 470/1/5 469/1/5
f 478/1/5 470/1/5 477/1/5
f 479/1/5 472/1/5 471/1/5
f 480/2/5 473/2/5 472/2/5
f 480/1/5 472/1/5 479/1/5
f 481/1/5 474/1/5 473/1/5
f 481/2/5 473/2/5 480/2/5
f 482/1/5 474/1/5 481/1/5
f 483/1/5 476/1/5 475/1/5
f 484/1/5 476/1/5 483/1/5
f 485/1/5 479/1/5 478/1/5
f 486/1/5 479/1/5 485/1/5
f 487/1/5 483/1/5 482/1/5
f 488/1/5 483/1/5 487/1/5
f 489/2/5 486/2/5 485/2/5
f 490/2/5 486/2/5 489/2/5
f 491/2/5 488/2/5 487/2/5
f 492/2/5 488/2/5 491/2/5
f 494/1/5 490/1/5 489/1/5
f 495/1/5 490/1/5 494/1/5
f 498/1/5 492/1/5 491/1/5
f 499/1/5 492/1/5 498/1/5
f 501/1/5 494/1/5 493/1/5
f 502/1/5 494/1/5 501/1/5
f 503/1/5 496/1/5 495/1/5
f 504/2/5 497/2/5 496/2/5
f 504/1/5 496/1/5 503/1/5
f 505/1/5 498/1/5 497/1/5
f 505/2/5 497/2/5 504/2/5
f 506/1/5 498/1/5 505/1/5
f 507/1/5 500/1/5 499/1/5
f 508/1/5 500/1/5 507/1/5
f 509/1/5 503/1/5 502/1/5
f 510/1/5 503/1/5 509/1/5
f 511/1/5 507/1/5 506/1/5
f 512/1/5 507/1/5 511/1/5
f 515/2/5 514/2/5 513/2/5
f 516/2/5 514/2/5 515/2/5
f 521/2/5 518/2/5 517/2/5
f 522/2/5 518/2/5 521/2/5
f 523/2/5 520/2/5 519/2/5
f 524/2/5 520/2/5 523/2/5
f 527/2/5 526/2/5 525/2/5
f 528/2/5 526/2/5 527/2/5
f 532/2/5 530/2/5 529/2/5
f 533/2/5 530/2/5 532/2/5
f 535/2/5 532/2/5 531/2/5
f 536/2/5 532/2/5 535/2/5
f 537/2/5 534/2/5 533/2/5
f 538/2/5 534/2/5 537/2/5
f 539/2/5 537/2/5 536/2/5
f 540/2/5 537/2/5 539/2/5
f 543/1/5 542/1/5 541/1/5
f 544/1/5 542/1/5 543/1/5
f 548/1/5 546/1/5 545/1/5
f 549/1/5 546/1/5 548/1/5
f 551/1/5 548/1/5 547/1/5
f 552/1/5 548/1/5 551/1/5
f 553/1/5 550/1/5 549/1/5
f 554/1/5 550/1/5 553/1/5
f 555/1/5 553/1/5 552/1/5
f 556/1/5 553/1/5 555/1/5
f 557/1/6 558/1/6 562/1/6
f 562/1/6 558/1/6 563/1/6
f 559/1/6 560/1/6 568/1/6
f 568/1/6 560/1/6 569/1/6
f 561/1/6 562/1/6 571/1/6
f 571/1/6 562/1/6 572/1/6
f 563/1/6 564/1/6 573/1/6
f 564/2/6 565/2/6 574/2/6
f 573/1/6 564/1/6 574/1/6
f 574/2/6 565/2/6 575/2/6
f 566/2/6 567/2/6 576/2/6
f 567/1/6 568/1/6 577/1/6
f 576/2/6 567/2/6 577/2/6
f 577/1/6 568/1/6 578/1/6
f 569/1/6 570/1/6 579/1/6
f 579/1/6 570/1/6 580/1/6
f 572/1/6 573/1/6 581/1/6
f 581/1/6 573/1/6 582/1/6
f 578/1/6 579/1/6 583/1/6
f 583/1/6 579/1/6 584/1/6
f 581/2/6 582/2/6 585/2/6
f 585/2/6 582/2/6 586/2/6
f 583/2/6 584/2/6 587/2/6
f 587/2/6 584/2/6 588/2/6
f 589/2/6 590/2/6 593/2/6
f 593/2/6 590/2/6 594/2/6
f 591/2/6 592/2/6 595/2/6
f 595/2/6 592/2/6 596/2/6
f 593/1/6 594/1/6 598/1/6
f 598/1/6 594/1/6 599/1/6
f 595/1/6 596/1/6 604/1/6
f 604/1/6 596/1/6 605/1/6
f 597/1/6 598/1/6 607/1/6
f 607/1/6 598/1/6 608/1/6
f 599/1/6 600/1/6 609/1/6
f 600/2/6 601/2/6 610/2/6
f 609/1/6 600/1/6 610/1/6
f 610/2/6 601/2/6 611/2/6
f 602/2/6 603/2/6 612/2/6
f 603/1/6 604/1/6 613/1/6
f 612/2/6 603/2/6 613/2/6
f 613/1/6 604/1/6 614/1/6
f 605/1/6 606/1/6 615/1/6
f 615/1/6 606/1/6 616/1/6
f 608/1/6 609/1/6 617/1/6
f 617/1/6 609/1/6 618/1/6
f 614/1/6 615/1/6 619/1/6
f 619/1/6 615/1/6 620/1/6
f 621/4/6 622/4/6 627/4/6
f 627/4/6 622/4/6 628/4/6
f 623/2/6 624/2/6 629/2/6
f 629/2/6 624/2/6 630/2/6
f 625/4/6 626/4/6 631/4/6
f 631/4/6 626/4/6 632/4/6
f 633/2/6 634/2/6 637/2/6
f 637/2/6 634/2/6 638/2/6
f 635/2/6 636/2/6 639/2/6
f 639/2/6 636/2/6 640/2/6
f 641/4/6 642/4/6 647/4/6
f 647/4/6 642/4/6 648/4/6
f 643/2/6 644/2/6 649/2/6
f 649/2/6 644/2/6 650/2/6
f 645/4/6 646/4/6 651/4/6
f 651/4/6 646/4/6 652/4/6
f 653/2/6 654/2/6 655/2/6
f 655/2/6 654/2/6 656/2/6
f 657/2/6 658/2/6 661/2/6
f 661/2/6 658/2/6 662/2/6
f 659/2/6 660/2/6 663/2/6
f 663/2/6 660/2/6 664/2/6
f 665/2/6 666/2/6 667/2/6
f 667/2/6 666/2/6 668/2/6
f 669/2/6 670/2/6 672/2/6
f 672/2/6 670/2/6 673/2/6
f 671/2/6 672/2/6 675/2/6
f 675/2/6 672/2/6 676/2/6
f 673/2/6 674/2/6 677/2/6
f 677/2/6 674/2/6 678/2/6
f 676/2/6 677/2/6 679/2/6
f 679/2/6 677/2/6 680/2/6
f 681/1/6 682/1/6 684/1/6
f 684/1/6 682/1/6 685/1/6
f 683/1/6 684/1/6 687/1/6
f 685/1/6 686/1/6 687/1/6
f 684/1/6 685/1/6 687/1/6
f 687/1/6 686/1/6 688/1/6
f 688/1/6 686/1/6 689/1/6
f 689/1/6 686/1/6 690/1/6
f 688/1/6 689/1/6 691/1/6
f 691/1/6 689/1/6 692/1/6
