# MagicaVoxel @ Ephtracy

# group
g CorruptedSkeleton-1

# material
mtllib CorruptedSkeleton-1.mtl
usemtl palette

# normals
vn -1 0 0
vn 1 0 0
vn 0 0 1
vn 0 0 -1
vn 0 -1 0
vn 0 1 0

# texcoords
vt 0.970703 0.5
vt 0.974609 0.5

# verts
v -4 1 0.5
v -4 1 -0.5
v -4 1 -1.5
v -4 2 0.5
v -4 2 -0.5
v -4 3 -0.5
v -4 3 -1.5
v -3 0 1.5
v -3 0 0.5
v -3 0 -1.5
v -3 1 0.5
v -3 1 -0.5
v -3 1 -1.5
v -3 2 1.5
v -3 2 0.5
v 1 2 -0.5
v 1 2 -1.5
v 1 3 -0.5
v 1 3 -1.5
v -1 2 -0.5
v -1 2 -1.5
v -1 3 -0.5
v -1 3 -1.5
v 3 0 1.5
v 3 0 -1.5
v 3 1 1.5
v 3 1 0.5
v 3 1 -0.5
v 3 1 -1.5
v 3 2 1.5
v 3 2 0.5
v 4 1 0.5
v 4 1 -0.5
v 4 1 -1.5
v 4 2 0.5
v 4 2 -0.5
v 4 3 -0.5
v 4 3 -1.5
v -3 0 1.5
v -3 2 1.5
v -2 0 1.5
v -2 1 1.5
v 3 0 1.5
v 3 1 1.5
v 3 2 1.5
v -4 1 0.5
v -4 2 0.5
v -3 1 0.5
v -3 2 0.5
v 3 1 0.5
v 3 2 0.5
v 4 1 0.5
v 4 2 0.5
v -4 2 -0.5
v -4 3 -0.5
v -1 2 -0.5
v -1 3 -0.5
v 1 2 -0.5
v 1 3 -0.5
v 4 2 -0.5
v 4 3 -0.5
v -4 1 -1.5
v -4 3 -1.5
v -3 0 -1.5
v -3 1 -1.5
v -1 2 -1.5
v -1 3 -1.5
v 1 2 -1.5
v 1 3 -1.5
v 3 0 -1.5
v 3 1 -1.5
v 4 1 -1.5
v 4 3 -1.5
v -3 0 1.5
v -2 0 1.5
v 3 0 1.5
v -3 0 0.5
v -2 0 0.5
v -3 0 -1.5
v 3 0 -1.5
v -4 1 0.5
v -3 1 0.5
v 3 1 0.5
v 4 1 0.5
v -4 1 -0.5
v -3 1 -0.5
v 3 1 -0.5
v 4 1 -0.5
v -4 1 -1.5
v -3 1 -1.5
v 3 1 -1.5
v 4 1 -1.5
v -3 2 1.5
v 3 2 1.5
v -4 2 0.5
v -3 2 0.5
v 3 2 0.5
v 4 2 0.5
v -4 2 -0.5
v -1 2 -0.5
v 1 2 -0.5
v 4 2 -0.5
v -1 2 -1.5
v 1 2 -1.5
v -4 3 -0.5
v -1 3 -0.5
v 1 3 -0.5
v 4 3 -0.5
v -4 3 -1.5
v -1 3 -1.5
v 1 3 -1.5
v 4 3 -1.5

# faces
f 4/2/1 2/2/1 1/2/1
f 5/1/1 3/1/1 2/1/1
f 5/2/1 2/2/1 4/2/1
f 6/1/1 3/1/1 5/1/1
f 7/1/1 3/1/1 6/1/1
f 11/2/1 9/2/1 8/2/1
f 11/1/1 10/1/1 9/1/1
f 12/1/1 10/1/1 11/1/1
f 13/1/1 10/1/1 12/1/1
f 14/2/1 11/2/1 8/2/1
f 15/2/1 11/2/1 14/2/1
f 18/1/1 17/1/1 16/1/1
f 19/1/1 17/1/1 18/1/1
f 20/1/2 21/1/2 22/1/2
f 22/1/2 21/1/2 23/1/2
f 24/1/2 25/1/2 26/1/2
f 26/1/2 25/1/2 27/1/2
f 27/1/2 25/1/2 28/1/2
f 28/1/2 25/1/2 29/1/2
f 26/2/2 27/2/2 30/2/2
f 30/2/2 27/2/2 31/2/2
f 32/2/2 33/2/2 35/2/2
f 33/1/2 34/1/2 36/1/2
f 35/2/2 33/2/2 36/2/2
f 36/1/2 34/1/2 37/1/2
f 37/1/2 34/1/2 38/1/2
f 41/2/3 40/2/3 39/2/3
f 42/2/3 40/2/3 41/2/3
f 43/1/3 42/1/3 41/1/3
f 44/2/3 40/2/3 42/2/3
f 44/1/3 42/1/3 43/1/3
f 45/2/3 40/2/3 44/2/3
f 48/2/3 47/2/3 46/2/3
f 49/2/3 47/2/3 48/2/3
f 52/2/3 51/2/3 50/2/3
f 53/2/3 51/2/3 52/2/3
f 56/1/3 55/1/3 54/1/3
f 57/1/3 55/1/3 56/1/3
f 60/1/3 59/1/3 58/1/3
f 61/1/3 59/1/3 60/1/3
f 62/1/4 63/1/4 65/1/4
f 65/1/4 63/1/4 66/1/4
f 64/1/4 65/1/4 66/1/4
f 66/1/4 63/1/4 67/1/4
f 64/1/4 66/1/4 68/1/4
f 64/1/4 68/1/4 70/1/4
f 68/1/4 69/1/4 70/1/4
f 70/1/4 69/1/4 71/1/4
f 71/1/4 69/1/4 72/1/4
f 72/1/4 69/1/4 73/1/4
f 77/2/5 75/2/5 74/2/5
f 78/1/5 76/1/5 75/1/5
f 78/2/5 75/2/5 77/2/5
f 79/1/5 78/1/5 77/1/5
f 80/1/5 76/1/5 78/1/5
f 80/1/5 78/1/5 79/1/5
f 85/2/5 82/2/5 81/2/5
f 86/2/5 82/2/5 85/2/5
f 87/2/5 84/2/5 83/2/5
f 88/2/5 84/2/5 87/2/5
f 89/1/5 86/1/5 85/1/5
f 90/1/5 86/1/5 89/1/5
f 91/1/5 88/1/5 87/1/5
f 92/1/5 88/1/5 91/1/5
f 93/2/6 94/2/6 96/2/6
f 96/2/6 94/2/6 97/2/6
f 95/2/6 96/2/6 99/2/6
f 97/2/6 98/2/6 99/2/6
f 96/2/6 97/2/6 99/2/6
f 99/2/6 98/2/6 100/2/6
f 100/2/6 98/2/6 101/2/6
f 101/2/6 98/2/6 102/2/6
f 100/1/6 101/1/6 103/1/6
f 103/1/6 101/1/6 104/1/6
f 105/1/6 106/1/6 109/1/6
f 109/1/6 106/1/6 110/1/6
f 107/1/6 108/1/6 111/1/6
f 111/1/6 108/1/6 112/1/6
