# MagicaVoxel @ Ephtracy

# group
g MachineGun-0

# material
mtllib MachineGun-0.mtl
usemtl palette

# normals
vn -1 0 0
vn 1 0 0
vn 0 0 1
vn 0 0 -1
vn 0 -1 0
vn 0 1 0

# texcoords
vt 0.939453 0.5
vt 0.970703 0.5
vt 0.974609 0.5

# verts
v -1.5 7 4.5
v -1.5 7 -9.5
v -1.5 8 4.5
v -1.5 8 -9.5
v -0.5 2 -3.5
v -0.5 2 -5.5
v -0.5 3 -2.5
v -0.5 3 -3.5
v -0.5 4 0.5
v -0.5 4 -2.5
v -0.5 4 -4.5
v -0.5 4 -5.5
v -0.5 5 -0.5
v -0.5 5 -2.5
v -0.5 5 -3.5
v -0.5 5 -4.5
v -0.5 5 -9.5
v -0.5 5 -10.5
v -0.5 6 11.5
v -0.5 6 4.5
v -0.5 6 0.5
v -0.5 6 -0.5
v -0.5 6 -2.5
v -0.5 6 -3.5
v -0.5 6 -4.5
v -0.5 6 -8.5
v -0.5 6 -9.5
v -0.5 6 -10.5
v -0.5 6 -11.5
v -0.5 7 4.5
v -0.5 7 0.5
v -0.5 7 -4.5
v -0.5 7 -8.5
v -0.5 7 -9.5
v -0.5 8 11.5
v -0.5 8 4.5
v -0.5 8 -3.5
v -0.5 8 -6.5
v -0.5 8 -9.5
v -0.5 9 4.5
v -0.5 9 3.5
v -0.5 9 -2.5
v -0.5 9 -3.5
v -0.5 9 -6.5
v -0.5 9 -11.5
v -0.5 10 4.5
v -0.5 10 3.5
v -0.5 10 -2.5
v -0.5 10 -3.5
v 0.5 7 -4.5
v 0.5 7 -7.5
v 0.5 8 -4.5
v 0.5 8 -6.5
v 0.5 8 -7.5
v -0.5 7 -4.5
v -0.5 7 -7.5
v -0.5 8 -4.5
v -0.5 8 -6.5
v -0.5 8 -7.5
v 0.5 2 -3.5
v 0.5 2 -5.5
v 0.5 3 -2.5
v 0.5 3 -3.5
v 0.5 4 0.5
v 0.5 4 -2.5
v 0.5 4 -4.5
v 0.5 4 -5.5
v 0.5 5 -0.5
v 0.5 5 -2.5
v 0.5 5 -3.5
v 0.5 5 -4.5
v 0.5 5 -9.5
v 0.5 5 -10.5
v 0.5 6 11.5
v 0.5 6 4.5
v 0.5 6 0.5
v 0.5 6 -0.5
v 0.5 6 -2.5
v 0.5 6 -3.5
v 0.5 6 -4.5
v 0.5 6 -8.5
v 0.5 6 -9.5
v 0.5 6 -10.5
v 0.5 6 -11.5
v 0.5 7 4.5
v 0.5 7 0.5
v 0.5 7 -4.5
v 0.5 7 -8.5
v 0.5 7 -9.5
v 0.5 8 11.5
v 0.5 8 4.5
v 0.5 8 -3.5
v 0.5 8 -6.5
v 0.5 8 -9.5
v 0.5 9 4.5
v 0.5 9 3.5
v 0.5 9 -2.5
v 0.5 9 -3.5
v 0.5 9 -6.5
v 0.5 9 -11.5
v 0.5 10 4.5
v 0.5 10 3.5
v 0.5 10 -2.5
v 0.5 10 -3.5
v 1.5 7 4.5
v 1.5 7 -9.5
v 1.5 8 4.5
v 1.5 8 -9.5
v -0.5 6 11.5
v -0.5 8 11.5
v 0.5 6 11.5
v 0.5 8 11.5
v -1.5 7 4.5
v -1.5 8 4.5
v -0.5 7 4.5
v -0.5 8 4.5
v -0.5 9 4.5
v -0.5 10 4.5
v 0.5 7 4.5
v 0.5 8 4.5
v 0.5 9 4.5
v 0.5 10 4.5
v 1.5 7 4.5
v 1.5 8 4.5
v -0.5 4 0.5
v -0.5 6 0.5
v 0.5 4 0.5
v 0.5 6 0.5
v -0.5 3 -2.5
v -0.5 4 -2.5
v -0.5 5 -2.5
v -0.5 6 -2.5
v -0.5 9 -2.5
v -0.5 10 -2.5
v 0.5 3 -2.5
v 0.5 4 -2.5
v 0.5 5 -2.5
v 0.5 6 -2.5
v 0.5 9 -2.5
v 0.5 10 -2.5
v -0.5 2 -3.5
v -0.5 3 -3.5
v 0.5 2 -3.5
v 0.5 3 -3.5
v -0.5 8 -6.5
v -0.5 9 -6.5
v 0.5 8 -6.5
v 0.5 9 -6.5
v -0.5 7 -7.5
v -0.5 8 -7.5
v 0.5 7 -7.5
v 0.5 8 -7.5
v -0.5 6 -8.5
v -0.5 7 -8.5
v 0.5 6 -8.5
v 0.5 7 -8.5
v -0.5 5 -9.5
v -0.5 6 -9.5
v 0.5 5 -9.5
v 0.5 6 -9.5
v -0.5 9 3.5
v -0.5 10 3.5
v 0.5 9 3.5
v 0.5 10 3.5
v -0.5 5 -0.5
v -0.5 6 -0.5
v 0.5 5 -0.5
v 0.5 6 -0.5
v -0.5 5 -3.5
v -0.5 6 -3.5
v -0.5 8 -3.5
v -0.5 9 -3.5
v -0.5 10 -3.5
v 0.5 5 -3.5
v 0.5 6 -3.5
v 0.5 8 -3.5
v 0.5 9 -3.5
v 0.5 10 -3.5
v -0.5 4 -4.5
v -0.5 5 -4.5
v -0.5 6 -4.5
v -0.5 7 -4.5
v -0.5 8 -4.5
v 0.5 4 -4.5
v 0.5 5 -4.5
v 0.5 6 -4.5
v 0.5 7 -4.5
v 0.5 8 -4.5
v -0.5 2 -5.5
v -0.5 4 -5.5
v 0.5 2 -5.5
v 0.5 4 -5.5
v -1.5 7 -9.5
v -1.5 8 -9.5
v -0.5 7 -9.5
v -0.5 8 -9.5
v 0.5 7 -9.5
v 0.5 8 -9.5
v 1.5 7 -9.5
v 1.5 8 -9.5
v -0.5 5 -10.5
v -0.5 6 -10.5
v 0.5 5 -10.5
v 0.5 6 -10.5
v -0.5 6 -11.5
v -0.5 9 -11.5
v 0.5 6 -11.5
v 0.5 9 -11.5
v -0.5 2 -3.5
v 0.5 2 -3.5
v -0.5 2 -5.5
v 0.5 2 -5.5
v -0.5 3 -2.5
v 0.5 3 -2.5
v -0.5 3 -3.5
v 0.5 3 -3.5
v -0.5 4 0.5
v 0.5 4 0.5
v -0.5 4 -2.5
v 0.5 4 -2.5
v -0.5 5 -9.5
v 0.5 5 -9.5
v -0.5 5 -10.5
v 0.5 5 -10.5
v -0.5 6 11.5
v 0.5 6 11.5
v -0.5 6 4.5
v 0.5 6 4.5
v -0.5 6 0.5
v 0.5 6 0.5
v -0.5 6 -0.5
v 0.5 6 -0.5
v -0.5 6 -2.5
v 0.5 6 -2.5
v -0.5 6 -3.5
v 0.5 6 -3.5
v -0.5 6 -4.5
v 0.5 6 -4.5
v -0.5 6 -8.5
v 0.5 6 -8.5
v -0.5 6 -9.5
v 0.5 6 -9.5
v -0.5 6 -10.5
v 0.5 6 -10.5
v -0.5 6 -11.5
v 0.5 6 -11.5
v -1.5 7 4.5
v -0.5 7 4.5
v 0.5 7 4.5
v 1.5 7 4.5
v -0.5 7 0.5
v 0.5 7 0.5
v -0.5 7 -4.5
v 0.5 7 -4.5
v -0.5 7 -7.5
v 0.5 7 -7.5
v -0.5 7 -8.5
v 0.5 7 -8.5
v -1.5 7 -9.5
v -0.5 7 -9.5
v 0.5 7 -9.5
v 1.5 7 -9.5
v -0.5 8 -6.5
v 0.5 8 -6.5
v -0.5 8 -7.5
v 0.5 8 -7.5
v -0.5 4 -4.5
v 0.5 4 -4.5
v -0.5 4 -5.5
v 0.5 4 -5.5
v -0.5 5 -0.5
v 0.5 5 -0.5
v -0.5 5 -2.5
v 0.5 5 -2.5
v -0.5 5 -3.5
v 0.5 5 -3.5
v -0.5 5 -4.5
v 0.5 5 -4.5
v -0.5 8 11.5
v 0.5 8 11.5
v -1.5 8 4.5
v -0.5 8 4.5
v 0.5 8 4.5
v 1.5 8 4.5
v -0.5 8 -3.5
v 0.5 8 -3.5
v -0.5 8 -4.5
v 0.5 8 -4.5
v -0.5 8 -6.5
v 0.5 8 -6.5
v -1.5 8 -9.5
v -0.5 8 -9.5
v 0.5 8 -9.5
v 1.5 8 -9.5
v -0.5 9 3.5
v 0.5 9 3.5
v -0.5 9 -2.5
v 0.5 9 -2.5
v -0.5 9 -6.5
v 0.5 9 -6.5
v -0.5 9 -11.5
v 0.5 9 -11.5
v -0.5 10 4.5
v 0.5 10 4.5
v -0.5 10 3.5
v 0.5 10 3.5
v -0.5 10 -2.5
v 0.5 10 -2.5
v -0.5 10 -3.5
v 0.5 10 -3.5

# faces
f 3/1/1 2/1/1 1/1/1
f 4/1/1 2/1/1 3/1/1
f 8/2/1 6/2/1 5/2/1
f 10/2/1 8/2/1 7/2/1
f 11/2/1 6/2/1 8/2/1
f 11/2/1 8/2/1 10/2/1
f 12/2/1 6/2/1 11/2/1
f 13/2/1 10/2/1 9/2/1
f 13/2/1 11/2/1 10/2/1
f 14/2/1 11/2/1 13/2/1
f 15/2/1 11/2/1 14/2/1
f 16/2/1 11/2/1 15/2/1
f 21/2/1 13/2/1 9/2/1
f 22/2/1 13/2/1 21/2/1
f 23/2/1 15/2/1 14/2/1
f 24/2/1 15/2/1 23/2/1
f 27/2/1 18/2/1 17/2/1
f 28/2/1 18/2/1 27/2/1
f 30/2/1 20/2/1 19/2/1
f 30/3/1 21/3/1 20/3/1
f 31/2/1 25/2/1 24/2/1
f 31/3/1 21/3/1 30/3/1
f 31/2/1 22/2/1 21/2/1
f 31/2/1 23/2/1 22/2/1
f 31/2/1 24/2/1 23/2/1
f 32/2/1 25/2/1 31/2/1
f 33/2/1 29/2/1 28/2/1
f 33/2/1 27/2/1 26/2/1
f 33/2/1 28/2/1 27/2/1
f 34/2/1 29/2/1 33/2/1
f 35/2/1 30/2/1 19/2/1
f 36/2/1 30/2/1 35/2/1
f 39/2/1 29/2/1 34/2/1
f 40/3/1 37/3/1 36/3/1
f 41/3/1 37/3/1 40/3/1
f 42/3/1 37/3/1 41/3/1
f 43/3/1 37/3/1 42/3/1
f 44/2/1 39/2/1 38/2/1
f 45/2/1 29/2/1 39/2/1
f 45/2/1 39/2/1 44/2/1
f 46/1/1 41/1/1 40/1/1
f 47/1/1 41/1/1 46/1/1
f 48/1/1 43/1/1 42/1/1
f 49/1/1 43/1/1 48/1/1
f 52/1/1 51/1/1 50/1/1
f 53/1/1 51/1/1 52/1/1
f 54/1/1 51/1/1 53/1/1
f 55/1/2 56/1/2 57/1/2
f 57/1/2 56/1/2 58/1/2
f 58/1/2 56/1/2 59/1/2
f 60/2/2 61/2/2 63/2/2
f 62/2/2 63/2/2 65/2/2
f 63/2/2 61/2/2 66/2/2
f 65/2/2 63/2/2 66/2/2
f 66/2/2 61/2/2 67/2/2
f 64/2/2 65/2/2 68/2/2
f 65/2/2 66/2/2 68/2/2
f 68/2/2 66/2/2 69/2/2
f 69/2/2 66/2/2 70/2/2
f 70/2/2 66/2/2 71/2/2
f 64/2/2 68/2/2 76/2/2
f 76/2/2 68/2/2 77/2/2
f 69/2/2 70/2/2 78/2/2
f 78/2/2 70/2/2 79/2/2
f 72/2/2 73/2/2 82/2/2
f 82/2/2 73/2/2 83/2/2
f 74/2/2 75/2/2 85/2/2
f 75/3/2 76/3/2 85/3/2
f 79/2/2 80/2/2 86/2/2
f 85/3/2 76/3/2 86/3/2
f 76/2/2 77/2/2 86/2/2
f 77/2/2 78/2/2 86/2/2
f 78/2/2 79/2/2 86/2/2
f 86/2/2 80/2/2 87/2/2
f 83/2/2 84/2/2 88/2/2
f 81/2/2 82/2/2 88/2/2
f 82/2/2 83/2/2 88/2/2
f 88/2/2 84/2/2 89/2/2
f 74/2/2 85/2/2 90/2/2
f 90/2/2 85/2/2 91/2/2
f 89/2/2 84/2/2 94/2/2
f 91/3/2 92/3/2 95/3/2
f 95/3/2 92/3/2 96/3/2
f 96/3/2 92/3/2 97/3/2
f 97/3/2 92/3/2 98/3/2
f 93/2/2 94/2/2 99/2/2
f 94/2/2 84/2/2 100/2/2
f 99/2/2 94/2/2 100/2/2
f 95/1/2 96/1/2 101/1/2
f 101/1/2 96/1/2 102/1/2
f 97/1/2 98/1/2 103/1/2
f 103/1/2 98/1/2 104/1/2
f 105/1/2 106/1/2 107/1/2
f 107/1/2 106/1/2 108/1/2
f 111/2/3 110/2/3 109/2/3
f 112/2/3 110/2/3 111/2/3
f 115/1/3 114/1/3 113/1/3
f 116/1/3 114/1/3 115/1/3
f 120/3/3 117/3/3 116/3/3
f 121/1/3 118/1/3 117/1/3
f 121/3/3 117/3/3 120/3/3
f 122/1/3 118/1/3 121/1/3
f 123/1/3 120/1/3 119/1/3
f 124/1/3 120/1/3 123/1/3
f 127/2/3 126/2/3 125/2/3
f 128/2/3 126/2/3 127/2/3
f 135/2/3 130/2/3 129/2/3
f 136/2/3 130/2/3 135/2/3
f 137/2/3 132/2/3 131/2/3
f 138/2/3 132/2/3 137/2/3
f 139/1/3 134/1/3 133/1/3
f 140/1/3 134/1/3 139/1/3
f 143/2/3 142/2/3 141/2/3
f 144/2/3 142/2/3 143/2/3
f 147/2/3 146/2/3 145/2/3
f 148/2/3 146/2/3 147/2/3
f 151/2/3 150/2/3 149/2/3
f 152/2/3 150/2/3 151/2/3
f 155/2/3 154/2/3 153/2/3
f 156/2/3 154/2/3 155/2/3
f 159/2/3 158/2/3 157/2/3
f 160/2/3 158/2/3 159/2/3
f 161/1/4 162/1/4 163/1/4
f 163/1/4 162/1/4 164/1/4
f 165/2/4 166/2/4 167/2/4
f 167/2/4 166/2/4 168/2/4
f 169/2/4 170/2/4 174/2/4
f 174/2/4 170/2/4 175/2/4
f 171/3/4 172/3/4 176/3/4
f 172/1/4 173/1/4 177/1/4
f 176/3/4 172/3/4 177/3/4
f 177/1/4 173/1/4 178/1/4
f 179/2/4 180/2/4 184/2/4
f 184/2/4 180/2/4 185/2/4
f 182/2/4 183/2/4 186/2/4
f 181/2/4 182/2/4 186/2/4
f 186/2/4 183/2/4 187/2/4
f 187/2/4 183/2/4 188/2/4
f 189/2/4 190/2/4 191/2/4
f 191/2/4 190/2/4 192/2/4
f 193/1/4 194/1/4 195/1/4
f 195/1/4 194/1/4 196/1/4
f 197/1/4 198/1/4 199/1/4
f 199/1/4 198/1/4 200/1/4
f 201/2/4 202/2/4 203/2/4
f 203/2/4 202/2/4 204/2/4
f 205/2/4 206/2/4 207/2/4
f 207/2/4 206/2/4 208/2/4
f 211/2/5 210/2/5 209/2/5
f 212/2/5 210/2/5 211/2/5
f 215/2/5 214/2/5 213/2/5
f 216/2/5 214/2/5 215/2/5
f 219/2/5 218/2/5 217/2/5
f 220/2/5 218/2/5 219/2/5
f 223/2/5 222/2/5 221/2/5
f 224/2/5 222/2/5 223/2/5
f 227/2/5 226/2/5 225/2/5
f 228/2/5 226/2/5 227/2/5
f 229/3/5 228/3/5 227/3/5
f 230/3/5 228/3/5 229/3/5
f 233/2/5 232/2/5 231/2/5
f 234/2/5 232/2/5 233/2/5
f 237/2/5 236/2/5 235/2/5
f 238/2/5 236/2/5 237/2/5
f 241/2/5 240/2/5 239/2/5
f 242/2/5 240/2/5 241/2/5
f 245/2/5 244/2/5 243/2/5
f 246/2/5 244/2/5 245/2/5
f 251/1/5 248/1/5 247/1/5
f 252/1/5 250/1/5 249/1/5
f 253/1/5 251/1/5 247/1/5
f 254/1/5 250/1/5 252/1/5
f 255/1/5 253/1/5 247/1/5
f 256/1/5 250/1/5 254/1/5
f 257/1/5 255/1/5 247/1/5
f 257/2/5 256/2/5 255/2/5
f 258/1/5 250/1/5 256/1/5
f 258/2/5 256/2/5 257/2/5
f 259/1/5 257/1/5 247/1/5
f 260/1/5 257/1/5 259/1/5
f 261/1/5 250/1/5 258/1/5
f 262/1/5 250/1/5 261/1/5
f 265/2/5 264/2/5 263/2/5
f 266/2/5 264/2/5 265/2/5
f 267/2/6 268/2/6 269/2/6
f 269/2/6 268/2/6 270/2/6
f 271/2/6 272/2/6 273/2/6
f 273/2/6 272/2/6 274/2/6
f 275/2/6 276/2/6 277/2/6
f 277/2/6 276/2/6 278/2/6
f 279/2/6 280/2/6 282/2/6
f 282/2/6 280/2/6 283/2/6
f 281/1/6 282/1/6 285/1/6
f 283/1/6 284/1/6 286/1/6
f 281/1/6 285/1/6 287/1/6
f 285/2/6 286/2/6 287/2/6
f 286/1/6 284/1/6 288/1/6
f 287/2/6 286/2/6 288/2/6
f 281/1/6 287/1/6 289/1/6
f 288/1/6 284/1/6 290/1/6
f 281/1/6 289/1/6 291/1/6
f 291/1/6 289/1/6 292/1/6
f 290/1/6 284/1/6 293/1/6
f 293/1/6 284/1/6 294/1/6
f 295/3/6 296/3/6 297/3/6
f 297/3/6 296/3/6 298/3/6
f 299/2/6 300/2/6 301/2/6
f 301/2/6 300/2/6 302/2/6
f 303/1/6 304/1/6 305/1/6
f 305/1/6 304/1/6 306/1/6
f 307/1/6 308/1/6 309/1/6
f 309/1/6 308/1/6 310/1/6
