# MagicaVoxel @ Ephtracy

# group
g MachineGun-1

# material
mtllib MachineGun-1.mtl
usemtl palette

# normals
vn -1 0 0
vn 1 0 0
vn 0 0 1
vn 0 0 -1
vn 0 -1 0
vn 0 1 0

# texcoords
vt 0.939453 0.5
vt 0.970703 0.5

# verts
v -0.5 1 1.5
v -0.5 1 -1.5
v -0.5 2 0.5
v -0.5 2 -0.5
v -0.5 3 1.5
v -0.5 3 0.5
v -0.5 3 -0.5
v -0.5 3 -1.5
v -0.5 3 -2.5
v -0.5 6 -0.5
v -0.5 6 -1.5
v -0.5 7 0.5
v -0.5 7 -2.5
v 0.5 1 1.5
v 0.5 1 -1.5
v 0.5 2 0.5
v 0.5 2 -0.5
v 0.5 3 1.5
v 0.5 3 0.5
v 0.5 3 -0.5
v 0.5 3 -1.5
v 0.5 3 -2.5
v 0.5 6 -0.5
v 0.5 6 -1.5
v 0.5 7 0.5
v 0.5 7 -2.5
v -0.5 1 1.5
v -0.5 3 1.5
v 0.5 1 1.5
v 0.5 3 1.5
v -0.5 3 0.5
v -0.5 7 0.5
v 0.5 3 0.5
v 0.5 7 0.5
v -0.5 1 -1.5
v -0.5 3 -1.5
v 0.5 1 -1.5
v 0.5 3 -1.5
v -0.5 3 -2.5
v -0.5 7 -2.5
v 0.5 3 -2.5
v 0.5 7 -2.5
v -0.5 1 1.5
v 0.5 1 1.5
v -0.5 1 -1.5
v 0.5 1 -1.5
v -0.5 3 -1.5
v 0.5 3 -1.5
v -0.5 3 -2.5
v 0.5 3 -2.5
v -0.5 3 1.5
v 0.5 3 1.5
v -0.5 3 0.5
v 0.5 3 0.5
v -0.5 7 0.5
v 0.5 7 0.5
v -0.5 7 -2.5
v 0.5 7 -2.5

# faces
f 3/1/1 2/1/1 1/1/1
f 4/1/1 2/1/1 3/1/1
f 5/1/1 3/1/1 1/1/1
f 6/2/1 4/2/1 3/2/1
f 6/1/1 3/1/1 5/1/1
f 7/1/1 2/1/1 4/1/1
f 7/2/1 4/2/1 6/2/1
f 8/1/1 2/1/1 7/1/1
f 10/1/1 7/1/1 6/1/1
f 10/2/1 8/2/1 7/2/1
f 11/1/1 9/1/1 8/1/1
f 11/2/1 8/2/1 10/2/1
f 12/1/1 10/1/1 6/1/1
f 12/1/1 11/1/1 10/1/1
f 13/1/1 9/1/1 11/1/1
f 13/1/1 11/1/1 12/1/1
f 14/1/2 15/1/2 16/1/2
f 16/1/2 15/1/2 17/1/2
f 14/1/2 16/1/2 18/1/2
f 16/2/2 17/2/2 19/2/2
f 18/1/2 16/1/2 19/1/2
f 17/1/2 15/1/2 20/1/2
f 19/2/2 17/2/2 20/2/2
f 20/1/2 15/1/2 21/1/2
f 19/1/2 20/1/2 23/1/2
f 20/2/2 21/2/2 23/2/2
f 21/1/2 22/1/2 24/1/2
f 23/2/2 21/2/2 24/2/2
f 19/1/2 23/1/2 25/1/2
f 23/1/2 24/1/2 25/1/2
f 24/1/2 22/1/2 26/1/2
f 25/1/2 24/1/2 26/1/2
f 29/1/3 28/1/3 27/1/3
f 30/1/3 28/1/3 29/1/3
f 33/1/3 32/1/3 31/1/3
f 34/1/3 32/1/3 33/1/3
f 35/1/4 36/1/4 37/1/4
f 37/1/4 36/1/4 38/1/4
f 39/1/4 40/1/4 41/1/4
f 41/1/4 40/1/4 42/1/4
f 45/1/5 44/1/5 43/1/5
f 46/1/5 44/1/5 45/1/5
f 49/1/5 48/1/5 47/1/5
f 50/1/5 48/1/5 49/1/5
f 51/1/6 52/1/6 53/1/6
f 53/1/6 52/1/6 54/1/6
f 55/1/6 56/1/6 57/1/6
f 57/1/6 56/1/6 58/1/6
