# MagicaVoxel @ Ephtracy

# group
g Pistol-2

# material
mtllib Pistol-2.mtl
usemtl palette

# normals
vn -1 0 0
vn 1 0 0
vn 0 0 1
vn 0 0 -1
vn 0 -1 0
vn 0 1 0

# texcoords
vt 0.912109 0.5
vt 0.943359 0.5

# verts
v -0.5 0 0.5
v -0.5 0 -1.5
v -0.5 1 1.5
v -0.5 1 0.5
v -0.5 1 -0.5
v -0.5 3 0.5
v -0.5 3 -0.5
v -0.5 3 -1.5
v -0.5 4 1.5
v -0.5 4 -0.5
v 0.5 0 0.5
v 0.5 0 -1.5
v 0.5 1 1.5
v 0.5 1 0.5
v 0.5 1 -0.5
v 0.5 3 0.5
v 0.5 3 -0.5
v 0.5 3 -1.5
v 0.5 4 1.5
v 0.5 4 -0.5
v -0.5 1 1.5
v -0.5 4 1.5
v 0.5 1 1.5
v 0.5 4 1.5
v -0.5 0 0.5
v -0.5 1 0.5
v 0.5 0 0.5
v 0.5 1 0.5
v -0.5 3 -0.5
v -0.5 4 -0.5
v 0.5 3 -0.5
v 0.5 4 -0.5
v -0.5 0 -1.5
v -0.5 3 -1.5
v 0.5 0 -1.5
v 0.5 3 -1.5
v -0.5 0 0.5
v 0.5 0 0.5
v -0.5 0 -1.5
v 0.5 0 -1.5
v -0.5 1 1.5
v 0.5 1 1.5
v -0.5 1 0.5
v 0.5 1 0.5
v -0.5 3 -0.5
v 0.5 3 -0.5
v -0.5 3 -1.5
v 0.5 3 -1.5
v -0.5 4 1.5
v 0.5 4 1.5
v -0.5 4 -0.5
v 0.5 4 -0.5

# faces
f 4/2/1 2/2/1 1/2/1
f 5/2/1 2/2/1 4/2/1
f 6/2/1 4/2/1 3/2/1
f 6/1/1 5/1/1 4/1/1
f 7/2/1 2/2/1 5/2/1
f 7/1/1 5/1/1 6/1/1
f 8/2/1 2/2/1 7/2/1
f 9/2/1 6/2/1 3/2/1
f 9/2/1 7/2/1 6/2/1
f 10/2/1 7/2/1 9/2/1
f 11/2/2 12/2/2 14/2/2
f 14/2/2 12/2/2 15/2/2
f 13/2/2 14/2/2 16/2/2
f 14/1/2 15/1/2 16/1/2
f 15/2/2 12/2/2 17/2/2
f 16/1/2 15/1/2 17/1/2
f 17/2/2 12/2/2 18/2/2
f 13/2/2 16/2/2 19/2/2
f 16/2/2 17/2/2 19/2/2
f 19/2/2 17/2/2 20/2/2
f 23/2/3 22/2/3 21/2/3
f 24/2/3 22/2/3 23/2/3
f 27/2/3 26/2/3 25/2/3
f 28/2/3 26/2/3 27/2/3
f 29/2/4 30/2/4 31/2/4
f 31/2/4 30/2/4 32/2/4
f 33/2/4 34/2/4 35/2/4
f 35/2/4 34/2/4 36/2/4
f 39/2/5 38/2/5 37/2/5
f 40/2/5 38/2/5 39/2/5
f 43/2/5 42/2/5 41/2/5
f 44/2/5 42/2/5 43/2/5
f 45/2/6 46/2/6 47/2/6
f 47/2/6 46/2/6 48/2/6
f 49/2/6 50/2/6 51/2/6
f 51/2/6 50/2/6 52/2/6
