# MagicaVoxel @ Ephtracy

# group
g Shotgun-0

# material
mtllib Shotgun-0.mtl
usemtl palette

# normals
vn -1 0 0
vn 1 0 0
vn 0 0 1
vn 0 0 -1
vn 0 -1 0
vn 0 1 0

# texcoords
vt 0.908203 0.5
vt 0.939453 0.5
vt 0.970703 0.5
vt 0.978516 0.5
vt 0.982422 0.5

# verts
v -1.5 4 3.5
v -1.5 4 0.5
v -1.5 5 12.5
v -1.5 5 9.5
v -1.5 5 7.5
v -1.5 5 3.5
v -1.5 5 2.5
v -1.5 5 0.5
v -1.5 5 -3.5
v -1.5 6 11.5
v -1.5 6 9.5
v -1.5 6 8.5
v -1.5 6 7.5
v -1.5 6 2.5
v -1.5 6 1.5
v -1.5 6 0.5
v -1.5 6 -1.5
v -1.5 6 -2.5
v -1.5 6 -3.5
v -1.5 6 -9.5
v -1.5 7 12.5
v -1.5 7 11.5
v -1.5 7 8.5
v -1.5 7 1.5
v -1.5 7 0.5
v -1.5 7 -1.5
v -1.5 7 -2.5
v -1.5 7 -9.5
v -1.5 9 1.5
v -1.5 9 0.5
v -0.5 0 -3.5
v -0.5 0 -5.5
v -0.5 1 -2.5
v -0.5 1 -3.5
v -0.5 2 -0.5
v -0.5 2 -2.5
v -0.5 2 -4.5
v -0.5 2 -5.5
v -0.5 3 0.5
v -0.5 3 -0.5
v -0.5 3 -2.5
v -0.5 3 -3.5
v -0.5 3 -4.5
v -0.5 3 -10.5
v -0.5 3 -12.5
v -0.5 4 12.5
v -0.5 4 3.5
v -0.5 4 0.5
v -0.5 4 -0.5
v -0.5 4 -2.5
v -0.5 4 -8.5
v -0.5 4 -10.5
v -0.5 4 -11.5
v -0.5 4 -12.5
v -0.5 5 12.5
v -0.5 5 9.5
v -0.5 5 7.5
v -0.5 5 3.5
v -0.5 5 0.5
v -0.5 5 -3.5
v -0.5 5 -4.5
v -0.5 5 -6.5
v -0.5 5 -8.5
v -0.5 5 -9.5
v -0.5 5 -11.5
v -0.5 6 0.5
v -0.5 6 -1.5
v -0.5 6 -3.5
v -0.5 6 -4.5
v -0.5 6 -6.5
v -0.5 6 -9.5
v -0.5 6 -10.5
v -0.5 6 -12.5
v -0.5 7 12.5
v -0.5 7 11.5
v -0.5 7 8.5
v -0.5 7 1.5
v -0.5 7 0.5
v -0.5 7 -1.5
v -0.5 7 -2.5
v -0.5 7 -3.5
v -0.5 7 -9.5
v -0.5 7 -10.5
v -0.5 7 -12.5
v -0.5 8 12.5
v -0.5 8 11.5
v -0.5 8 1.5
v -0.5 8 0.5
v -0.5 8 -3.5
v -0.5 9 12.5
v -0.5 9 11.5
v 0.5 4 3.5
v 0.5 4 0.5
v 0.5 5 12.5
v 0.5 5 9.5
v 0.5 5 7.5
v 0.5 5 3.5
v 0.5 5 2.5
v 0.5 5 0.5
v 0.5 5 -1.5
v 0.5 6 11.5
v 0.5 6 9.5
v 0.5 6 8.5
v 0.5 6 7.5
v 0.5 6 2.5
v 0.5 6 1.5
v 0.5 6 0.5
v 0.5 6 -1.5
v 0.5 6 -4.5
v 0.5 6 -6.5
v 0.5 7 12.5
v 0.5 7 11.5
v 0.5 7 8.5
v 0.5 7 1.5
v 0.5 7 0.5
v 0.5 7 -4.5
v 0.5 7 -6.5
v 0.5 8 1.5
v 0.5 8 0.5
v 0.5 9 1.5
v 0.5 9 0.5
v -0.5 4 3.5
v -0.5 4 0.5
v -0.5 5 12.5
v -0.5 5 9.5
v -0.5 5 7.5
v -0.5 5 3.5
v -0.5 5 2.5
v -0.5 5 0.5
v -0.5 5 -1.5
v -0.5 6 11.5
v -0.5 6 9.5
v -0.5 6 8.5
v -0.5 6 7.5
v -0.5 6 2.5
v -0.5 6 1.5
v -0.5 6 0.5
v -0.5 6 -1.5
v -0.5 6 -4.5
v -0.5 6 -6.5
v -0.5 7 12.5
v -0.5 7 11.5
v -0.5 7 8.5
v -0.5 7 1.5
v -0.5 7 0.5
v -0.5 7 -4.5
v -0.5 7 -6.5
v -0.5 8 1.5
v -0.5 8 0.5
v -0.5 9 1.5
v -0.5 9 0.5
v 0.5 0 -3.5
v 0.5 0 -5.5
v 0.5 1 -2.5
v 0.5 1 -3.5
v 0.5 2 -0.5
v 0.5 2 -2.5
v 0.5 2 -4.5
v 0.5 2 -5.5
v 0.5 3 0.5
v 0.5 3 -0.5
v 0.5 3 -2.5
v 0.5 3 -3.5
v 0.5 3 -4.5
v 0.5 3 -10.5
v 0.5 3 -12.5
v 0.5 4 12.5
v 0.5 4 3.5
v 0.5 4 0.5
v 0.5 4 -0.5
v 0.5 4 -2.5
v 0.5 4 -8.5
v 0.5 4 -10.5
v 0.5 4 -11.5
v 0.5 4 -12.5
v 0.5 5 12.5
v 0.5 5 9.5
v 0.5 5 7.5
v 0.5 5 3.5
v 0.5 5 0.5
v 0.5 5 -3.5
v 0.5 5 -4.5
v 0.5 5 -6.5
v 0.5 5 -8.5
v 0.5 5 -9.5
v 0.5 5 -11.5
v 0.5 6 -3.5
v 0.5 6 -4.5
v 0.5 6 -6.5
v 0.5 6 -9.5
v 0.5 6 -10.5
v 0.5 6 -12.5
v 0.5 7 12.5
v 0.5 7 11.5
v 0.5 7 8.5
v 0.5 7 1.5
v 0.5 7 0.5
v 0.5 7 -1.5
v 0.5 7 -2.5
v 0.5 7 -3.5
v 0.5 7 -9.5
v 0.5 7 -10.5
v 0.5 7 -12.5
v 0.5 8 12.5
v 0.5 8 11.5
v 0.5 8 1.5
v 0.5 8 0.5
v 0.5 8 -3.5
v 0.5 9 12.5
v 0.5 9 11.5
v 1.5 4 3.5
v 1.5 4 0.5
v 1.5 5 12.5
v 1.5 5 9.5
v 1.5 5 7.5
v 1.5 5 3.5
v 1.5 5 2.5
v 1.5 5 0.5
v 1.5 5 -3.5
v 1.5 6 11.5
v 1.5 6 9.5
v 1.5 6 8.5
v 1.5 6 7.5
v 1.5 6 2.5
v 1.5 6 1.5
v 1.5 6 0.5
v 1.5 6 -1.5
v 1.5 6 -2.5
v 1.5 6 -3.5
v 1.5 6 -9.5
v 1.5 7 12.5
v 1.5 7 11.5
v 1.5 7 8.5
v 1.5 7 1.5
v 1.5 7 0.5
v 1.5 7 -1.5
v 1.5 7 -2.5
v 1.5 7 -9.5
v 1.5 9 1.5
v 1.5 9 0.5
v -1.5 5 12.5
v -1.5 7 12.5
v -0.5 4 12.5
v -0.5 5 12.5
v -0.5 7 12.5
v -0.5 8 12.5
v -0.5 9 12.5
v 0.5 4 12.5
v 0.5 5 12.5
v 0.5 7 12.5
v 0.5 8 12.5
v 0.5 9 12.5
v 1.5 5 12.5
v 1.5 7 12.5
v -1.5 4 3.5
v -1.5 5 3.5
v -0.5 4 3.5
v -0.5 5 3.5
v 0.5 4 3.5
v 0.5 5 3.5
v 1.5 4 3.5
v 1.5 5 3.5
v -1.5 7 1.5
v -1.5 9 1.5
v -0.5 7 1.5
v -0.5 8 1.5
v -0.5 9 1.5
v 0.5 7 1.5
v 0.5 8 1.5
v 0.5 9 1.5
v 1.5 7 1.5
v 1.5 9 1.5
v -0.5 3 0.5
v -0.5 4 0.5
v -0.5 5 0.5
v -0.5 6 0.5
v -0.5 7 0.5
v 0.5 3 0.5
v 0.5 4 0.5
v 0.5 5 0.5
v 0.5 6 0.5
v 0.5 7 0.5
v -0.5 2 -0.5
v -0.5 3 -0.5
v 0.5 2 -0.5
v 0.5 3 -0.5
v -1.5 6 -1.5
v -1.5 7 -1.5
v -0.5 5 -1.5
v -0.5 6 -1.5
v -0.5 7 -1.5
v 0.5 5 -1.5
v 0.5 6 -1.5
v -0.5 1 -2.5
v -0.5 2 -2.5
v -0.5 3 -2.5
v -0.5 4 -2.5
v 0.5 1 -2.5
v 0.5 2 -2.5
v 0.5 3 -2.5
v 0.5 4 -2.5
v -0.5 0 -3.5
v -0.5 1 -3.5
v 0.5 0 -3.5
v 0.5 1 -3.5
v -0.5 5 -6.5
v -0.5 6 -6.5
v -0.5 7 -6.5
v 0.5 5 -6.5
v 0.5 6 -6.5
v 0.5 7 -6.5
v -0.5 4 -8.5
v -0.5 5 -8.5
v 0.5 4 -8.5
v 0.5 5 -8.5
v -0.5 3 -10.5
v -0.5 4 -10.5
v 0.5 3 -10.5
v 0.5 4 -10.5
v -0.5 8 11.5
v -0.5 9 11.5
v 0.5 8 11.5
v 0.5 9 11.5
v -0.5 4 3.5
v -0.5 5 3.5
v 0.5 4 3.5
v 0.5 5 3.5
v -1.5 4 0.5
v -1.5 5 0.5
v -1.5 6 0.5
v -1.5 7 0.5
v -1.5 9 0.5
v -0.5 4 0.5
v -0.5 5 0.5
v -0.5 6 0.5
v -0.5 7 0.5
v -0.5 8 0.5
v -0.5 9 0.5
v 0.5 4 0.5
v 0.5 5 0.5
v 0.5 7 0.5
v 0.5 8 0.5
v 0.5 9 0.5
v 1.5 4 0.5
v 1.5 5 0.5
v 1.5 7 0.5
v 1.5 9 0.5
v -0.5 3 -0.5
v -0.5 4 -0.5
v 0.5 3 -0.5
v 0.5 4 -0.5
v -1.5 5 -3.5
v -1.5 6 -3.5
v -0.5 3 -3.5
v -0.5 5 -3.5
v -0.5 6 -3.5
v -0.5 7 -3.5
v -0.5 8 -3.5
v 0.5 3 -3.5
v 0.5 5 -3.5
v 0.5 6 -3.5
v 0.5 7 -3.5
v 0.5 8 -3.5
v 1.5 5 -3.5
v 1.5 6 -3.5
v -0.5 2 -4.5
v -0.5 3 -4.5
v -0.5 5 -4.5
v -0.5 6 -4.5
v -0.5 7 -4.5
v 0.5 2 -4.5
v 0.5 3 -4.5
v 0.5 5 -4.5
v 0.5 6 -4.5
v 0.5 7 -4.5
v -0.5 0 -5.5
v -0.5 2 -5.5
v 0.5 0 -5.5
v 0.5 2 -5.5
v -1.5 6 -9.5
v -1.5 7 -9.5
v -0.5 6 -9.5
v -0.5 7 -9.5
v 0.5 6 -9.5
v 0.5 7 -9.5
v 1.5 6 -9.5
v 1.5 7 -9.5
v -0.5 3 -12.5
v -0.5 4 -12.5
v -0.5 6 -12.5
v -0.5 7 -12.5
v 0.5 3 -12.5
v 0.5 4 -12.5
v 0.5 6 -12.5
v 0.5 7 -12.5
v -0.5 0 -3.5
v 0.5 0 -3.5
v -0.5 0 -5.5
v 0.5 0 -5.5
v -0.5 1 -2.5
v 0.5 1 -2.5
v -0.5 1 -3.5
v 0.5 1 -3.5
v -0.5 2 -0.5
v 0.5 2 -0.5
v -0.5 2 -2.5
v 0.5 2 -2.5
v -0.5 3 0.5
v 0.5 3 0.5
v -0.5 3 -0.5
v 0.5 3 -0.5
v -0.5 3 -10.5
v 0.5 3 -10.5
v -0.5 3 -12.5
v 0.5 3 -12.5
v -0.5 4 12.5
v 0.5 4 12.5
v -1.5 4 3.5
v -0.5 4 3.5
v 0.5 4 3.5
v 1.5 4 3.5
v -1.5 4 0.5
v -0.5 4 0.5
v 0.5 4 0.5
v 1.5 4 0.5
v -0.5 4 -0.5
v 0.5 4 -0.5
v -0.5 4 -2.5
v 0.5 4 -2.5
v -0.5 4 -8.5
v 0.5 4 -8.5
v -0.5 4 -10.5
v 0.5 4 -10.5
v -1.5 5 12.5
v -0.5 5 12.5
v 0.5 5 12.5
v 1.5 5 12.5
v -1.5 5 9.5
v -0.5 5 9.5
v 0.5 5 9.5
v 1.5 5 9.5
v -1.5 5 7.5
v -0.5 5 7.5
v 0.5 5 7.5
v 1.5 5 7.5
v -1.5 5 3.5
v -0.5 5 3.5
v 0.5 5 3.5
v 1.5 5 3.5
v -1.5 5 0.5
v -0.5 5 0.5
v 0.5 5 0.5
v 1.5 5 0.5
v -1.5 5 -3.5
v -0.5 5 -3.5
v 0.5 5 -3.5
v 1.5 5 -3.5
v -0.5 5 -4.5
v 0.5 5 -4.5
v -0.5 5 -6.5
v 0.5 5 -6.5
v -0.5 5 -8.5
v 0.5 5 -8.5
v -0.5 6 0.5
v 0.5 6 0.5
v -0.5 6 -1.5
v 0.5 6 -1.5
v -1.5 6 -3.5
v -0.5 6 -3.5
v 0.5 6 -3.5
v 1.5 6 -3.5
v -0.5 6 -4.5
v 0.5 6 -4.5
v -0.5 6 -6.5
v 0.5 6 -6.5
v -1.5 6 -9.5
v -0.5 6 -9.5
v 0.5 6 -9.5
v 1.5 6 -9.5
v -0.5 7 12.5
v 0.5 7 12.5
v -0.5 7 11.5
v 0.5 7 11.5
v -0.5 7 8.5
v 0.5 7 8.5
v -0.5 7 1.5
v 0.5 7 1.5
v -0.5 7 0.5
v 0.5 7 0.5
v -0.5 2 -4.5
v 0.5 2 -4.5
v -0.5 2 -5.5
v 0.5 2 -5.5
v -0.5 3 -0.5
v 0.5 3 -0.5
v -0.5 3 -2.5
v 0.5 3 -2.5
v -0.5 3 -3.5
v 0.5 3 -3.5
v -0.5 3 -4.5
v 0.5 3 -4.5
v -0.5 5 12.5
v 0.5 5 12.5
v -0.5 5 9.5
v 0.5 5 9.5
v -0.5 5 7.5
v 0.5 5 7.5
v -0.5 5 3.5
v 0.5 5 3.5
v -0.5 5 0.5
v 0.5 5 0.5
v -0.5 5 -1.5
v 0.5 5 -1.5
v -1.5 6 0.5
v -0.5 6 0.5
v -1.5 6 -1.5
v -0.5 6 -1.5
v -1.5 7 12.5
v -0.5 7 12.5
v 0.5 7 12.5
v 1.5 7 12.5
v -1.5 7 11.5
v -0.5 7 11.5
v 0.5 7 11.5
v 1.5 7 11.5
v -1.5 7 8.5
v -0.5 7 8.5
v 0.5 7 8.5
v 1.5 7 8.5
v -1.5 7 1.5
v -0.5 7 1.5
v 0.5 7 1.5
v 1.5 7 1.5
v 0.5 7 0.5
v 1.5 7 0.5
v -1.5 7 -1.5
v -0.5 7 -1.5
v 0.5 7 -1.5
v 1.5 7 -1.5
v -1.5 7 -2.5
v -0.5 7 -2.5
v 0.5 7 -2.5
v 1.5 7 -2.5
v -0.5 7 -3.5
v 0.5 7 -3.5
v -0.5 7 -4.5
v 0.5 7 -4.5
v -0.5 7 -6.5
v 0.5 7 -6.5
v -1.5 7 -9.5
v -0.5 7 -9.5
v 0.5 7 -9.5
v 1.5 7 -9.5
v -0.5 7 -10.5
v 0.5 7 -10.5
v -0.5 7 -12.5
v 0.5 7 -12.5
v -0.5 8 11.5
v 0.5 8 11.5
v -0.5 8 1.5
v 0.5 8 1.5
v -0.5 8 0.5
v 0.5 8 0.5
v -0.5 8 -3.5
v 0.5 8 -3.5
v -0.5 9 12.5
v 0.5 9 12.5
v -0.5 9 11.5
v 0.5 9 11.5
v -1.5 9 1.5
v -0.5 9 1.5
v 0.5 9 1.5
v 1.5 9 1.5
v -1.5 9 0.5
v -0.5 9 0.5
v 0.5 9 0.5
v 1.5 9 0.5

# faces
f 6/4/1 2/4/1 1/4/1
f 7/4/1 2/4/1 6/4/1
f 8/4/1 2/4/1 7/4/1
f 10/1/1 4/1/1 3/1/1
f 11/2/1 5/2/1 4/2/1
f 11/1/1 4/1/1 10/1/1
f 12/2/1 5/2/1 11/2/1
f 13/3/1 6/3/1 5/3/1
f 13/2/1 5/2/1 12/2/1
f 13/3/1 7/3/1 6/3/1
f 14/2/1 8/2/1 7/2/1
f 14/3/1 7/3/1 13/3/1
f 15/2/1 8/2/1 14/2/1
f 16/1/1 9/1/1 8/1/1
f 16/2/1 8/2/1 15/2/1
f 17/1/1 9/1/1 16/1/1
f 18/1/1 9/1/1 17/1/1
f 19/1/1 9/1/1 18/1/1
f 21/1/1 10/1/1 3/1/1
f 22/2/1 12/2/1 11/2/1
f 22/1/1 10/1/1 21/1/1
f 22/2/1 11/2/1 10/2/1
f 23/3/1 15/3/1 14/3/1
f 23/2/1 12/2/1 22/2/1
f 23/3/1 13/3/1 12/3/1
f 23/3/1 14/3/1 13/3/1
f 24/2/1 16/2/1 15/2/1
f 24/3/1 15/3/1 23/3/1
f 25/2/1 16/2/1 24/2/1
f 26/1/1 18/1/1 17/1/1
f 27/4/1 20/4/1 19/4/1
f 27/1/1 18/1/1 26/1/1
f 27/4/1 19/4/1 18/4/1
f 28/4/1 20/4/1 27/4/1
f 29/5/1 25/5/1 24/5/1
f 30/5/1 25/5/1 29/5/1
f 34/5/1 32/5/1 31/5/1
f 36/5/1 34/5/1 33/5/1
f 37/5/1 32/5/1 34/5/1
f 37/5/1 34/5/1 36/5/1
f 38/5/1 32/5/1 37/5/1
f 40/5/1 36/5/1 35/5/1
f 40/5/1 37/5/1 36/5/1
f 41/5/1 37/5/1 40/5/1
f 42/5/1 37/5/1 41/5/1
f 43/5/1 37/5/1 42/5/1
f 48/5/1 40/5/1 39/5/1
f 49/5/1 40/5/1 48/5/1
f 50/5/1 42/5/1 41/5/1
f 52/1/1 45/1/1 44/1/1
f 53/1/1 45/1/1 52/1/1
f 54/1/1 45/1/1 53/1/1
f 55/5/1 47/5/1 46/5/1
f 56/5/1 47/5/1 55/5/1
f 57/5/1 47/5/1 56/5/1
f 58/5/1 47/5/1 57/5/1
f 59/5/1 50/5/1 49/5/1
f 59/5/1 49/5/1 48/5/1
f 60/5/1 42/5/1 50/5/1
f 60/5/1 50/5/1 59/5/1
f 63/1/1 52/1/1 51/1/1
f 63/1/1 53/1/1 52/1/1
f 64/1/1 53/1/1 63/1/1
f 65/2/1 54/2/1 53/2/1
f 65/1/1 53/1/1 64/1/1
f 68/5/1 61/5/1 60/5/1
f 69/5/1 61/5/1 68/5/1
f 70/1/1 63/1/1 62/1/1
f 70/1/1 64/1/1 63/1/1
f 71/2/1 65/2/1 64/2/1
f 71/1/1 64/1/1 70/1/1
f 72/2/1 65/2/1 71/2/1
f 73/2/1 54/2/1 65/2/1
f 73/2/1 65/2/1 72/2/1
f 78/5/1 67/5/1 66/5/1
f 79/5/1 67/5/1 78/5/1
f 82/2/1 72/2/1 71/2/1
f 83/3/1 73/3/1 72/3/1
f 83/2/1 72/2/1 82/2/1
f 84/3/1 73/3/1 83/3/1
f 85/4/1 77/4/1 76/4/1
f 85/4/1 75/4/1 74/4/1
f 85/4/1 76/4/1 75/4/1
f 86/4/1 77/4/1 85/4/1
f 87/4/1 77/4/1 86/4/1
f 88/4/1 81/4/1 80/4/1
f 88/4/1 80/4/1 79/4/1
f 88/4/1 79/4/1 78/4/1
f 89/4/1 81/4/1 88/4/1
f 90/5/1 86/5/1 85/5/1
f 91/5/1 86/5/1 90/5/1
f 97/4/1 93/4/1 92/4/1
f 98/4/1 93/4/1 97/4/1
f 99/4/1 93/4/1 98/4/1
f 101/1/1 95/1/1 94/1/1
f 102/2/1 96/2/1 95/2/1
f 102/1/1 95/1/1 101/1/1
f 103/2/1 96/2/1 102/2/1
f 104/3/1 97/3/1 96/3/1
f 104/2/1 96/2/1 103/2/1
f 104/3/1 98/3/1 97/3/1
f 105/2/1 99/2/1 98/2/1
f 105/3/1 98/3/1 104/3/1
f 106/2/1 99/2/1 105/2/1
f 107/1/1 100/1/1 99/1/1
f 107/2/1 99/2/1 106/2/1
f 108/1/1 100/1/1 107/1/1
f 111/1/1 101/1/1 94/1/1
f 112/2/1 103/2/1 102/2/1
f 112/1/1 101/1/1 111/1/1
f 112/2/1 102/2/1 101/2/1
f 113/3/1 106/3/1 105/3/1
f 113/2/1 103/2/1 112/2/1
f 113/3/1 104/3/1 103/3/1
f 113/3/1 105/3/1 104/3/1
f 114/2/1 107/2/1 106/2/1
f 114/3/1 106/3/1 113/3/1
f 115/2/1 107/2/1 114/2/1
f 116/4/1 110/4/1 109/4/1
f 117/4/1 110/4/1 116/4/1
f 120/5/1 119/5/1 118/5/1
f 121/5/1 119/5/1 120/5/1
f 122/4/2 123/4/2 127/4/2
f 127/4/2 123/4/2 128/4/2
f 128/4/2 123/4/2 129/4/2
f 124/1/2 125/1/2 131/1/2
f 125/2/2 126/2/2 132/2/2
f 131/1/2 125/1/2 132/1/2
f 132/2/2 126/2/2 133/2/2
f 126/3/2 127/3/2 134/3/2
f 133/2/2 126/2/2 134/2/2
f 127/3/2 128/3/2 134/3/2
f 128/2/2 129/2/2 135/2/2
f 134/3/2 128/3/2 135/3/2
f 135/2/2 129/2/2 136/2/2
f 129/1/2 130/1/2 137/1/2
f 136/2/2 129/2/2 137/2/2
f 137/1/2 130/1/2 138/1/2
f 124/1/2 131/1/2 141/1/2
f 132/2/2 133/2/2 142/2/2
f 141/1/2 131/1/2 142/1/2
f 131/2/2 132/2/2 142/2/2
f 135/3/2 136/3/2 143/3/2
f 142/2/2 133/2/2 143/2/2
f 133/3/2 134/3/2 143/3/2
f 134/3/2 135/3/2 143/3/2
f 136/2/2 137/2/2 144/2/2
f 143/3/2 136/3/2 144/3/2
f 144/2/2 137/2/2 145/2/2
f 139/4/2 140/4/2 146/4/2
f 146/4/2 140/4/2 147/4/2
f 148/5/2 149/5/2 150/5/2
f 150/5/2 149/5/2 151/5/2
f 152/5/2 153/5/2 155/5/2
f 154/5/2 155/5/2 157/5/2
f 155/5/2 153/5/2 158/5/2
f 157/5/2 155/5/2 158/5/2
f 158/5/2 153/5/2 159/5/2
f 156/5/2 157/5/2 161/5/2
f 157/5/2 158/5/2 161/5/2
f 161/5/2 158/5/2 162/5/2
f 162/5/2 158/5/2 163/5/2
f 163/5/2 158/5/2 164/5/2
f 160/5/2 161/5/2 169/5/2
f 169/5/2 161/5/2 170/5/2
f 162/5/2 163/5/2 171/5/2
f 165/1/2 166/1/2 173/1/2
f 173/1/2 166/1/2 174/1/2
f 174/1/2 166/1/2 175/1/2
f 167/5/2 168/5/2 176/5/2
f 176/5/2 168/5/2 177/5/2
f 177/5/2 168/5/2 178/5/2
f 178/5/2 168/5/2 179/5/2
f 170/5/2 171/5/2 180/5/2
f 169/5/2 170/5/2 180/5/2
f 171/5/2 163/5/2 181/5/2
f 180/5/2 171/5/2 181/5/2
f 172/1/2 173/1/2 184/1/2
f 173/1/2 174/1/2 184/1/2
f 184/1/2 174/1/2 185/1/2
f 174/2/2 175/2/2 186/2/2
f 185/1/2 174/1/2 186/1/2
f 181/5/2 182/5/2 187/5/2
f 187/5/2 182/5/2 188/5/2
f 183/1/2 184/1/2 189/1/2
f 184/1/2 185/1/2 189/1/2
f 185/2/2 186/2/2 190/2/2
f 189/1/2 185/1/2 190/1/2
f 190/2/2 186/2/2 191/2/2
f 186/2/2 175/2/2 192/2/2
f 191/2/2 186/2/2 192/2/2
f 190/2/2 191/2/2 201/2/2
f 191/3/2 192/3/2 202/3/2
f 201/2/2 191/2/2 202/2/2
f 202/3/2 192/3/2 203/3/2
f 193/4/2 194/4/2 204/4/2
f 194/4/2 195/4/2 204/4/2
f 195/4/2 196/4/2 204/4/2
f 204/4/2 196/4/2 205/4/2
f 205/4/2 196/4/2 206/4/2
f 199/4/2 200/4/2 207/4/2
f 198/4/2 199/4/2 207/4/2
f 197/4/2 198/4/2 207/4/2
f 207/4/2 200/4/2 208/4/2
f 204/5/2 205/5/2 209/5/2
f 209/5/2 205/5/2 210/5/2
f 211/4/2 212/4/2 216/4/2
f 216/4/2 212/4/2 217/4/2
f 217/4/2 212/4/2 218/4/2
f 213/1/2 214/1/2 220/1/2
f 214/2/2 215/2/2 221/2/2
f 220/1/2 214/1/2 221/1/2
f 221/2/2 215/2/2 222/2/2
f 215/3/2 216/3/2 223/3/2
f 222/2/2 215/2/2 223/2/2
f 216/3/2 217/3/2 223/3/2
f 217/2/2 218/2/2 224/2/2
f 223/3/2 217/3/2 224/3/2
f 224/2/2 218/2/2 225/2/2
f 218/1/2 219/1/2 226/1/2
f 225/2/2 218/2/2 226/2/2
f 226/1/2 219/1/2 227/1/2
f 227/1/2 219/1/2 228/1/2
f 228/1/2 219/1/2 229/1/2
f 213/1/2 220/1/2 231/1/2
f 221/2/2 222/2/2 232/2/2
f 231/1/2 220/1/2 232/1/2
f 220/2/2 221/2/2 232/2/2
f 224/3/2 225/3/2 233/3/2
f 232/2/2 222/2/2 233/2/2
f 222/3/2 223/3/2 233/3/2
f 223/3/2 224/3/2 233/3/2
f 226/2/2 227/2/2 234/2/2
f 233/3/2 225/3/2 234/3/2
f 225/2/2 226/2/2 234/2/2
f 234/2/2 227/2/2 235/2/2
f 227/1/2 228/1/2 236/1/2
f 235/2/2 227/2/2 236/2/2
f 229/4/2 230/4/2 237/4/2
f 236/1/2 228/1/2 237/1/2
f 228/4/2 229/4/2 237/4/2
f 237/4/2 230/4/2 238/4/2
f 234/5/2 235/5/2 239/5/2
f 239/5/2 235/5/2 240/5/2
f 244/1/3 242/1/3 241/1/3
f 245/1/3 242/1/3 244/1/3
f 248/5/3 244/5/3 243/5/3
f 249/5/3 244/5/3 248/5/3
f 250/4/3 246/4/3 245/4/3
f 251/5/3 247/5/3 246/5/3
f 251/4/3 246/4/3 250/4/3
f 252/5/3 247/5/3 251/5/3
f 253/1/3 250/1/3 249/1/3
f 254/1/3 250/1/3 253/1/3
f 257/4/3 256/4/3 255/4/3
f 258/4/3 256/4/3 257/4/3
f 261/4/3 260/4/3 259/4/3
f 262/4/3 260/4/3 261/4/3
f 265/5/3 264/5/3 263/5/3
f 266/5/3 264/5/3 265/5/3
f 267/5/3 264/5/3 266/5/3
f 271/5/3 269/5/3 268/5/3
f 271/5/3 270/5/3 269/5/3
f 272/5/3 270/5/3 271/5/3
f 278/5/3 274/5/3 273/5/3
f 278/5/3 275/5/3 274/5/3
f 279/5/3 275/5/3 278/5/3
f 280/5/3 275/5/3 279/5/3
f 281/5/3 277/5/3 276/5/3
f 282/5/3 277/5/3 281/5/3
f 285/5/3 284/5/3 283/5/3
f 286/5/3 284/5/3 285/5/3
f 290/1/3 288/1/3 287/1/3
f 291/1/3 288/1/3 290/1/3
f 292/3/3 290/3/3 289/3/3
f 293/3/3 290/3/3 292/3/3
f 298/5/3 295/5/3 294/5/3
f 299/5/3 295/5/3 298/5/3
f 300/5/3 297/5/3 296/5/3
f 301/5/3 297/5/3 300/5/3
f 304/5/3 303/5/3 302/5/3
f 305/5/3 303/5/3 304/5/3
f 309/1/3 307/1/3 306/1/3
f 310/2/3 308/2/3 307/2/3
f 310/1/3 307/1/3 309/1/3
f 311/2/3 308/2/3 310/2/3
f 314/1/3 313/1/3 312/1/3
f 315/1/3 313/1/3 314/1/3
f 318/1/3 317/1/3 316/1/3
f 319/1/3 317/1/3 318/1/3
f 320/5/4 321/5/4 322/5/4
f 322/5/4 321/5/4 323/5/4
f 324/5/4 325/5/4 326/5/4
f 326/5/4 325/5/4 327/5/4
f 328/4/4 329/4/4 333/4/4
f 333/4/4 329/4/4 334/4/4
f 330/2/4 331/2/4 335/2/4
f 331/5/4 332/5/4 336/5/4
f 335/2/4 331/2/4 336/2/4
f 336/5/4 332/5/4 337/5/4
f 337/5/4 332/5/4 338/5/4
f 339/4/4 340/4/4 344/4/4
f 344/4/4 340/4/4 345/4/4
f 342/5/4 343/5/4 346/5/4
f 341/5/4 342/5/4 346/5/4
f 346/5/4 343/5/4 347/5/4
f 348/5/4 349/5/4 350/5/4
f 350/5/4 349/5/4 351/5/4
f 352/1/4 353/1/4 355/1/4
f 355/1/4 353/1/4 356/1/4
f 354/5/4 355/5/4 359/5/4
f 359/5/4 355/5/4 360/5/4
f 357/4/4 358/4/4 362/4/4
f 362/4/4 358/4/4 363/4/4
f 360/1/4 361/1/4 364/1/4
f 364/1/4 361/1/4 365/1/4
f 366/5/4 367/5/4 371/5/4
f 371/5/4 367/5/4 372/5/4
f 369/5/4 370/5/4 373/5/4
f 368/5/4 369/5/4 373/5/4
f 373/5/4 370/5/4 374/5/4
f 374/5/4 370/5/4 375/5/4
f 376/5/4 377/5/4 378/5/4
f 378/5/4 377/5/4 379/5/4
f 380/4/4 381/4/4 382/4/4
f 382/4/4 381/4/4 383/4/4
f 384/4/4 385/4/4 386/4/4
f 386/4/4 385/4/4 387/4/4
f 388/1/4 389/1/4 392/1/4
f 389/2/4 390/2/4 393/2/4
f 392/1/4 389/1/4 393/1/4
f 390/3/4 391/3/4 394/3/4
f 393/2/4 390/2/4 394/2/4
f 394/3/4 391/3/4 395/3/4
f 398/5/5 397/5/5 396/5/5
f 399/5/5 397/5/5 398/5/5
f 402/5/5 401/5/5 400/5/5
f 403/5/5 401/5/5 402/5/5
f 406/5/5 405/5/5 404/5/5
f 407/5/5 405/5/5 406/5/5
f 410/5/5 409/5/5 408/5/5
f 411/5/5 409/5/5 410/5/5
f 414/1/5 413/1/5 412/1/5
f 415/1/5 413/1/5 414/1/5
f 419/5/5 417/5/5 416/5/5
f 420/5/5 417/5/5 419/5/5
f 422/4/5 419/4/5 418/4/5
f 423/4/5 419/4/5 422/4/5
f 424/4/5 421/4/5 420/4/5
f 425/4/5 421/4/5 424/4/5
f 428/5/5 427/5/5 426/5/5
f 429/5/5 427/5/5 428/5/5
f 432/1/5 431/1/5 430/1/5
f 433/1/5 431/1/5 432/1/5
f 438/1/5 435/1/5 434/1/5
f 439/1/5 435/1/5 438/1/5
f 440/1/5 437/1/5 436/1/5
f 441/1/5 437/1/5 440/1/5
f 442/2/5 439/2/5 438/2/5
f 443/2/5 439/2/5 442/2/5
f 444/2/5 441/2/5 440/2/5
f 445/2/5 441/2/5 444/2/5
f 446/3/5 443/3/5 442/3/5
f 447/3/5 443/3/5 446/3/5
f 448/3/5 445/3/5 444/3/5
f 449/3/5 445/3/5 448/3/5
f 454/1/5 451/1/5 450/1/5
f 455/1/5 451/1/5 454/1/5
f 456/1/5 453/1/5 452/1/5
f 457/1/5 453/1/5 456/1/5
f 458/5/5 456/5/5 455/5/5
f 459/5/5 456/5/5 458/5/5
f 462/1/5 461/1/5 460/1/5
f 463/1/5 461/1/5 462/1/5
f 466/5/5 465/5/5 464/5/5
f 467/5/5 465/5/5 466/5/5
f 472/4/5 469/4/5 468/4/5
f 473/4/5 471/4/5 470/4/5
f 474/4/5 472/4/5 468/4/5
f 475/4/5 471/4/5 473/4/5
f 476/4/5 474/4/5 468/4/5
f 477/4/5 474/4/5 476/4/5
f 478/4/5 471/4/5 475/4/5
f 479/4/5 471/4/5 478/4/5
f 482/4/5 481/4/5 480/4/5
f 483/4/5 481/4/5 482/4/5
f 484/4/5 483/4/5 482/4/5
f 485/4/5 483/4/5 484/4/5
f 486/4/5 485/4/5 484/4/5
f 487/4/5 485/4/5 486/4/5
f 488/4/5 487/4/5 486/4/5
f 489/4/5 487/4/5 488/4/5
f 490/5/6 491/5/6 492/5/6
f 492/5/6 491/5/6 493/5/6
f 494/5/6 495/5/6 496/5/6
f 496/5/6 495/5/6 497/5/6
f 498/5/6 499/5/6 500/5/6
f 500/5/6 499/5/6 501/5/6
f 502/5/6 503/5/6 504/5/6
f 504/5/6 503/5/6 505/5/6
f 504/5/6 505/5/6 506/5/6
f 506/5/6 505/5/6 507/5/6
f 506/5/6 507/5/6 508/5/6
f 508/5/6 507/5/6 509/5/6
f 510/5/6 511/5/6 512/5/6
f 512/5/6 511/5/6 513/5/6
f 514/1/6 515/1/6 516/1/6
f 516/1/6 515/1/6 517/1/6
f 518/1/6 519/1/6 522/1/6
f 522/1/6 519/1/6 523/1/6
f 520/1/6 521/1/6 524/1/6
f 524/1/6 521/1/6 525/1/6
f 522/2/6 523/2/6 526/2/6
f 526/2/6 523/2/6 527/2/6
f 524/2/6 525/2/6 528/2/6
f 528/2/6 525/2/6 529/2/6
f 526/3/6 527/3/6 530/3/6
f 530/3/6 527/3/6 531/3/6
f 528/3/6 529/3/6 532/3/6
f 532/3/6 529/3/6 533/3/6
f 534/2/6 535/2/6 538/2/6
f 538/2/6 535/2/6 539/2/6
f 536/1/6 537/1/6 540/1/6
f 540/1/6 537/1/6 541/1/6
f 538/1/6 539/1/6 542/1/6
f 542/1/6 539/1/6 543/1/6
f 540/4/6 541/4/6 544/4/6
f 542/4/6 543/4/6 545/4/6
f 540/4/6 544/4/6 546/4/6
f 544/5/6 545/5/6 546/5/6
f 545/4/6 543/4/6 547/4/6
f 546/5/6 545/5/6 547/5/6
f 540/4/6 546/4/6 548/4/6
f 547/4/6 543/4/6 549/4/6
f 540/4/6 548/4/6 550/4/6
f 548/2/6 549/2/6 551/2/6
f 550/4/6 548/4/6 551/4/6
f 549/4/6 543/4/6 552/4/6
f 551/2/6 549/2/6 552/2/6
f 552/4/6 543/4/6 553/4/6
f 551/2/6 552/2/6 554/2/6
f 554/2/6 552/2/6 555/2/6
f 554/3/6 555/3/6 556/3/6
f 556/3/6 555/3/6 557/3/6
f 558/4/6 559/4/6 560/4/6
f 560/4/6 559/4/6 561/4/6
f 560/4/6 561/4/6 562/4/6
f 562/4/6 561/4/6 563/4/6
f 562/4/6 563/4/6 564/4/6
f 564/4/6 563/4/6 565/4/6
f 566/5/6 567/5/6 568/5/6
f 568/5/6 567/5/6 569/5/6
f 570/5/6 571/5/6 574/5/6
f 574/5/6 571/5/6 575/5/6
f 572/5/6 573/5/6 576/5/6
f 576/5/6 573/5/6 577/5/6
