# MagicaVoxel @ Ephtracy

# group
g Shotgun-5

# material
mtllib Shotgun-5.mtl
usemtl palette

# normals
vn -1 0 0
vn 1 0 0
vn 0 0 1
vn 0 0 -1
vn 0 -1 0
vn 0 1 0

# texcoords
vt 0.876953 0.5
vt 0.880859 0.5
vt 0.908203 0.5
vt 0.939453 0.5
vt 0.982422 0.5

# verts
v -4.5 0 3.5
v -4.5 0 -3.5
v -4.5 1 3.5
v -4.5 1 -3.5
v -4.5 2 3.5
v -4.5 2 -3.5
v -4.5 3 3.5
v -4.5 3 -3.5
v -3.5 3 2.5
v -3.5 3 1.5
v -3.5 3 0.5
v -3.5 3 -0.5
v -3.5 3 -1.5
v -3.5 3 -2.5
v -3.5 4 2.5
v -3.5 4 1.5
v -3.5 4 0.5
v -3.5 4 -0.5
v -3.5 4 -1.5
v -3.5 4 -2.5
v -1.5 1 2.5
v -1.5 1 1.5
v -1.5 1 0.5
v -1.5 1 -0.5
v -1.5 1 -1.5
v -1.5 1 -2.5
v -1.5 2 2.5
v -1.5 2 -2.5
v -1.5 3 2.5
v -1.5 3 1.5
v -1.5 3 0.5
v -1.5 3 -0.5
v -1.5 3 -1.5
v -1.5 3 -2.5
v -1.5 4 2.5
v -1.5 4 1.5
v -1.5 4 0.5
v -1.5 4 -0.5
v -1.5 4 -1.5
v -1.5 4 -2.5
v 0.5 1 2.5
v 0.5 1 1.5
v 0.5 1 0.5
v 0.5 1 -0.5
v 0.5 1 -1.5
v 0.5 1 -2.5
v 0.5 2 2.5
v 0.5 2 -2.5
v 0.5 3 2.5
v 0.5 3 1.5
v 0.5 3 0.5
v 0.5 3 -0.5
v 0.5 3 -1.5
v 0.5 3 -2.5
v 0.5 4 2.5
v 0.5 4 1.5
v 0.5 4 0.5
v 0.5 4 -0.5
v 0.5 4 -1.5
v 0.5 4 -2.5
v 2.5 1 2.5
v 2.5 1 1.5
v 2.5 1 0.5
v 2.5 1 -0.5
v 2.5 1 -1.5
v 2.5 1 -2.5
v 2.5 2 2.5
v 2.5 2 -2.5
v 2.5 3 2.5
v 2.5 3 1.5
v 2.5 3 0.5
v 2.5 3 -0.5
v 2.5 3 -1.5
v 2.5 3 -2.5
v 2.5 4 2.5
v 2.5 4 1.5
v 2.5 4 0.5
v 2.5 4 -0.5
v 2.5 4 -1.5
v 2.5 4 -2.5
v 3.5 1 1.5
v 3.5 1 0.5
v 3.5 1 -0.5
v 3.5 1 -1.5
v 3.5 2 1.5
v 3.5 2 0.5
v 3.5 2 -0.5
v 3.5 2 -1.5
v 3.5 3 1.5
v 3.5 3 0.5
v 3.5 3 -0.5
v 3.5 3 -1.5
v -3.5 1 1.5
v -3.5 1 0.5
v -3.5 1 -0.5
v -3.5 1 -1.5
v -3.5 2 1.5
v -3.5 2 0.5
v -3.5 2 -0.5
v -3.5 2 -1.5
v -3.5 3 1.5
v -3.5 3 0.5
v -3.5 3 -0.5
v -3.5 3 -1.5
v -2.5 1 2.5
v -2.5 1 1.5
v -2.5 1 0.5
v -2.5 1 -0.5
v -2.5 1 -1.5
v -2.5 1 -2.5
v -2.5 2 2.5
v -2.5 2 -2.5
v -2.5 3 2.5
v -2.5 3 1.5
v -2.5 3 0.5
v -2.5 3 -0.5
v -2.5 3 -1.5
v -2.5 3 -2.5
v -2.5 4 2.5
v -2.5 4 1.5
v -2.5 4 0.5
v -2.5 4 -0.5
v -2.5 4 -1.5
v -2.5 4 -2.5
v -0.5 1 2.5
v -0.5 1 1.5
v -0.5 1 0.5
v -0.5 1 -0.5
v -0.5 1 -1.5
v -0.5 1 -2.5
v -0.5 2 2.5
v -0.5 2 -2.5
v -0.5 3 2.5
v -0.5 3 1.5
v -0.5 3 0.5
v -0.5 3 -0.5
v -0.5 3 -1.5
v -0.5 3 -2.5
v -0.5 4 2.5
v -0.5 4 1.5
v -0.5 4 0.5
v -0.5 4 -0.5
v -0.5 4 -1.5
v -0.5 4 -2.5
v 1.5 1 2.5
v 1.5 1 1.5
v 1.5 1 0.5
v 1.5 1 -0.5
v 1.5 1 -1.5
v 1.5 1 -2.5
v 1.5 2 2.5
v 1.5 2 -2.5
v 1.5 3 2.5
v 1.5 3 1.5
v 1.5 3 0.5
v 1.5 3 -0.5
v 1.5 3 -1.5
v 1.5 3 -2.5
v 1.5 4 2.5
v 1.5 4 1.5
v 1.5 4 0.5
v 1.5 4 -0.5
v 1.5 4 -1.5
v 1.5 4 -2.5
v 3.5 3 2.5
v 3.5 3 1.5
v 3.5 3 0.5
v 3.5 3 -0.5
v 3.5 3 -1.5
v 3.5 3 -2.5
v 3.5 4 2.5
v 3.5 4 1.5
v 3.5 4 0.5
v 3.5 4 -0.5
v 3.5 4 -1.5
v 3.5 4 -2.5
v 4.5 0 3.5
v 4.5 0 -3.5
v 4.5 1 3.5
v 4.5 1 -3.5
v 4.5 2 3.5
v 4.5 2 -3.5
v 4.5 3 3.5
v 4.5 3 -3.5
v -4.5 0 3.5
v -4.5 1 3.5
v -4.5 2 3.5
v -4.5 3 3.5
v 4.5 0 3.5
v 4.5 1 3.5
v 4.5 2 3.5
v 4.5 3 3.5
v -3.5 3 2.5
v -3.5 4 2.5
v -2.5 3 2.5
v -2.5 4 2.5
v -1.5 3 2.5
v -1.5 4 2.5
v -0.5 3 2.5
v -0.5 4 2.5
v 0.5 3 2.5
v 0.5 4 2.5
v 1.5 3 2.5
v 1.5 4 2.5
v 2.5 3 2.5
v 2.5 4 2.5
v 3.5 3 2.5
v 3.5 4 2.5
v -3.5 1 0.5
v -3.5 2 0.5
v -3.5 3 0.5
v -3.5 4 0.5
v -2.5 1 0.5
v -2.5 3 0.5
v -2.5 4 0.5
v -1.5 1 0.5
v -1.5 3 0.5
v -1.5 4 0.5
v -0.5 1 0.5
v -0.5 3 0.5
v -0.5 4 0.5
v 0.5 1 0.5
v 0.5 3 0.5
v 0.5 4 0.5
v 1.5 1 0.5
v 1.5 3 0.5
v 1.5 4 0.5
v 2.5 1 0.5
v 2.5 3 0.5
v 2.5 4 0.5
v 3.5 1 0.5
v 3.5 2 0.5
v 3.5 3 0.5
v 3.5 4 0.5
v -3.5 1 -1.5
v -3.5 2 -1.5
v -3.5 3 -1.5
v -3.5 4 -1.5
v -2.5 1 -1.5
v -2.5 3 -1.5
v -2.5 4 -1.5
v -1.5 1 -1.5
v -1.5 3 -1.5
v -1.5 4 -1.5
v -0.5 1 -1.5
v -0.5 3 -1.5
v -0.5 4 -1.5
v 0.5 1 -1.5
v 0.5 3 -1.5
v 0.5 4 -1.5
v 1.5 1 -1.5
v 1.5 3 -1.5
v 1.5 4 -1.5
v 2.5 1 -1.5
v 2.5 3 -1.5
v 2.5 4 -1.5
v 3.5 1 -1.5
v 3.5 2 -1.5
v 3.5 3 -1.5
v 3.5 4 -1.5
v -2.5 1 -2.5
v -2.5 2 -2.5
v -2.5 3 -2.5
v -1.5 1 -2.5
v -1.5 2 -2.5
v -1.5 3 -2.5
v -0.5 1 -2.5
v -0.5 2 -2.5
v -0.5 3 -2.5
v 0.5 1 -2.5
v 0.5 2 -2.5
v 0.5 3 -2.5
v 1.5 1 -2.5
v 1.5 2 -2.5
v 1.5 3 -2.5
v 2.5 1 -2.5
v 2.5 2 -2.5
v 2.5 3 -2.5
v -2.5 1 2.5
v -2.5 2 2.5
v -2.5 3 2.5
v -1.5 1 2.5
v -1.5 2 2.5
v -1.5 3 2.5
v -0.5 1 2.5
v -0.5 2 2.5
v -0.5 3 2.5
v 0.5 1 2.5
v 0.5 2 2.5
v 0.5 3 2.5
v 1.5 1 2.5
v 1.5 2 2.5
v 1.5 3 2.5
v 2.5 1 2.5
v 2.5 2 2.5
v 2.5 3 2.5
v -3.5 1 1.5
v -3.5 2 1.5
v -3.5 3 1.5
v -3.5 4 1.5
v -2.5 1 1.5
v -2.5 3 1.5
v -2.5 4 1.5
v -1.5 1 1.5
v -1.5 3 1.5
v -1.5 4 1.5
v -0.5 1 1.5
v -0.5 3 1.5
v -0.5 4 1.5
v 0.5 1 1.5
v 0.5 3 1.5
v 0.5 4 1.5
v 1.5 1 1.5
v 1.5 3 1.5
v 1.5 4 1.5
v 2.5 1 1.5
v 2.5 3 1.5
v 2.5 4 1.5
v 3.5 1 1.5
v 3.5 2 1.5
v 3.5 3 1.5
v 3.5 4 1.5
v -3.5 1 -0.5
v -3.5 2 -0.5
v -3.5 3 -0.5
v -3.5 4 -0.5
v -2.5 1 -0.5
v -2.5 3 -0.5
v -2.5 4 -0.5
v -1.5 1 -0.5
v -1.5 3 -0.5
v -1.5 4 -0.5
v -0.5 1 -0.5
v -0.5 3 -0.5
v -0.5 4 -0.5
v 0.5 1 -0.5
v 0.5 3 -0.5
v 0.5 4 -0.5
v 1.5 1 -0.5
v 1.5 3 -0.5
v 1.5 4 -0.5
v 2.5 1 -0.5
v 2.5 3 -0.5
v 2.5 4 -0.5
v 3.5 1 -0.5
v 3.5 2 -0.5
v 3.5 3 -0.5
v 3.5 4 -0.5
v -3.5 3 -2.5
v -3.5 4 -2.5
v -2.5 3 -2.5
v -2.5 4 -2.5
v -1.5 3 -2.5
v -1.5 4 -2.5
v -0.5 3 -2.5
v -0.5 4 -2.5
v 0.5 3 -2.5
v 0.5 4 -2.5
v 1.5 3 -2.5
v 1.5 4 -2.5
v 2.5 3 -2.5
v 2.5 4 -2.5
v 3.5 3 -2.5
v 3.5 4 -2.5
v -4.5 0 -3.5
v -4.5 1 -3.5
v -4.5 2 -3.5
v -4.5 3 -3.5
v 4.5 0 -3.5
v 4.5 1 -3.5
v 4.5 2 -3.5
v 4.5 3 -3.5
v -4.5 0 3.5
v 4.5 0 3.5
v -4.5 0 -3.5
v 4.5 0 -3.5
v -2.5 1 2.5
v -1.5 1 2.5
v -0.5 1 2.5
v 0.5 1 2.5
v 1.5 1 2.5
v 2.5 1 2.5
v -3.5 1 1.5
v -2.5 1 1.5
v -1.5 1 1.5
v -0.5 1 1.5
v 0.5 1 1.5
v 1.5 1 1.5
v 2.5 1 1.5
v 3.5 1 1.5
v -3.5 1 0.5
v -2.5 1 0.5
v -1.5 1 0.5
v -0.5 1 0.5
v 0.5 1 0.5
v 1.5 1 0.5
v 2.5 1 0.5
v 3.5 1 0.5
v -3.5 1 -0.5
v -2.5 1 -0.5
v -1.5 1 -0.5
v -0.5 1 -0.5
v 0.5 1 -0.5
v 1.5 1 -0.5
v 2.5 1 -0.5
v 3.5 1 -0.5
v -3.5 1 -1.5
v -2.5 1 -1.5
v -1.5 1 -1.5
v -0.5 1 -1.5
v 0.5 1 -1.5
v 1.5 1 -1.5
v 2.5 1 -1.5
v 3.5 1 -1.5
v -2.5 1 -2.5
v -1.5 1 -2.5
v -0.5 1 -2.5
v 0.5 1 -2.5
v 1.5 1 -2.5
v 2.5 1 -2.5
v -4.5 3 3.5
v 4.5 3 3.5
v -3.5 3 2.5
v -2.5 3 2.5
v -1.5 3 2.5
v -0.5 3 2.5
v 0.5 3 2.5
v 1.5 3 2.5
v 2.5 3 2.5
v 3.5 3 2.5
v -3.5 3 1.5
v 3.5 3 1.5
v -3.5 3 0.5
v 3.5 3 0.5
v -3.5 3 -0.5
v 3.5 3 -0.5
v -3.5 3 -1.5
v 3.5 3 -1.5
v -3.5 3 -2.5
v -2.5 3 -2.5
v -1.5 3 -2.5
v -0.5 3 -2.5
v 0.5 3 -2.5
v 1.5 3 -2.5
v 2.5 3 -2.5
v 3.5 3 -2.5
v -4.5 3 -3.5
v 4.5 3 -3.5
v -3.5 4 2.5
v -2.5 4 2.5
v -1.5 4 2.5
v -0.5 4 2.5
v 0.5 4 2.5
v 1.5 4 2.5
v 2.5 4 2.5
v 3.5 4 2.5
v -3.5 4 1.5
v -2.5 4 1.5
v -1.5 4 1.5
v -0.5 4 1.5
v 0.5 4 1.5
v 1.5 4 1.5
v 2.5 4 1.5
v 3.5 4 1.5
v -3.5 4 0.5
v -2.5 4 0.5
v -1.5 4 0.5
v -0.5 4 0.5
v 0.5 4 0.5
v 1.5 4 0.5
v 2.5 4 0.5
v 3.5 4 0.5
v -3.5 4 -0.5
v -2.5 4 -0.5
v -1.5 4 -0.5
v -0.5 4 -0.5
v 0.5 4 -0.5
v 1.5 4 -0.5
v 2.5 4 -0.5
v 3.5 4 -0.5
v -3.5 4 -1.5
v -2.5 4 -1.5
v -1.5 4 -1.5
v -0.5 4 -1.5
v 0.5 4 -1.5
v 1.5 4 -1.5
v 2.5 4 -1.5
v 3.5 4 -1.5
v -3.5 4 -2.5
v -2.5 4 -2.5
v -1.5 4 -2.5
v -0.5 4 -2.5
v 0.5 4 -2.5
v 1.5 4 -2.5
v 2.5 4 -2.5
v 3.5 4 -2.5

# faces
f 3/5/1 2/5/1 1/5/1
f 4/5/1 2/5/1 3/5/1
f 5/3/1 4/3/1 3/3/1
f 6/3/1 4/3/1 5/3/1
f 7/4/1 6/4/1 5/4/1
f 8/4/1 6/4/1 7/4/1
f 15/1/1 10/1/1 9/1/1
f 16/1/1 10/1/1 15/1/1
f 17/1/1 12/1/1 11/1/1
f 18/1/1 12/1/1 17/1/1
f 19/1/1 14/1/1 13/1/1
f 20/1/1 14/1/1 19/1/1
f 27/2/1 22/2/1 21/2/1
f 28/2/1 26/2/1 25/2/1
f 29/2/1 22/2/1 27/2/1
f 30/2/1 22/2/1 29/2/1
f 31/2/1 24/2/1 23/2/1
f 32/2/1 24/2/1 31/2/1
f 33/2/1 28/2/1 25/2/1
f 34/2/1 28/2/1 33/2/1
f 35/1/1 30/1/1 29/1/1
f 36/1/1 30/1/1 35/1/1
f 37/1/1 32/1/1 31/1/1
f 38/1/1 32/1/1 37/1/1
f 39/1/1 34/1/1 33/1/1
f 40/1/1 34/1/1 39/1/1
f 47/2/1 42/2/1 41/2/1
f 48/2/1 46/2/1 45/2/1
f 49/2/1 42/2/1 47/2/1
f 50/2/1 42/2/1 49/2/1
f 51/2/1 44/2/1 43/2/1
f 52/2/1 44/2/1 51/2/1
f 53/2/1 48/2/1 45/2/1
f 54/2/1 48/2/1 53/2/1
f 55/1/1 50/1/1 49/1/1
f 56/1/1 50/1/1 55/1/1
f 57/1/1 52/1/1 51/1/1
f 58/1/1 52/1/1 57/1/1
f 59/1/1 54/1/1 53/1/1
f 60/1/1 54/1/1 59/1/1
f 67/2/1 62/2/1 61/2/1
f 68/2/1 66/2/1 65/2/1
f 69/2/1 62/2/1 67/2/1
f 70/2/1 62/2/1 69/2/1
f 71/2/1 64/2/1 63/2/1
f 72/2/1 64/2/1 71/2/1
f 73/2/1 68/2/1 65/2/1
f 74/2/1 68/2/1 73/2/1
f 75/1/1 70/1/1 69/1/1
f 76/1/1 70/1/1 75/1/1
f 77/1/1 72/1/1 71/1/1
f 78/1/1 72/1/1 77/1/1
f 79/1/1 74/1/1 73/1/1
f 80/1/1 74/1/1 79/1/1
f 85/3/1 82/3/1 81/3/1
f 86/3/1 82/3/1 85/3/1
f 87/3/1 84/3/1 83/3/1
f 88/3/1 84/3/1 87/3/1
f 89/4/1 86/4/1 85/4/1
f 90/4/1 86/4/1 89/4/1
f 91/4/1 88/4/1 87/4/1
f 92/4/1 88/4/1 91/4/1
f 93/3/2 94/3/2 97/3/2
f 97/3/2 94/3/2 98/3/2
f 95/3/2 96/3/2 99/3/2
f 99/3/2 96/3/2 100/3/2
f 97/4/2 98/4/2 101/4/2
f 101/4/2 98/4/2 102/4/2
f 99/4/2 100/4/2 103/4/2
f 103/4/2 100/4/2 104/4/2
f 105/2/2 106/2/2 111/2/2
f 109/2/2 110/2/2 112/2/2
f 111/2/2 106/2/2 113/2/2
f 113/2/2 106/2/2 114/2/2
f 107/2/2 108/2/2 115/2/2
f 115/2/2 108/2/2 116/2/2
f 109/2/2 112/2/2 117/2/2
f 117/2/2 112/2/2 118/2/2
f 113/1/2 114/1/2 119/1/2
f 119/1/2 114/1/2 120/1/2
f 115/1/2 116/1/2 121/1/2
f 121/1/2 116/1/2 122/1/2
f 117/1/2 118/1/2 123/1/2
f 123/1/2 118/1/2 124/1/2
f 125/2/2 126/2/2 131/2/2
f 129/2/2 130/2/2 132/2/2
f 131/2/2 126/2/2 133/2/2
f 133/2/2 126/2/2 134/2/2
f 127/2/2 128/2/2 135/2/2
f 135/2/2 128/2/2 136/2/2
f 129/2/2 132/2/2 137/2/2
f 137/2/2 132/2/2 138/2/2
f 133/1/2 134/1/2 139/1/2
f 139/1/2 134/1/2 140/1/2
f 135/1/2 136/1/2 141/1/2
f 141/1/2 136/1/2 142/1/2
f 137/1/2 138/1/2 143/1/2
f 143/1/2 138/1/2 144/1/2
f 145/2/2 146/2/2 151/2/2
f 149/2/2 150/2/2 152/2/2
f 151/2/2 146/2/2 153/2/2
f 153/2/2 146/2/2 154/2/2
f 147/2/2 148/2/2 155/2/2
f 155/2/2 148/2/2 156/2/2
f 149/2/2 152/2/2 157/2/2
f 157/2/2 152/2/2 158/2/2
f 153/1/2 154/1/2 159/1/2
f 159/1/2 154/1/2 160/1/2
f 155/1/2 156/1/2 161/1/2
f 161/1/2 156/1/2 162/1/2
f 157/1/2 158/1/2 163/1/2
f 163/1/2 158/1/2 164/1/2
f 165/1/2 166/1/2 171/1/2
f 171/1/2 166/1/2 172/1/2
f 167/1/2 168/1/2 173/1/2
f 173/1/2 168/1/2 174/1/2
f 169/1/2 170/1/2 175/1/2
f 175/1/2 170/1/2 176/1/2
f 177/5/2 178/5/2 179/5/2
f 179/5/2 178/5/2 180/5/2
f 179/3/2 180/3/2 181/3/2
f 181/3/2 180/3/2 182/3/2
f 181/4/2 182/4/2 183/4/2
f 183/4/2 182/4/2 184/4/2
f 189/5/3 186/5/3 185/5/3
f 190/3/3 187/3/3 186/3/3
f 190/5/3 186/5/3 189/5/3
f 191/4/3 188/4/3 187/4/3
f 191/3/3 187/3/3 190/3/3
f 192/4/3 188/4/3 191/4/3
f 195/1/3 194/1/3 193/1/3
f 196/1/3 194/1/3 195/1/3
f 199/1/3 198/1/3 197/1/3
f 200/1/3 198/1/3 199/1/3
f 203/1/3 202/1/3 201/1/3
f 204/1/3 202/1/3 203/1/3
f 207/1/3 206/1/3 205/1/3
f 208/1/3 206/1/3 207/1/3
f 213/2/3 210/2/3 209/2/3
f 213/2/3 211/2/3 210/2/3
f 214/1/3 212/1/3 211/1/3
f 214/2/3 211/2/3 213/2/3
f 215/1/3 212/1/3 214/1/3
f 219/2/3 217/2/3 216/2/3
f 220/1/3 218/1/3 217/1/3
f 220/2/3 217/2/3 219/2/3
f 221/1/3 218/1/3 220/1/3
f 225/2/3 223/2/3 222/2/3
f 226/1/3 224/1/3 223/1/3
f 226/2/3 223/2/3 225/2/3
f 227/1/3 224/1/3 226/1/3
f 231/2/3 229/2/3 228/2/3
f 232/2/3 229/2/3 231/2/3
f 233/1/3 230/1/3 229/1/3
f 233/2/3 229/2/3 232/2/3
f 234/1/3 230/1/3 233/1/3
f 239/2/3 236/2/3 235/2/3
f 239/2/3 237/2/3 236/2/3
f 240/1/3 238/1/3 237/1/3
f 240/2/3 237/2/3 239/2/3
f 241/1/3 238/1/3 240/1/3
f 245/2/3 243/2/3 242/2/3
f 246/1/3 244/1/3 243/1/3
f 246/2/3 243/2/3 245/2/3
f 247/1/3 244/1/3 246/1/3
f 251/2/3 249/2/3 248/2/3
f 252/1/3 250/1/3 249/1/3
f 252/2/3 249/2/3 251/2/3
f 253/1/3 250/1/3 252/1/3
f 257/2/3 255/2/3 254/2/3
f 258/2/3 255/2/3 257/2/3
f 259/1/3 256/1/3 255/1/3
f 259/2/3 255/2/3 258/2/3
f 260/1/3 256/1/3 259/1/3
f 264/3/3 262/3/3 261/3/3
f 265/4/3 263/4/3 262/4/3
f 265/3/3 262/3/3 264/3/3
f 266/4/3 263/4/3 265/4/3
f 270/3/3 268/3/3 267/3/3
f 271/4/3 269/4/3 268/4/3
f 271/3/3 268/3/3 270/3/3
f 272/4/3 269/4/3 271/4/3
f 276/3/3 274/3/3 273/3/3
f 277/4/3 275/4/3 274/4/3
f 277/3/3 274/3/3 276/3/3
f 278/4/3 275/4/3 277/4/3
f 279/3/4 280/3/4 282/3/4
f 280/4/4 281/4/4 283/4/4
f 282/3/4 280/3/4 283/3/4
f 283/4/4 281/4/4 284/4/4
f 285/3/4 286/3/4 288/3/4
f 286/4/4 287/4/4 289/4/4
f 288/3/4 286/3/4 289/3/4
f 289/4/4 287/4/4 290/4/4
f 291/3/4 292/3/4 294/3/4
f 292/4/4 293/4/4 295/4/4
f 294/3/4 292/3/4 295/3/4
f 295/4/4 293/4/4 296/4/4
f 297/2/4 298/2/4 301/2/4
f 298/2/4 299/2/4 301/2/4
f 299/1/4 300/1/4 302/1/4
f 301/2/4 299/2/4 302/2/4
f 302/1/4 300/1/4 303/1/4
f 304/2/4 305/2/4 307/2/4
f 305/1/4 306/1/4 308/1/4
f 307/2/4 305/2/4 308/2/4
f 308/1/4 306/1/4 309/1/4
f 310/2/4 311/2/4 313/2/4
f 311/1/4 312/1/4 314/1/4
f 313/2/4 311/2/4 314/2/4
f 314/1/4 312/1/4 315/1/4
f 316/2/4 317/2/4 319/2/4
f 319/2/4 317/2/4 320/2/4
f 317/1/4 318/1/4 321/1/4
f 320/2/4 317/2/4 321/2/4
f 321/1/4 318/1/4 322/1/4
f 323/2/4 324/2/4 327/2/4
f 324/2/4 325/2/4 327/2/4
f 325/1/4 326/1/4 328/1/4
f 327/2/4 325/2/4 328/2/4
f 328/1/4 326/1/4 329/1/4
f 330/2/4 331/2/4 333/2/4
f 331/1/4 332/1/4 334/1/4
f 333/2/4 331/2/4 334/2/4
f 334/1/4 332/1/4 335/1/4
f 336/2/4 337/2/4 339/2/4
f 337/1/4 338/1/4 340/1/4
f 339/2/4 337/2/4 340/2/4
f 340/1/4 338/1/4 341/1/4
f 342/2/4 343/2/4 345/2/4
f 345/2/4 343/2/4 346/2/4
f 343/1/4 344/1/4 347/1/4
f 346/2/4 343/2/4 347/2/4
f 347/1/4 344/1/4 348/1/4
f 349/1/4 350/1/4 351/1/4
f 351/1/4 350/1/4 352/1/4
f 353/1/4 354/1/4 355/1/4
f 355/1/4 354/1/4 356/1/4
f 357/1/4 358/1/4 359/1/4
f 359/1/4 358/1/4 360/1/4
f 361/1/4 362/1/4 363/1/4
f 363/1/4 362/1/4 364/1/4
f 365/5/4 366/5/4 369/5/4
f 366/3/4 367/3/4 370/3/4
f 369/5/4 366/5/4 370/5/4
f 367/4/4 368/4/4 371/4/4
f 370/3/4 367/3/4 371/3/4
f 371/4/4 368/4/4 372/4/4
f 375/5/5 374/5/5 373/5/5
f 376/5/5 374/5/5 375/5/5
f 377/5/6 378/5/6 384/5/6
f 384/5/6 378/5/6 385/5/6
f 379/5/6 380/5/6 386/5/6
f 386/5/6 380/5/6 387/5/6
f 381/5/6 382/5/6 388/5/6
f 388/5/6 382/5/6 389/5/6
f 386/5/6 387/5/6 391/5/6
f 389/5/6 390/5/6 391/5/6
f 388/5/6 389/5/6 391/5/6
f 387/5/6 388/5/6 391/5/6
f 384/5/6 385/5/6 391/5/6
f 385/5/6 386/5/6 391/5/6
f 383/5/6 384/5/6 391/5/6
f 391/5/6 390/5/6 392/5/6
f 392/5/6 390/5/6 393/5/6
f 393/5/6 390/5/6 394/5/6
f 394/5/6 390/5/6 395/5/6
f 395/5/6 390/5/6 396/5/6
f 396/5/6 390/5/6 397/5/6
f 397/5/6 390/5/6 398/5/6
f 392/5/6 393/5/6 400/5/6
f 400/5/6 393/5/6 401/5/6
f 394/5/6 395/5/6 402/5/6
f 402/5/6 395/5/6 403/5/6
f 396/5/6 397/5/6 404/5/6
f 404/5/6 397/5/6 405/5/6
f 400/5/6 401/5/6 407/5/6
f 405/5/6 406/5/6 407/5/6
f 404/5/6 405/5/6 407/5/6
f 403/5/6 404/5/6 407/5/6
f 402/5/6 403/5/6 407/5/6
f 401/5/6 402/5/6 407/5/6
f 399/5/6 400/5/6 407/5/6
f 407/5/6 406/5/6 408/5/6
f 408/5/6 406/5/6 409/5/6
f 409/5/6 406/5/6 410/5/6
f 410/5/6 406/5/6 411/5/6
f 411/5/6 406/5/6 412/5/6
f 412/5/6 406/5/6 413/5/6
f 413/5/6 406/5/6 414/5/6
f 408/5/6 409/5/6 415/5/6
f 415/5/6 409/5/6 416/5/6
f 410/5/6 411/5/6 417/5/6
f 417/5/6 411/5/6 418/5/6
f 412/5/6 413/5/6 419/5/6
f 419/5/6 413/5/6 420/5/6
f 421/4/6 422/4/6 423/4/6
f 423/4/6 422/4/6 424/4/6
f 424/4/6 422/4/6 425/4/6
f 425/4/6 422/4/6 426/4/6
f 426/4/6 422/4/6 427/4/6
f 427/4/6 422/4/6 428/4/6
f 428/4/6 422/4/6 429/4/6
f 429/4/6 422/4/6 430/4/6
f 421/4/6 423/4/6 431/4/6
f 430/4/6 422/4/6 432/4/6
f 421/4/6 431/4/6 433/4/6
f 432/4/6 422/4/6 434/4/6
f 421/4/6 433/4/6 435/4/6
f 434/4/6 422/4/6 436/4/6
f 421/4/6 435/4/6 437/4/6
f 436/4/6 422/4/6 438/4/6
f 421/4/6 437/4/6 439/4/6
f 438/4/6 422/4/6 446/4/6
f 444/4/6 445/4/6 447/4/6
f 445/4/6 446/4/6 447/4/6
f 421/4/6 439/4/6 447/4/6
f 439/4/6 440/4/6 447/4/6
f 443/4/6 444/4/6 447/4/6
f 442/4/6 443/4/6 447/4/6
f 441/4/6 442/4/6 447/4/6
f 440/4/6 441/4/6 447/4/6
f 446/4/6 422/4/6 448/4/6
f 447/4/6 446/4/6 448/4/6
f 449/1/6 450/1/6 457/1/6
f 457/1/6 450/1/6 458/1/6
f 451/1/6 452/1/6 459/1/6
f 459/1/6 452/1/6 460/1/6
f 453/1/6 454/1/6 461/1/6
f 461/1/6 454/1/6 462/1/6
f 455/1/6 456/1/6 463/1/6
f 463/1/6 456/1/6 464/1/6
f 465/1/6 466/1/6 473/1/6
f 473/1/6 466/1/6 474/1/6
f 467/1/6 468/1/6 475/1/6
f 475/1/6 468/1/6 476/1/6
f 469/1/6 470/1/6 477/1/6
f 477/1/6 470/1/6 478/1/6
f 471/1/6 472/1/6 479/1/6
f 479/1/6 472/1/6 480/1/6
f 481/1/6 482/1/6 489/1/6
f 489/1/6 482/1/6 490/1/6
f 483/1/6 484/1/6 491/1/6
f 491/1/6 484/1/6 492/1/6
f 485/1/6 486/1/6 493/1/6
f 493/1/6 486/1/6 494/1/6
f 487/1/6 488/1/6 495/1/6
f 495/1/6 488/1/6 496/1/6
