# MagicaVoxel @ Ephtracy

# group
g Shotgun-5

# material
mtllib Shotgun-5.mtl
usemtl palette

# normals
vn -1 0 0
vn 1 0 0
vn 0 0 1
vn 0 0 -1
vn 0 -1 0
vn 0 1 0

# texcoords
vt 0.876953 0.5
vt 0.880859 0.5
vt 0.970703 0.5
vt 0.982422 0.5

# verts
v -4.5 0 3.5
v -4.5 0 -3.5
v -4.5 1 3.5
v -4.5 1 -3.5
v -4.5 3 3.5
v -4.5 3 -3.5
v -3.5 3 2.5
v -3.5 3 1.5
v -3.5 3 0.5
v -3.5 3 -0.5
v -3.5 3 -1.5
v -3.5 3 -2.5
v -3.5 4 2.5
v -3.5 4 1.5
v -3.5 4 0.5
v -3.5 4 -0.5
v -3.5 4 -1.5
v -3.5 4 -2.5
v -1.5 1 2.5
v -1.5 1 1.5
v -1.5 1 0.5
v -1.5 1 -0.5
v -1.5 1 -1.5
v -1.5 1 -2.5
v -1.5 3 2.5
v -1.5 3 1.5
v -1.5 3 0.5
v -1.5 3 -0.5
v -1.5 3 -1.5
v -1.5 3 -2.5
v -1.5 4 2.5
v -1.5 4 1.5
v -1.5 4 0.5
v -1.5 4 -0.5
v -1.5 4 -1.5
v -1.5 4 -2.5
v 0.5 1 2.5
v 0.5 1 1.5
v 0.5 1 0.5
v 0.5 1 -0.5
v 0.5 1 -1.5
v 0.5 1 -2.5
v 0.5 3 2.5
v 0.5 3 1.5
v 0.5 3 0.5
v 0.5 3 -0.5
v 0.5 3 -1.5
v 0.5 3 -2.5
v 0.5 4 2.5
v 0.5 4 1.5
v 0.5 4 0.5
v 0.5 4 -0.5
v 0.5 4 -1.5
v 0.5 4 -2.5
v 2.5 1 2.5
v 2.5 1 1.5
v 2.5 1 0.5
v 2.5 1 -0.5
v 2.5 1 -1.5
v 2.5 1 -2.5
v 2.5 3 2.5
v 2.5 3 1.5
v 2.5 3 0.5
v 2.5 3 -0.5
v 2.5 3 -1.5
v 2.5 3 -2.5
v 2.5 4 2.5
v 2.5 4 1.5
v 2.5 4 0.5
v 2.5 4 -0.5
v 2.5 4 -1.5
v 2.5 4 -2.5
v 3.5 1 1.5
v 3.5 1 0.5
v 3.5 1 -0.5
v 3.5 1 -1.5
v 3.5 3 1.5
v 3.5 3 0.5
v 3.5 3 -0.5
v 3.5 3 -1.5
v -3.5 1 1.5
v -3.5 1 0.5
v -3.5 1 -0.5
v -3.5 1 -1.5
v -3.5 3 1.5
v -3.5 3 0.5
v -3.5 3 -0.5
v -3.5 3 -1.5
v -2.5 1 2.5
v -2.5 1 1.5
v -2.5 1 0.5
v -2.5 1 -0.5
v -2.5 1 -1.5
v -2.5 1 -2.5
v -2.5 3 2.5
v -2.5 3 1.5
v -2.5 3 0.5
v -2.5 3 -0.5
v -2.5 3 -1.5
v -2.5 3 -2.5
v -2.5 4 2.5
v -2.5 4 1.5
v -2.5 4 0.5
v -2.5 4 -0.5
v -2.5 4 -1.5
v -2.5 4 -2.5
v -0.5 1 2.5
v -0.5 1 1.5
v -0.5 1 0.5
v -0.5 1 -0.5
v -0.5 1 -1.5
v -0.5 1 -2.5
v -0.5 3 2.5
v -0.5 3 1.5
v -0.5 3 0.5
v -0.5 3 -0.5
v -0.5 3 -1.5
v -0.5 3 -2.5
v -0.5 4 2.5
v -0.5 4 1.5
v -0.5 4 0.5
v -0.5 4 -0.5
v -0.5 4 -1.5
v -0.5 4 -2.5
v 1.5 1 2.5
v 1.5 1 1.5
v 1.5 1 0.5
v 1.5 1 -0.5
v 1.5 1 -1.5
v 1.5 1 -2.5
v 1.5 3 2.5
v 1.5 3 1.5
v 1.5 3 0.5
v 1.5 3 -0.5
v 1.5 3 -1.5
v 1.5 3 -2.5
v 1.5 4 2.5
v 1.5 4 1.5
v 1.5 4 0.5
v 1.5 4 -0.5
v 1.5 4 -1.5
v 1.5 4 -2.5
v 3.5 3 2.5
v 3.5 3 1.5
v 3.5 3 0.5
v 3.5 3 -0.5
v 3.5 3 -1.5
v 3.5 3 -2.5
v 3.5 4 2.5
v 3.5 4 1.5
v 3.5 4 0.5
v 3.5 4 -0.5
v 3.5 4 -1.5
v 3.5 4 -2.5
v 4.5 0 3.5
v 4.5 0 -3.5
v 4.5 1 3.5
v 4.5 1 -3.5
v 4.5 3 3.5
v 4.5 3 -3.5
v -4.5 0 3.5
v -4.5 1 3.5
v -4.5 3 3.5
v 4.5 0 3.5
v 4.5 1 3.5
v 4.5 3 3.5
v -3.5 3 2.5
v -3.5 4 2.5
v -2.5 3 2.5
v -2.5 4 2.5
v -1.5 3 2.5
v -1.5 4 2.5
v -0.5 3 2.5
v -0.5 4 2.5
v 0.5 3 2.5
v 0.5 4 2.5
v 1.5 3 2.5
v 1.5 4 2.5
v 2.5 3 2.5
v 2.5 4 2.5
v 3.5 3 2.5
v 3.5 4 2.5
v -3.5 1 0.5
v -3.5 3 0.5
v -3.5 4 0.5
v -2.5 1 0.5
v -2.5 3 0.5
v -2.5 4 0.5
v -1.5 1 0.5
v -1.5 3 0.5
v -1.5 4 0.5
v -0.5 1 0.5
v -0.5 3 0.5
v -0.5 4 0.5
v 0.5 1 0.5
v 0.5 3 0.5
v 0.5 4 0.5
v 1.5 1 0.5
v 1.5 3 0.5
v 1.5 4 0.5
v 2.5 1 0.5
v 2.5 3 0.5
v 2.5 4 0.5
v 3.5 1 0.5
v 3.5 3 0.5
v 3.5 4 0.5
v -3.5 1 -1.5
v -3.5 3 -1.5
v -3.5 4 -1.5
v -2.5 1 -1.5
v -2.5 3 -1.5
v -2.5 4 -1.5
v -1.5 1 -1.5
v -1.5 3 -1.5
v -1.5 4 -1.5
v -0.5 1 -1.5
v -0.5 3 -1.5
v -0.5 4 -1.5
v 0.5 1 -1.5
v 0.5 3 -1.5
v 0.5 4 -1.5
v 1.5 1 -1.5
v 1.5 3 -1.5
v 1.5 4 -1.5
v 2.5 1 -1.5
v 2.5 3 -1.5
v 2.5 4 -1.5
v 3.5 1 -1.5
v 3.5 3 -1.5
v 3.5 4 -1.5
v -2.5 1 -2.5
v -2.5 3 -2.5
v -1.5 1 -2.5
v -1.5 3 -2.5
v -0.5 1 -2.5
v -0.5 3 -2.5
v 0.5 1 -2.5
v 0.5 3 -2.5
v 1.5 1 -2.5
v 1.5 3 -2.5
v 2.5 1 -2.5
v 2.5 3 -2.5
v -2.5 1 2.5
v -2.5 3 2.5
v -1.5 1 2.5
v -1.5 3 2.5
v -0.5 1 2.5
v -0.5 3 2.5
v 0.5 1 2.5
v 0.5 3 2.5
v 1.5 1 2.5
v 1.5 3 2.5
v 2.5 1 2.5
v 2.5 3 2.5
v -3.5 1 1.5
v -3.5 3 1.5
v -3.5 4 1.5
v -2.5 1 1.5
v -2.5 3 1.5
v -2.5 4 1.5
v -1.5 1 1.5
v -1.5 3 1.5
v -1.5 4 1.5
v -0.5 1 1.5
v -0.5 3 1.5
v -0.5 4 1.5
v 0.5 1 1.5
v 0.5 3 1.5
v 0.5 4 1.5
v 1.5 1 1.5
v 1.5 3 1.5
v 1.5 4 1.5
v 2.5 1 1.5
v 2.5 3 1.5
v 2.5 4 1.5
v 3.5 1 1.5
v 3.5 3 1.5
v 3.5 4 1.5
v -3.5 1 -0.5
v -3.5 3 -0.5
v -3.5 4 -0.5
v -2.5 1 -0.5
v -2.5 3 -0.5
v -2.5 4 -0.5
v -1.5 1 -0.5
v -1.5 3 -0.5
v -1.5 4 -0.5
v -0.5 1 -0.5
v -0.5 3 -0.5
v -0.5 4 -0.5
v 0.5 1 -0.5
v 0.5 3 -0.5
v 0.5 4 -0.5
v 1.5 1 -0.5
v 1.5 3 -0.5
v 1.5 4 -0.5
v 2.5 1 -0.5
v 2.5 3 -0.5
v 2.5 4 -0.5
v 3.5 1 -0.5
v 3.5 3 -0.5
v 3.5 4 -0.5
v -3.5 3 -2.5
v -3.5 4 -2.5
v -2.5 3 -2.5
v -2.5 4 -2.5
v -1.5 3 -2.5
v -1.5 4 -2.5
v -0.5 3 -2.5
v -0.5 4 -2.5
v 0.5 3 -2.5
v 0.5 4 -2.5
v 1.5 3 -2.5
v 1.5 4 -2.5
v 2.5 3 -2.5
v 2.5 4 -2.5
v 3.5 3 -2.5
v 3.5 4 -2.5
v -4.5 0 -3.5
v -4.5 1 -3.5
v -4.5 3 -3.5
v 4.5 0 -3.5
v 4.5 1 -3.5
v 4.5 3 -3.5
v -4.5 0 3.5
v 4.5 0 3.5
v -4.5 0 -3.5
v 4.5 0 -3.5
v -2.5 1 2.5
v -1.5 1 2.5
v -0.5 1 2.5
v 0.5 1 2.5
v 1.5 1 2.5
v 2.5 1 2.5
v -3.5 1 1.5
v -2.5 1 1.5
v -1.5 1 1.5
v -0.5 1 1.5
v 0.5 1 1.5
v 1.5 1 1.5
v 2.5 1 1.5
v 3.5 1 1.5
v -3.5 1 0.5
v -2.5 1 0.5
v -1.5 1 0.5
v -0.5 1 0.5
v 0.5 1 0.5
v 1.5 1 0.5
v 2.5 1 0.5
v 3.5 1 0.5
v -3.5 1 -0.5
v -2.5 1 -0.5
v -1.5 1 -0.5
v -0.5 1 -0.5
v 0.5 1 -0.5
v 1.5 1 -0.5
v 2.5 1 -0.5
v 3.5 1 -0.5
v -3.5 1 -1.5
v -2.5 1 -1.5
v -1.5 1 -1.5
v -0.5 1 -1.5
v 0.5 1 -1.5
v 1.5 1 -1.5
v 2.5 1 -1.5
v 3.5 1 -1.5
v -2.5 1 -2.5
v -1.5 1 -2.5
v -0.5 1 -2.5
v 0.5 1 -2.5
v 1.5 1 -2.5
v 2.5 1 -2.5
v -4.5 3 3.5
v 4.5 3 3.5
v -3.5 3 2.5
v -2.5 3 2.5
v -1.5 3 2.5
v -0.5 3 2.5
v 0.5 3 2.5
v 1.5 3 2.5
v 2.5 3 2.5
v 3.5 3 2.5
v -3.5 3 1.5
v 3.5 3 1.5
v -3.5 3 0.5
v 3.5 3 0.5
v -3.5 3 -0.5
v 3.5 3 -0.5
v -3.5 3 -1.5
v 3.5 3 -1.5
v -3.5 3 -2.5
v -2.5 3 -2.5
v -1.5 3 -2.5
v -0.5 3 -2.5
v 0.5 3 -2.5
v 1.5 3 -2.5
v 2.5 3 -2.5
v 3.5 3 -2.5
v -4.5 3 -3.5
v 4.5 3 -3.5
v -3.5 4 2.5
v -2.5 4 2.5
v -1.5 4 2.5
v -0.5 4 2.5
v 0.5 4 2.5
v 1.5 4 2.5
v 2.5 4 2.5
v 3.5 4 2.5
v -3.5 4 1.5
v -2.5 4 1.5
v -1.5 4 1.5
v -0.5 4 1.5
v 0.5 4 1.5
v 1.5 4 1.5
v 2.5 4 1.5
v 3.5 4 1.5
v -3.5 4 0.5
v -2.5 4 0.5
v -1.5 4 0.5
v -0.5 4 0.5
v 0.5 4 0.5
v 1.5 4 0.5
v 2.5 4 0.5
v 3.5 4 0.5
v -3.5 4 -0.5
v -2.5 4 -0.5
v -1.5 4 -0.5
v -0.5 4 -0.5
v 0.5 4 -0.5
v 1.5 4 -0.5
v 2.5 4 -0.5
v 3.5 4 -0.5
v -3.5 4 -1.5
v -2.5 4 -1.5
v -1.5 4 -1.5
v -0.5 4 -1.5
v 0.5 4 -1.5
v 1.5 4 -1.5
v 2.5 4 -1.5
v 3.5 4 -1.5
v -3.5 4 -2.5
v -2.5 4 -2.5
v -1.5 4 -2.5
v -0.5 4 -2.5
v 0.5 4 -2.5
v 1.5 4 -2.5
v 2.5 4 -2.5
v 3.5 4 -2.5

# faces
f 3/4/1 2/4/1 1/4/1
f 4/4/1 2/4/1 3/4/1
f 5/3/1 4/3/1 3/3/1
f 6/3/1 4/3/1 5/3/1
f 13/1/1 8/1/1 7/1/1
f 14/1/1 8/1/1 13/1/1
f 15/1/1 10/1/1 9/1/1
f 16/1/1 10/1/1 15/1/1
f 17/1/1 12/1/1 11/1/1
f 18/1/1 12/1/1 17/1/1
f 25/2/1 20/2/1 19/2/1
f 26/2/1 20/2/1 25/2/1
f 27/2/1 22/2/1 21/2/1
f 28/2/1 22/2/1 27/2/1
f 29/2/1 24/2/1 23/2/1
f 30/2/1 24/2/1 29/2/1
f 31/1/1 26/1/1 25/1/1
f 32/1/1 26/1/1 31/1/1
f 33/1/1 28/1/1 27/1/1
f 34/1/1 28/1/1 33/1/1
f 35/1/1 30/1/1 29/1/1
f 36/1/1 30/1/1 35/1/1
f 43/2/1 38/2/1 37/2/1
f 44/2/1 38/2/1 43/2/1
f 45/2/1 40/2/1 39/2/1
f 46/2/1 40/2/1 45/2/1
f 47/2/1 42/2/1 41/2/1
f 48/2/1 42/2/1 47/2/1
f 49/1/1 44/1/1 43/1/1
f 50/1/1 44/1/1 49/1/1
f 51/1/1 46/1/1 45/1/1
f 52/1/1 46/1/1 51/1/1
f 53/1/1 48/1/1 47/1/1
f 54/1/1 48/1/1 53/1/1
f 61/2/1 56/2/1 55/2/1
f 62/2/1 56/2/1 61/2/1
f 63/2/1 58/2/1 57/2/1
f 64/2/1 58/2/1 63/2/1
f 65/2/1 60/2/1 59/2/1
f 66/2/1 60/2/1 65/2/1
f 67/1/1 62/1/1 61/1/1
f 68/1/1 62/1/1 67/1/1
f 69/1/1 64/1/1 63/1/1
f 70/1/1 64/1/1 69/1/1
f 71/1/1 66/1/1 65/1/1
f 72/1/1 66/1/1 71/1/1
f 77/3/1 74/3/1 73/3/1
f 78/3/1 74/3/1 77/3/1
f 79/3/1 76/3/1 75/3/1
f 80/3/1 76/3/1 79/3/1
f 81/3/2 82/3/2 85/3/2
f 85/3/2 82/3/2 86/3/2
f 83/3/2 84/3/2 87/3/2
f 87/3/2 84/3/2 88/3/2
f 89/2/2 90/2/2 95/2/2
f 95/2/2 90/2/2 96/2/2
f 91/2/2 92/2/2 97/2/2
f 97/2/2 92/2/2 98/2/2
f 93/2/2 94/2/2 99/2/2
f 99/2/2 94/2/2 100/2/2
f 95/1/2 96/1/2 101/1/2
f 101/1/2 96/1/2 102/1/2
f 97/1/2 98/1/2 103/1/2
f 103/1/2 98/1/2 104/1/2
f 99/1/2 100/1/2 105/1/2
f 105/1/2 100/1/2 106/1/2
f 107/2/2 108/2/2 113/2/2
f 113/2/2 108/2/2 114/2/2
f 109/2/2 110/2/2 115/2/2
f 115/2/2 110/2/2 116/2/2
f 111/2/2 112/2/2 117/2/2
f 117/2/2 112/2/2 118/2/2
f 113/1/2 114/1/2 119/1/2
f 119/1/2 114/1/2 120/1/2
f 115/1/2 116/1/2 121/1/2
f 121/1/2 116/1/2 122/1/2
f 117/1/2 118/1/2 123/1/2
f 123/1/2 118/1/2 124/1/2
f 125/2/2 126/2/2 131/2/2
f 131/2/2 126/2/2 132/2/2
f 127/2/2 128/2/2 133/2/2
f 133/2/2 128/2/2 134/2/2
f 129/2/2 130/2/2 135/2/2
f 135/2/2 130/2/2 136/2/2
f 131/1/2 132/1/2 137/1/2
f 137/1/2 132/1/2 138/1/2
f 133/1/2 134/1/2 139/1/2
f 139/1/2 134/1/2 140/1/2
f 135/1/2 136/1/2 141/1/2
f 141/1/2 136/1/2 142/1/2
f 143/1/2 144/1/2 149/1/2
f 149/1/2 144/1/2 150/1/2
f 145/1/2 146/1/2 151/1/2
f 151/1/2 146/1/2 152/1/2
f 147/1/2 148/1/2 153/1/2
f 153/1/2 148/1/2 154/1/2
f 155/4/2 156/4/2 157/4/2
f 157/4/2 156/4/2 158/4/2
f 157/3/2 158/3/2 159/3/2
f 159/3/2 158/3/2 160/3/2
f 164/4/3 162/4/3 161/4/3
f 165/3/3 163/3/3 162/3/3
f 165/4/3 162/4/3 164/4/3
f 166/3/3 163/3/3 165/3/3
f 169/1/3 168/1/3 167/1/3
f 170/1/3 168/1/3 169/1/3
f 173/1/3 172/1/3 171/1/3
f 174/1/3 172/1/3 173/1/3
f 177/1/3 176/1/3 175/1/3
f 178/1/3 176/1/3 177/1/3
f 181/1/3 180/1/3 179/1/3
f 182/1/3 180/1/3 181/1/3
f 186/2/3 184/2/3 183/2/3
f 187/1/3 185/1/3 184/1/3
f 187/2/3 184/2/3 186/2/3
f 188/1/3 185/1/3 187/1/3
f 192/2/3 190/2/3 189/2/3
f 193/1/3 191/1/3 190/1/3
f 193/2/3 190/2/3 192/2/3
f 194/1/3 191/1/3 193/1/3
f 198/2/3 196/2/3 195/2/3
f 199/1/3 197/1/3 196/1/3
f 199/2/3 196/2/3 198/2/3
f 200/1/3 197/1/3 199/1/3
f 204/2/3 202/2/3 201/2/3
f 205/1/3 203/1/3 202/1/3
f 205/2/3 202/2/3 204/2/3
f 206/1/3 203/1/3 205/1/3
f 210/2/3 208/2/3 207/2/3
f 211/1/3 209/1/3 208/1/3
f 211/2/3 208/2/3 210/2/3
f 212/1/3 209/1/3 211/1/3
f 216/2/3 214/2/3 213/2/3
f 217/1/3 215/1/3 214/1/3
f 217/2/3 214/2/3 216/2/3
f 218/1/3 215/1/3 217/1/3
f 222/2/3 220/2/3 219/2/3
f 223/1/3 221/1/3 220/1/3
f 223/2/3 220/2/3 222/2/3
f 224/1/3 221/1/3 223/1/3
f 228/2/3 226/2/3 225/2/3
f 229/1/3 227/1/3 226/1/3
f 229/2/3 226/2/3 228/2/3
f 230/1/3 227/1/3 229/1/3
f 233/3/3 232/3/3 231/3/3
f 234/3/3 232/3/3 233/3/3
f 237/3/3 236/3/3 235/3/3
f 238/3/3 236/3/3 237/3/3
f 241/3/3 240/3/3 239/3/3
f 242/3/3 240/3/3 241/3/3
f 243/3/4 244/3/4 245/3/4
f 245/3/4 244/3/4 246/3/4
f 247/3/4 248/3/4 249/3/4
f 249/3/4 248/3/4 250/3/4
f 251/3/4 252/3/4 253/3/4
f 253/3/4 252/3/4 254/3/4
f 255/2/4 256/2/4 258/2/4
f 256/1/4 257/1/4 259/1/4
f 258/2/4 256/2/4 259/2/4
f 259/1/4 257/1/4 260/1/4
f 261/2/4 262/2/4 264/2/4
f 262/1/4 263/1/4 265/1/4
f 264/2/4 262/2/4 265/2/4
f 265/1/4 263/1/4 266/1/4
f 267/2/4 268/2/4 270/2/4
f 268/1/4 269/1/4 271/1/4
f 270/2/4 268/2/4 271/2/4
f 271/1/4 269/1/4 272/1/4
f 273/2/4 274/2/4 276/2/4
f 274/1/4 275/1/4 277/1/4
f 276/2/4 274/2/4 277/2/4
f 277/1/4 275/1/4 278/1/4
f 279/2/4 280/2/4 282/2/4
f 280/1/4 281/1/4 283/1/4
f 282/2/4 280/2/4 283/2/4
f 283/1/4 281/1/4 284/1/4
f 285/2/4 286/2/4 288/2/4
f 286/1/4 287/1/4 289/1/4
f 288/2/4 286/2/4 289/2/4
f 289/1/4 287/1/4 290/1/4
f 291/2/4 292/2/4 294/2/4
f 292/1/4 293/1/4 295/1/4
f 294/2/4 292/2/4 295/2/4
f 295/1/4 293/1/4 296/1/4
f 297/2/4 298/2/4 300/2/4
f 298/1/4 299/1/4 301/1/4
f 300/2/4 298/2/4 301/2/4
f 301/1/4 299/1/4 302/1/4
f 303/1/4 304/1/4 305/1/4
f 305/1/4 304/1/4 306/1/4
f 307/1/4 308/1/4 309/1/4
f 309/1/4 308/1/4 310/1/4
f 311/1/4 312/1/4 313/1/4
f 313/1/4 312/1/4 314/1/4
f 315/1/4 316/1/4 317/1/4
f 317/1/4 316/1/4 318/1/4
f 319/4/4 320/4/4 322/4/4
f 320/3/4 321/3/4 323/3/4
f 322/4/4 320/4/4 323/4/4
f 323/3/4 321/3/4 324/3/4
f 327/4/5 326/4/5 325/4/5
f 328/4/5 326/4/5 327/4/5
f 329/4/6 330/4/6 336/4/6
f 336/4/6 330/4/6 337/4/6
f 331/4/6 332/4/6 338/4/6
f 338/4/6 332/4/6 339/4/6
f 333/4/6 334/4/6 340/4/6
f 340/4/6 334/4/6 341/4/6
f 338/4/6 339/4/6 343/4/6
f 341/4/6 342/4/6 343/4/6
f 340/4/6 341/4/6 343/4/6
f 339/4/6 340/4/6 343/4/6
f 336/4/6 337/4/6 343/4/6
f 337/4/6 338/4/6 343/4/6
f 335/4/6 336/4/6 343/4/6
f 343/4/6 342/4/6 344/4/6
f 344/4/6 342/4/6 345/4/6
f 345/4/6 342/4/6 346/4/6
f 346/4/6 342/4/6 347/4/6
f 347/4/6 342/4/6 348/4/6
f 348/4/6 342/4/6 349/4/6
f 349/4/6 342/4/6 350/4/6
f 344/4/6 345/4/6 352/4/6
f 352/4/6 345/4/6 353/4/6
f 346/4/6 347/4/6 354/4/6
f 354/4/6 347/4/6 355/4/6
f 348/4/6 349/4/6 356/4/6
f 356/4/6 349/4/6 357/4/6
f 352/4/6 353/4/6 359/4/6
f 357/4/6 358/4/6 359/4/6
f 356/4/6 357/4/6 359/4/6
f 355/4/6 356/4/6 359/4/6
f 354/4/6 355/4/6 359/4/6
f 353/4/6 354/4/6 359/4/6
f 351/4/6 352/4/6 359/4/6
f 359/4/6 358/4/6 360/4/6
f 360/4/6 358/4/6 361/4/6
f 361/4/6 358/4/6 362/4/6
f 362/4/6 358/4/6 363/4/6
f 363/4/6 358/4/6 364/4/6
f 364/4/6 358/4/6 365/4/6
f 365/4/6 358/4/6 366/4/6
f 360/4/6 361/4/6 367/4/6
f 367/4/6 361/4/6 368/4/6
f 362/4/6 363/4/6 369/4/6
f 369/4/6 363/4/6 370/4/6
f 364/4/6 365/4/6 371/4/6
f 371/4/6 365/4/6 372/4/6
f 373/3/6 374/3/6 375/3/6
f 375/3/6 374/3/6 376/3/6
f 376/3/6 374/3/6 377/3/6
f 377/3/6 374/3/6 378/3/6
f 378/3/6 374/3/6 379/3/6
f 379/3/6 374/3/6 380/3/6
f 380/3/6 374/3/6 381/3/6
f 381/3/6 374/3/6 382/3/6
f 373/3/6 375/3/6 383/3/6
f 382/3/6 374/3/6 384/3/6
f 373/3/6 383/3/6 385/3/6
f 384/3/6 374/3/6 386/3/6
f 373/3/6 385/3/6 387/3/6
f 386/3/6 374/3/6 388/3/6
f 373/3/6 387/3/6 389/3/6
f 388/3/6 374/3/6 390/3/6
f 373/3/6 389/3/6 391/3/6
f 390/3/6 374/3/6 398/3/6
f 396/3/6 397/3/6 399/3/6
f 397/3/6 398/3/6 399/3/6
f 373/3/6 391/3/6 399/3/6
f 391/3/6 392/3/6 399/3/6
f 395/3/6 396/3/6 399/3/6
f 394/3/6 395/3/6 399/3/6
f 393/3/6 394/3/6 399/3/6
f 392/3/6 393/3/6 399/3/6
f 398/3/6 374/3/6 400/3/6
f 399/3/6 398/3/6 400/3/6
f 401/1/6 402/1/6 409/1/6
f 409/1/6 402/1/6 410/1/6
f 403/1/6 404/1/6 411/1/6
f 411/1/6 404/1/6 412/1/6
f 405/1/6 406/1/6 413/1/6
f 413/1/6 406/1/6 414/1/6
f 407/1/6 408/1/6 415/1/6
f 415/1/6 408/1/6 416/1/6
f 417/1/6 418/1/6 425/1/6
f 425/1/6 418/1/6 426/1/6
f 419/1/6 420/1/6 427/1/6
f 427/1/6 420/1/6 428/1/6
f 421/1/6 422/1/6 429/1/6
f 429/1/6 422/1/6 430/1/6
f 423/1/6 424/1/6 431/1/6
f 431/1/6 424/1/6 432/1/6
f 433/1/6 434/1/6 441/1/6
f 441/1/6 434/1/6 442/1/6
f 435/1/6 436/1/6 443/1/6
f 443/1/6 436/1/6 444/1/6
f 437/1/6 438/1/6 445/1/6
f 445/1/6 438/1/6 446/1/6
f 439/1/6 440/1/6 447/1/6
f 447/1/6 440/1/6 448/1/6
