# MagicaVoxel @ Ephtracy

# group
g ViewModel-2

# material
mtllib ViewModel-2.mtl
usemtl palette

# normals
vn -1 0 0
vn 1 0 0
vn 0 0 1
vn 0 0 -1
vn 0 -1 0
vn 0 1 0

# texcoords
vt 0.939453 0.5
vt 0.970703 0.5
vt 0.974609 0.5

# verts
v -3.5 0 1
v -3.5 0 -1
v -3.5 2 1
v -3.5 2 -1
v 3.5 0 1
v 3.5 0 -1
v 3.5 2 1
v 3.5 2 -1
v -3.5 0 1
v -3.5 2 1
v -2.5 0 1
v -2.5 1 1
v -2.5 2 1
v -1.5 0 1
v -1.5 1 1
v 1.5 0 1
v 1.5 1 1
v 2.5 0 1
v 2.5 1 1
v 2.5 2 1
v 3.5 0 1
v 3.5 2 1
v -3.5 0 -1
v -3.5 2 -1
v -2.5 0 -1
v -2.5 1 -1
v -2.5 2 -1
v -1.5 0 -1
v -1.5 1 -1
v 1.5 0 -1
v 1.5 1 -1
v 2.5 0 -1
v 2.5 1 -1
v 2.5 2 -1
v 3.5 0 -1
v 3.5 2 -1
v -3.5 0 1
v -2.5 0 1
v -1.5 0 1
v 1.5 0 1
v 2.5 0 1
v 3.5 0 1
v -3.5 0 -1
v -2.5 0 -1
v -1.5 0 -1
v 1.5 0 -1
v 2.5 0 -1
v 3.5 0 -1
v -3.5 2 1
v -2.5 2 1
v 2.5 2 1
v 3.5 2 1
v -3.5 2 -1
v -2.5 2 -1
v 2.5 2 -1
v 3.5 2 -1

# faces
f 3/1/1 2/1/1 1/1/1
f 4/1/1 2/1/1 3/1/1
f 5/1/2 6/1/2 7/1/2
f 7/1/2 6/1/2 8/1/2
f 11/1/3 10/1/3 9/1/3
f 12/1/3 10/1/3 11/1/3
f 13/1/3 10/1/3 12/1/3
f 14/3/3 12/3/3 11/3/3
f 15/2/3 13/2/3 12/2/3
f 15/3/3 12/3/3 14/3/3
f 16/1/3 15/1/3 14/1/3
f 17/2/3 13/2/3 15/2/3
f 17/1/3 15/1/3 16/1/3
f 18/3/3 17/3/3 16/3/3
f 19/2/3 13/2/3 17/2/3
f 19/3/3 17/3/3 18/3/3
f 20/2/3 13/2/3 19/2/3
f 21/1/3 19/1/3 18/1/3
f 21/1/3 20/1/3 19/1/3
f 22/1/3 20/1/3 21/1/3
f 23/1/4 24/1/4 25/1/4
f 25/1/4 24/1/4 26/1/4
f 26/1/4 24/1/4 27/1/4
f 25/3/4 26/3/4 28/3/4
f 26/2/4 27/2/4 29/2/4
f 28/3/4 26/3/4 29/3/4
f 28/1/4 29/1/4 30/1/4
f 29/2/4 27/2/4 31/2/4
f 30/1/4 29/1/4 31/1/4
f 30/3/4 31/3/4 32/3/4
f 31/2/4 27/2/4 33/2/4
f 32/3/4 31/3/4 33/3/4
f 33/2/4 27/2/4 34/2/4
f 32/1/4 33/1/4 35/1/4
f 33/1/4 34/1/4 35/1/4
f 35/1/4 34/1/4 36/1/4
f 43/1/5 38/1/5 37/1/5
f 44/3/5 39/3/5 38/3/5
f 44/1/5 38/1/5 43/1/5
f 45/1/5 40/1/5 39/1/5
f 45/3/5 39/3/5 44/3/5
f 46/3/5 41/3/5 40/3/5
f 46/1/5 40/1/5 45/1/5
f 47/1/5 42/1/5 41/1/5
f 47/3/5 41/3/5 46/3/5
f 48/1/5 42/1/5 47/1/5
f 49/1/6 50/1/6 53/1/6
f 50/2/6 51/2/6 54/2/6
f 53/1/6 50/1/6 54/1/6
f 51/1/6 52/1/6 55/1/6
f 54/2/6 51/2/6 55/2/6
f 55/1/6 52/1/6 56/1/6
