# MagicaVoxel @ Ephtracy

# group
g ViewModel-9

# material
mtllib ViewModel-9.mtl
usemtl palette

# normals
vn -1 0 0
vn 1 0 0
vn 0 0 1
vn 0 0 -1
vn 0 -1 0
vn 0 1 0

# texcoords
vt 0.970703 0.5
vt 0.974609 0.5
vt 0.978516 0.5

# verts
v -1.5 0 2
v -1.5 0 -1
v -1.5 1 2
v -1.5 1 -0
v -1.5 2 2
v -1.5 2 1
v -1.5 3 1
v -1.5 3 -0
v -1.5 3 -1
v -1.5 3 -2
v -1.5 4 -0
v -1.5 4 -2
v -1.5 7 2
v -1.5 7 -2
v -1.5 8 2
v -1.5 8 -2
v 1.5 0 2
v 1.5 0 -1
v 1.5 1 2
v 1.5 1 -0
v 1.5 2 2
v 1.5 2 1
v 1.5 3 1
v 1.5 3 -0
v 1.5 3 -1
v 1.5 3 -2
v 1.5 4 -0
v 1.5 4 -2
v 1.5 7 2
v 1.5 7 -2
v 1.5 8 2
v 1.5 8 -2
v -1.5 0 2
v -1.5 1 2
v -1.5 2 2
v -1.5 7 2
v -1.5 8 2
v 1.5 0 2
v 1.5 1 2
v 1.5 2 2
v 1.5 7 2
v 1.5 8 2
v -1.5 0 -1
v -1.5 3 -1
v 1.5 0 -1
v 1.5 3 -1
v -1.5 3 -2
v -1.5 4 -2
v -1.5 7 -2
v -1.5 8 -2
v 1.5 3 -2
v 1.5 4 -2
v 1.5 7 -2
v 1.5 8 -2
v -1.5 0 2
v 1.5 0 2
v -1.5 0 -1
v 1.5 0 -1
v -1.5 3 -1
v 1.5 3 -1
v -1.5 3 -2
v 1.5 3 -2
v -1.5 8 2
v 1.5 8 2
v -0.5 8 1
v 0.5 8 1
v -0.5 8 -1
v 0.5 8 -1
v -1.5 8 -2
v 1.5 8 -2

# faces
f 3/2/1 2/2/1 1/2/1
f 4/2/1 2/2/1 3/2/1
f 5/3/1 4/3/1 3/3/1
f 6/3/1 4/3/1 5/3/1
f 7/1/1 6/1/1 5/1/1
f 7/3/1 4/3/1 6/3/1
f 8/2/1 2/2/1 4/2/1
f 8/3/1 4/3/1 7/3/1
f 9/2/1 2/2/1 8/2/1
f 11/1/1 8/1/1 7/1/1
f 11/3/1 10/3/1 9/3/1
f 11/3/1 9/3/1 8/3/1
f 12/3/1 10/3/1 11/3/1
f 13/1/1 7/1/1 5/1/1
f 13/1/1 11/1/1 7/1/1
f 13/1/1 12/1/1 11/1/1
f 14/1/1 12/1/1 13/1/1
f 15/3/1 14/3/1 13/3/1
f 16/3/1 14/3/1 15/3/1
f 17/2/2 18/2/2 19/2/2
f 19/2/2 18/2/2 20/2/2
f 19/3/2 20/3/2 21/3/2
f 21/3/2 20/3/2 22/3/2
f 21/1/2 22/1/2 23/1/2
f 22/3/2 20/3/2 23/3/2
f 20/2/2 18/2/2 24/2/2
f 23/3/2 20/3/2 24/3/2
f 24/2/2 18/2/2 25/2/2
f 23/1/2 24/1/2 27/1/2
f 25/3/2 26/3/2 27/3/2
f 24/3/2 25/3/2 27/3/2
f 27/3/2 26/3/2 28/3/2
f 21/1/2 23/1/2 29/1/2
f 23/1/2 27/1/2 29/1/2
f 27/1/2 28/1/2 29/1/2
f 29/1/2 28/1/2 30/1/2
f 29/3/2 30/3/2 31/3/2
f 31/3/2 30/3/2 32/3/2
f 38/2/3 34/2/3 33/2/3
f 39/3/3 35/3/3 34/3/3
f 39/2/3 34/2/3 38/2/3
f 40/1/3 36/1/3 35/1/3
f 40/3/3 35/3/3 39/3/3
f 41/3/3 37/3/3 36/3/3
f 41/1/3 36/1/3 40/1/3
f 42/3/3 37/3/3 41/3/3
f 43/2/4 44/2/4 45/2/4
f 45/2/4 44/2/4 46/2/4
f 47/3/4 48/3/4 51/3/4
f 48/1/4 49/1/4 52/1/4
f 51/3/4 48/3/4 52/3/4
f 49/3/4 50/3/4 53/3/4
f 52/1/4 49/1/4 53/1/4
f 53/3/4 50/3/4 54/3/4
f 57/2/5 56/2/5 55/2/5
f 58/2/5 56/2/5 57/2/5
f 61/3/5 60/3/5 59/3/5
f 62/3/5 60/3/5 61/3/5
f 63/3/6 64/3/6 65/3/6
f 65/3/6 64/3/6 66/3/6
f 63/3/6 65/3/6 67/3/6
f 65/1/6 66/1/6 67/1/6
f 66/3/6 64/3/6 68/3/6
f 67/1/6 66/1/6 68/1/6
f 63/3/6 67/3/6 69/3/6
f 67/3/6 68/3/6 69/3/6
f 68/3/6 64/3/6 70/3/6
f 69/3/6 68/3/6 70/3/6
