# MagicaVoxel @ Ephtracy

# group
g CyberBrute-2

# material
mtllib CyberBrute-2.mtl
usemtl palette

# normals
vn -1 0 0
vn 1 0 0
vn 0 0 1
vn 0 0 -1
vn 0 -1 0
vn 0 1 0

# texcoords
vt 0.876953 0.5
vt 0.908203 0.5
vt 0.939453 0.5
vt 0.970703 0.5
vt 0.974609 0.5
vt 0.978516 0.5

# verts
v -6 6 0.5
v -6 6 -0.5
v -6 8 1.5
v -6 8 0.5
v -6 8 -0.5
v -6 8 -1.5
v -6 11 1.5
v -6 11 -1.5
v -5 4 0.5
v -5 4 -0.5
v -5 5 1.5
v -5 5 0.5
v -5 5 -0.5
v -5 5 -1.5
v -5 6 0.5
v -5 6 -0.5
v -5 8 1.5
v -5 8 0.5
v -5 8 -0.5
v -5 8 -1.5
v -4 3 1.5
v -4 3 0.5
v -4 4 0.5
v -4 5 2.5
v -4 5 1.5
v -4 5 0.5
v -4 5 -1.5
v -4 5 -2.5
v -4 10 1.5
v -4 10 -1.5
v -4 10 -2.5
v -4 11 2.5
v -4 11 1.5
v -3 0 2.5
v -3 0 -2.5
v -3 1 2.5
v -3 1 1.5
v -3 1 -1.5
v -3 1 -2.5
v -3 2 1.5
v -3 2 0.5
v -3 2 -0.5
v -3 2 -1.5
v -3 3 1.5
v -3 3 0.5
v -3 3 -0.5
v -3 3 -1.5
v -3 4 2.5
v -3 4 1.5
v -3 4 0.5
v -3 4 -0.5
v -3 4 -1.5
v -3 4 -2.5
v -3 5 2.5
v -3 5 1.5
v -3 5 -0.5
v -3 5 -2.5
v -3 7 1.5
v -3 7 0.5
v -3 7 -0.5
v -3 8 1.5
v -3 8 0.5
v -3 8 -0.5
v -3 11 1.5
v -3 11 -0.5
v -3 12 1.5
v -3 12 -0.5
v -2 2 0.5
v -2 2 -0.5
v -2 3 0.5
v -2 3 -0.5
v -2 11 2.5
v -2 11 1.5
v -2 11 -0.5
v -2 11 -1.5
v -2 12 2.5
v -2 12 1.5
v -2 12 -0.5
v -2 12 -1.5
v -2 12 -2.5
v -2 13 1.5
v -2 13 -2.5
v -1 7 1.5
v -1 7 0.5
v -1 9 1.5
v -1 9 0.5
v 1 2 2.5
v 1 2 1.5
v 1 2 -1.5
v 1 2 -2.5
v 1 3 2.5
v 1 3 1.5
v 1 3 -1.5
v 1 3 -2.5
v 1 6 2.5
v 1 6 0.5
v 1 7 2.5
v 1 7 1.5
v 1 7 0.5
v 1 9 2.5
v 1 9 1.5
v 1 9 0.5
v 1 10 2.5
v 1 10 0.5
v 1 11 2.5
v 1 11 0.5
v 1 11 -1.5
v 1 12 2.5
v 1 12 1.5
v 1 12 -1.5
v 1 12 -2.5
v 1 13 1.5
v 1 13 -2.5
v 2 0 1.5
v 2 0 -1.5
v 2 1 1.5
v 2 1 -1.5
v 2 7 2.5
v 2 7 0.5
v 2 9 2.5
v 2 9 0.5
v 4 7 1.5
v 4 7 -0.5
v 4 8 1.5
v 4 8 -0.5
v -4 7 1.5
v -4 7 -0.5
v -4 8 1.5
v -4 8 -0.5
v -2 0 1.5
v -2 0 -1.5
v -2 1 1.5
v -2 1 -1.5
v -2 7 2.5
v -2 7 0.5
v -2 9 2.5
v -2 9 0.5
v -1 2 2.5
v -1 2 1.5
v -1 2 -1.5
v -1 2 -2.5
v -1 3 2.5
v -1 3 1.5
v -1 3 -1.5
v -1 3 -2.5
v -1 6 2.5
v -1 6 0.5
v -1 7 2.5
v -1 7 1.5
v -1 7 0.5
v -1 9 2.5
v -1 9 1.5
v -1 9 0.5
v -1 10 2.5
v -1 10 0.5
v -1 11 2.5
v -1 11 0.5
v -1 11 -1.5
v -1 12 2.5
v -1 12 1.5
v -1 12 -1.5
v -1 12 -2.5
v -1 13 1.5
v -1 13 -2.5
v 1 7 1.5
v 1 7 0.5
v 1 9 1.5
v 1 9 0.5
v 2 2 0.5
v 2 2 -0.5
v 2 3 0.5
v 2 3 -0.5
v 2 11 2.5
v 2 11 1.5
v 2 11 -0.5
v 2 11 -1.5
v 2 12 2.5
v 2 12 1.5
v 2 12 -0.5
v 2 12 -1.5
v 2 12 -2.5
v 2 13 1.5
v 2 13 -2.5
v 3 0 2.5
v 3 0 -2.5
v 3 1 2.5
v 3 1 1.5
v 3 1 -1.5
v 3 1 -2.5
v 3 2 1.5
v 3 2 0.5
v 3 2 -0.5
v 3 2 -1.5
v 3 3 1.5
v 3 3 0.5
v 3 3 -0.5
v 3 3 -1.5
v 3 4 2.5
v 3 4 1.5
v 3 4 0.5
v 3 4 -0.5
v 3 4 -1.5
v 3 4 -2.5
v 3 5 2.5
v 3 5 1.5
v 3 5 -0.5
v 3 5 -2.5
v 3 7 1.5
v 3 7 0.5
v 3 7 -0.5
v 3 8 1.5
v 3 8 0.5
v 3 8 -0.5
v 3 11 1.5
v 3 11 -0.5
v 3 12 1.5
v 3 12 -0.5
v 4 3 1.5
v 4 3 0.5
v 4 4 0.5
v 4 5 2.5
v 4 5 1.5
v 4 5 0.5
v 4 5 -1.5
v 4 5 -2.5
v 4 10 1.5
v 4 10 -1.5
v 4 10 -2.5
v 4 11 2.5
v 4 11 1.5
v 5 4 0.5
v 5 4 -0.5
v 5 5 1.5
v 5 5 0.5
v 5 5 -0.5
v 5 5 -1.5
v 5 6 0.5
v 5 6 -0.5
v 5 8 1.5
v 5 8 0.5
v 5 8 -0.5
v 5 8 -1.5
v 6 6 0.5
v 6 6 -0.5
v 6 8 1.5
v 6 8 0.5
v 6 8 -0.5
v 6 8 -1.5
v 6 11 1.5
v 6 11 -1.5
v -4 5 2.5
v -4 11 2.5
v -3 0 2.5
v -3 1 2.5
v -3 4 2.5
v -3 5 2.5
v -3 6 2.5
v -3 10 2.5
v -2 1 2.5
v -2 2 2.5
v -2 3 2.5
v -2 4 2.5
v -2 5 2.5
v -2 6 2.5
v -2 7 2.5
v -2 9 2.5
v -2 10 2.5
v -2 11 2.5
v -2 12 2.5
v -1 2 2.5
v -1 3 2.5
v -1 6 2.5
v -1 7 2.5
v -1 9 2.5
v -1 10 2.5
v -1 11 2.5
v -1 12 2.5
v 1 2 2.5
v 1 3 2.5
v 1 6 2.5
v 1 7 2.5
v 1 9 2.5
v 1 10 2.5
v 1 11 2.5
v 1 12 2.5
v 2 1 2.5
v 2 2 2.5
v 2 3 2.5
v 2 4 2.5
v 2 5 2.5
v 2 6 2.5
v 2 7 2.5
v 2 9 2.5
v 2 10 2.5
v 2 11 2.5
v 2 12 2.5
v 3 0 2.5
v 3 1 2.5
v 3 4 2.5
v 3 5 2.5
v 3 6 2.5
v 3 10 2.5
v 4 5 2.5
v 4 11 2.5
v -6 8 1.5
v -6 11 1.5
v -5 5 1.5
v -5 8 1.5
v -5 10 1.5
v -4 3 1.5
v -4 5 1.5
v -4 10 1.5
v -4 11 1.5
v -3 3 1.5
v -3 4 1.5
v -3 5 1.5
v -3 11 1.5
v -3 12 1.5
v -2 11 1.5
v -2 12 1.5
v -2 13 1.5
v -1 2 1.5
v -1 3 1.5
v -1 7 1.5
v -1 9 1.5
v -1 12 1.5
v -1 13 1.5
v 1 2 1.5
v 1 3 1.5
v 1 7 1.5
v 1 9 1.5
v 1 12 1.5
v 1 13 1.5
v 2 11 1.5
v 2 12 1.5
v 2 13 1.5
v 3 3 1.5
v 3 4 1.5
v 3 5 1.5
v 3 11 1.5
v 3 12 1.5
v 4 3 1.5
v 4 5 1.5
v 4 10 1.5
v 4 11 1.5
v 5 5 1.5
v 5 8 1.5
v 5 10 1.5
v 6 8 1.5
v 6 11 1.5
v -6 6 0.5
v -6 8 0.5
v -5 4 0.5
v -5 5 0.5
v -5 6 0.5
v -5 8 0.5
v -4 4 0.5
v -4 5 0.5
v -2 7 0.5
v -2 9 0.5
v -1 6 0.5
v -1 7 0.5
v -1 9 0.5
v -1 10 0.5
v 1 6 0.5
v 1 7 0.5
v 1 9 0.5
v 1 10 0.5
v 2 7 0.5
v 2 9 0.5
v 4 4 0.5
v 4 5 0.5
v 5 4 0.5
v 5 5 0.5
v 5 6 0.5
v 5 8 0.5
v 6 6 0.5
v 6 8 0.5
v -4 7 -0.5
v -4 8 -0.5
v -3 2 -0.5
v -3 3 -0.5
v -3 7 -0.5
v -3 8 -0.5
v -2 2 -0.5
v -2 3 -0.5
v 2 2 -0.5
v 2 3 -0.5
v 3 2 -0.5
v 3 3 -0.5
v 3 7 -0.5
v 3 8 -0.5
v 4 7 -0.5
v 4 8 -0.5
v -2 0 -1.5
v -2 1 -1.5
v 2 0 -1.5
v 2 1 -1.5
v -4 7 1.5
v -4 8 1.5
v -3 7 1.5
v -3 8 1.5
v -2 0 1.5
v -2 1 1.5
v 2 0 1.5
v 2 1 1.5
v 3 7 1.5
v 3 8 1.5
v 4 7 1.5
v 4 8 1.5
v -4 3 0.5
v -4 4 0.5
v -3 2 0.5
v -3 3 0.5
v -3 4 0.5
v -2 2 0.5
v -2 3 0.5
v 2 2 0.5
v 2 3 0.5
v 3 2 0.5
v 3 3 0.5
v 3 4 0.5
v 4 3 0.5
v 4 4 0.5
v -6 6 -0.5
v -6 8 -0.5
v -5 4 -0.5
v -5 5 -0.5
v -5 6 -0.5
v -5 8 -0.5
v -3 4 -0.5
v -3 5 -0.5
v -3 11 -0.5
v -3 12 -0.5
v -2 11 -0.5
v -2 12 -0.5
v 2 11 -0.5
v 2 12 -0.5
v 3 4 -0.5
v 3 5 -0.5
v 3 11 -0.5
v 3 12 -0.5
v 5 4 -0.5
v 5 5 -0.5
v 5 6 -0.5
v 5 8 -0.5
v 6 6 -0.5
v 6 8 -0.5
v -6 8 -1.5
v -6 11 -1.5
v -5 5 -1.5
v -5 8 -1.5
v -5 10 -1.5
v -4 5 -1.5
v -4 10 -1.5
v -4 11 -1.5
v -2 11 -1.5
v -2 12 -1.5
v -1 2 -1.5
v -1 3 -1.5
v -1 11 -1.5
v -1 12 -1.5
v 1 2 -1.5
v 1 3 -1.5
v 1 11 -1.5
v 1 12 -1.5
v 2 11 -1.5
v 2 12 -1.5
v 4 5 -1.5
v 4 10 -1.5
v 4 11 -1.5
v 5 5 -1.5
v 5 8 -1.5
v 5 10 -1.5
v 6 8 -1.5
v 6 11 -1.5
v -4 5 -2.5
v -4 10 -2.5
v -3 0 -2.5
v -3 1 -2.5
v -3 4 -2.5
v -3 5 -2.5
v -2 1 -2.5
v -2 2 -2.5
v -2 3 -2.5
v -2 4 -2.5
v -2 12 -2.5
v -2 13 -2.5
v -1 2 -2.5
v -1 3 -2.5
v -1 12 -2.5
v -1 13 -2.5
v 1 2 -2.5
v 1 3 -2.5
v 1 12 -2.5
v 1 13 -2.5
v 2 1 -2.5
v 2 2 -2.5
v 2 3 -2.5
v 2 4 -2.5
v 2 12 -2.5
v 2 13 -2.5
v 3 0 -2.5
v 3 1 -2.5
v 3 4 -2.5
v 3 5 -2.5
v 4 5 -2.5
v 4 10 -2.5
v -3 0 2.5
v 3 0 2.5
v -2 0 1.5
v 2 0 1.5
v -2 0 -1.5
v 2 0 -1.5
v -3 0 -2.5
v 3 0 -2.5
v -2 1 1.5
v 2 1 1.5
v -2 1 -1.5
v 2 1 -1.5
v -1 3 2.5
v 1 3 2.5
v -4 3 1.5
v -3 3 1.5
v -1 3 1.5
v 1 3 1.5
v 3 3 1.5
v 4 3 1.5
v -4 3 0.5
v -3 3 0.5
v -2 3 0.5
v 2 3 0.5
v 3 3 0.5
v 4 3 0.5
v -3 3 -0.5
v -2 3 -0.5
v 2 3 -0.5
v 3 3 -0.5
v -1 3 -1.5
v 1 3 -1.5
v -1 3 -2.5
v 1 3 -2.5
v -5 4 0.5
v -4 4 0.5
v -3 4 0.5
v 3 4 0.5
v 4 4 0.5
v 5 4 0.5
v -5 4 -0.5
v -3 4 -0.5
v 3 4 -0.5
v 5 4 -0.5
v -4 5 2.5
v -3 5 2.5
v 3 5 2.5
v 4 5 2.5
v -5 5 1.5
v -4 5 1.5
v -3 5 1.5
v 3 5 1.5
v 4 5 1.5
v 5 5 1.5
v -5 5 0.5
v -4 5 0.5
v 4 5 0.5
v 5 5 0.5
v -5 5 -0.5
v -3 5 -0.5
v 3 5 -0.5
v 5 5 -0.5
v -5 5 -1.5
v -4 5 -1.5
v 4 5 -1.5
v 5 5 -1.5
v -4 5 -2.5
v -3 5 -2.5
v 3 5 -2.5
v 4 5 -2.5
v -6 6 0.5
v -5 6 0.5
v 5 6 0.5
v 6 6 0.5
v -6 6 -0.5
v -5 6 -0.5
v 5 6 -0.5
v 6 6 -0.5
v -1 7 1.5
v 1 7 1.5
v -1 7 0.5
v 1 7 0.5
v -6 8 1.5
v -5 8 1.5
v -4 8 1.5
v -3 8 1.5
v 3 8 1.5
v 4 8 1.5
v 5 8 1.5
v 6 8 1.5
v -6 8 0.5
v -5 8 0.5
v -3 8 0.5
v 3 8 0.5
v 5 8 0.5
v 6 8 0.5
v -6 8 -0.5
v -5 8 -0.5
v -4 8 -0.5
v -3 8 -0.5
v 3 8 -0.5
v 4 8 -0.5
v 5 8 -0.5
v 6 8 -0.5
v -6 8 -1.5
v -5 8 -1.5
v 5 8 -1.5
v 6 8 -1.5
v -2 9 2.5
v -1 9 2.5
v 1 9 2.5
v 2 9 2.5
v -1 9 1.5
v 1 9 1.5
v -2 9 0.5
v -1 9 0.5
v 1 9 0.5
v 2 9 0.5
v -1 10 2.5
v 1 10 2.5
v -1 10 0.5
v 1 10 0.5
v -2 12 -1.5
v -1 12 -1.5
v 1 12 -1.5
v 2 12 -1.5
v -2 12 -2.5
v -1 12 -2.5
v 1 12 -2.5
v 2 12 -2.5
v -1 2 2.5
v 1 2 2.5
v -1 2 1.5
v 1 2 1.5
v -3 2 0.5
v -2 2 0.5
v 2 2 0.5
v 3 2 0.5
v -3 2 -0.5
v -2 2 -0.5
v 2 2 -0.5
v 3 2 -0.5
v -1 2 -1.5
v 1 2 -1.5
v -1 2 -2.5
v 1 2 -2.5
v -1 6 2.5
v 1 6 2.5
v -1 6 0.5
v 1 6 0.5
v -2 7 2.5
v -1 7 2.5
v 1 7 2.5
v 2 7 2.5
v -4 7 1.5
v -3 7 1.5
v -1 7 1.5
v 1 7 1.5
v 3 7 1.5
v 4 7 1.5
v -3 7 0.5
v -2 7 0.5
v -1 7 0.5
v 1 7 0.5
v 2 7 0.5
v 3 7 0.5
v -4 7 -0.5
v -3 7 -0.5
v 3 7 -0.5
v 4 7 -0.5
v -1 9 1.5
v 1 9 1.5
v -1 9 0.5
v 1 9 0.5
v -4 10 -1.5
v 4 10 -1.5
v -4 10 -2.5
v 4 10 -2.5
v -4 11 2.5
v -2 11 2.5
v -1 11 2.5
v 1 11 2.5
v 2 11 2.5
v 4 11 2.5
v -6 11 1.5
v -4 11 1.5
v -3 11 1.5
v -2 11 1.5
v 2 11 1.5
v 3 11 1.5
v 4 11 1.5
v 6 11 1.5
v -1 11 0.5
v 1 11 0.5
v -3 11 -0.5
v -2 11 -0.5
v 2 11 -0.5
v 3 11 -0.5
v -6 11 -1.5
v -4 11 -1.5
v -2 11 -1.5
v -1 11 -1.5
v 1 11 -1.5
v 2 11 -1.5
v 4 11 -1.5
v 6 11 -1.5
v -2 12 2.5
v -1 12 2.5
v 1 12 2.5
v 2 12 2.5
v -3 12 1.5
v -2 12 1.5
v -1 12 1.5
v 1 12 1.5
v 2 12 1.5
v 3 12 1.5
v -3 12 -0.5
v -2 12 -0.5
v 2 12 -0.5
v 3 12 -0.5
v -2 13 1.5
v -1 13 1.5
v 1 13 1.5
v 2 13 1.5
v -2 13 -2.5
v -1 13 -2.5
v 1 13 -2.5
v 2 13 -2.5

# faces
f 4/5/1 2/5/1 1/5/1
f 5/5/1 2/5/1 4/5/1
f 7/5/1 4/5/1 3/5/1
f 7/5/1 6/5/1 5/5/1
f 7/5/1 5/5/1 4/5/1
f 8/5/1 6/5/1 7/5/1
f 12/4/1 10/4/1 9/4/1
f 13/4/1 10/4/1 12/4/1
f 15/4/1 12/4/1 11/4/1
f 15/4/1 14/4/1 13/4/1
f 15/4/1 13/4/1 12/4/1
f 16/4/1 14/4/1 15/4/1
f 17/4/1 15/4/1 11/4/1
f 18/4/1 15/4/1 17/4/1
f 19/4/1 14/4/1 16/4/1
f 20/4/1 14/4/1 19/4/1
f 23/4/1 22/4/1 21/4/1
f 25/4/1 23/4/1 21/4/1
f 26/4/1 23/4/1 25/4/1
f 29/4/1 25/4/1 24/4/1
f 30/4/1 28/4/1 27/4/1
f 31/4/1 28/4/1 30/4/1
f 32/4/1 29/4/1 24/4/1
f 33/4/1 29/4/1 32/4/1
f 36/5/1 35/5/1 34/5/1
f 37/5/1 35/5/1 36/5/1
f 38/5/1 35/5/1 37/5/1
f 39/5/1 35/5/1 38/5/1
f 40/6/1 37/6/1 36/6/1
f 40/5/1 38/5/1 37/5/1
f 41/5/1 38/5/1 40/5/1
f 42/5/1 38/5/1 41/5/1
f 43/6/1 39/6/1 38/6/1
f 43/5/1 38/5/1 42/5/1
f 44/6/1 40/6/1 36/6/1
f 44/6/1 41/6/1 40/6/1
f 45/6/1 41/6/1 44/6/1
f 46/6/1 43/6/1 42/6/1
f 47/6/1 39/6/1 43/6/1
f 47/6/1 43/6/1 46/6/1
f 48/6/1 44/6/1 36/6/1
f 49/6/1 44/6/1 48/6/1
f 50/4/1 46/4/1 45/4/1
f 50/4/1 47/4/1 46/4/1
f 51/4/1 47/4/1 50/4/1
f 52/6/1 39/6/1 47/6/1
f 52/4/1 47/4/1 51/4/1
f 53/6/1 39/6/1 52/6/1
f 54/4/1 49/4/1 48/4/1
f 55/4/1 49/4/1 54/4/1
f 56/4/1 53/4/1 52/4/1
f 56/4/1 52/4/1 51/4/1
f 57/4/1 53/4/1 56/4/1
f 61/5/1 59/5/1 58/5/1
f 62/2/1 60/2/1 59/2/1
f 62/5/1 59/5/1 61/5/1
f 63/2/1 60/2/1 62/2/1
f 66/5/1 65/5/1 64/5/1
f 67/5/1 65/5/1 66/5/1
f 70/4/1 69/4/1 68/4/1
f 71/4/1 69/4/1 70/4/1
f 76/5/1 73/5/1 72/5/1
f 77/5/1 73/5/1 76/5/1
f 78/5/1 75/5/1 74/5/1
f 79/5/1 75/5/1 78/5/1
f 81/5/1 80/5/1 79/5/1
f 81/5/1 79/5/1 78/5/1
f 81/5/1 78/5/1 77/5/1
f 82/5/1 80/5/1 81/5/1
f 85/3/1 84/3/1 83/3/1
f 86/3/1 84/3/1 85/3/1
f 91/6/1 88/6/1 87/6/1
f 92/6/1 88/6/1 91/6/1
f 93/6/1 90/6/1 89/6/1
f 94/6/1 90/6/1 93/6/1
f 97/5/1 96/5/1 95/5/1
f 98/5/1 96/5/1 97/5/1
f 99/5/1 96/5/1 98/5/1
f 103/5/1 101/5/1 100/5/1
f 103/5/1 102/5/1 101/5/1
f 104/5/1 102/5/1 103/5/1
f 108/5/1 106/5/1 105/5/1
f 108/5/1 107/5/1 106/5/1
f 109/5/1 107/5/1 108/5/1
f 110/5/1 107/5/1 109/5/1
f 112/5/1 111/5/1 110/5/1
f 112/5/1 110/5/1 109/5/1
f 113/5/1 111/5/1 112/5/1
f 116/5/1 115/5/1 114/5/1
f 117/5/1 115/5/1 116/5/1
f 120/5/1 119/5/1 118/5/1
f 121/5/1 119/5/1 120/5/1
f 124/4/1 123/4/1 122/4/1
f 125/4/1 123/4/1 124/4/1
f 126/4/2 127/4/2 128/4/2
f 128/4/2 127/4/2 129/4/2
f 130/5/2 131/5/2 132/5/2
f 132/5/2 131/5/2 133/5/2
f 134/5/2 135/5/2 136/5/2
f 136/5/2 135/5/2 137/5/2
f 138/6/2 139/6/2 142/6/2
f 142/6/2 139/6/2 143/6/2
f 140/6/2 141/6/2 144/6/2
f 144/6/2 141/6/2 145/6/2
f 146/5/2 147/5/2 148/5/2
f 148/5/2 147/5/2 149/5/2
f 149/5/2 147/5/2 150/5/2
f 151/5/2 152/5/2 154/5/2
f 152/5/2 153/5/2 154/5/2
f 154/5/2 153/5/2 155/5/2
f 156/5/2 157/5/2 159/5/2
f 157/5/2 158/5/2 159/5/2
f 159/5/2 158/5/2 160/5/2
f 160/5/2 158/5/2 161/5/2
f 161/5/2 162/5/2 163/5/2
f 160/5/2 161/5/2 163/5/2
f 163/5/2 162/5/2 164/5/2
f 165/3/2 166/3/2 167/3/2
f 167/3/2 166/3/2 168/3/2
f 169/4/2 170/4/2 171/4/2
f 171/4/2 170/4/2 172/4/2
f 173/5/2 174/5/2 177/5/2
f 177/5/2 174/5/2 178/5/2
f 175/5/2 176/5/2 179/5/2
f 179/5/2 176/5/2 180/5/2
f 180/5/2 181/5/2 182/5/2
f 179/5/2 180/5/2 182/5/2
f 178/5/2 179/5/2 182/5/2
f 182/5/2 181/5/2 183/5/2
f 184/5/2 185/5/2 186/5/2
f 186/5/2 185/5/2 187/5/2
f 187/5/2 185/5/2 188/5/2
f 188/5/2 185/5/2 189/5/2
f 186/6/2 187/6/2 190/6/2
f 187/5/2 188/5/2 190/5/2
f 190/5/2 188/5/2 191/5/2
f 191/5/2 188/5/2 192/5/2
f 188/6/2 189/6/2 193/6/2
f 192/5/2 188/5/2 193/5/2
f 186/6/2 190/6/2 194/6/2
f 190/6/2 191/6/2 194/6/2
f 194/6/2 191/6/2 195/6/2
f 192/6/2 193/6/2 196/6/2
f 193/6/2 189/6/2 197/6/2
f 196/6/2 193/6/2 197/6/2
f 186/6/2 194/6/2 198/6/2
f 198/6/2 194/6/2 199/6/2
f 195/4/2 196/4/2 200/4/2
f 196/4/2 197/4/2 200/4/2
f 200/4/2 197/4/2 201/4/2
f 197/6/2 189/6/2 202/6/2
f 201/4/2 197/4/2 202/4/2
f 202/6/2 189/6/2 203/6/2
f 198/4/2 199/4/2 204/4/2
f 204/4/2 199/4/2 205/4/2
f 202/4/2 203/4/2 206/4/2
f 201/4/2 202/4/2 206/4/2
f 206/4/2 203/4/2 207/4/2
f 208/5/2 209/5/2 211/5/2
f 209/2/2 210/2/2 212/2/2
f 211/5/2 209/5/2 212/5/2
f 212/2/2 210/2/2 213/2/2
f 214/5/2 215/5/2 216/5/2
f 216/5/2 215/5/2 217/5/2
f 218/4/2 219/4/2 220/4/2
f 218/4/2 220/4/2 222/4/2
f 222/4/2 220/4/2 223/4/2
f 221/4/2 222/4/2 226/4/2
f 224/4/2 225/4/2 227/4/2
f 227/4/2 225/4/2 228/4/2
f 221/4/2 226/4/2 229/4/2
f 229/4/2 226/4/2 230/4/2
f 231/4/2 232/4/2 234/4/2
f 234/4/2 232/4/2 235/4/2
f 233/4/2 234/4/2 237/4/2
f 235/4/2 236/4/2 237/4/2
f 234/4/2 235/4/2 237/4/2
f 237/4/2 236/4/2 238/4/2
f 233/4/2 237/4/2 239/4/2
f 239/4/2 237/4/2 240/4/2
f 238/4/2 236/4/2 241/4/2
f 241/4/2 236/4/2 242/4/2
f 243/5/2 244/5/2 246/5/2
f 246/5/2 244/5/2 247/5/2
f 245/5/2 246/5/2 249/5/2
f 247/5/2 248/5/2 249/5/2
f 246/5/2 247/5/2 249/5/2
f 249/5/2 248/5/2 250/5/2
f 256/4/3 252/4/3 251/4/3
f 257/4/3 252/4/3 256/4/3
f 258/4/3 252/4/3 257/4/3
f 259/6/3 255/6/3 254/6/3
f 259/5/3 254/5/3 253/5/3
f 260/6/3 255/6/3 259/6/3
f 261/6/3 255/6/3 260/6/3
f 262/4/3 256/4/3 255/4/3
f 262/6/3 255/6/3 261/6/3
f 262/4/3 257/4/3 256/4/3
f 263/4/3 257/4/3 262/4/3
f 264/5/3 258/5/3 257/5/3
f 264/4/3 257/4/3 263/4/3
f 265/5/3 258/5/3 264/5/3
f 266/5/3 258/5/3 265/5/3
f 267/4/3 252/4/3 258/4/3
f 267/5/3 258/5/3 266/5/3
f 268/4/3 252/4/3 267/4/3
f 270/6/3 261/6/3 260/6/3
f 270/5/3 260/5/3 259/5/3
f 271/4/3 263/4/3 262/4/3
f 271/6/3 261/6/3 270/6/3
f 271/4/3 262/4/3 261/4/3
f 272/5/3 265/5/3 264/5/3
f 272/5/3 264/5/3 263/5/3
f 273/5/3 265/5/3 272/5/3
f 274/5/3 269/5/3 268/5/3
f 274/5/3 268/5/3 267/5/3
f 274/5/3 267/5/3 266/5/3
f 275/5/3 269/5/3 274/5/3
f 276/5/3 269/5/3 275/5/3
f 277/5/3 269/5/3 276/5/3
f 278/5/3 270/5/3 259/5/3
f 279/4/3 263/4/3 271/4/3
f 280/5/3 272/5/3 263/5/3
f 283/5/3 276/5/3 275/5/3
f 284/5/3 276/5/3 283/5/3
f 286/5/3 259/5/3 253/5/3
f 286/5/3 278/5/3 259/5/3
f 287/6/3 279/6/3 278/6/3
f 287/5/3 278/5/3 286/5/3
f 288/4/3 263/4/3 279/4/3
f 288/6/3 279/6/3 287/6/3
f 289/4/3 263/4/3 288/4/3
f 290/5/3 281/5/3 280/5/3
f 290/4/3 263/4/3 289/4/3
f 290/5/3 280/5/3 263/5/3
f 291/5/3 281/5/3 290/5/3
f 292/5/3 281/5/3 291/5/3
f 293/5/3 285/5/3 284/5/3
f 293/5/3 284/5/3 283/5/3
f 293/5/3 283/5/3 282/5/3
f 294/5/3 285/5/3 293/5/3
f 295/5/3 285/5/3 294/5/3
f 296/5/3 285/5/3 295/5/3
f 297/5/3 286/5/3 253/5/3
f 298/6/3 289/6/3 288/6/3
f 298/5/3 286/5/3 297/5/3
f 298/6/3 287/6/3 286/6/3
f 298/6/3 288/6/3 287/6/3
f 299/4/3 291/4/3 290/4/3
f 299/6/3 289/6/3 298/6/3
f 299/4/3 290/4/3 289/4/3
f 300/4/3 291/4/3 299/4/3
f 301/5/3 292/5/3 291/5/3
f 301/4/3 291/4/3 300/4/3
f 301/5/3 294/5/3 293/5/3
f 301/5/3 293/5/3 292/5/3
f 302/4/3 295/4/3 294/4/3
f 302/5/3 294/5/3 301/5/3
f 303/4/3 302/4/3 301/4/3
f 303/4/3 301/4/3 300/4/3
f 304/4/3 295/4/3 302/4/3
f 304/4/3 302/4/3 303/4/3
f 308/5/3 306/5/3 305/5/3
f 309/5/3 306/5/3 308/5/3
f 311/4/3 308/4/3 307/4/3
f 311/4/3 309/4/3 308/4/3
f 312/5/3 306/5/3 309/5/3
f 312/4/3 309/4/3 311/4/3
f 313/5/3 306/5/3 312/5/3
f 314/4/3 311/4/3 310/4/3
f 315/4/3 311/4/3 314/4/3
f 316/4/3 311/4/3 315/4/3
f 319/5/3 318/5/3 317/5/3
f 320/5/3 318/5/3 319/5/3
f 326/5/3 321/5/3 320/5/3
f 327/5/3 321/5/3 326/5/3
f 328/4/3 323/4/3 322/4/3
f 329/4/3 323/4/3 328/4/3
f 330/3/3 325/3/3 324/3/3
f 331/3/3 325/3/3 330/3/3
f 335/5/3 333/5/3 332/5/3
f 336/5/3 333/5/3 335/5/3
f 340/5/3 335/5/3 334/5/3
f 341/5/3 335/5/3 340/5/3
f 342/4/3 339/4/3 338/4/3
f 342/4/3 338/4/3 337/4/3
f 343/4/3 339/4/3 342/4/3
f 346/4/3 344/4/3 343/4/3
f 347/4/3 344/4/3 346/4/3
f 348/5/3 345/5/3 344/5/3
f 348/4/3 344/4/3 347/4/3
f 349/5/3 348/5/3 347/5/3
f 350/5/3 345/5/3 348/5/3
f 350/5/3 348/5/3 349/5/3
f 355/5/3 352/5/3 351/5/3
f 356/5/3 352/5/3 355/5/3
f 357/4/3 354/4/3 353/4/3
f 358/4/3 354/4/3 357/4/3
f 362/3/3 360/3/3 359/3/3
f 363/3/3 360/3/3 362/3/3
f 365/3/3 362/3/3 361/3/3
f 366/3/3 362/3/3 365/3/3
f 367/3/3 364/3/3 363/3/3
f 368/3/3 364/3/3 367/3/3
f 369/3/3 367/3/3 366/3/3
f 370/3/3 367/3/3 369/3/3
f 373/4/3 372/4/3 371/4/3
f 374/4/3 372/4/3 373/4/3
f 377/5/3 376/5/3 375/5/3
f 378/5/3 376/5/3 377/5/3
f 383/5/3 380/5/3 379/5/3
f 384/5/3 380/5/3 383/5/3
f 385/6/3 382/6/3 381/6/3
f 386/6/3 382/6/3 385/6/3
f 389/6/3 388/6/3 387/6/3
f 390/6/3 388/6/3 389/6/3
f 393/5/3 392/5/3 391/5/3
f 394/5/3 392/5/3 393/5/3
f 397/5/3 396/5/3 395/5/3
f 398/5/3 396/5/3 397/5/3
f 399/4/4 400/4/4 401/4/4
f 401/4/4 400/4/4 402/4/4
f 403/5/4 404/5/4 405/5/4
f 405/5/4 404/5/4 406/5/4
f 407/4/4 408/4/4 409/4/4
f 409/4/4 408/4/4 410/4/4
f 411/4/4 412/4/4 414/4/4
f 414/4/4 412/4/4 415/4/4
f 413/6/4 414/6/4 416/6/4
f 416/6/4 414/6/4 417/6/4
f 418/6/4 419/6/4 420/6/4
f 420/6/4 419/6/4 421/6/4
f 421/4/4 422/4/4 423/4/4
f 423/4/4 422/4/4 424/4/4
f 425/5/4 426/5/4 429/5/4
f 429/5/4 426/5/4 430/5/4
f 427/4/4 428/4/4 431/4/4
f 431/4/4 428/4/4 432/4/4
f 433/5/4 434/5/4 435/5/4
f 435/5/4 434/5/4 436/5/4
f 437/5/4 438/5/4 441/5/4
f 441/5/4 438/5/4 442/5/4
f 439/4/4 440/4/4 443/4/4
f 443/4/4 440/4/4 444/4/4
f 445/5/4 446/5/4 447/5/4
f 447/5/4 446/5/4 448/5/4
f 449/5/4 450/5/4 452/5/4
f 452/5/4 450/5/4 453/5/4
f 451/4/4 452/4/4 454/4/4
f 452/4/4 453/4/4 454/4/4
f 453/5/4 450/5/4 455/5/4
f 454/4/4 453/4/4 455/4/4
f 455/5/4 450/5/4 456/5/4
f 455/4/4 456/4/4 457/4/4
f 455/4/4 457/4/4 461/4/4
f 457/5/4 458/5/4 461/5/4
f 461/5/4 458/5/4 462/5/4
f 459/4/4 460/4/4 463/4/4
f 463/4/4 460/4/4 464/4/4
f 455/4/4 461/4/4 465/4/4
f 465/5/4 466/5/4 467/5/4
f 455/4/4 465/4/4 467/4/4
f 467/5/4 466/5/4 468/5/4
f 455/4/4 467/4/4 470/4/4
f 470/4/4 467/4/4 471/4/4
f 469/4/4 470/4/4 472/4/4
f 472/4/4 470/4/4 473/4/4
f 470/5/4 471/5/4 474/5/4
f 473/4/4 470/4/4 474/4/4
f 473/5/4 474/5/4 475/5/4
f 474/5/4 471/5/4 476/5/4
f 475/5/4 474/5/4 476/5/4
f 477/4/4 478/4/4 482/4/4
f 480/6/4 481/6/4 483/6/4
f 479/5/4 480/5/4 483/5/4
f 483/6/4 481/6/4 484/6/4
f 484/6/4 481/6/4 485/6/4
f 481/4/4 482/4/4 486/4/4
f 485/6/4 481/6/4 486/6/4
f 484/6/4 485/6/4 489/6/4
f 483/5/4 484/5/4 489/5/4
f 485/4/4 486/4/4 490/4/4
f 489/6/4 485/6/4 490/6/4
f 487/5/4 488/5/4 491/5/4
f 491/5/4 488/5/4 492/5/4
f 483/5/4 489/5/4 493/5/4
f 490/4/4 486/4/4 494/4/4
f 483/5/4 493/5/4 497/5/4
f 479/5/4 483/5/4 497/5/4
f 493/6/4 494/6/4 498/6/4
f 497/5/4 493/5/4 498/5/4
f 494/4/4 486/4/4 499/4/4
f 498/6/4 494/6/4 499/6/4
f 486/4/4 482/4/4 500/4/4
f 499/4/4 486/4/4 500/4/4
f 495/5/4 496/5/4 501/5/4
f 501/5/4 496/5/4 502/5/4
f 479/5/4 497/5/4 503/5/4
f 498/6/4 499/6/4 504/6/4
f 503/5/4 497/5/4 504/5/4
f 497/6/4 498/6/4 504/6/4
f 499/6/4 500/6/4 504/6/4
f 500/4/4 482/4/4 505/4/4
f 504/6/4 500/6/4 505/6/4
f 482/4/4 478/4/4 506/4/4
f 505/4/4 482/4/4 506/4/4
f 506/4/4 478/4/4 507/4/4
f 507/4/4 478/4/4 508/4/4
f 511/5/5 510/5/5 509/5/5
f 512/5/5 510/5/5 511/5/5
f 513/5/5 511/5/5 509/5/5
f 514/5/5 510/5/5 512/5/5
f 515/5/5 513/5/5 509/5/5
f 515/5/5 514/5/5 513/5/5
f 516/5/5 510/5/5 514/5/5
f 516/5/5 514/5/5 515/5/5
f 519/3/5 518/3/5 517/3/5
f 520/3/5 518/3/5 519/3/5
f 525/4/5 522/4/5 521/4/5
f 526/4/5 522/4/5 525/4/5
f 529/4/5 524/4/5 523/4/5
f 530/4/5 524/4/5 529/4/5
f 533/4/5 528/4/5 527/4/5
f 534/4/5 528/4/5 533/4/5
f 535/4/5 531/4/5 530/4/5
f 536/4/5 531/4/5 535/4/5
f 537/4/5 533/4/5 532/4/5
f 538/4/5 533/4/5 537/4/5
f 541/4/5 540/4/5 539/4/5
f 542/4/5 540/4/5 541/4/5
f 549/4/5 544/4/5 543/4/5
f 549/4/5 545/4/5 544/4/5
f 550/4/5 545/4/5 549/4/5
f 551/4/5 548/4/5 547/4/5
f 551/4/5 547/4/5 546/4/5
f 552/4/5 548/4/5 551/4/5
f 558/4/5 554/4/5 553/4/5
f 559/4/5 554/4/5 558/4/5
f 560/4/5 556/4/5 555/4/5
f 561/4/5 556/4/5 560/4/5
f 563/4/5 558/4/5 557/4/5
f 564/4/5 558/4/5 563/4/5
f 565/4/5 562/4/5 561/4/5
f 566/4/5 562/4/5 565/4/5
f 571/4/5 568/4/5 567/4/5
f 572/4/5 568/4/5 571/4/5
f 573/4/5 570/4/5 569/4/5
f 574/4/5 570/4/5 573/4/5
f 575/4/5 568/4/5 572/4/5
f 576/4/5 568/4/5 575/4/5
f 577/4/5 573/4/5 569/4/5
f 578/4/5 573/4/5 577/4/5
f 583/5/5 580/5/5 579/5/5
f 584/5/5 580/5/5 583/5/5
f 585/5/5 582/5/5 581/5/5
f 586/5/5 582/5/5 585/5/5
f 589/3/5 588/3/5 587/3/5
f 590/3/5 588/3/5 589/3/5
f 599/5/5 592/5/5 591/5/5
f 600/5/5 592/5/5 599/5/5
f 601/4/5 594/4/5 593/4/5
f 602/4/5 596/4/5 595/4/5
f 603/5/5 598/5/5 597/5/5
f 604/5/5 598/5/5 603/5/5
f 607/4/5 601/4/5 593/4/5
f 608/4/5 601/4/5 607/4/5
f 609/4/5 596/4/5 602/4/5
f 610/4/5 596/4/5 609/4/5
f 613/5/5 606/5/5 605/5/5
f 614/5/5 606/5/5 613/5/5
f 615/5/5 612/5/5 611/5/5
f 616/5/5 612/5/5 615/5/5
f 621/5/5 618/5/5 617/5/5
f 622/5/5 620/5/5 619/5/5
f 623/5/5 621/5/5 617/5/5
f 624/5/5 621/5/5 623/5/5
f 625/5/5 620/5/5 622/5/5
f 626/5/5 620/5/5 625/5/5
f 629/5/5 628/5/5 627/5/5
f 630/5/5 628/5/5 629/5/5
f 635/5/5 632/5/5 631/5/5
f 636/5/5 632/5/5 635/5/5
f 637/5/5 634/5/5 633/5/5
f 638/5/5 634/5/5 637/5/5
f 639/5/6 640/5/6 641/5/6
f 641/5/6 640/5/6 642/5/6
f 643/5/6 644/5/6 647/5/6
f 647/5/6 644/5/6 648/5/6
f 645/5/6 646/5/6 649/5/6
f 649/5/6 646/5/6 650/5/6
f 651/5/6 652/5/6 653/5/6
f 653/5/6 652/5/6 654/5/6
f 655/5/6 656/5/6 657/5/6
f 657/5/6 656/5/6 658/5/6
f 659/5/6 660/5/6 665/5/6
f 661/5/6 662/5/6 666/5/6
f 663/4/6 664/4/6 669/4/6
f 659/5/6 665/5/6 670/5/6
f 670/5/6 665/5/6 671/5/6
f 666/5/6 662/5/6 672/5/6
f 672/5/6 662/5/6 673/5/6
f 667/4/6 668/4/6 674/4/6
f 663/4/6 669/4/6 675/4/6
f 675/4/6 669/4/6 676/4/6
f 674/4/6 668/4/6 677/4/6
f 677/4/6 668/4/6 678/4/6
f 679/3/6 680/3/6 681/3/6
f 681/3/6 680/3/6 682/3/6
f 683/4/6 684/4/6 685/4/6
f 685/4/6 684/4/6 686/4/6
f 687/4/6 688/4/6 694/4/6
f 694/4/6 688/4/6 695/4/6
f 695/4/6 688/4/6 696/4/6
f 691/4/6 692/4/6 697/4/6
f 697/4/6 692/4/6 698/4/6
f 698/4/6 692/4/6 699/4/6
f 689/5/6 690/5/6 701/5/6
f 701/5/6 690/5/6 702/5/6
f 694/4/6 695/4/6 703/4/6
f 698/4/6 699/4/6 706/4/6
f 693/5/6 694/5/6 707/5/6
f 694/4/6 703/4/6 708/4/6
f 707/5/6 694/5/6 708/5/6
f 703/4/6 704/4/6 708/4/6
f 708/4/6 704/4/6 709/4/6
f 701/4/6 702/4/6 710/4/6
f 710/4/6 702/4/6 711/4/6
f 705/4/6 706/4/6 712/4/6
f 699/5/6 700/5/6 713/5/6
f 712/4/6 706/4/6 713/4/6
f 706/4/6 699/4/6 713/4/6
f 713/5/6 700/5/6 714/5/6
f 715/5/6 716/5/6 720/5/6
f 720/5/6 716/5/6 721/5/6
f 717/5/6 718/5/6 722/5/6
f 722/5/6 718/5/6 723/5/6
f 719/5/6 720/5/6 725/5/6
f 725/5/6 720/5/6 726/5/6
f 723/5/6 724/5/6 727/5/6
f 727/5/6 724/5/6 728/5/6
f 729/5/6 730/5/6 733/5/6
f 733/5/6 730/5/6 734/5/6
f 731/5/6 732/5/6 735/5/6
f 735/5/6 732/5/6 736/5/6
