# MagicaVoxel @ Ephtracy

# group
g CyberBrute-1

# material
mtllib CyberBrute-1.mtl
usemtl palette

# normals
vn -1 0 0
vn 1 0 0
vn 0 0 1
vn 0 0 -1
vn 0 -1 0
vn 0 1 0

# texcoords
vt 0.880859 0.5
vt 0.908203 0.5
vt 0.939453 0.5
vt 0.970703 0.5
vt 0.974609 0.5
vt 0.978516 0.5
vt 0.982422 0.5

# verts
v -6 1 1.5
v -6 1 -1.5
v -6 4 1.5
v -6 4 -1.5
v -1 0 0.5
v -1 0 -0.5
v -1 1 0.5
v -1 1 -0.5
v -1 2 2.5
v -1 2 1.5
v -1 2 -1.5
v -1 2 -2.5
v -1 3 2.5
v -1 3 1.5
v -1 3 -1.5
v -1 3 -2.5
v -1 4 0.5
v -1 4 -0.5
v -1 5 0.5
v -1 5 -0.5
v 0 0 1.5
v 0 0 0.5
v 0 0 -0.5
v 0 0 -1.5
v 0 1 2.5
v 0 1 1.5
v 0 1 0.5
v 0 1 -0.5
v 0 1 -1.5
v 0 1 -2.5
v 0 2 2.5
v 0 2 1.5
v 0 2 -1.5
v 0 2 -2.5
v 0 3 2.5
v 0 3 1.5
v 0 3 -1.5
v 0 3 -2.5
v 0 4 2.5
v 0 4 1.5
v 0 4 0.5
v 0 4 -0.5
v 0 4 -1.5
v 0 4 -2.5
v 0 5 1.5
v 0 5 0.5
v 0 5 -0.5
v 0 5 -1.5
v 4 0 0.5
v 4 0 -0.5
v 4 1 1.5
v 4 1 0.5
v 4 1 -0.5
v 4 1 -1.5
v 4 2 2.5
v 4 2 1.5
v 4 2 -1.5
v 4 2 -2.5
v 4 3 2.5
v 4 3 1.5
v 4 3 -1.5
v 4 3 -2.5
v 4 4 1.5
v 4 4 0.5
v 4 4 -0.5
v 4 4 -1.5
v 4 5 0.5
v 4 5 -0.5
v 6 0 1.5
v 6 0 0.5
v 6 0 -0.5
v 6 0 -1.5
v 6 1 2.5
v 6 1 1.5
v 6 1 0.5
v 6 1 -0.5
v 6 1 -1.5
v 6 1 -2.5
v 6 2 2.5
v 6 2 1.5
v 6 2 -1.5
v 6 2 -2.5
v 6 3 2.5
v 6 3 1.5
v 6 3 -1.5
v 6 3 -2.5
v 6 4 2.5
v 6 4 1.5
v 6 4 0.5
v 6 4 -0.5
v 6 4 -1.5
v 6 4 -2.5
v 6 5 1.5
v 6 5 0.5
v 6 5 -0.5
v 6 5 -1.5
v -1 2 2.5
v -1 3 2.5
v 0 1 2.5
v 0 2 2.5
v 0 3 2.5
v 0 4 2.5
v 1 1 2.5
v 1 2 2.5
v 1 3 2.5
v 1 4 2.5
v 2 1 2.5
v 2 2 2.5
v 2 3 2.5
v 2 4 2.5
v 4 2 2.5
v 4 3 2.5
v 6 1 2.5
v 6 2 2.5
v 6 3 2.5
v 6 4 2.5
v -6 1 1.5
v -6 4 1.5
v -5 1 1.5
v -5 4 1.5
v -3 2 1.5
v -3 3 1.5
v -2 1 1.5
v -2 2 1.5
v -2 3 1.5
v -2 4 1.5
v -1 1 1.5
v -1 2 1.5
v -1 3 1.5
v -1 4 1.5
v 0 0 1.5
v 0 1 1.5
v 0 2 1.5
v 0 3 1.5
v 0 4 1.5
v 0 5 1.5
v 1 0 1.5
v 1 1 1.5
v 1 4 1.5
v 1 5 1.5
v 2 0 1.5
v 2 1 1.5
v 2 4 1.5
v 2 5 1.5
v 6 0 1.5
v 6 1 1.5
v 6 4 1.5
v 6 5 1.5
v -1 0 0.5
v -1 1 0.5
v -1 4 0.5
v -1 5 0.5
v 0 0 0.5
v 0 1 0.5
v 0 4 0.5
v 0 5 0.5
v 4 0 -0.5
v 4 1 -0.5
v 4 4 -0.5
v 4 5 -0.5
v 6 0 -0.5
v 6 1 -0.5
v 6 4 -0.5
v 6 5 -0.5
v 4 1 -1.5
v 4 2 -1.5
v 4 3 -1.5
v 4 4 -1.5
v 6 1 -1.5
v 6 2 -1.5
v 6 3 -1.5
v 6 4 -1.5
v 4 1 1.5
v 4 2 1.5
v 4 3 1.5
v 4 4 1.5
v 6 1 1.5
v 6 2 1.5
v 6 3 1.5
v 6 4 1.5
v 4 0 0.5
v 4 1 0.5
v 4 4 0.5
v 4 5 0.5
v 6 0 0.5
v 6 1 0.5
v 6 4 0.5
v 6 5 0.5
v -1 0 -0.5
v -1 1 -0.5
v -1 4 -0.5
v -1 5 -0.5
v 0 0 -0.5
v 0 1 -0.5
v 0 4 -0.5
v 0 5 -0.5
v -6 1 -1.5
v -6 4 -1.5
v -5 1 -1.5
v -5 4 -1.5
v -3 2 -1.5
v -3 3 -1.5
v -2 1 -1.5
v -2 2 -1.5
v -2 3 -1.5
v -2 4 -1.5
v -1 1 -1.5
v -1 2 -1.5
v -1 3 -1.5
v -1 4 -1.5
v 0 0 -1.5
v 0 1 -1.5
v 0 2 -1.5
v 0 3 -1.5
v 0 4 -1.5
v 0 5 -1.5
v 1 0 -1.5
v 1 1 -1.5
v 1 4 -1.5
v 1 5 -1.5
v 2 0 -1.5
v 2 1 -1.5
v 2 4 -1.5
v 2 5 -1.5
v 6 0 -1.5
v 6 1 -1.5
v 6 4 -1.5
v 6 5 -1.5
v -1 2 -2.5
v -1 3 -2.5
v 0 1 -2.5
v 0 2 -2.5
v 0 3 -2.5
v 0 4 -2.5
v 1 1 -2.5
v 1 2 -2.5
v 1 3 -2.5
v 1 4 -2.5
v 2 1 -2.5
v 2 2 -2.5
v 2 3 -2.5
v 2 4 -2.5
v 4 2 -2.5
v 4 3 -2.5
v 6 1 -2.5
v 6 2 -2.5
v 6 3 -2.5
v 6 4 -2.5
v 0 0 1.5
v 1 0 1.5
v 2 0 1.5
v 6 0 1.5
v -1 0 0.5
v 0 0 0.5
v 1 0 0.5
v 2 0 0.5
v 4 0 0.5
v 6 0 0.5
v -1 0 -0.5
v 0 0 -0.5
v 1 0 -0.5
v 2 0 -0.5
v 4 0 -0.5
v 6 0 -0.5
v 0 0 -1.5
v 1 0 -1.5
v 2 0 -1.5
v 6 0 -1.5
v 0 1 2.5
v 1 1 2.5
v 2 1 2.5
v 6 1 2.5
v -6 1 1.5
v -5 1 1.5
v -2 1 1.5
v -1 1 1.5
v 0 1 1.5
v 1 1 1.5
v 2 1 1.5
v 6 1 1.5
v -3 1 0.5
v -2 1 0.5
v -1 1 0.5
v 0 1 0.5
v -3 1 -0.5
v -2 1 -0.5
v -1 1 -0.5
v 0 1 -0.5
v -6 1 -1.5
v -5 1 -1.5
v -2 1 -1.5
v -1 1 -1.5
v 0 1 -1.5
v 1 1 -1.5
v 2 1 -1.5
v 6 1 -1.5
v 0 1 -2.5
v 1 1 -2.5
v 2 1 -2.5
v 6 1 -2.5
v -1 2 2.5
v 0 2 2.5
v -1 2 1.5
v 0 2 1.5
v -1 2 -1.5
v 0 2 -1.5
v -1 2 -2.5
v 0 2 -2.5
v 4 3 2.5
v 6 3 2.5
v 4 3 1.5
v 6 3 1.5
v 4 3 -1.5
v 6 3 -1.5
v 4 3 -2.5
v 6 3 -2.5
v 4 4 1.5
v 6 4 1.5
v 4 4 0.5
v 6 4 0.5
v 4 4 -0.5
v 6 4 -0.5
v 4 4 -1.5
v 6 4 -1.5
v 4 1 1.5
v 6 1 1.5
v 4 1 0.5
v 6 1 0.5
v 4 1 -0.5
v 6 1 -0.5
v 4 1 -1.5
v 6 1 -1.5
v 4 2 2.5
v 6 2 2.5
v 4 2 1.5
v 6 2 1.5
v 4 2 -1.5
v 6 2 -1.5
v 4 2 -2.5
v 6 2 -2.5
v -1 3 2.5
v 0 3 2.5
v -1 3 1.5
v 0 3 1.5
v -1 3 -1.5
v 0 3 -1.5
v -1 3 -2.5
v 0 3 -2.5
v 0 4 2.5
v 1 4 2.5
v 2 4 2.5
v 6 4 2.5
v -6 4 1.5
v -5 4 1.5
v -2 4 1.5
v -1 4 1.5
v 0 4 1.5
v 1 4 1.5
v 2 4 1.5
v 6 4 1.5
v -3 4 0.5
v -2 4 0.5
v -1 4 0.5
v 0 4 0.5
v -3 4 -0.5
v -2 4 -0.5
v -1 4 -0.5
v 0 4 -0.5
v -6 4 -1.5
v -5 4 -1.5
v -2 4 -1.5
v -1 4 -1.5
v 0 4 -1.5
v 1 4 -1.5
v 2 4 -1.5
v 6 4 -1.5
v 0 4 -2.5
v 1 4 -2.5
v 2 4 -2.5
v 6 4 -2.5
v 0 5 1.5
v 1 5 1.5
v 2 5 1.5
v 6 5 1.5
v -1 5 0.5
v 0 5 0.5
v 1 5 0.5
v 2 5 0.5
v 4 5 0.5
v 6 5 0.5
v -1 5 -0.5
v 0 5 -0.5
v 1 5 -0.5
v 2 5 -0.5
v 4 5 -0.5
v 6 5 -0.5
v 0 5 -1.5
v 1 5 -1.5
v 2 5 -1.5
v 6 5 -1.5

# faces
f 3/5/1 2/5/1 1/5/1
f 4/5/1 2/5/1 3/5/1
f 7/7/1 6/7/1 5/7/1
f 8/7/1 6/7/1 7/7/1
f 13/7/1 10/7/1 9/7/1
f 14/7/1 10/7/1 13/7/1
f 15/7/1 12/7/1 11/7/1
f 16/7/1 12/7/1 15/7/1
f 19/7/1 18/7/1 17/7/1
f 20/7/1 18/7/1 19/7/1
f 26/7/1 22/7/1 21/7/1
f 27/7/1 22/7/1 26/7/1
f 28/7/1 24/7/1 23/7/1
f 29/7/1 24/7/1 28/7/1
f 31/7/1 26/7/1 25/7/1
f 32/7/1 26/7/1 31/7/1
f 33/7/1 30/7/1 29/7/1
f 34/7/1 30/7/1 33/7/1
f 39/7/1 36/7/1 35/7/1
f 40/7/1 36/7/1 39/7/1
f 43/7/1 38/7/1 37/7/1
f 44/7/1 38/7/1 43/7/1
f 45/7/1 41/7/1 40/7/1
f 46/7/1 41/7/1 45/7/1
f 47/7/1 43/7/1 42/7/1
f 48/7/1 43/7/1 47/7/1
f 49/5/2 50/5/2 52/5/2
f 52/5/2 50/5/2 53/5/2
f 51/3/2 52/3/2 56/3/2
f 53/3/2 54/3/2 56/3/2
f 52/3/2 53/3/2 56/3/2
f 56/3/2 54/3/2 57/3/2
f 55/5/2 56/5/2 59/5/2
f 56/3/2 57/3/2 60/3/2
f 59/5/2 56/5/2 60/5/2
f 57/5/2 58/5/2 61/5/2
f 60/3/2 57/3/2 61/3/2
f 61/5/2 58/5/2 62/5/2
f 60/3/2 61/3/2 63/3/2
f 63/3/2 61/3/2 64/3/2
f 64/3/2 61/3/2 65/3/2
f 65/3/2 61/3/2 66/3/2
f 64/5/2 65/5/2 67/5/2
f 67/5/2 65/5/2 68/5/2
f 69/5/2 70/5/2 74/5/2
f 74/5/2 70/5/2 75/5/2
f 71/5/2 72/5/2 76/5/2
f 76/5/2 72/5/2 77/5/2
f 73/5/2 74/5/2 79/5/2
f 79/5/2 74/5/2 80/5/2
f 77/5/2 78/5/2 81/5/2
f 81/5/2 78/5/2 82/5/2
f 83/5/2 84/5/2 87/5/2
f 87/5/2 84/5/2 88/5/2
f 85/5/2 86/5/2 91/5/2
f 91/5/2 86/5/2 92/5/2
f 88/5/2 89/5/2 93/5/2
f 93/5/2 89/5/2 94/5/2
f 90/5/2 91/5/2 95/5/2
f 95/5/2 91/5/2 96/5/2
f 100/7/3 98/7/3 97/7/3
f 101/7/3 98/7/3 100/7/3
f 103/7/3 100/7/3 99/7/3
f 103/7/3 102/7/3 101/7/3
f 103/7/3 101/7/3 100/7/3
f 104/7/3 102/7/3 103/7/3
f 105/7/3 102/7/3 104/7/3
f 106/7/3 102/7/3 105/7/3
f 107/1/3 104/1/3 103/1/3
f 108/5/3 105/5/3 104/5/3
f 108/1/3 104/1/3 107/1/3
f 109/1/3 106/1/3 105/1/3
f 109/5/3 105/5/3 108/5/3
f 110/1/3 106/1/3 109/1/3
f 111/5/3 108/5/3 107/5/3
f 111/5/3 109/5/3 108/5/3
f 111/5/3 110/5/3 109/5/3
f 112/5/3 110/5/3 111/5/3
f 113/5/3 111/5/3 107/5/3
f 114/5/3 111/5/3 113/5/3
f 115/5/3 110/5/3 112/5/3
f 116/5/3 110/5/3 115/5/3
f 119/5/3 118/5/3 117/5/3
f 120/5/3 118/5/3 119/5/3
f 121/4/3 120/4/3 119/4/3
f 122/4/3 120/4/3 121/4/3
f 123/4/3 121/4/3 119/4/3
f 124/5/3 122/5/3 121/5/3
f 124/4/3 121/4/3 123/4/3
f 125/4/3 120/4/3 122/4/3
f 125/5/3 122/5/3 124/5/3
f 126/4/3 120/4/3 125/4/3
f 127/5/3 124/5/3 123/5/3
f 128/6/3 125/6/3 124/6/3
f 128/5/3 124/5/3 127/5/3
f 129/5/3 126/5/3 125/5/3
f 129/6/3 125/6/3 128/6/3
f 130/5/3 126/5/3 129/5/3
f 132/6/3 128/6/3 127/6/3
f 133/6/3 128/6/3 132/6/3
f 134/6/3 130/6/3 129/6/3
f 135/6/3 130/6/3 134/6/3
f 137/7/3 132/7/3 131/7/3
f 138/7/3 132/7/3 137/7/3
f 139/7/3 136/7/3 135/7/3
f 140/7/3 136/7/3 139/7/3
f 141/1/3 138/1/3 137/1/3
f 142/1/3 138/1/3 141/1/3
f 143/1/3 140/1/3 139/1/3
f 144/1/3 140/1/3 143/1/3
f 145/5/3 142/5/3 141/5/3
f 146/5/3 142/5/3 145/5/3
f 147/5/3 144/5/3 143/5/3
f 148/5/3 144/5/3 147/5/3
f 153/7/3 150/7/3 149/7/3
f 154/7/3 150/7/3 153/7/3
f 155/7/3 152/7/3 151/7/3
f 156/7/3 152/7/3 155/7/3
f 161/5/3 158/5/3 157/5/3
f 162/5/3 158/5/3 161/5/3
f 163/5/3 160/5/3 159/5/3
f 164/5/3 160/5/3 163/5/3
f 169/5/3 166/5/3 165/5/3
f 170/5/3 166/5/3 169/5/3
f 171/5/3 168/5/3 167/5/3
f 172/5/3 168/5/3 171/5/3
f 173/5/4 174/5/4 177/5/4
f 177/5/4 174/5/4 178/5/4
f 175/5/4 176/5/4 179/5/4
f 179/5/4 176/5/4 180/5/4
f 181/5/4 182/5/4 185/5/4
f 185/5/4 182/5/4 186/5/4
f 183/5/4 184/5/4 187/5/4
f 187/5/4 184/5/4 188/5/4
f 189/7/4 190/7/4 193/7/4
f 193/7/4 190/7/4 194/7/4
f 191/7/4 192/7/4 195/7/4
f 195/7/4 192/7/4 196/7/4
f 197/5/4 198/5/4 199/5/4
f 199/5/4 198/5/4 200/5/4
f 199/4/4 200/4/4 201/4/4
f 201/4/4 200/4/4 202/4/4
f 199/4/4 201/4/4 203/4/4
f 201/5/4 202/5/4 204/5/4
f 203/4/4 201/4/4 204/4/4
f 202/4/4 200/4/4 205/4/4
f 204/5/4 202/5/4 205/5/4
f 205/4/4 200/4/4 206/4/4
f 203/5/4 204/5/4 207/5/4
f 204/6/4 205/6/4 208/6/4
f 207/5/4 204/5/4 208/5/4
f 205/5/4 206/5/4 209/5/4
f 208/6/4 205/6/4 209/6/4
f 209/5/4 206/5/4 210/5/4
f 207/6/4 208/6/4 212/6/4
f 212/6/4 208/6/4 213/6/4
f 209/6/4 210/6/4 214/6/4
f 214/6/4 210/6/4 215/6/4
f 211/7/4 212/7/4 217/7/4
f 217/7/4 212/7/4 218/7/4
f 215/7/4 216/7/4 219/7/4
f 219/7/4 216/7/4 220/7/4
f 217/1/4 218/1/4 221/1/4
f 221/1/4 218/1/4 222/1/4
f 219/1/4 220/1/4 223/1/4
f 223/1/4 220/1/4 224/1/4
f 221/5/4 222/5/4 225/5/4
f 225/5/4 222/5/4 226/5/4
f 223/5/4 224/5/4 227/5/4
f 227/5/4 224/5/4 228/5/4
f 229/7/4 230/7/4 232/7/4
f 232/7/4 230/7/4 233/7/4
f 231/7/4 232/7/4 235/7/4
f 233/7/4 234/7/4 235/7/4
f 232/7/4 233/7/4 235/7/4
f 235/7/4 234/7/4 236/7/4
f 236/7/4 234/7/4 237/7/4
f 237/7/4 234/7/4 238/7/4
f 235/1/4 236/1/4 239/1/4
f 236/5/4 237/5/4 240/5/4
f 239/1/4 236/1/4 240/1/4
f 237/1/4 238/1/4 241/1/4
f 240/5/4 237/5/4 241/5/4
f 241/1/4 238/1/4 242/1/4
f 239/5/4 240/5/4 243/5/4
f 240/5/4 241/5/4 243/5/4
f 241/5/4 242/5/4 243/5/4
f 243/5/4 242/5/4 244/5/4
f 239/5/4 243/5/4 245/5/4
f 245/5/4 243/5/4 246/5/4
f 244/5/4 242/5/4 247/5/4
f 247/5/4 242/5/4 248/5/4
f 254/7/5 250/7/5 249/7/5
f 255/1/5 251/1/5 250/1/5
f 255/7/5 250/7/5 254/7/5
f 256/5/5 252/5/5 251/5/5
f 256/1/5 251/1/5 255/1/5
f 257/5/5 252/5/5 256/5/5
f 258/5/5 252/5/5 257/5/5
f 259/7/5 255/7/5 254/7/5
f 259/7/5 254/7/5 253/7/5
f 260/7/5 255/7/5 259/7/5
f 261/5/5 257/5/5 256/5/5
f 261/7/5 255/7/5 260/7/5
f 261/5/5 256/5/5 255/5/5
f 262/5/5 257/5/5 261/5/5
f 263/5/5 257/5/5 262/5/5
f 265/7/5 261/7/5 260/7/5
f 266/1/5 262/1/5 261/1/5
f 266/7/5 261/7/5 265/7/5
f 267/5/5 264/5/5 263/5/5
f 267/1/5 262/1/5 266/1/5
f 267/5/5 263/5/5 262/5/5
f 268/5/5 264/5/5 267/5/5
f 277/7/5 270/7/5 269/7/5
f 278/1/5 271/1/5 270/1/5
f 278/7/5 270/7/5 277/7/5
f 279/5/5 272/5/5 271/5/5
f 279/1/5 271/1/5 278/1/5
f 280/5/5 272/5/5 279/5/5
f 281/4/5 275/4/5 274/4/5
f 282/5/5 276/5/5 275/5/5
f 282/4/5 275/4/5 281/4/5
f 283/6/5 277/6/5 276/6/5
f 283/5/5 276/5/5 282/5/5
f 284/6/5 277/6/5 283/6/5
f 285/4/5 281/4/5 274/4/5
f 285/5/5 282/5/5 281/5/5
f 286/6/5 283/6/5 282/6/5
f 286/5/5 282/5/5 285/5/5
f 287/6/5 283/6/5 286/6/5
f 289/5/5 274/5/5 273/5/5
f 290/4/5 285/4/5 274/4/5
f 290/5/5 274/5/5 289/5/5
f 290/4/5 286/4/5 285/4/5
f 291/5/5 287/5/5 286/5/5
f 291/4/5 286/4/5 290/4/5
f 292/6/5 288/6/5 287/6/5
f 292/5/5 287/5/5 291/5/5
f 293/6/5 288/6/5 292/6/5
f 297/7/5 294/7/5 293/7/5
f 298/1/5 295/1/5 294/1/5
f 298/7/5 294/7/5 297/7/5
f 299/5/5 296/5/5 295/5/5
f 299/1/5 295/1/5 298/1/5
f 300/5/5 296/5/5 299/5/5
f 303/7/5 302/7/5 301/7/5
f 304/7/5 302/7/5 303/7/5
f 307/7/5 306/7/5 305/7/5
f 308/7/5 306/7/5 307/7/5
f 311/5/5 310/5/5 309/5/5
f 312/5/5 310/5/5 311/5/5
f 315/5/5 314/5/5 313/5/5
f 316/5/5 314/5/5 315/5/5
f 319/5/5 318/5/5 317/5/5
f 320/5/5 318/5/5 319/5/5
f 323/5/5 322/5/5 321/5/5
f 324/5/5 322/5/5 323/5/5
f 325/5/6 326/5/6 327/5/6
f 327/5/6 326/5/6 328/5/6
f 329/5/6 330/5/6 331/5/6
f 331/5/6 330/5/6 332/5/6
f 333/5/6 334/5/6 335/5/6
f 335/5/6 334/5/6 336/5/6
f 337/5/6 338/5/6 339/5/6
f 339/5/6 338/5/6 340/5/6
f 341/7/6 342/7/6 343/7/6
f 343/7/6 342/7/6 344/7/6
f 345/7/6 346/7/6 347/7/6
f 347/7/6 346/7/6 348/7/6
f 349/7/6 350/7/6 357/7/6
f 350/1/6 351/1/6 358/1/6
f 357/7/6 350/7/6 358/7/6
f 351/5/6 352/5/6 359/5/6
f 358/1/6 351/1/6 359/1/6
f 359/5/6 352/5/6 360/5/6
f 354/4/6 355/4/6 361/4/6
f 355/5/6 356/5/6 362/5/6
f 361/4/6 355/4/6 362/4/6
f 356/6/6 357/6/6 363/6/6
f 362/5/6 356/5/6 363/5/6
f 363/6/6 357/6/6 364/6/6
f 354/4/6 361/4/6 365/4/6
f 361/5/6 362/5/6 365/5/6
f 362/6/6 363/6/6 366/6/6
f 365/5/6 362/5/6 366/5/6
f 366/6/6 363/6/6 367/6/6
f 353/5/6 354/5/6 369/5/6
f 354/4/6 365/4/6 370/4/6
f 369/5/6 354/5/6 370/5/6
f 365/4/6 366/4/6 370/4/6
f 366/5/6 367/5/6 371/5/6
f 370/4/6 366/4/6 371/4/6
f 367/6/6 368/6/6 372/6/6
f 371/5/6 367/5/6 372/5/6
f 372/6/6 368/6/6 373/6/6
f 373/7/6 374/7/6 377/7/6
f 374/1/6 375/1/6 378/1/6
f 377/7/6 374/7/6 378/7/6
f 375/5/6 376/5/6 379/5/6
f 378/1/6 375/1/6 379/1/6
f 379/5/6 376/5/6 380/5/6
f 381/7/6 382/7/6 386/7/6
f 382/1/6 383/1/6 387/1/6
f 386/7/6 382/7/6 387/7/6
f 383/5/6 384/5/6 388/5/6
f 387/1/6 383/1/6 388/1/6
f 388/5/6 384/5/6 389/5/6
f 389/5/6 384/5/6 390/5/6
f 386/7/6 387/7/6 391/7/6
f 385/7/6 386/7/6 391/7/6
f 391/7/6 387/7/6 392/7/6
f 388/5/6 389/5/6 393/5/6
f 392/7/6 387/7/6 393/7/6
f 387/5/6 388/5/6 393/5/6
f 393/5/6 389/5/6 394/5/6
f 394/5/6 389/5/6 395/5/6
f 392/7/6 393/7/6 397/7/6
f 393/1/6 394/1/6 398/1/6
f 397/7/6 393/7/6 398/7/6
f 395/5/6 396/5/6 399/5/6
f 398/1/6 394/1/6 399/1/6
f 394/5/6 395/5/6 399/5/6
f 399/5/6 396/5/6 400/5/6
