# MagicaVoxel @ Ephtracy

# group
g ViewModel-12

# material
mtllib ViewModel-12.mtl
usemtl palette

# normals
vn -1 0 0
vn 1 0 0
vn 0 0 1
vn 0 0 -1
vn 0 -1 0
vn 0 1 0

# texcoords
vt 0.970703 0.5
vt 0.974609 0.5
vt 0.978516 0.5

# verts
v -1.5 0 2
v -1.5 0 -2
v -1.5 1 2
v -1.5 1 -2
v -1.5 3 -1
v -1.5 3 -2
v -1.5 4 -0
v -1.5 4 -1
v -1.5 5 1
v -1.5 5 -0
v -1.5 5 -1
v -1.5 5 -2
v -1.5 6 2
v -1.5 6 1
v -1.5 6 -0
v -1.5 6 -1
v -1.5 7 2
v -1.5 7 -0
v -1.5 7 -2
v 1.5 0 2
v 1.5 0 -2
v 1.5 1 2
v 1.5 1 -2
v 1.5 3 -1
v 1.5 3 -2
v 1.5 4 -0
v 1.5 4 -1
v 1.5 5 1
v 1.5 5 -0
v 1.5 5 -1
v 1.5 5 -2
v 1.5 6 2
v 1.5 6 1
v 1.5 6 -0
v 1.5 6 -1
v 1.5 7 2
v 1.5 7 -0
v 1.5 7 -2
v -1.5 0 2
v -1.5 1 2
v -1.5 6 2
v -1.5 7 2
v -0.5 6 2
v -0.5 7 2
v 0.5 6 2
v 0.5 7 2
v 1.5 0 2
v 1.5 1 2
v 1.5 6 2
v 1.5 7 2
v -1.5 0 -2
v -1.5 1 -2
v -1.5 3 -2
v -1.5 5 -2
v -1.5 7 -2
v -0.5 4 -2
v -0.5 5 -2
v 0.5 4 -2
v 0.5 5 -2
v 1.5 0 -2
v 1.5 1 -2
v 1.5 3 -2
v 1.5 5 -2
v 1.5 7 -2
v -1.5 0 2
v 1.5 0 2
v -0.5 0 1
v 0.5 0 1
v -0.5 0 -1
v 0.5 0 -1
v -1.5 0 -2
v 1.5 0 -2
v -1.5 7 2
v -0.5 7 2
v 0.5 7 2
v 1.5 7 2
v -0.5 7 1
v 0.5 7 1
v -1.5 7 -0
v -0.5 7 -0
v 0.5 7 -0
v 1.5 7 -0
v -1.5 7 -2
v 1.5 7 -2

# faces
f 3/3/1 2/3/1 1/3/1
f 4/3/1 2/3/1 3/3/1
f 5/1/1 4/1/1 3/1/1
f 6/1/1 4/1/1 5/1/1
f 7/1/1 5/1/1 3/1/1
f 8/3/1 6/3/1 5/3/1
f 8/1/1 5/1/1 7/1/1
f 9/1/1 7/1/1 3/1/1
f 10/3/1 8/3/1 7/3/1
f 10/1/1 7/1/1 9/1/1
f 11/3/1 6/3/1 8/3/1
f 11/3/1 8/3/1 10/3/1
f 12/3/1 6/3/1 11/3/1
f 13/1/1 9/1/1 3/1/1
f 14/3/1 10/3/1 9/3/1
f 14/1/1 9/1/1 13/1/1
f 14/3/1 11/3/1 10/3/1
f 15/3/1 11/3/1 14/3/1
f 16/2/1 12/2/1 11/2/1
f 16/3/1 11/3/1 15/3/1
f 17/3/1 15/3/1 14/3/1
f 17/3/1 14/3/1 13/3/1
f 18/2/1 16/2/1 15/2/1
f 18/3/1 15/3/1 17/3/1
f 19/2/1 12/2/1 16/2/1
f 19/2/1 16/2/1 18/2/1
f 20/3/2 21/3/2 22/3/2
f 22/3/2 21/3/2 23/3/2
f 22/1/2 23/1/2 24/1/2
f 24/1/2 23/1/2 25/1/2
f 22/1/2 24/1/2 26/1/2
f 24/3/2 25/3/2 27/3/2
f 26/1/2 24/1/2 27/1/2
f 22/1/2 26/1/2 28/1/2
f 26/3/2 27/3/2 29/3/2
f 28/1/2 26/1/2 29/1/2
f 27/3/2 25/3/2 30/3/2
f 29/3/2 27/3/2 30/3/2
f 30/3/2 25/3/2 31/3/2
f 22/1/2 28/1/2 32/1/2
f 28/3/2 29/3/2 33/3/2
f 32/1/2 28/1/2 33/1/2
f 29/3/2 30/3/2 33/3/2
f 33/3/2 30/3/2 34/3/2
f 30/2/2 31/2/2 35/2/2
f 34/3/2 30/3/2 35/3/2
f 33/3/2 34/3/2 36/3/2
f 32/3/2 33/3/2 36/3/2
f 34/2/2 35/2/2 37/2/2
f 36/3/2 34/3/2 37/3/2
f 35/2/2 31/2/2 38/2/2
f 37/2/2 35/2/2 38/2/2
f 43/1/3 41/1/3 40/1/3
f 43/3/3 42/3/3 41/3/3
f 44/3/3 42/3/3 43/3/3
f 45/1/3 43/1/3 40/1/3
f 45/1/3 44/1/3 43/1/3
f 46/1/3 44/1/3 45/1/3
f 47/3/3 40/3/3 39/3/3
f 48/1/3 45/1/3 40/1/3
f 48/3/3 40/3/3 47/3/3
f 49/3/3 46/3/3 45/3/3
f 49/1/3 45/1/3 48/1/3
f 50/3/3 46/3/3 49/3/3
f 53/3/4 54/3/4 56/3/4
f 54/2/4 55/2/4 57/2/4
f 56/3/4 54/3/4 57/3/4
f 53/3/4 56/3/4 58/3/4
f 56/2/4 57/2/4 58/2/4
f 57/2/4 55/2/4 59/2/4
f 58/2/4 57/2/4 59/2/4
f 51/3/4 52/3/4 60/3/4
f 52/1/4 53/1/4 61/1/4
f 60/3/4 52/3/4 61/3/4
f 53/3/4 58/3/4 62/3/4
f 61/1/4 53/1/4 62/1/4
f 58/3/4 59/3/4 62/3/4
f 59/2/4 55/2/4 63/2/4
f 62/3/4 59/3/4 63/3/4
f 63/2/4 55/2/4 64/2/4
f 67/3/5 66/3/5 65/3/5
f 68/3/5 66/3/5 67/3/5
f 69/3/5 67/3/5 65/3/5
f 69/2/5 68/2/5 67/2/5
f 70/3/5 66/3/5 68/3/5
f 70/2/5 68/2/5 69/2/5
f 71/3/5 69/3/5 65/3/5
f 71/3/5 70/3/5 69/3/5
f 72/3/5 66/3/5 70/3/5
f 72/3/5 70/3/5 71/3/5
f 73/3/6 74/3/6 77/3/6
f 74/1/6 75/1/6 77/1/6
f 75/3/6 76/3/6 78/3/6
f 77/1/6 75/1/6 78/1/6
f 73/3/6 77/3/6 79/3/6
f 77/2/6 78/2/6 80/2/6
f 79/3/6 77/3/6 80/3/6
f 78/3/6 76/3/6 81/3/6
f 80/2/6 78/2/6 81/2/6
f 81/3/6 76/3/6 82/3/6
f 79/2/6 80/2/6 83/2/6
f 80/2/6 81/2/6 83/2/6
f 81/2/6 82/2/6 83/2/6
f 83/2/6 82/2/6 84/2/6
