# MagicaVoxel @ Ephtracy

# group
g MachineGun-0

# material
mtllib MachineGun-0.mtl
usemtl palette

# normals
vn -1 0 0
vn 1 0 0
vn 0 0 1
vn 0 0 -1
vn 0 -1 0
vn 0 1 0

# texcoords
vt 0.939453 0.5
vt 0.970703 0.5
vt 0.974609 0.5

# verts
v -1.5 7 4.5
v -1.5 7 0.5
v -1.5 7 -1.5
v -1.5 7 -9.5
v -1.5 8 4.5
v -1.5 8 0.5
v -1.5 8 -1.5
v -1.5 8 -9.5
v -0.5 2 -3.5
v -0.5 2 -5.5
v -0.5 3 -2.5
v -0.5 3 -3.5
v -0.5 4 0.5
v -0.5 4 -2.5
v -0.5 4 -4.5
v -0.5 4 -5.5
v -0.5 5 -0.5
v -0.5 5 -2.5
v -0.5 5 -3.5
v -0.5 5 -4.5
v -0.5 5 -9.5
v -0.5 5 -10.5
v -0.5 6 11.5
v -0.5 6 4.5
v -0.5 6 0.5
v -0.5 6 -0.5
v -0.5 6 -2.5
v -0.5 6 -3.5
v -0.5 6 -4.5
v -0.5 6 -8.5
v -0.5 6 -9.5
v -0.5 6 -10.5
v -0.5 6 -11.5
v -0.5 7 4.5
v -0.5 7 0.5
v -0.5 7 -1.5
v -0.5 7 -4.5
v -0.5 7 -8.5
v -0.5 7 -9.5
v -0.5 8 11.5
v -0.5 8 4.5
v -0.5 8 0.5
v -0.5 8 -1.5
v -0.5 8 -3.5
v -0.5 8 -6.5
v -0.5 8 -9.5
v -0.5 9 4.5
v -0.5 9 3.5
v -0.5 9 -2.5
v -0.5 9 -3.5
v -0.5 9 -6.5
v -0.5 9 -11.5
v -0.5 10 4.5
v -0.5 10 3.5
v -0.5 10 -2.5
v -0.5 10 -3.5
v 0.5 7 0.5
v 0.5 7 -1.5
v 0.5 7 -4.5
v 0.5 7 -7.5
v 0.5 8 0.5
v 0.5 8 -1.5
v 0.5 8 -4.5
v 0.5 8 -6.5
v 0.5 8 -7.5
v -0.5 7 -4.5
v -0.5 7 -7.5
v -0.5 8 -4.5
v -0.5 8 -6.5
v -0.5 8 -7.5
v 0.5 2 -3.5
v 0.5 2 -5.5
v 0.5 3 -2.5
v 0.5 3 -3.5
v 0.5 4 0.5
v 0.5 4 -2.5
v 0.5 4 -4.5
v 0.5 4 -5.5
v 0.5 5 -0.5
v 0.5 5 -2.5
v 0.5 5 -3.5
v 0.5 5 -4.5
v 0.5 5 -9.5
v 0.5 5 -10.5
v 0.5 6 11.5
v 0.5 6 4.5
v 0.5 6 0.5
v 0.5 6 -0.5
v 0.5 6 -2.5
v 0.5 6 -3.5
v 0.5 6 -4.5
v 0.5 6 -8.5
v 0.5 6 -9.5
v 0.5 6 -10.5
v 0.5 6 -11.5
v 0.5 7 4.5
v 0.5 7 0.5
v 0.5 7 -4.5
v 0.5 7 -8.5
v 0.5 7 -9.5
v 0.5 8 11.5
v 0.5 8 4.5
v 0.5 8 -3.5
v 0.5 8 -6.5
v 0.5 8 -9.5
v 0.5 9 4.5
v 0.5 9 3.5
v 0.5 9 -2.5
v 0.5 9 -3.5
v 0.5 9 -6.5
v 0.5 9 -11.5
v 0.5 10 4.5
v 0.5 10 3.5
v 0.5 10 -2.5
v 0.5 10 -3.5
v 1.5 7 4.5
v 1.5 7 -9.5
v 1.5 8 4.5
v 1.5 8 -9.5
v -0.5 6 11.5
v -0.5 8 11.5
v 0.5 6 11.5
v 0.5 8 11.5
v -1.5 7 4.5
v -1.5 8 4.5
v -0.5 7 4.5
v -0.5 8 4.5
v -0.5 9 4.5
v -0.5 10 4.5
v 0.5 7 4.5
v 0.5 8 4.5
v 0.5 9 4.5
v 0.5 10 4.5
v 1.5 7 4.5
v 1.5 8 4.5
v -0.5 4 0.5
v -0.5 6 0.5
v 0.5 4 0.5
v 0.5 6 0.5
v -1.5 7 -1.5
v -1.5 8 -1.5
v -0.5 7 -1.5
v -0.5 8 -1.5
v 0.5 7 -1.5
v 0.5 8 -1.5
v -0.5 3 -2.5
v -0.5 4 -2.5
v -0.5 5 -2.5
v -0.5 6 -2.5
v -0.5 9 -2.5
v -0.5 10 -2.5
v 0.5 3 -2.5
v 0.5 4 -2.5
v 0.5 5 -2.5
v 0.5 6 -2.5
v 0.5 9 -2.5
v 0.5 10 -2.5
v -0.5 2 -3.5
v -0.5 3 -3.5
v 0.5 2 -3.5
v 0.5 3 -3.5
v -0.5 8 -6.5
v -0.5 9 -6.5
v 0.5 8 -6.5
v 0.5 9 -6.5
v -0.5 7 -7.5
v -0.5 8 -7.5
v 0.5 7 -7.5
v 0.5 8 -7.5
v -0.5 6 -8.5
v -0.5 7 -8.5
v 0.5 6 -8.5
v 0.5 7 -8.5
v -0.5 5 -9.5
v -0.5 6 -9.5
v 0.5 5 -9.5
v 0.5 6 -9.5
v -0.5 9 3.5
v -0.5 10 3.5
v 0.5 9 3.5
v 0.5 10 3.5
v -1.5 7 0.5
v -1.5 8 0.5
v -0.5 7 0.5
v -0.5 8 0.5
v 0.5 7 0.5
v 0.5 8 0.5
v -0.5 5 -0.5
v -0.5 6 -0.5
v 0.5 5 -0.5
v 0.5 6 -0.5
v -0.5 5 -3.5
v -0.5 6 -3.5
v -0.5 8 -3.5
v -0.5 9 -3.5
v -0.5 10 -3.5
v 0.5 5 -3.5
v 0.5 6 -3.5
v 0.5 8 -3.5
v 0.5 9 -3.5
v 0.5 10 -3.5
v -0.5 4 -4.5
v -0.5 5 -4.5
v -0.5 6 -4.5
v -0.5 7 -4.5
v -0.5 8 -4.5
v 0.5 4 -4.5
v 0.5 5 -4.5
v 0.5 6 -4.5
v 0.5 7 -4.5
v 0.5 8 -4.5
v -0.5 2 -5.5
v -0.5 4 -5.5
v 0.5 2 -5.5
v 0.5 4 -5.5
v -1.5 7 -9.5
v -1.5 8 -9.5
v -0.5 7 -9.5
v -0.5 8 -9.5
v 0.5 7 -9.5
v 0.5 8 -9.5
v 1.5 7 -9.5
v 1.5 8 -9.5
v -0.5 5 -10.5
v -0.5 6 -10.5
v 0.5 5 -10.5
v 0.5 6 -10.5
v -0.5 6 -11.5
v -0.5 9 -11.5
v 0.5 6 -11.5
v 0.5 9 -11.5
v -0.5 2 -3.5
v 0.5 2 -3.5
v -0.5 2 -5.5
v 0.5 2 -5.5
v -0.5 3 -2.5
v 0.5 3 -2.5
v -0.5 3 -3.5
v 0.5 3 -3.5
v -0.5 4 0.5
v 0.5 4 0.5
v -0.5 4 -2.5
v 0.5 4 -2.5
v -0.5 5 -9.5
v 0.5 5 -9.5
v -0.5 5 -10.5
v 0.5 5 -10.5
v -0.5 6 11.5
v 0.5 6 11.5
v -0.5 6 4.5
v 0.5 6 4.5
v -0.5 6 0.5
v 0.5 6 0.5
v -0.5 6 -0.5
v 0.5 6 -0.5
v -0.5 6 -2.5
v 0.5 6 -2.5
v -0.5 6 -3.5
v 0.5 6 -3.5
v -0.5 6 -4.5
v 0.5 6 -4.5
v -0.5 6 -8.5
v 0.5 6 -8.5
v -0.5 6 -9.5
v 0.5 6 -9.5
v -0.5 6 -10.5
v 0.5 6 -10.5
v -0.5 6 -11.5
v 0.5 6 -11.5
v -1.5 7 4.5
v -0.5 7 4.5
v 0.5 7 4.5
v 1.5 7 4.5
v -1.5 7 0.5
v -0.5 7 0.5
v 0.5 7 0.5
v -1.5 7 -1.5
v -0.5 7 -1.5
v -0.5 7 -4.5
v 0.5 7 -4.5
v -0.5 7 -7.5
v 0.5 7 -7.5
v -0.5 7 -8.5
v 0.5 7 -8.5
v -1.5 7 -9.5
v -0.5 7 -9.5
v 0.5 7 -9.5
v 1.5 7 -9.5
v -0.5 8 0.5
v 0.5 8 0.5
v -0.5 8 -1.5
v 0.5 8 -1.5
v -0.5 8 -6.5
v 0.5 8 -6.5
v -0.5 8 -7.5
v 0.5 8 -7.5
v -0.5 4 -4.5
v 0.5 4 -4.5
v -0.5 4 -5.5
v 0.5 4 -5.5
v -0.5 5 -0.5
v 0.5 5 -0.5
v -0.5 5 -2.5
v 0.5 5 -2.5
v -0.5 5 -3.5
v 0.5 5 -3.5
v -0.5 5 -4.5
v 0.5 5 -4.5
v -0.5 7 0.5
v 0.5 7 0.5
v -0.5 7 -1.5
v 0.5 7 -1.5
v -0.5 8 11.5
v 0.5 8 11.5
v -1.5 8 4.5
v -0.5 8 4.5
v 0.5 8 4.5
v 1.5 8 4.5
v -1.5 8 0.5
v -0.5 8 0.5
v -1.5 8 -1.5
v -0.5 8 -1.5
v -0.5 8 -3.5
v 0.5 8 -3.5
v -0.5 8 -4.5
v 0.5 8 -4.5
v -0.5 8 -6.5
v 0.5 8 -6.5
v -1.5 8 -9.5
v -0.5 8 -9.5
v 0.5 8 -9.5
v 1.5 8 -9.5
v -0.5 9 3.5
v 0.5 9 3.5
v -0.5 9 -2.5
v 0.5 9 -2.5
v -0.5 9 -6.5
v 0.5 9 -6.5
v -0.5 9 -11.5
v 0.5 9 -11.5
v -0.5 10 4.5
v 0.5 10 4.5
v -0.5 10 3.5
v 0.5 10 3.5
v -0.5 10 -2.5
v 0.5 10 -2.5
v -0.5 10 -3.5
v 0.5 10 -3.5

# faces
f 5/1/1 2/1/1 1/1/1
f 6/1/1 2/1/1 5/1/1
f 7/1/1 4/1/1 3/1/1
f 8/1/1 4/1/1 7/1/1
f 12/2/1 10/2/1 9/2/1
f 14/2/1 12/2/1 11/2/1
f 15/2/1 10/2/1 12/2/1
f 15/2/1 12/2/1 14/2/1
f 16/2/1 10/2/1 15/2/1
f 17/2/1 14/2/1 13/2/1
f 17/2/1 15/2/1 14/2/1
f 18/2/1 15/2/1 17/2/1
f 19/2/1 15/2/1 18/2/1
f 20/2/1 15/2/1 19/2/1
f 25/2/1 17/2/1 13/2/1
f 26/2/1 17/2/1 25/2/1
f 27/2/1 19/2/1 18/2/1
f 28/2/1 19/2/1 27/2/1
f 31/2/1 22/2/1 21/2/1
f 32/2/1 22/2/1 31/2/1
f 34/2/1 24/2/1 23/2/1
f 34/3/1 25/3/1 24/3/1
f 35/2/1 29/2/1 28/2/1
f 35/3/1 25/3/1 34/3/1
f 35/2/1 26/2/1 25/2/1
f 35/2/1 27/2/1 26/2/1
f 35/2/1 28/2/1 27/2/1
f 36/2/1 29/2/1 35/2/1
f 37/2/1 29/2/1 36/2/1
f 38/2/1 33/2/1 32/2/1
f 38/2/1 31/2/1 30/2/1
f 38/2/1 32/2/1 31/2/1
f 39/2/1 33/2/1 38/2/1
f 40/2/1 34/2/1 23/2/1
f 41/2/1 34/2/1 40/2/1
f 46/2/1 33/2/1 39/2/1
f 47/3/1 44/3/1 43/3/1
f 47/3/1 42/3/1 41/3/1
f 47/3/1 43/3/1 42/3/1
f 48/3/1 44/3/1 47/3/1
f 49/3/1 44/3/1 48/3/1
f 50/3/1 44/3/1 49/3/1
f 51/2/1 46/2/1 45/2/1
f 52/2/1 33/2/1 46/2/1
f 52/2/1 46/2/1 51/2/1
f 53/1/1 48/1/1 47/1/1
f 54/1/1 48/1/1 53/1/1
f 55/1/1 50/1/1 49/1/1
f 56/1/1 50/1/1 55/1/1
f 61/1/1 58/1/1 57/1/1
f 62/1/1 58/1/1 61/1/1
f 63/1/1 60/1/1 59/1/1
f 64/1/1 60/1/1 63/1/1
f 65/1/1 60/1/1 64/1/1
f 66/1/2 67/1/2 68/1/2
f 68/1/2 67/1/2 69/1/2
f 69/1/2 67/1/2 70/1/2
f 71/2/2 72/2/2 74/2/2
f 73/2/2 74/2/2 76/2/2
f 74/2/2 72/2/2 77/2/2
f 76/2/2 74/2/2 77/2/2
f 77/2/2 72/2/2 78/2/2
f 75/2/2 76/2/2 79/2/2
f 76/2/2 77/2/2 79/2/2
f 79/2/2 77/2/2 80/2/2
f 80/2/2 77/2/2 81/2/2
f 81/2/2 77/2/2 82/2/2
f 75/2/2 79/2/2 87/2/2
f 87/2/2 79/2/2 88/2/2
f 80/2/2 81/2/2 89/2/2
f 89/2/2 81/2/2 90/2/2
f 83/2/2 84/2/2 93/2/2
f 93/2/2 84/2/2 94/2/2
f 85/2/2 86/2/2 96/2/2
f 86/3/2 87/3/2 96/3/2
f 90/2/2 91/2/2 97/2/2
f 96/3/2 87/3/2 97/3/2
f 87/2/2 88/2/2 97/2/2
f 88/2/2 89/2/2 97/2/2
f 89/2/2 90/2/2 97/2/2
f 97/2/2 91/2/2 98/2/2
f 94/2/2 95/2/2 99/2/2
f 92/2/2 93/2/2 99/2/2
f 93/2/2 94/2/2 99/2/2
f 99/2/2 95/2/2 100/2/2
f 85/2/2 96/2/2 101/2/2
f 101/2/2 96/2/2 102/2/2
f 100/2/2 95/2/2 105/2/2
f 102/3/2 103/3/2 106/3/2
f 106/3/2 103/3/2 107/3/2
f 107/3/2 103/3/2 108/3/2
f 108/3/2 103/3/2 109/3/2
f 104/2/2 105/2/2 110/2/2
f 105/2/2 95/2/2 111/2/2
f 110/2/2 105/2/2 111/2/2
f 106/1/2 107/1/2 112/1/2
f 112/1/2 107/1/2 113/1/2
f 108/1/2 109/1/2 114/1/2
f 114/1/2 109/1/2 115/1/2
f 116/1/2 117/1/2 118/1/2
f 118/1/2 117/1/2 119/1/2
f 122/2/3 121/2/3 120/2/3
f 123/2/3 121/2/3 122/2/3
f 126/1/3 125/1/3 124/1/3
f 127/1/3 125/1/3 126/1/3
f 131/3/3 128/3/3 127/3/3
f 132/1/3 129/1/3 128/1/3
f 132/3/3 128/3/3 131/3/3
f 133/1/3 129/1/3 132/1/3
f 134/1/3 131/1/3 130/1/3
f 135/1/3 131/1/3 134/1/3
f 138/2/3 137/2/3 136/2/3
f 139/2/3 137/2/3 138/2/3
f 142/1/3 141/1/3 140/1/3
f 143/1/3 141/1/3 142/1/3
f 144/2/3 143/2/3 142/2/3
f 145/2/3 143/2/3 144/2/3
f 152/2/3 147/2/3 146/2/3
f 153/2/3 147/2/3 152/2/3
f 154/2/3 149/2/3 148/2/3
f 155/2/3 149/2/3 154/2/3
f 156/1/3 151/1/3 150/1/3
f 157/1/3 151/1/3 156/1/3
f 160/2/3 159/2/3 158/2/3
f 161/2/3 159/2/3 160/2/3
f 164/2/3 163/2/3 162/2/3
f 165/2/3 163/2/3 164/2/3
f 168/2/3 167/2/3 166/2/3
f 169/2/3 167/2/3 168/2/3
f 172/2/3 171/2/3 170/2/3
f 173/2/3 171/2/3 172/2/3
f 176/2/3 175/2/3 174/2/3
f 177/2/3 175/2/3 176/2/3
f 178/1/4 179/1/4 180/1/4
f 180/1/4 179/1/4 181/1/4
f 182/1/4 183/1/4 184/1/4
f 184/1/4 183/1/4 185/1/4
f 184/2/4 185/2/4 186/2/4
f 186/2/4 185/2/4 187/2/4
f 188/2/4 189/2/4 190/2/4
f 190/2/4 189/2/4 191/2/4
f 192/2/4 193/2/4 197/2/4
f 197/2/4 193/2/4 198/2/4
f 194/3/4 195/3/4 199/3/4
f 195/1/4 196/1/4 200/1/4
f 199/3/4 195/3/4 200/3/4
f 200/1/4 196/1/4 201/1/4
f 202/2/4 203/2/4 207/2/4
f 207/2/4 203/2/4 208/2/4
f 205/2/4 206/2/4 209/2/4
f 204/2/4 205/2/4 209/2/4
f 209/2/4 206/2/4 210/2/4
f 210/2/4 206/2/4 211/2/4
f 212/2/4 213/2/4 214/2/4
f 214/2/4 213/2/4 215/2/4
f 216/1/4 217/1/4 218/1/4
f 218/1/4 217/1/4 219/1/4
f 220/1/4 221/1/4 222/1/4
f 222/1/4 221/1/4 223/1/4
f 224/2/4 225/2/4 226/2/4
f 226/2/4 225/2/4 227/2/4
f 228/2/4 229/2/4 230/2/4
f 230/2/4 229/2/4 231/2/4
f 234/2/5 233/2/5 232/2/5
f 235/2/5 233/2/5 234/2/5
f 238/2/5 237/2/5 236/2/5
f 239/2/5 237/2/5 238/2/5
f 242/2/5 241/2/5 240/2/5
f 243/2/5 241/2/5 242/2/5
f 246/2/5 245/2/5 244/2/5
f 247/2/5 245/2/5 246/2/5
f 250/2/5 249/2/5 248/2/5
f 251/2/5 249/2/5 250/2/5
f 252/3/5 251/3/5 250/3/5
f 253/3/5 251/3/5 252/3/5
f 256/2/5 255/2/5 254/2/5
f 257/2/5 255/2/5 256/2/5
f 260/2/5 259/2/5 258/2/5
f 261/2/5 259/2/5 260/2/5
f 264/2/5 263/2/5 262/2/5
f 265/2/5 263/2/5 264/2/5
f 268/2/5 267/2/5 266/2/5
f 269/2/5 267/2/5 268/2/5
f 274/1/5 271/1/5 270/1/5
f 275/1/5 271/1/5 274/1/5
f 276/1/5 273/1/5 272/1/5
f 279/1/5 278/1/5 277/1/5
f 280/1/5 273/1/5 276/1/5
f 281/1/5 279/1/5 277/1/5
f 282/1/5 273/1/5 280/1/5
f 283/1/5 281/1/5 277/1/5
f 283/2/5 282/2/5 281/2/5
f 284/1/5 273/1/5 282/1/5
f 284/2/5 282/2/5 283/2/5
f 285/1/5 283/1/5 277/1/5
f 286/1/5 283/1/5 285/1/5
f 287/1/5 273/1/5 284/1/5
f 288/1/5 273/1/5 287/1/5
f 291/3/5 290/3/5 289/3/5
f 292/3/5 290/3/5 291/3/5
f 295/2/5 294/2/5 293/2/5
f 296/2/5 294/2/5 295/2/5
f 297/2/6 298/2/6 299/2/6
f 299/2/6 298/2/6 300/2/6
f 301/2/6 302/2/6 303/2/6
f 303/2/6 302/2/6 304/2/6
f 305/2/6 306/2/6 307/2/6
f 307/2/6 306/2/6 308/2/6
f 309/2/6 310/2/6 311/2/6
f 311/2/6 310/2/6 312/2/6
f 313/2/6 314/2/6 316/2/6
f 316/2/6 314/2/6 317/2/6
f 315/1/6 316/1/6 319/1/6
f 319/1/6 316/1/6 320/1/6
f 321/1/6 322/1/6 323/1/6
f 317/1/6 318/1/6 324/1/6
f 321/1/6 323/1/6 325/1/6
f 323/2/6 324/2/6 325/2/6
f 324/1/6 318/1/6 326/1/6
f 325/2/6 324/2/6 326/2/6
f 321/1/6 325/1/6 327/1/6
f 326/1/6 318/1/6 328/1/6
f 321/1/6 327/1/6 329/1/6
f 329/1/6 327/1/6 330/1/6
f 328/1/6 318/1/6 331/1/6
f 331/1/6 318/1/6 332/1/6
f 333/3/6 334/3/6 335/3/6
f 335/3/6 334/3/6 336/3/6
f 337/2/6 338/2/6 339/2/6
f 339/2/6 338/2/6 340/2/6
f 341/1/6 342/1/6 343/1/6
f 343/1/6 342/1/6 344/1/6
f 345/1/6 346/1/6 347/1/6
f 347/1/6 346/1/6 348/1/6
