# MagicaVoxel @ Ephtracy

# group
g DemonSoldier-5

# material
mtllib DemonSoldier-5.mtl
usemtl palette

# normals
vn -1 0 0
vn 1 0 0
vn 0 0 1
vn 0 0 -1
vn 0 -1 0
vn 0 1 0

# texcoords
vt 0.908203 0.5
vt 0.912109 0.5
vt 0.916016 0.5
vt 0.970703 0.5

# verts
v -5 0 4
v -5 0 2
v -5 1 4
v -5 1 2
v -5 2 4
v -5 2 2
v -5 3 4
v -5 3 2
v -4 0 2
v -4 0 -0
v -4 1 2
v -4 1 -0
v -4 2 2
v -4 2 -0
v -4 3 2
v -4 3 -0
v -3 0 -0
v -3 0 -1
v -3 1 -0
v -3 1 -1
v -3 2 -0
v -3 2 -1
v -3 3 -0
v -3 3 -1
v -2 0 -1
v -2 0 -2
v -2 1 -1
v -2 1 -2
v -2 2 -1
v -2 2 -2
v -2 3 -1
v -2 3 -2
v 0 0 -2
v 0 0 -3
v 0 1 -2
v 0 1 -3
v 0 2 -2
v 0 2 -3
v 0 3 -2
v 0 3 -3
v 1 1 2
v 1 1 1
v 1 2 2
v 1 2 1
v 2 0 2
v 2 0 -1
v 2 1 3
v 2 1 2
v 2 1 1
v 2 1 -1
v 2 1 -2
v 2 2 3
v 2 2 2
v 2 2 1
v 2 2 -1
v 2 2 -2
v 2 3 2
v 2 3 -1
v 5 0 2
v 5 0 -1
v 5 1 3
v 5 1 2
v 5 1 1
v 5 1 -1
v 5 2 3
v 5 2 2
v 5 2 1
v 5 2 -1
v 5 3 2
v 5 3 -1
v -4 0 4
v -4 0 3
v -4 1 4
v -4 1 3
v -4 2 4
v -4 2 3
v -4 3 4
v -4 3 3
v -3 0 3
v -3 0 2
v -3 1 3
v -3 1 2
v -3 2 3
v -3 2 2
v -3 3 3
v -3 3 2
v -2 0 2
v -2 0 1
v -2 1 2
v -2 1 1
v -2 2 2
v -2 2 1
v -2 3 2
v -2 3 1
v -1 0 1
v -1 0 -0
v -1 1 1
v -1 1 -0
v -1 2 1
v -1 2 -0
v -1 3 1
v -1 3 -0
v 1 0 -0
v 1 0 -1
v 1 1 -0
v 1 1 -1
v 1 2 -0
v 1 2 -1
v 1 3 -0
v 1 3 -1
v 3 0 2
v 3 0 -1
v 3 1 3
v 3 1 2
v 3 1 1
v 3 1 -1
v 3 1 -2
v 3 2 3
v 3 2 2
v 3 2 1
v 3 2 -1
v 3 2 -2
v 3 3 2
v 3 3 -1
v 6 0 2
v 6 0 -2
v 6 1 3
v 6 1 2
v 6 1 1
v 6 1 -2
v 6 2 3
v 6 2 2
v 6 2 1
v 6 2 -2
v 6 3 2
v 6 3 -2
v 7 0 -2
v 7 0 -3
v 7 1 -2
v 7 1 -3
v 7 2 -2
v 7 2 -3
v 7 3 -2
v 7 3 -3
v 8 1 2
v 8 1 1
v 8 2 2
v 8 2 1
v -5 0 4
v -5 1 4
v -5 2 4
v -5 3 4
v -4 0 4
v -4 1 4
v -4 2 4
v -4 3 4
v -4 0 3
v -4 1 3
v -4 2 3
v -4 3 3
v -3 0 3
v -3 1 3
v -3 2 3
v -3 3 3
v 2 1 3
v 2 2 3
v 3 1 3
v 3 2 3
v 5 1 3
v 5 2 3
v 6 1 3
v 6 2 3
v -3 0 2
v -3 1 2
v -3 2 2
v -3 3 2
v -2 0 2
v -2 1 2
v -2 2 2
v -2 3 2
v 1 1 2
v 1 2 2
v 2 0 2
v 2 1 2
v 2 2 2
v 2 3 2
v 3 0 2
v 3 1 2
v 3 2 2
v 3 3 2
v 5 0 2
v 5 1 2
v 5 2 2
v 5 3 2
v 6 0 2
v 6 1 2
v 6 2 2
v 6 3 2
v 8 1 2
v 8 2 2
v -2 0 1
v -2 1 1
v -2 2 1
v -2 3 1
v -1 0 1
v -1 1 1
v -1 2 1
v -1 3 1
v -1 0 -0
v -1 1 -0
v -1 2 -0
v -1 3 -0
v 1 0 -0
v 1 1 -0
v 1 2 -0
v 1 3 -0
v 1 0 -1
v 1 1 -1
v 1 2 -1
v 1 3 -1
v 2 0 -1
v 2 1 -1
v 2 2 -1
v 2 3 -1
v 3 0 -1
v 3 1 -1
v 3 2 -1
v 3 3 -1
v 5 0 -1
v 5 1 -1
v 5 2 -1
v 5 3 -1
v 6 0 -2
v 6 1 -2
v 6 2 -2
v 6 3 -2
v 7 0 -2
v 7 1 -2
v 7 2 -2
v 7 3 -2
v -5 0 2
v -5 1 2
v -5 2 2
v -5 3 2
v -4 0 2
v -4 1 2
v -4 2 2
v -4 3 2
v 1 1 1
v 1 2 1
v 2 1 1
v 2 2 1
v 3 1 1
v 3 2 1
v 5 1 1
v 5 2 1
v 6 1 1
v 6 2 1
v 8 1 1
v 8 2 1
v -4 0 -0
v -4 1 -0
v -4 2 -0
v -4 3 -0
v -3 0 -0
v -3 1 -0
v -3 2 -0
v -3 3 -0
v -3 0 -1
v -3 1 -1
v -3 2 -1
v -3 3 -1
v -2 0 -1
v -2 1 -1
v -2 2 -1
v -2 3 -1
v -2 0 -2
v -2 1 -2
v -2 2 -2
v -2 3 -2
v 0 0 -2
v 0 1 -2
v 0 2 -2
v 0 3 -2
v 2 1 -2
v 2 2 -2
v 3 1 -2
v 3 2 -2
v 0 0 -3
v 0 1 -3
v 0 2 -3
v 0 3 -3
v 7 0 -3
v 7 1 -3
v 7 2 -3
v 7 3 -3
v -5 0 4
v -4 0 4
v -4 0 3
v -3 0 3
v -5 0 2
v -4 0 2
v -3 0 2
v -2 0 2
v 2 0 2
v 3 0 2
v 5 0 2
v 6 0 2
v -2 0 1
v -1 0 1
v -4 0 -0
v -3 0 -0
v -2 0 -0
v -1 0 -0
v 1 0 -0
v -3 0 -1
v -2 0 -1
v 0 0 -1
v 1 0 -1
v 2 0 -1
v 3 0 -1
v 5 0 -1
v -2 0 -2
v 0 0 -2
v 2 0 -2
v 3 0 -2
v 5 0 -2
v 6 0 -2
v 7 0 -2
v 0 0 -3
v 7 0 -3
v 2 1 3
v 3 1 3
v 5 1 3
v 6 1 3
v 1 1 2
v 2 1 2
v 3 1 2
v 5 1 2
v 6 1 2
v 8 1 2
v 1 1 1
v 2 1 1
v 3 1 1
v 5 1 1
v 6 1 1
v 8 1 1
v -5 2 4
v -4 2 4
v -4 2 3
v -3 2 3
v -5 2 2
v -4 2 2
v -3 2 2
v -2 2 2
v -2 2 1
v -1 2 1
v 2 2 1
v 3 2 1
v 5 2 1
v 6 2 1
v -4 2 -0
v -3 2 -0
v -2 2 -0
v -1 2 -0
v 1 2 -0
v -3 2 -1
v -2 2 -1
v 0 2 -1
v 1 2 -1
v 2 2 -1
v 3 2 -1
v 5 2 -1
v -2 2 -2
v 0 2 -2
v 2 2 -2
v 3 2 -2
v 5 2 -2
v 6 2 -2
v 7 2 -2
v 0 2 -3
v 7 2 -3
v -5 1 4
v -4 1 4
v -4 1 3
v -3 1 3
v -5 1 2
v -4 1 2
v -3 1 2
v -2 1 2
v -2 1 1
v -1 1 1
v 2 1 1
v 3 1 1
v 5 1 1
v 6 1 1
v -4 1 -0
v -3 1 -0
v -2 1 -0
v -1 1 -0
v 1 1 -0
v -3 1 -1
v -2 1 -1
v 0 1 -1
v 1 1 -1
v 2 1 -1
v 3 1 -1
v 5 1 -1
v -2 1 -2
v 0 1 -2
v 2 1 -2
v 3 1 -2
v 5 1 -2
v 6 1 -2
v 7 1 -2
v 0 1 -3
v 7 1 -3
v 2 2 3
v 3 2 3
v 5 2 3
v 6 2 3
v 1 2 2
v 2 2 2
v 3 2 2
v 5 2 2
v 6 2 2
v 8 2 2
v 1 2 1
v 2 2 1
v 3 2 1
v 5 2 1
v 6 2 1
v 8 2 1
v -5 3 4
v -4 3 4
v -4 3 3
v -3 3 3
v -5 3 2
v -4 3 2
v -3 3 2
v -2 3 2
v 2 3 2
v 3 3 2
v 5 3 2
v 6 3 2
v -2 3 1
v -1 3 1
v -4 3 -0
v -3 3 -0
v -2 3 -0
v -1 3 -0
v 1 3 -0
v -3 3 -1
v -2 3 -1
v 0 3 -1
v 1 3 -1
v 2 3 -1
v 3 3 -1
v 5 3 -1
v -2 3 -2
v 0 3 -2
v 2 3 -2
v 3 3 -2
v 5 3 -2
v 6 3 -2
v 7 3 -2
v 0 3 -3
v 7 3 -3

# faces
f 3/1/1 2/1/1 1/1/1
f 4/1/1 2/1/1 3/1/1
f 7/1/1 6/1/1 5/1/1
f 8/1/1 6/1/1 7/1/1
f 11/1/1 10/1/1 9/1/1
f 12/1/1 10/1/1 11/1/1
f 15/1/1 14/1/1 13/1/1
f 16/1/1 14/1/1 15/1/1
f 19/1/1 18/1/1 17/1/1
f 20/1/1 18/1/1 19/1/1
f 23/1/1 22/1/1 21/1/1
f 24/1/1 22/1/1 23/1/1
f 27/1/1 26/1/1 25/1/1
f 28/1/1 26/1/1 27/1/1
f 31/1/1 30/1/1 29/1/1
f 32/1/1 30/1/1 31/1/1
f 35/1/1 34/1/1 33/1/1
f 36/1/1 34/1/1 35/1/1
f 39/1/1 38/1/1 37/1/1
f 40/1/1 38/1/1 39/1/1
f 43/4/1 42/4/1 41/4/1
f 44/4/1 42/4/1 43/4/1
f 48/3/1 46/3/1 45/3/1
f 49/3/1 46/3/1 48/3/1
f 50/3/1 46/3/1 49/3/1
f 52/3/1 48/3/1 47/3/1
f 53/3/1 48/3/1 52/3/1
f 55/3/1 51/3/1 50/3/1
f 56/3/1 51/3/1 55/3/1
f 57/3/1 54/3/1 53/3/1
f 57/3/1 55/3/1 54/3/1
f 58/3/1 55/3/1 57/3/1
f 62/3/1 60/3/1 59/3/1
f 63/3/1 60/3/1 62/3/1
f 64/3/1 60/3/1 63/3/1
f 65/3/1 62/3/1 61/3/1
f 66/3/1 62/3/1 65/3/1
f 69/3/1 68/3/1 67/3/1
f 69/3/1 67/3/1 66/3/1
f 70/3/1 68/3/1 69/3/1
f 71/1/2 72/1/2 73/1/2
f 73/1/2 72/1/2 74/1/2
f 75/1/2 76/1/2 77/1/2
f 77/1/2 76/1/2 78/1/2
f 79/2/2 80/2/2 81/2/2
f 81/2/2 80/2/2 82/2/2
f 83/2/2 84/2/2 85/2/2
f 85/2/2 84/2/2 86/2/2
f 87/2/2 88/2/2 89/2/2
f 89/2/2 88/2/2 90/2/2
f 91/2/2 92/2/2 93/2/2
f 93/2/2 92/2/2 94/2/2
f 95/2/2 96/2/2 97/2/2
f 97/2/2 96/2/2 98/2/2
f 99/2/2 100/2/2 101/2/2
f 101/2/2 100/2/2 102/2/2
f 103/2/2 104/2/2 105/2/2
f 105/2/2 104/2/2 106/2/2
f 107/2/2 108/2/2 109/2/2
f 109/2/2 108/2/2 110/2/2
f 111/3/2 112/3/2 114/3/2
f 114/3/2 112/3/2 115/3/2
f 115/3/2 112/3/2 116/3/2
f 113/3/2 114/3/2 118/3/2
f 118/3/2 114/3/2 119/3/2
f 116/3/2 117/3/2 121/3/2
f 121/3/2 117/3/2 122/3/2
f 119/3/2 120/3/2 123/3/2
f 120/3/2 121/3/2 123/3/2
f 123/3/2 121/3/2 124/3/2
f 125/3/2 126/3/2 128/3/2
f 128/3/2 126/3/2 129/3/2
f 129/3/2 126/3/2 130/3/2
f 127/3/2 128/3/2 131/3/2
f 131/3/2 128/3/2 132/3/2
f 133/3/2 134/3/2 135/3/2
f 132/3/2 133/3/2 135/3/2
f 135/3/2 134/3/2 136/3/2
f 137/1/2 138/1/2 139/1/2
f 139/1/2 138/1/2 140/1/2
f 141/1/2 142/1/2 143/1/2
f 143/1/2 142/1/2 144/1/2
f 145/4/2 146/4/2 147/4/2
f 147/4/2 146/4/2 148/4/2
f 153/1/3 150/1/3 149/1/3
f 154/1/3 150/1/3 153/1/3
f 155/1/3 152/1/3 151/1/3
f 156/1/3 152/1/3 155/1/3
f 161/2/3 158/2/3 157/2/3
f 162/2/3 158/2/3 161/2/3
f 163/2/3 160/2/3 159/2/3
f 164/2/3 160/2/3 163/2/3
f 167/3/3 166/3/3 165/3/3
f 168/3/3 166/3/3 167/3/3
f 171/3/3 170/3/3 169/3/3
f 172/3/3 170/3/3 171/3/3
f 177/2/3 174/2/3 173/2/3
f 178/2/3 174/2/3 177/2/3
f 179/2/3 176/2/3 175/2/3
f 180/2/3 176/2/3 179/2/3
f 184/4/3 182/4/3 181/4/3
f 185/4/3 182/4/3 184/4/3
f 187/3/3 184/3/3 183/3/3
f 188/3/3 184/3/3 187/3/3
f 189/3/3 186/3/3 185/3/3
f 190/3/3 186/3/3 189/3/3
f 192/4/3 189/4/3 188/4/3
f 193/4/3 189/4/3 192/4/3
f 195/3/3 192/3/3 191/3/3
f 196/3/3 192/3/3 195/3/3
f 197/3/3 194/3/3 193/3/3
f 198/3/3 194/3/3 197/3/3
f 199/4/3 197/4/3 196/4/3
f 200/4/3 197/4/3 199/4/3
f 205/2/3 202/2/3 201/2/3
f 206/2/3 202/2/3 205/2/3
f 207/2/3 204/2/3 203/2/3
f 208/2/3 204/2/3 207/2/3
f 213/2/3 210/2/3 209/2/3
f 214/2/3 210/2/3 213/2/3
f 215/2/3 212/2/3 211/2/3
f 216/2/3 212/2/3 215/2/3
f 221/2/3 218/2/3 217/2/3
f 222/2/3 218/2/3 221/2/3
f 223/2/3 220/2/3 219/2/3
f 224/2/3 220/2/3 223/2/3
f 226/3/3 223/3/3 222/3/3
f 227/3/3 223/3/3 226/3/3
f 229/2/3 226/2/3 225/2/3
f 230/2/3 226/2/3 229/2/3
f 231/2/3 228/2/3 227/2/3
f 232/2/3 228/2/3 231/2/3
f 237/1/3 234/1/3 233/1/3
f 238/1/3 234/1/3 237/1/3
f 239/1/3 236/1/3 235/1/3
f 240/1/3 236/1/3 239/1/3
f 241/1/4 242/1/4 245/1/4
f 245/1/4 242/1/4 246/1/4
f 243/1/4 244/1/4 247/1/4
f 247/1/4 244/1/4 248/1/4
f 249/4/4 250/4/4 251/4/4
f 251/4/4 250/4/4 252/4/4
f 251/4/4 252/4/4 253/4/4
f 253/4/4 252/4/4 254/4/4
f 253/4/4 254/4/4 255/4/4
f 255/4/4 254/4/4 256/4/4
f 255/4/4 256/4/4 257/4/4
f 257/4/4 256/4/4 258/4/4
f 257/4/4 258/4/4 259/4/4
f 259/4/4 258/4/4 260/4/4
f 261/1/4 262/1/4 265/1/4
f 265/1/4 262/1/4 266/1/4
f 263/1/4 264/1/4 267/1/4
f 267/1/4 264/1/4 268/1/4
f 269/1/4 270/1/4 273/1/4
f 273/1/4 270/1/4 274/1/4
f 271/1/4 272/1/4 275/1/4
f 275/1/4 272/1/4 276/1/4
f 277/1/4 278/1/4 281/1/4
f 281/1/4 278/1/4 282/1/4
f 279/1/4 280/1/4 283/1/4
f 283/1/4 280/1/4 284/1/4
f 285/3/4 286/3/4 287/3/4
f 287/3/4 286/3/4 288/3/4
f 289/1/4 290/1/4 293/1/4
f 293/1/4 290/1/4 294/1/4
f 291/1/4 292/1/4 295/1/4
f 295/1/4 292/1/4 296/1/4
f 299/1/5 298/1/5 297/1/5
f 301/1/5 299/1/5 297/1/5
f 302/2/5 300/2/5 299/2/5
f 302/1/5 299/1/5 301/1/5
f 303/2/5 300/2/5 302/2/5
f 309/2/5 304/2/5 303/2/5
f 311/1/5 303/1/5 302/1/5
f 312/2/5 310/2/5 309/2/5
f 312/1/5 303/1/5 311/1/5
f 312/2/5 309/2/5 303/2/5
f 313/2/5 310/2/5 312/2/5
f 314/2/5 310/2/5 313/2/5
f 316/1/5 313/1/5 312/1/5
f 317/2/5 315/2/5 314/2/5
f 317/1/5 313/1/5 316/1/5
f 317/2/5 314/2/5 313/2/5
f 318/2/5 315/2/5 317/2/5
f 319/2/5 315/2/5 318/2/5
f 320/3/5 306/3/5 305/3/5
f 321/3/5 306/3/5 320/3/5
f 322/3/5 308/3/5 307/3/5
f 323/1/5 318/1/5 317/1/5
f 324/2/5 319/2/5 318/2/5
f 324/1/5 318/1/5 323/1/5
f 324/2/5 320/2/5 319/2/5
f 325/3/5 321/3/5 320/3/5
f 325/2/5 320/2/5 324/2/5
f 326/2/5 322/2/5 321/2/5
f 326/3/5 321/3/5 325/3/5
f 327/3/5 308/3/5 322/3/5
f 327/2/5 322/2/5 326/2/5
f 328/3/5 308/3/5 327/3/5
f 330/1/5 329/1/5 328/1/5
f 330/1/5 328/1/5 327/1/5
f 330/1/5 327/1/5 326/1/5
f 330/1/5 325/1/5 324/1/5
f 330/1/5 326/1/5 325/1/5
f 331/1/5 329/1/5 330/1/5
f 337/3/5 333/3/5 332/3/5
f 338/3/5 333/3/5 337/3/5
f 339/3/5 335/3/5 334/3/5
f 340/3/5 335/3/5 339/3/5
f 342/4/5 337/4/5 336/4/5
f 343/4/5 337/4/5 342/4/5
f 344/4/5 339/4/5 338/4/5
f 345/4/5 339/4/5 344/4/5
f 346/4/5 341/4/5 340/4/5
f 347/4/5 341/4/5 346/4/5
f 350/1/5 349/1/5 348/1/5
f 352/1/5 350/1/5 348/1/5
f 353/2/5 351/2/5 350/2/5
f 353/1/5 350/1/5 352/1/5
f 354/2/5 351/2/5 353/2/5
f 356/2/5 355/2/5 354/2/5
f 362/1/5 354/1/5 353/1/5
f 363/2/5 356/2/5 354/2/5
f 363/1/5 354/1/5 362/1/5
f 363/2/5 357/2/5 356/2/5
f 364/2/5 357/2/5 363/2/5
f 365/2/5 357/2/5 364/2/5
f 367/1/5 364/1/5 363/1/5
f 368/2/5 366/2/5 365/2/5
f 368/1/5 364/1/5 367/1/5
f 368/2/5 365/2/5 364/2/5
f 369/2/5 366/2/5 368/2/5
f 370/2/5 366/2/5 369/2/5
f 371/3/5 359/3/5 358/3/5
f 372/3/5 359/3/5 371/3/5
f 373/3/5 361/3/5 360/3/5
f 374/1/5 369/1/5 368/1/5
f 375/2/5 370/2/5 369/2/5
f 375/1/5 369/1/5 374/1/5
f 375/2/5 371/2/5 370/2/5
f 376/2/5 371/2/5 375/2/5
f 377/2/5 373/2/5 372/2/5
f 378/3/5 361/3/5 373/3/5
f 378/2/5 373/2/5 377/2/5
f 379/3/5 361/3/5 378/3/5
f 381/1/5 376/1/5 375/1/5
f 381/1/5 380/1/5 379/1/5
f 381/1/5 379/1/5 378/1/5
f 381/1/5 378/1/5 377/1/5
f 381/1/5 377/1/5 376/1/5
f 382/1/5 380/1/5 381/1/5
f 383/1/6 384/1/6 385/1/6
f 383/1/6 385/1/6 387/1/6
f 385/2/6 386/2/6 388/2/6
f 387/1/6 385/1/6 388/1/6
f 388/2/6 386/2/6 389/2/6
f 389/2/6 390/2/6 391/2/6
f 388/1/6 389/1/6 397/1/6
f 389/2/6 391/2/6 398/2/6
f 397/1/6 389/1/6 398/1/6
f 391/2/6 392/2/6 398/2/6
f 398/2/6 392/2/6 399/2/6
f 399/2/6 392/2/6 400/2/6
f 398/1/6 399/1/6 402/1/6
f 400/2/6 401/2/6 403/2/6
f 402/1/6 399/1/6 403/1/6
f 399/2/6 400/2/6 403/2/6
f 403/2/6 401/2/6 404/2/6
f 404/2/6 401/2/6 405/2/6
f 393/3/6 394/3/6 406/3/6
f 406/3/6 394/3/6 407/3/6
f 395/3/6 396/3/6 408/3/6
f 403/1/6 404/1/6 409/1/6
f 404/2/6 405/2/6 410/2/6
f 409/1/6 404/1/6 410/1/6
f 405/2/6 406/2/6 410/2/6
f 410/2/6 406/2/6 411/2/6
f 407/2/6 408/2/6 412/2/6
f 408/3/6 396/3/6 413/3/6
f 412/2/6 408/2/6 413/2/6
f 413/3/6 396/3/6 414/3/6
f 410/1/6 411/1/6 416/1/6
f 414/1/6 415/1/6 416/1/6
f 413/1/6 414/1/6 416/1/6
f 412/1/6 413/1/6 416/1/6
f 411/1/6 412/1/6 416/1/6
f 416/1/6 415/1/6 417/1/6
f 418/3/6 419/3/6 423/3/6
f 423/3/6 419/3/6 424/3/6
f 420/3/6 421/3/6 425/3/6
f 425/3/6 421/3/6 426/3/6
f 422/4/6 423/4/6 428/4/6
f 428/4/6 423/4/6 429/4/6
f 424/4/6 425/4/6 430/4/6
f 430/4/6 425/4/6 431/4/6
f 426/4/6 427/4/6 432/4/6
f 432/4/6 427/4/6 433/4/6
f 434/1/6 435/1/6 436/1/6
f 434/1/6 436/1/6 438/1/6
f 436/2/6 437/2/6 439/2/6
f 438/1/6 436/1/6 439/1/6
f 439/2/6 437/2/6 440/2/6
f 440/2/6 441/2/6 446/2/6
f 439/1/6 440/1/6 448/1/6
f 446/2/6 447/2/6 449/2/6
f 448/1/6 440/1/6 449/1/6
f 440/2/6 446/2/6 449/2/6
f 449/2/6 447/2/6 450/2/6
f 450/2/6 447/2/6 451/2/6
f 449/1/6 450/1/6 453/1/6
f 451/2/6 452/2/6 454/2/6
f 453/1/6 450/1/6 454/1/6
f 450/2/6 451/2/6 454/2/6
f 454/2/6 452/2/6 455/2/6
f 455/2/6 452/2/6 456/2/6
f 442/3/6 443/3/6 457/3/6
f 457/3/6 443/3/6 458/3/6
f 444/3/6 445/3/6 459/3/6
f 454/1/6 455/1/6 460/1/6
f 455/2/6 456/2/6 461/2/6
f 460/1/6 455/1/6 461/1/6
f 456/2/6 457/2/6 461/2/6
f 457/3/6 458/3/6 462/3/6
f 461/2/6 457/2/6 462/2/6
f 458/2/6 459/2/6 463/2/6
f 462/3/6 458/3/6 463/3/6
f 459/3/6 445/3/6 464/3/6
f 463/2/6 459/2/6 464/2/6
f 464/3/6 445/3/6 465/3/6
f 465/1/6 466/1/6 467/1/6
f 464/1/6 465/1/6 467/1/6
f 463/1/6 464/1/6 467/1/6
f 461/1/6 462/1/6 467/1/6
f 462/1/6 463/1/6 467/1/6
f 467/1/6 466/1/6 468/1/6
