# MagicaVoxel @ Ephtracy

# group
g MeleeCyborg-4

# material
mtllib MeleeCyborg-4.mtl
usemtl palette

# normals
vn -1 0 0
vn 1 0 0
vn 0 0 1
vn 0 0 -1
vn 0 -1 0
vn 0 1 0

# texcoords
vt 0.845703 0.5
vt 0.876953 0.5
vt 0.880859 0.5
vt 0.970703 0.5

# verts
v -6 0 4
v -6 0 2
v -6 1 4
v -6 1 2
v -6 2 4
v -6 2 2
v -6 3 4
v -6 3 2
v -5 0 2
v -5 0 -0
v -5 1 2
v -5 1 -0
v -5 2 2
v -5 2 -0
v -5 3 2
v -5 3 -0
v -4 0 -0
v -4 0 -1
v -4 1 -0
v -4 1 -1
v -4 2 -0
v -4 2 -1
v -4 3 -0
v -4 3 -1
v -3 0 -1
v -3 0 -2
v -3 1 -1
v -3 1 -2
v -3 2 -1
v -3 2 -2
v -3 3 -1
v -3 3 -2
v -1 0 -2
v -1 0 -3
v -1 1 -2
v -1 1 -3
v -1 2 -2
v -1 2 -3
v -1 3 -2
v -1 3 -3
v 2 0 2
v 2 0 -1
v 2 1 3
v 2 1 2
v 2 1 1
v 2 1 -1
v 2 2 3
v 2 2 2
v 2 2 1
v 2 2 -1
v 2 3 2
v 2 3 -1
v 5 0 -0
v 5 0 -1
v 5 1 -0
v 5 1 -1
v 5 2 -0
v 5 2 -1
v 5 3 -0
v 5 3 -1
v 6 0 2
v 6 0 -0
v 6 1 3
v 6 1 2
v 6 1 1
v 6 1 -0
v 6 2 3
v 6 2 2
v 6 2 1
v 6 2 -0
v 6 3 2
v 6 3 -0
v 8 0 1
v 8 0 -0
v 8 1 1
v 8 1 -0
v 8 2 1
v 8 2 -0
v 8 3 1
v 8 3 -0
v -5 0 4
v -5 0 3
v -5 1 4
v -5 1 3
v -5 2 4
v -5 2 3
v -5 3 4
v -5 3 3
v -4 0 3
v -4 0 2
v -4 1 3
v -4 1 2
v -4 2 3
v -4 2 2
v -4 3 3
v -4 3 2
v -3 0 2
v -3 0 1
v -3 1 2
v -3 1 1
v -3 2 2
v -3 2 1
v -3 3 2
v -3 3 1
v -2 0 1
v -2 0 -0
v -2 1 1
v -2 1 -0
v -2 2 1
v -2 2 -0
v -2 3 1
v -2 3 -0
v 0 0 -0
v 0 0 -1
v 0 1 -0
v 0 1 -1
v 0 2 -0
v 0 2 -1
v 0 3 -0
v 0 3 -1
v 3 0 2
v 3 0 -1
v 3 1 3
v 3 1 2
v 3 1 1
v 3 1 -1
v 3 2 3
v 3 2 2
v 3 2 1
v 3 2 -1
v 3 3 2
v 3 3 -1
v 5 0 -2
v 5 0 -3
v 5 1 -2
v 5 1 -3
v 5 2 -2
v 5 2 -3
v 5 3 -2
v 5 3 -3
v 7 0 2
v 7 0 -0
v 7 0 -1
v 7 0 -2
v 7 1 3
v 7 1 2
v 7 1 1
v 7 1 -0
v 7 1 -1
v 7 1 -2
v 7 2 3
v 7 2 2
v 7 2 1
v 7 2 -0
v 7 2 -1
v 7 2 -2
v 7 3 2
v 7 3 -0
v 7 3 -1
v 7 3 -2
v 8 0 -0
v 8 0 -1
v 8 1 2
v 8 1 1
v 8 1 -0
v 8 1 -1
v 8 2 2
v 8 2 1
v 8 2 -0
v 8 2 -1
v 8 3 -0
v 8 3 -1
v 9 0 1
v 9 0 -0
v 9 1 1
v 9 1 -0
v 9 2 1
v 9 2 -0
v 9 3 1
v 9 3 -0
v -6 0 4
v -6 1 4
v -6 2 4
v -6 3 4
v -5 0 4
v -5 1 4
v -5 2 4
v -5 3 4
v -5 0 3
v -5 1 3
v -5 2 3
v -5 3 3
v -4 0 3
v -4 1 3
v -4 2 3
v -4 3 3
v 2 1 3
v 2 2 3
v 3 1 3
v 3 2 3
v 6 1 3
v 6 2 3
v 7 1 3
v 7 2 3
v -4 0 2
v -4 1 2
v -4 2 2
v -4 3 2
v -3 0 2
v -3 1 2
v -3 2 2
v -3 3 2
v 2 0 2
v 2 1 2
v 2 2 2
v 2 3 2
v 3 0 2
v 3 1 2
v 3 2 2
v 3 3 2
v 6 0 2
v 6 1 2
v 6 2 2
v 6 3 2
v 7 0 2
v 7 1 2
v 7 2 2
v 7 3 2
v 8 1 2
v 8 2 2
v -3 0 1
v -3 1 1
v -3 2 1
v -3 3 1
v -2 0 1
v -2 1 1
v -2 2 1
v -2 3 1
v 8 0 1
v 8 1 1
v 8 2 1
v 8 3 1
v 9 0 1
v 9 1 1
v 9 2 1
v 9 3 1
v -2 0 -0
v -2 1 -0
v -2 2 -0
v -2 3 -0
v 0 0 -0
v 0 1 -0
v 0 2 -0
v 0 3 -0
v 5 0 -0
v 5 1 -0
v 5 2 -0
v 5 3 -0
v 6 0 -0
v 6 1 -0
v 6 2 -0
v 6 3 -0
v 7 0 -0
v 7 1 -0
v 7 2 -0
v 7 3 -0
v 8 0 -0
v 8 1 -0
v 8 2 -0
v 8 3 -0
v 0 0 -1
v 0 1 -1
v 0 2 -1
v 0 3 -1
v 2 0 -1
v 2 1 -1
v 2 2 -1
v 2 3 -1
v 3 0 -1
v 3 1 -1
v 3 2 -1
v 3 3 -1
v 5 0 -1
v 5 1 -1
v 5 2 -1
v 5 3 -1
v -6 0 2
v -6 1 2
v -6 2 2
v -6 3 2
v -5 0 2
v -5 1 2
v -5 2 2
v -5 3 2
v 2 1 1
v 2 2 1
v 3 1 1
v 3 2 1
v 6 1 1
v 6 2 1
v 7 1 1
v 7 2 1
v 8 1 1
v 8 2 1
v -5 0 -0
v -5 1 -0
v -5 2 -0
v -5 3 -0
v -4 0 -0
v -4 1 -0
v -4 2 -0
v -4 3 -0
v 8 0 -0
v 8 1 -0
v 8 2 -0
v 8 3 -0
v 9 0 -0
v 9 1 -0
v 9 2 -0
v 9 3 -0
v -4 0 -1
v -4 1 -1
v -4 2 -1
v -4 3 -1
v -3 0 -1
v -3 1 -1
v -3 2 -1
v -3 3 -1
v 7 0 -1
v 7 1 -1
v 7 2 -1
v 7 3 -1
v 8 0 -1
v 8 1 -1
v 8 2 -1
v 8 3 -1
v -3 0 -2
v -3 1 -2
v -3 2 -2
v -3 3 -2
v -1 0 -2
v -1 1 -2
v -1 2 -2
v -1 3 -2
v 5 0 -2
v 5 1 -2
v 5 2 -2
v 5 3 -2
v 6 0 -2
v 6 1 -2
v 6 2 -2
v 6 3 -2
v 7 0 -2
v 7 1 -2
v 7 2 -2
v 7 3 -2
v -1 0 -3
v -1 1 -3
v -1 2 -3
v -1 3 -3
v 2 0 -3
v 2 1 -3
v 2 2 -3
v 2 3 -3
v 3 0 -3
v 3 1 -3
v 3 2 -3
v 3 3 -3
v 5 0 -3
v 5 1 -3
v 5 2 -3
v 5 3 -3
v -6 0 4
v -5 0 4
v -5 0 3
v -4 0 3
v -6 0 2
v -5 0 2
v -4 0 2
v -3 0 2
v 2 0 2
v 3 0 2
v 6 0 2
v 7 0 2
v -3 0 1
v -2 0 1
v 8 0 1
v 9 0 1
v -5 0 -0
v -4 0 -0
v -2 0 -0
v 0 0 -0
v 5 0 -0
v 6 0 -0
v 7 0 -0
v 8 0 -0
v 9 0 -0
v -4 0 -1
v -3 0 -1
v 0 0 -1
v 2 0 -1
v 3 0 -1
v 5 0 -1
v 7 0 -1
v 8 0 -1
v -3 0 -2
v -1 0 -2
v 5 0 -2
v 6 0 -2
v 7 0 -2
v -1 0 -3
v 2 0 -3
v 3 0 -3
v 5 0 -3
v 2 1 3
v 3 1 3
v 6 1 3
v 7 1 3
v 2 1 2
v 3 1 2
v 6 1 2
v 7 1 2
v 8 1 2
v 3 1 1
v 6 1 1
v 7 1 1
v 8 1 1
v -6 2 4
v -5 2 4
v -5 2 3
v -4 2 3
v -6 2 2
v -5 2 2
v -4 2 2
v -3 2 2
v -3 2 1
v -2 2 1
v 2 2 1
v 3 2 1
v 6 2 1
v 7 2 1
v 8 2 1
v 9 2 1
v -5 2 -0
v -4 2 -0
v -2 2 -0
v 0 2 -0
v 5 2 -0
v 6 2 -0
v 7 2 -0
v 8 2 -0
v 9 2 -0
v -4 2 -1
v -3 2 -1
v 0 2 -1
v 2 2 -1
v 3 2 -1
v 5 2 -1
v 7 2 -1
v 8 2 -1
v -3 2 -2
v -1 2 -2
v 5 2 -2
v 6 2 -2
v 7 2 -2
v -1 2 -3
v 2 2 -3
v 3 2 -3
v 5 2 -3
v -6 1 4
v -5 1 4
v -5 1 3
v -4 1 3
v -6 1 2
v -5 1 2
v -4 1 2
v -3 1 2
v -3 1 1
v -2 1 1
v 2 1 1
v 3 1 1
v 6 1 1
v 7 1 1
v 8 1 1
v 9 1 1
v -5 1 -0
v -4 1 -0
v -2 1 -0
v 0 1 -0
v 5 1 -0
v 6 1 -0
v 7 1 -0
v 8 1 -0
v 9 1 -0
v -4 1 -1
v -3 1 -1
v 0 1 -1
v 2 1 -1
v 3 1 -1
v 5 1 -1
v 7 1 -1
v 8 1 -1
v -3 1 -2
v -1 1 -2
v 5 1 -2
v 6 1 -2
v 7 1 -2
v -1 1 -3
v 2 1 -3
v 3 1 -3
v 5 1 -3
v 2 2 3
v 3 2 3
v 6 2 3
v 7 2 3
v 2 2 2
v 3 2 2
v 6 2 2
v 7 2 2
v 8 2 2
v 3 2 1
v 6 2 1
v 7 2 1
v 8 2 1
v -6 3 4
v -5 3 4
v -5 3 3
v -4 3 3
v -6 3 2
v -5 3 2
v -4 3 2
v -3 3 2
v 2 3 2
v 3 3 2
v 6 3 2
v 7 3 2
v -3 3 1
v -2 3 1
v 8 3 1
v 9 3 1
v -5 3 -0
v -4 3 -0
v -2 3 -0
v 0 3 -0
v 5 3 -0
v 6 3 -0
v 7 3 -0
v 8 3 -0
v 9 3 -0
v -4 3 -1
v -3 3 -1
v 0 3 -1
v 2 3 -1
v 3 3 -1
v 5 3 -1
v 7 3 -1
v 8 3 -1
v -3 3 -2
v -1 3 -2
v 5 3 -2
v 6 3 -2
v 7 3 -2
v -1 3 -3
v 2 3 -3
v 3 3 -3
v 5 3 -3

# faces
f 3/2/1 2/2/1 1/2/1
f 4/2/1 2/2/1 3/2/1
f 7/2/1 6/2/1 5/2/1
f 8/2/1 6/2/1 7/2/1
f 11/2/1 10/2/1 9/2/1
f 12/2/1 10/2/1 11/2/1
f 15/2/1 14/2/1 13/2/1
f 16/2/1 14/2/1 15/2/1
f 19/2/1 18/2/1 17/2/1
f 20/2/1 18/2/1 19/2/1
f 23/2/1 22/2/1 21/2/1
f 24/2/1 22/2/1 23/2/1
f 27/2/1 26/2/1 25/2/1
f 28/2/1 26/2/1 27/2/1
f 31/2/1 30/2/1 29/2/1
f 32/2/1 30/2/1 31/2/1
f 35/2/1 34/2/1 33/2/1
f 36/2/1 34/2/1 35/2/1
f 39/2/1 38/2/1 37/2/1
f 40/2/1 38/2/1 39/2/1
f 44/1/1 42/1/1 41/1/1
f 45/1/1 42/1/1 44/1/1
f 46/1/1 42/1/1 45/1/1
f 47/1/1 44/1/1 43/1/1
f 48/4/1 45/4/1 44/4/1
f 48/1/1 44/1/1 47/1/1
f 49/4/1 45/4/1 48/4/1
f 51/1/1 50/1/1 49/1/1
f 51/1/1 49/1/1 48/1/1
f 52/1/1 50/1/1 51/1/1
f 55/3/1 54/3/1 53/3/1
f 56/3/1 54/3/1 55/3/1
f 59/3/1 58/3/1 57/3/1
f 60/3/1 58/3/1 59/3/1
f 64/1/1 62/1/1 61/1/1
f 65/1/1 62/1/1 64/1/1
f 66/1/1 62/1/1 65/1/1
f 67/1/1 64/1/1 63/1/1
f 68/1/1 64/1/1 67/1/1
f 71/1/1 70/1/1 69/1/1
f 71/1/1 69/1/1 68/1/1
f 72/1/1 70/1/1 71/1/1
f 75/1/1 74/1/1 73/1/1
f 76/1/1 74/1/1 75/1/1
f 79/1/1 78/1/1 77/1/1
f 80/1/1 78/1/1 79/1/1
f 81/2/2 82/2/2 83/2/2
f 83/2/2 82/2/2 84/2/2
f 85/2/2 86/2/2 87/2/2
f 87/2/2 86/2/2 88/2/2
f 89/2/2 90/2/2 91/2/2
f 91/2/2 90/2/2 92/2/2
f 93/2/2 94/2/2 95/2/2
f 95/2/2 94/2/2 96/2/2
f 97/2/2 98/2/2 99/2/2
f 99/2/2 98/2/2 100/2/2
f 101/2/2 102/2/2 103/2/2
f 103/2/2 102/2/2 104/2/2
f 105/2/2 106/2/2 107/2/2
f 107/2/2 106/2/2 108/2/2
f 109/2/2 110/2/2 111/2/2
f 111/2/2 110/2/2 112/2/2
f 113/2/2 114/2/2 115/2/2
f 115/2/2 114/2/2 116/2/2
f 117/2/2 118/2/2 119/2/2
f 119/2/2 118/2/2 120/2/2
f 121/1/2 122/1/2 124/1/2
f 124/1/2 122/1/2 125/1/2
f 125/1/2 122/1/2 126/1/2
f 123/1/2 124/1/2 127/1/2
f 127/1/2 124/1/2 128/1/2
f 129/1/2 130/1/2 131/1/2
f 128/1/2 129/1/2 131/1/2
f 131/1/2 130/1/2 132/1/2
f 133/3/2 134/3/2 135/3/2
f 135/3/2 134/3/2 136/3/2
f 137/3/2 138/3/2 139/3/2
f 139/3/2 138/3/2 140/3/2
f 141/1/2 142/1/2 146/1/2
f 146/1/2 142/1/2 147/1/2
f 147/1/2 142/1/2 148/1/2
f 143/1/2 144/1/2 149/1/2
f 149/1/2 144/1/2 150/1/2
f 145/1/2 146/1/2 151/1/2
f 151/1/2 146/1/2 152/1/2
f 152/1/2 153/1/2 157/1/2
f 153/1/2 154/1/2 157/1/2
f 157/1/2 154/1/2 158/1/2
f 155/1/2 156/1/2 159/1/2
f 159/1/2 156/1/2 160/1/2
f 161/1/2 162/1/2 165/1/2
f 165/1/2 162/1/2 166/1/2
f 163/4/2 164/4/2 167/4/2
f 167/4/2 164/4/2 168/4/2
f 169/1/2 170/1/2 171/1/2
f 171/1/2 170/1/2 172/1/2
f 173/1/2 174/1/2 175/1/2
f 175/1/2 174/1/2 176/1/2
f 177/1/2 178/1/2 179/1/2
f 179/1/2 178/1/2 180/1/2
f 185/2/3 182/2/3 181/2/3
f 186/2/3 182/2/3 185/2/3
f 187/2/3 184/2/3 183/2/3
f 188/2/3 184/2/3 187/2/3
f 193/2/3 190/2/3 189/2/3
f 194/2/3 190/2/3 193/2/3
f 195/2/3 192/2/3 191/2/3
f 196/2/3 192/2/3 195/2/3
f 199/1/3 198/1/3 197/1/3
f 200/1/3 198/1/3 199/1/3
f 203/1/3 202/1/3 201/1/3
f 204/1/3 202/1/3 203/1/3
f 209/2/3 206/2/3 205/2/3
f 210/2/3 206/2/3 209/2/3
f 211/2/3 208/2/3 207/2/3
f 212/2/3 208/2/3 211/2/3
f 217/1/3 214/1/3 213/1/3
f 218/1/3 214/1/3 217/1/3
f 219/1/3 216/1/3 215/1/3
f 220/1/3 216/1/3 219/1/3
f 222/4/3 219/4/3 218/4/3
f 223/4/3 219/4/3 222/4/3
f 225/1/3 222/1/3 221/1/3
f 226/1/3 222/1/3 225/1/3
f 227/1/3 224/1/3 223/1/3
f 228/1/3 224/1/3 227/1/3
f 229/4/3 227/4/3 226/4/3
f 230/4/3 227/4/3 229/4/3
f 235/2/3 232/2/3 231/2/3
f 236/2/3 232/2/3 235/2/3
f 237/2/3 234/2/3 233/2/3
f 238/2/3 234/2/3 237/2/3
f 243/1/3 240/1/3 239/1/3
f 244/1/3 240/1/3 243/1/3
f 245/1/3 242/1/3 241/1/3
f 246/1/3 242/1/3 245/1/3
f 251/2/3 248/2/3 247/2/3
f 252/2/3 248/2/3 251/2/3
f 253/2/3 250/2/3 249/2/3
f 254/2/3 250/2/3 253/2/3
f 259/3/3 256/3/3 255/3/3
f 260/3/3 256/3/3 259/3/3
f 261/3/3 258/3/3 257/3/3
f 262/3/3 258/3/3 261/3/3
f 267/1/3 264/1/3 263/1/3
f 268/1/3 264/1/3 267/1/3
f 269/1/3 266/1/3 265/1/3
f 270/1/3 266/1/3 269/1/3
f 275/2/3 272/2/3 271/2/3
f 276/2/3 272/2/3 275/2/3
f 277/2/3 274/2/3 273/2/3
f 278/2/3 274/2/3 277/2/3
f 283/3/3 280/3/3 279/3/3
f 284/3/3 280/3/3 283/3/3
f 285/3/3 282/3/3 281/3/3
f 286/3/3 282/3/3 285/3/3
f 287/2/4 288/2/4 291/2/4
f 291/2/4 288/2/4 292/2/4
f 289/2/4 290/2/4 293/2/4
f 293/2/4 290/2/4 294/2/4
f 295/4/4 296/4/4 297/4/4
f 297/4/4 296/4/4 298/4/4
f 297/4/4 298/4/4 299/4/4
f 299/4/4 298/4/4 300/4/4
f 299/4/4 300/4/4 301/4/4
f 301/4/4 300/4/4 302/4/4
f 301/4/4 302/4/4 303/4/4
f 303/4/4 302/4/4 304/4/4
f 305/2/4 306/2/4 309/2/4
f 309/2/4 306/2/4 310/2/4
f 307/2/4 308/2/4 311/2/4
f 311/2/4 308/2/4 312/2/4
f 313/1/4 314/1/4 317/1/4
f 317/1/4 314/1/4 318/1/4
f 315/1/4 316/1/4 319/1/4
f 319/1/4 316/1/4 320/1/4
f 321/2/4 322/2/4 325/2/4
f 325/2/4 322/2/4 326/2/4
f 323/2/4 324/2/4 327/2/4
f 327/2/4 324/2/4 328/2/4
f 329/1/4 330/1/4 333/1/4
f 333/1/4 330/1/4 334/1/4
f 331/1/4 332/1/4 335/1/4
f 335/1/4 332/1/4 336/1/4
f 337/2/4 338/2/4 341/2/4
f 341/2/4 338/2/4 342/2/4
f 339/2/4 340/2/4 343/2/4
f 343/2/4 340/2/4 344/2/4
f 345/3/4 346/3/4 349/3/4
f 349/3/4 346/3/4 350/3/4
f 347/3/4 348/3/4 351/3/4
f 351/3/4 348/3/4 352/3/4
f 349/1/4 350/1/4 353/1/4
f 353/1/4 350/1/4 354/1/4
f 351/1/4 352/1/4 355/1/4
f 355/1/4 352/1/4 356/1/4
f 357/2/4 358/2/4 361/2/4
f 361/2/4 358/2/4 362/2/4
f 359/2/4 360/2/4 363/2/4
f 363/2/4 360/2/4 364/2/4
f 361/1/4 362/1/4 365/1/4
f 365/1/4 362/1/4 366/1/4
f 363/1/4 364/1/4 367/1/4
f 367/1/4 364/1/4 368/1/4
f 365/3/4 366/3/4 369/3/4
f 369/3/4 366/3/4 370/3/4
f 367/3/4 368/3/4 371/3/4
f 371/3/4 368/3/4 372/3/4
f 375/2/5 374/2/5 373/2/5
f 377/2/5 375/2/5 373/2/5
f 377/2/5 376/2/5 375/2/5
f 378/2/5 376/2/5 377/2/5
f 379/2/5 376/2/5 378/2/5
f 385/2/5 379/2/5 378/2/5
f 385/2/5 380/2/5 379/2/5
f 389/2/5 385/2/5 378/2/5
f 389/2/5 386/2/5 385/2/5
f 390/2/5 386/2/5 389/2/5
f 391/2/5 386/2/5 390/2/5
f 394/1/5 384/1/5 383/1/5
f 395/1/5 384/1/5 394/1/5
f 396/1/5 388/1/5 387/1/5
f 397/1/5 388/1/5 396/1/5
f 398/2/5 392/2/5 391/2/5
f 398/2/5 391/2/5 390/2/5
f 399/2/5 392/2/5 398/2/5
f 400/2/5 392/2/5 399/2/5
f 401/1/5 382/1/5 381/1/5
f 402/1/5 382/1/5 401/1/5
f 403/3/5 394/3/5 393/3/5
f 404/1/5 395/1/5 394/1/5
f 404/1/5 396/1/5 395/1/5
f 405/1/5 396/1/5 404/1/5
f 406/2/5 400/2/5 399/2/5
f 406/2/5 401/2/5 400/2/5
f 407/2/5 401/2/5 406/2/5
f 408/3/5 403/3/5 402/3/5
f 408/3/5 394/3/5 403/3/5
f 409/1/5 404/1/5 394/1/5
f 409/3/5 394/3/5 408/3/5
f 410/1/5 404/1/5 409/1/5
f 411/2/5 401/2/5 407/2/5
f 412/1/5 402/1/5 401/1/5
f 412/2/5 401/2/5 411/2/5
f 413/3/5 408/3/5 402/3/5
f 413/1/5 402/1/5 412/1/5
f 414/3/5 408/3/5 413/3/5
f 419/1/5 416/1/5 415/1/5
f 420/1/5 416/1/5 419/1/5
f 421/1/5 418/1/5 417/1/5
f 422/1/5 418/1/5 421/1/5
f 424/4/5 421/4/5 420/4/5
f 425/4/5 421/4/5 424/4/5
f 426/4/5 423/4/5 422/4/5
f 427/4/5 423/4/5 426/4/5
f 430/2/5 429/2/5 428/2/5
f 432/2/5 430/2/5 428/2/5
f 432/2/5 431/2/5 430/2/5
f 433/2/5 431/2/5 432/2/5
f 434/2/5 431/2/5 433/2/5
f 436/2/5 435/2/5 434/2/5
f 436/2/5 434/2/5 433/2/5
f 444/2/5 436/2/5 433/2/5
f 444/2/5 437/2/5 436/2/5
f 445/2/5 437/2/5 444/2/5
f 446/2/5 437/2/5 445/2/5
f 449/1/5 441/1/5 440/1/5
f 450/1/5 441/1/5 449/1/5
f 451/1/5 443/1/5 442/1/5
f 452/1/5 443/1/5 451/1/5
f 453/2/5 447/2/5 446/2/5
f 453/2/5 446/2/5 445/2/5
f 454/2/5 447/2/5 453/2/5
f 455/2/5 447/2/5 454/2/5
f 456/1/5 439/1/5 438/1/5
f 457/1/5 439/1/5 456/1/5
f 458/3/5 449/3/5 448/3/5
f 459/1/5 450/1/5 449/1/5
f 459/1/5 451/1/5 450/1/5
f 460/1/5 451/1/5 459/1/5
f 461/2/5 455/2/5 454/2/5
f 461/2/5 456/2/5 455/2/5
f 462/2/5 456/2/5 461/2/5
f 463/3/5 458/3/5 457/3/5
f 463/3/5 449/3/5 458/3/5
f 464/1/5 459/1/5 449/1/5
f 464/3/5 449/3/5 463/3/5
f 465/1/5 459/1/5 464/1/5
f 466/2/5 456/2/5 462/2/5
f 467/1/5 457/1/5 456/1/5
f 467/2/5 456/2/5 466/2/5
f 468/3/5 463/3/5 457/3/5
f 468/1/5 457/1/5 467/1/5
f 469/3/5 463/3/5 468/3/5
f 470/2/6 471/2/6 472/2/6
f 470/2/6 472/2/6 474/2/6
f 472/2/6 473/2/6 474/2/6
f 474/2/6 473/2/6 475/2/6
f 475/2/6 473/2/6 476/2/6
f 476/2/6 477/2/6 478/2/6
f 475/2/6 476/2/6 478/2/6
f 475/2/6 478/2/6 486/2/6
f 478/2/6 479/2/6 486/2/6
f 486/2/6 479/2/6 487/2/6
f 487/2/6 479/2/6 488/2/6
f 482/1/6 483/1/6 491/1/6
f 491/1/6 483/1/6 492/1/6
f 484/1/6 485/1/6 493/1/6
f 493/1/6 485/1/6 494/1/6
f 488/2/6 489/2/6 495/2/6
f 487/2/6 488/2/6 495/2/6
f 495/2/6 489/2/6 496/2/6
f 496/2/6 489/2/6 497/2/6
f 480/1/6 481/1/6 498/1/6
f 498/1/6 481/1/6 499/1/6
f 490/3/6 491/3/6 500/3/6
f 491/1/6 492/1/6 501/1/6
f 492/1/6 493/1/6 501/1/6
f 501/1/6 493/1/6 502/1/6
f 496/2/6 497/2/6 503/2/6
f 497/2/6 498/2/6 503/2/6
f 503/2/6 498/2/6 504/2/6
f 499/3/6 500/3/6 505/3/6
f 500/3/6 491/3/6 505/3/6
f 491/1/6 501/1/6 506/1/6
f 505/3/6 491/3/6 506/3/6
f 506/1/6 501/1/6 507/1/6
f 504/2/6 498/2/6 508/2/6
f 498/1/6 499/1/6 509/1/6
f 508/2/6 498/2/6 509/2/6
f 499/3/6 505/3/6 510/3/6
f 509/1/6 499/1/6 510/1/6
f 510/3/6 505/3/6 511/3/6
f 512/1/6 513/1/6 516/1/6
f 516/1/6 513/1/6 517/1/6
f 514/1/6 515/1/6 518/1/6
f 518/1/6 515/1/6 519/1/6
f 517/4/6 518/4/6 521/4/6
f 521/4/6 518/4/6 522/4/6
f 519/4/6 520/4/6 523/4/6
f 523/4/6 520/4/6 524/4/6
f 525/2/6 526/2/6 527/2/6
f 525/2/6 527/2/6 529/2/6
f 527/2/6 528/2/6 529/2/6
f 529/2/6 528/2/6 530/2/6
f 530/2/6 528/2/6 531/2/6
f 530/2/6 531/2/6 537/2/6
f 531/2/6 532/2/6 537/2/6
f 530/2/6 537/2/6 541/2/6
f 537/2/6 538/2/6 541/2/6
f 541/2/6 538/2/6 542/2/6
f 542/2/6 538/2/6 543/2/6
f 535/1/6 536/1/6 546/1/6
f 546/1/6 536/1/6 547/1/6
f 539/1/6 540/1/6 548/1/6
f 548/1/6 540/1/6 549/1/6
f 543/2/6 544/2/6 550/2/6
f 542/2/6 543/2/6 550/2/6
f 550/2/6 544/2/6 551/2/6
f 551/2/6 544/2/6 552/2/6
f 533/1/6 534/1/6 553/1/6
f 553/1/6 534/1/6 554/1/6
f 545/3/6 546/3/6 555/3/6
f 546/1/6 547/1/6 556/1/6
f 547/1/6 548/1/6 556/1/6
f 556/1/6 548/1/6 557/1/6
f 551/2/6 552/2/6 558/2/6
f 552/2/6 553/2/6 558/2/6
f 558/2/6 553/2/6 559/2/6
f 554/3/6 555/3/6 560/3/6
f 555/3/6 546/3/6 560/3/6
f 546/1/6 556/1/6 561/1/6
f 560/3/6 546/3/6 561/3/6
f 561/1/6 556/1/6 562/1/6
f 559/2/6 553/2/6 563/2/6
f 553/1/6 554/1/6 564/1/6
f 563/2/6 553/2/6 564/2/6
f 554/3/6 560/3/6 565/3/6
f 564/1/6 554/1/6 565/1/6
f 565/3/6 560/3/6 566/3/6
