# MagicaVoxel @ Ephtracy

# group
g MeleeCyborg-2

# material
mtllib MeleeCyborg-2.mtl
usemtl palette

# normals
vn -1 0 0
vn 1 0 0
vn 0 0 1
vn 0 0 -1
vn 0 -1 0
vn 0 1 0

# texcoords
vt 0.845703 0.5
vt 0.876953 0.5
vt 0.880859 0.5
vt 0.970703 0.5

# verts
v -9 0 1
v -9 0 -0
v -9 1 1
v -9 1 -0
v -9 2 1
v -9 2 -0
v -9 3 1
v -9 3 -0
v -8 0 -0
v -8 0 -1
v -8 1 2
v -8 1 1
v -8 1 -0
v -8 1 -1
v -8 2 2
v -8 2 1
v -8 2 -0
v -8 2 -1
v -8 3 -0
v -8 3 -1
v -7 0 2
v -7 0 -0
v -7 0 -1
v -7 0 -2
v -7 1 3
v -7 1 2
v -7 1 1
v -7 1 -0
v -7 1 -1
v -7 1 -2
v -7 2 3
v -7 2 2
v -7 2 1
v -7 2 -0
v -7 2 -1
v -7 2 -2
v -7 3 2
v -7 3 -0
v -7 3 -1
v -7 3 -2
v -5 0 -2
v -5 0 -3
v -5 1 -2
v -5 1 -3
v -5 2 -2
v -5 2 -3
v -5 3 -2
v -5 3 -3
v -3 0 2
v -3 0 -1
v -3 1 3
v -3 1 2
v -3 1 1
v -3 1 -0
v -3 1 -1
v -3 2 3
v -3 2 2
v -3 2 1
v -3 2 -0
v -3 2 -1
v -3 3 2
v -3 3 -1
v 0 0 -0
v 0 0 -1
v 0 1 -0
v 0 1 -1
v 0 2 -0
v 0 2 -1
v 0 3 -0
v 0 3 -1
v 2 0 1
v 2 0 -0
v 2 1 1
v 2 1 -0
v 2 2 1
v 2 2 -0
v 2 3 1
v 2 3 -0
v 3 0 2
v 3 0 1
v 3 1 2
v 3 1 1
v 3 2 2
v 3 2 1
v 3 3 2
v 3 3 1
v 4 0 3
v 4 0 2
v 4 1 3
v 4 1 2
v 4 2 3
v 4 2 2
v 4 3 3
v 4 3 2
v 5 0 4
v 5 0 3
v 5 1 4
v 5 1 3
v 5 2 4
v 5 2 3
v 5 3 4
v 5 3 3
v -8 0 1
v -8 0 -0
v -8 1 1
v -8 1 -0
v -8 2 1
v -8 2 -0
v -8 3 1
v -8 3 -0
v -6 0 2
v -6 0 -0
v -6 1 3
v -6 1 2
v -6 1 1
v -6 1 -0
v -6 2 3
v -6 2 2
v -6 2 1
v -6 2 -0
v -6 3 2
v -6 3 -0
v -5 0 -0
v -5 0 -1
v -5 1 -0
v -5 1 -1
v -5 2 -0
v -5 2 -1
v -5 3 -0
v -5 3 -1
v -2 0 2
v -2 0 -1
v -2 1 3
v -2 1 2
v -2 1 1
v -2 1 -0
v -2 1 -1
v -2 2 3
v -2 2 2
v -2 2 1
v -2 2 -0
v -2 2 -1
v -2 3 2
v -2 3 -1
v 1 0 -2
v 1 0 -3
v 1 1 -2
v 1 1 -3
v 1 2 -2
v 1 2 -3
v 1 3 -2
v 1 3 -3
v 3 0 -1
v 3 0 -2
v 3 1 -1
v 3 1 -2
v 3 2 -1
v 3 2 -2
v 3 3 -1
v 3 3 -2
v 4 0 -0
v 4 0 -1
v 4 1 -0
v 4 1 -1
v 4 2 -0
v 4 2 -1
v 4 3 -0
v 4 3 -1
v 5 0 2
v 5 0 -0
v 5 1 2
v 5 1 -0
v 5 2 2
v 5 2 -0
v 5 3 2
v 5 3 -0
v 6 0 4
v 6 0 2
v 6 1 4
v 6 1 2
v 6 2 4
v 6 2 2
v 6 3 4
v 6 3 2
v 5 0 4
v 5 1 4
v 5 2 4
v 5 3 4
v 6 0 4
v 6 1 4
v 6 2 4
v 6 3 4
v -7 1 3
v -7 2 3
v -6 1 3
v -6 2 3
v -3 1 3
v -3 2 3
v -2 1 3
v -2 2 3
v 4 0 3
v 4 1 3
v 4 2 3
v 4 3 3
v 5 0 3
v 5 1 3
v 5 2 3
v 5 3 3
v -8 1 2
v -8 2 2
v -7 0 2
v -7 1 2
v -7 2 2
v -7 3 2
v -6 0 2
v -6 1 2
v -6 2 2
v -6 3 2
v -3 0 2
v -3 1 2
v -3 2 2
v -3 3 2
v -2 0 2
v -2 1 2
v -2 2 2
v -2 3 2
v 3 0 2
v 3 1 2
v 3 2 2
v 3 3 2
v 4 0 2
v 4 1 2
v 4 2 2
v 4 3 2
v -9 0 1
v -9 1 1
v -9 2 1
v -9 3 1
v -8 0 1
v -8 1 1
v -8 2 1
v -8 3 1
v 2 0 1
v 2 1 1
v 2 2 1
v 2 3 1
v 3 0 1
v 3 1 1
v 3 2 1
v 3 3 1
v -8 0 -0
v -8 1 -0
v -8 2 -0
v -8 3 -0
v -7 0 -0
v -7 1 -0
v -7 2 -0
v -7 3 -0
v -6 0 -0
v -6 1 -0
v -6 2 -0
v -6 3 -0
v -5 0 -0
v -5 1 -0
v -5 2 -0
v -5 3 -0
v 0 0 -0
v 0 1 -0
v 0 2 -0
v 0 3 -0
v 2 0 -0
v 2 1 -0
v 2 2 -0
v 2 3 -0
v -5 0 -1
v -5 1 -1
v -5 2 -1
v -5 3 -1
v -3 0 -1
v -3 1 -1
v -3 2 -1
v -3 3 -1
v -2 0 -1
v -2 1 -1
v -2 2 -1
v -2 3 -1
v 0 0 -1
v 0 1 -1
v 0 2 -1
v 0 3 -1
v 5 0 2
v 5 1 2
v 5 2 2
v 5 3 2
v 6 0 2
v 6 1 2
v 6 2 2
v 6 3 2
v -8 1 1
v -8 2 1
v -7 1 1
v -7 2 1
v -6 1 1
v -6 2 1
v -3 1 1
v -3 2 1
v -9 0 -0
v -9 1 -0
v -9 2 -0
v -9 3 -0
v -8 0 -0
v -8 1 -0
v -8 2 -0
v -8 3 -0
v -7 1 -0
v -7 2 -0
v -6 1 -0
v -6 2 -0
v -3 1 -0
v -3 2 -0
v -2 1 -0
v -2 2 -0
v 4 0 -0
v 4 1 -0
v 4 2 -0
v 4 3 -0
v 5 0 -0
v 5 1 -0
v 5 2 -0
v 5 3 -0
v -8 0 -1
v -8 1 -1
v -8 2 -1
v -8 3 -1
v -7 0 -1
v -7 1 -1
v -7 2 -1
v -7 3 -1
v 3 0 -1
v 3 1 -1
v 3 2 -1
v 3 3 -1
v 4 0 -1
v 4 1 -1
v 4 2 -1
v 4 3 -1
v -7 0 -2
v -7 1 -2
v -7 2 -2
v -7 3 -2
v -6 0 -2
v -6 1 -2
v -6 2 -2
v -6 3 -2
v -5 0 -2
v -5 1 -2
v -5 2 -2
v -5 3 -2
v 1 0 -2
v 1 1 -2
v 1 2 -2
v 1 3 -2
v 3 0 -2
v 3 1 -2
v 3 2 -2
v 3 3 -2
v -5 0 -3
v -5 1 -3
v -5 2 -3
v -5 3 -3
v -3 0 -3
v -3 1 -3
v -3 2 -3
v -3 3 -3
v -2 0 -3
v -2 1 -3
v -2 2 -3
v -2 3 -3
v 1 0 -3
v 1 1 -3
v 1 2 -3
v 1 3 -3
v 5 0 4
v 6 0 4
v 4 0 3
v 5 0 3
v -7 0 2
v -6 0 2
v -3 0 2
v -2 0 2
v 3 0 2
v 4 0 2
v 5 0 2
v 6 0 2
v -9 0 1
v -8 0 1
v 2 0 1
v 3 0 1
v -9 0 -0
v -8 0 -0
v -7 0 -0
v -6 0 -0
v -5 0 -0
v 0 0 -0
v 2 0 -0
v 4 0 -0
v 5 0 -0
v -8 0 -1
v -7 0 -1
v -5 0 -1
v -3 0 -1
v -2 0 -1
v 0 0 -1
v 3 0 -1
v 4 0 -1
v -7 0 -2
v -6 0 -2
v -5 0 -2
v 1 0 -2
v 3 0 -2
v -5 0 -3
v -3 0 -3
v -2 0 -3
v 1 0 -3
v -7 1 3
v -6 1 3
v -3 1 3
v -2 1 3
v -8 1 2
v -7 1 2
v -6 1 2
v -3 1 2
v -2 1 2
v -8 1 1
v -7 1 1
v -6 1 1
v -3 1 1
v 5 2 4
v 6 2 4
v 4 2 3
v 5 2 3
v 3 2 2
v 4 2 2
v 5 2 2
v 6 2 2
v -9 2 1
v -8 2 1
v 2 2 1
v 3 2 1
v -9 2 -0
v -8 2 -0
v -7 2 -0
v -6 2 -0
v -5 2 -0
v -3 2 -0
v -2 2 -0
v 0 2 -0
v 2 2 -0
v 4 2 -0
v 5 2 -0
v -8 2 -1
v -7 2 -1
v -5 2 -1
v -3 2 -1
v -2 2 -1
v 0 2 -1
v 3 2 -1
v 4 2 -1
v -7 2 -2
v -6 2 -2
v -5 2 -2
v 1 2 -2
v 3 2 -2
v -5 2 -3
v -3 2 -3
v -2 2 -3
v 1 2 -3
v 5 1 4
v 6 1 4
v 4 1 3
v 5 1 3
v 3 1 2
v 4 1 2
v 5 1 2
v 6 1 2
v -9 1 1
v -8 1 1
v 2 1 1
v 3 1 1
v -9 1 -0
v -8 1 -0
v -7 1 -0
v -6 1 -0
v -5 1 -0
v -3 1 -0
v -2 1 -0
v 0 1 -0
v 2 1 -0
v 4 1 -0
v 5 1 -0
v -8 1 -1
v -7 1 -1
v -5 1 -1
v -3 1 -1
v -2 1 -1
v 0 1 -1
v 3 1 -1
v 4 1 -1
v -7 1 -2
v -6 1 -2
v -5 1 -2
v 1 1 -2
v 3 1 -2
v -5 1 -3
v -3 1 -3
v -2 1 -3
v 1 1 -3
v -7 2 3
v -6 2 3
v -3 2 3
v -2 2 3
v -8 2 2
v -7 2 2
v -6 2 2
v -3 2 2
v -2 2 2
v -8 2 1
v -7 2 1
v -6 2 1
v -3 2 1
v 5 3 4
v 6 3 4
v 4 3 3
v 5 3 3
v -7 3 2
v -6 3 2
v -3 3 2
v -2 3 2
v 3 3 2
v 4 3 2
v 5 3 2
v 6 3 2
v -9 3 1
v -8 3 1
v 2 3 1
v 3 3 1
v -9 3 -0
v -8 3 -0
v -7 3 -0
v -6 3 -0
v -5 3 -0
v 0 3 -0
v 2 3 -0
v 4 3 -0
v 5 3 -0
v -8 3 -1
v -7 3 -1
v -5 3 -1
v -3 3 -1
v -2 3 -1
v 0 3 -1
v 3 3 -1
v 4 3 -1
v -7 3 -2
v -6 3 -2
v -5 3 -2
v 1 3 -2
v 3 3 -2
v -5 3 -3
v -3 3 -3
v -2 3 -3
v 1 3 -3

# faces
f 3/1/1 2/1/1 1/1/1
f 4/1/1 2/1/1 3/1/1
f 7/1/1 6/1/1 5/1/1
f 8/1/1 6/1/1 7/1/1
f 13/1/1 10/1/1 9/1/1
f 14/1/1 10/1/1 13/1/1
f 15/4/1 12/4/1 11/4/1
f 16/4/1 12/4/1 15/4/1
f 19/1/1 18/1/1 17/1/1
f 20/1/1 18/1/1 19/1/1
f 26/1/1 22/1/1 21/1/1
f 27/1/1 22/1/1 26/1/1
f 28/1/1 22/1/1 27/1/1
f 29/1/1 24/1/1 23/1/1
f 30/1/1 24/1/1 29/1/1
f 31/1/1 26/1/1 25/1/1
f 32/1/1 26/1/1 31/1/1
f 33/1/1 28/1/1 27/1/1
f 34/1/1 28/1/1 33/1/1
f 37/1/1 33/1/1 32/1/1
f 37/1/1 34/1/1 33/1/1
f 38/1/1 34/1/1 37/1/1
f 39/1/1 36/1/1 35/1/1
f 40/1/1 36/1/1 39/1/1
f 43/3/1 42/3/1 41/3/1
f 44/3/1 42/3/1 43/3/1
f 47/3/1 46/3/1 45/3/1
f 48/3/1 46/3/1 47/3/1
f 52/1/1 50/1/1 49/1/1
f 53/1/1 50/1/1 52/1/1
f 54/1/1 50/1/1 53/1/1
f 55/1/1 50/1/1 54/1/1
f 56/1/1 52/1/1 51/1/1
f 57/1/1 52/1/1 56/1/1
f 58/1/1 54/1/1 53/1/1
f 59/1/1 54/1/1 58/1/1
f 61/1/1 60/1/1 59/1/1
f 61/1/1 59/1/1 58/1/1
f 61/1/1 58/1/1 57/1/1
f 62/1/1 60/1/1 61/1/1
f 65/2/1 64/2/1 63/2/1
f 66/2/1 64/2/1 65/2/1
f 69/2/1 68/2/1 67/2/1
f 70/2/1 68/2/1 69/2/1
f 73/2/1 72/2/1 71/2/1
f 74/2/1 72/2/1 73/2/1
f 77/2/1 76/2/1 75/2/1
f 78/2/1 76/2/1 77/2/1
f 81/2/1 80/2/1 79/2/1
f 82/2/1 80/2/1 81/2/1
f 85/2/1 84/2/1 83/2/1
f 86/2/1 84/2/1 85/2/1
f 89/2/1 88/2/1 87/2/1
f 90/2/1 88/2/1 89/2/1
f 93/2/1 92/2/1 91/2/1
f 94/2/1 92/2/1 93/2/1
f 97/2/1 96/2/1 95/2/1
f 98/2/1 96/2/1 97/2/1
f 101/2/1 100/2/1 99/2/1
f 102/2/1 100/2/1 101/2/1
f 103/1/2 104/1/2 105/1/2
f 105/1/2 104/1/2 106/1/2
f 107/1/2 108/1/2 109/1/2
f 109/1/2 108/1/2 110/1/2
f 111/1/2 112/1/2 114/1/2
f 114/1/2 112/1/2 115/1/2
f 115/1/2 112/1/2 116/1/2
f 113/1/2 114/1/2 117/1/2
f 117/1/2 114/1/2 118/1/2
f 115/1/2 116/1/2 119/1/2
f 119/1/2 116/1/2 120/1/2
f 118/1/2 119/1/2 121/1/2
f 119/1/2 120/1/2 121/1/2
f 121/1/2 120/1/2 122/1/2
f 123/3/2 124/3/2 125/3/2
f 125/3/2 124/3/2 126/3/2
f 127/3/2 128/3/2 129/3/2
f 129/3/2 128/3/2 130/3/2
f 131/1/2 132/1/2 134/1/2
f 134/1/2 132/1/2 135/1/2
f 135/1/2 132/1/2 136/1/2
f 136/1/2 132/1/2 137/1/2
f 133/1/2 134/1/2 138/1/2
f 134/4/2 135/4/2 139/4/2
f 138/1/2 134/1/2 139/1/2
f 135/1/2 136/1/2 140/1/2
f 139/4/2 135/4/2 140/4/2
f 140/1/2 136/1/2 141/1/2
f 141/1/2 142/1/2 143/1/2
f 140/1/2 141/1/2 143/1/2
f 139/1/2 140/1/2 143/1/2
f 143/1/2 142/1/2 144/1/2
f 145/2/2 146/2/2 147/2/2
f 147/2/2 146/2/2 148/2/2
f 149/2/2 150/2/2 151/2/2
f 151/2/2 150/2/2 152/2/2
f 153/2/2 154/2/2 155/2/2
f 155/2/2 154/2/2 156/2/2
f 157/2/2 158/2/2 159/2/2
f 159/2/2 158/2/2 160/2/2
f 161/2/2 162/2/2 163/2/2
f 163/2/2 162/2/2 164/2/2
f 165/2/2 166/2/2 167/2/2
f 167/2/2 166/2/2 168/2/2
f 169/2/2 170/2/2 171/2/2
f 171/2/2 170/2/2 172/2/2
f 173/2/2 174/2/2 175/2/2
f 175/2/2 174/2/2 176/2/2
f 177/2/2 178/2/2 179/2/2
f 179/2/2 178/2/2 180/2/2
f 181/2/2 182/2/2 183/2/2
f 183/2/2 182/2/2 184/2/2
f 189/2/3 186/2/3 185/2/3
f 190/2/3 186/2/3 189/2/3
f 191/2/3 188/2/3 187/2/3
f 192/2/3 188/2/3 191/2/3
f 195/1/3 194/1/3 193/1/3
f 196/1/3 194/1/3 195/1/3
f 199/1/3 198/1/3 197/1/3
f 200/1/3 198/1/3 199/1/3
f 205/2/3 202/2/3 201/2/3
f 206/2/3 202/2/3 205/2/3
f 207/2/3 204/2/3 203/2/3
f 208/2/3 204/2/3 207/2/3
f 212/4/3 210/4/3 209/4/3
f 213/4/3 210/4/3 212/4/3
f 215/1/3 212/1/3 211/1/3
f 216/1/3 212/1/3 215/1/3
f 217/1/3 214/1/3 213/1/3
f 218/1/3 214/1/3 217/1/3
f 220/4/3 217/4/3 216/4/3
f 221/4/3 217/4/3 220/4/3
f 223/1/3 220/1/3 219/1/3
f 224/1/3 220/1/3 223/1/3
f 225/1/3 222/1/3 221/1/3
f 226/1/3 222/1/3 225/1/3
f 231/2/3 228/2/3 227/2/3
f 232/2/3 228/2/3 231/2/3
f 233/2/3 230/2/3 229/2/3
f 234/2/3 230/2/3 233/2/3
f 239/1/3 236/1/3 235/1/3
f 240/1/3 236/1/3 239/1/3
f 241/1/3 238/1/3 237/1/3
f 242/1/3 238/1/3 241/1/3
f 247/2/3 244/2/3 243/2/3
f 248/2/3 244/2/3 247/2/3
f 249/2/3 246/2/3 245/2/3
f 250/2/3 246/2/3 249/2/3
f 255/1/3 252/1/3 251/1/3
f 256/1/3 252/1/3 255/1/3
f 257/1/3 254/1/3 253/1/3
f 258/1/3 254/1/3 257/1/3
f 263/3/3 260/3/3 259/3/3
f 264/3/3 260/3/3 263/3/3
f 265/3/3 262/3/3 261/3/3
f 266/3/3 262/3/3 265/3/3
f 271/2/3 268/2/3 267/2/3
f 272/2/3 268/2/3 271/2/3
f 273/2/3 270/2/3 269/2/3
f 274/2/3 270/2/3 273/2/3
f 279/3/3 276/3/3 275/3/3
f 280/3/3 276/3/3 279/3/3
f 281/3/3 278/3/3 277/3/3
f 282/3/3 278/3/3 281/3/3
f 287/2/3 284/2/3 283/2/3
f 288/2/3 284/2/3 287/2/3
f 289/2/3 286/2/3 285/2/3
f 290/2/3 286/2/3 289/2/3
f 291/2/4 292/2/4 295/2/4
f 295/2/4 292/2/4 296/2/4
f 293/2/4 294/2/4 297/2/4
f 297/2/4 294/2/4 298/2/4
f 299/4/4 300/4/4 301/4/4
f 301/4/4 300/4/4 302/4/4
f 303/4/4 304/4/4 305/4/4
f 305/4/4 304/4/4 306/4/4
f 307/1/4 308/1/4 311/1/4
f 311/1/4 308/1/4 312/1/4
f 309/1/4 310/1/4 313/1/4
f 313/1/4 310/1/4 314/1/4
f 315/1/4 316/1/4 317/1/4
f 317/1/4 316/1/4 318/1/4
f 319/1/4 320/1/4 321/1/4
f 321/1/4 320/1/4 322/1/4
f 323/2/4 324/2/4 327/2/4
f 327/2/4 324/2/4 328/2/4
f 325/2/4 326/2/4 329/2/4
f 329/2/4 326/2/4 330/2/4
f 331/1/4 332/1/4 335/1/4
f 335/1/4 332/1/4 336/1/4
f 333/1/4 334/1/4 337/1/4
f 337/1/4 334/1/4 338/1/4
f 339/2/4 340/2/4 343/2/4
f 343/2/4 340/2/4 344/2/4
f 341/2/4 342/2/4 345/2/4
f 345/2/4 342/2/4 346/2/4
f 347/1/4 348/1/4 351/1/4
f 351/1/4 348/1/4 352/1/4
f 349/1/4 350/1/4 353/1/4
f 353/1/4 350/1/4 354/1/4
f 351/3/4 352/3/4 355/3/4
f 355/3/4 352/3/4 356/3/4
f 353/3/4 354/3/4 357/3/4
f 357/3/4 354/3/4 358/3/4
f 359/2/4 360/2/4 363/2/4
f 363/2/4 360/2/4 364/2/4
f 361/2/4 362/2/4 365/2/4
f 365/2/4 362/2/4 366/2/4
f 367/3/4 368/3/4 371/3/4
f 371/3/4 368/3/4 372/3/4
f 369/3/4 370/3/4 373/3/4
f 373/3/4 370/3/4 374/3/4
f 371/1/4 372/1/4 375/1/4
f 375/1/4 372/1/4 376/1/4
f 373/1/4 374/1/4 377/1/4
f 377/1/4 374/1/4 378/1/4
f 375/2/4 376/2/4 379/2/4
f 379/2/4 376/2/4 380/2/4
f 377/2/4 378/2/4 381/2/4
f 381/2/4 378/2/4 382/2/4
f 386/2/5 384/2/5 383/2/5
f 392/2/5 386/2/5 385/2/5
f 393/2/5 384/2/5 386/2/5
f 393/2/5 386/2/5 392/2/5
f 394/2/5 384/2/5 393/2/5
f 398/2/5 392/2/5 391/2/5
f 398/2/5 393/2/5 392/2/5
f 399/1/5 396/1/5 395/1/5
f 400/1/5 396/1/5 399/1/5
f 401/1/5 388/1/5 387/1/5
f 402/1/5 388/1/5 401/1/5
f 405/2/5 398/2/5 397/2/5
f 406/2/5 393/2/5 398/2/5
f 406/2/5 398/2/5 405/2/5
f 407/2/5 393/2/5 406/2/5
f 408/1/5 401/1/5 400/1/5
f 408/1/5 402/1/5 401/1/5
f 409/1/5 402/1/5 408/1/5
f 410/3/5 403/3/5 402/3/5
f 411/1/5 390/1/5 389/1/5
f 412/1/5 390/1/5 411/1/5
f 413/2/5 405/2/5 404/2/5
f 413/2/5 406/2/5 405/2/5
f 414/2/5 406/2/5 413/2/5
f 415/2/5 406/2/5 414/2/5
f 416/1/5 402/1/5 409/1/5
f 417/3/5 410/3/5 402/3/5
f 417/1/5 402/1/5 416/1/5
f 417/3/5 411/3/5 410/3/5
f 418/3/5 411/3/5 417/3/5
f 419/2/5 413/2/5 412/2/5
f 419/2/5 414/2/5 413/2/5
f 420/2/5 414/2/5 419/2/5
f 421/3/5 411/3/5 418/3/5
f 422/1/5 412/1/5 411/1/5
f 422/3/5 411/3/5 421/3/5
f 423/2/5 419/2/5 412/2/5
f 423/1/5 412/1/5 422/1/5
f 424/2/5 419/2/5 423/2/5
f 430/1/5 426/1/5 425/1/5
f 431/1/5 426/1/5 430/1/5
f 432/1/5 428/1/5 427/1/5
f 433/1/5 428/1/5 432/1/5
f 434/4/5 430/4/5 429/4/5
f 435/4/5 430/4/5 434/4/5
f 436/4/5 432/4/5 431/4/5
f 437/4/5 432/4/5 436/4/5
f 441/2/5 439/2/5 438/2/5
f 443/2/5 441/2/5 440/2/5
f 444/2/5 439/2/5 441/2/5
f 444/2/5 441/2/5 443/2/5
f 445/2/5 439/2/5 444/2/5
f 449/2/5 443/2/5 442/2/5
f 449/2/5 444/2/5 443/2/5
f 450/1/5 447/1/5 446/1/5
f 451/1/5 447/1/5 450/1/5
f 458/2/5 449/2/5 448/2/5
f 459/2/5 444/2/5 449/2/5
f 459/2/5 449/2/5 458/2/5
f 460/2/5 444/2/5 459/2/5
f 461/1/5 452/1/5 451/1/5
f 461/1/5 453/1/5 452/1/5
f 462/1/5 453/1/5 461/1/5
f 463/3/5 454/3/5 453/3/5
f 464/1/5 456/1/5 455/1/5
f 465/1/5 456/1/5 464/1/5
f 466/2/5 458/2/5 457/2/5
f 466/2/5 459/2/5 458/2/5
f 467/2/5 459/2/5 466/2/5
f 468/2/5 459/2/5 467/2/5
f 469/1/5 453/1/5 462/1/5
f 470/3/5 463/3/5 453/3/5
f 470/1/5 453/1/5 469/1/5
f 470/3/5 464/3/5 463/3/5
f 471/3/5 464/3/5 470/3/5
f 472/2/5 466/2/5 465/2/5
f 472/2/5 467/2/5 466/2/5
f 473/2/5 467/2/5 472/2/5
f 474/3/5 464/3/5 471/3/5
f 475/1/5 465/1/5 464/1/5
f 475/3/5 464/3/5 474/3/5
f 476/2/5 472/2/5 465/2/5
f 476/1/5 465/1/5 475/1/5
f 477/2/5 472/2/5 476/2/5
f 478/2/6 479/2/6 481/2/6
f 480/2/6 481/2/6 483/2/6
f 481/2/6 479/2/6 484/2/6
f 483/2/6 481/2/6 484/2/6
f 484/2/6 479/2/6 485/2/6
f 482/2/6 483/2/6 489/2/6
f 483/2/6 484/2/6 489/2/6
f 486/1/6 487/1/6 490/1/6
f 490/1/6 487/1/6 491/1/6
f 488/2/6 489/2/6 498/2/6
f 489/2/6 484/2/6 499/2/6
f 498/2/6 489/2/6 499/2/6
f 499/2/6 484/2/6 500/2/6
f 491/1/6 492/1/6 501/1/6
f 492/1/6 493/1/6 501/1/6
f 501/1/6 493/1/6 502/1/6
f 493/3/6 494/3/6 503/3/6
f 495/1/6 496/1/6 504/1/6
f 504/1/6 496/1/6 505/1/6
f 497/2/6 498/2/6 506/2/6
f 498/2/6 499/2/6 506/2/6
f 506/2/6 499/2/6 507/2/6
f 507/2/6 499/2/6 508/2/6
f 502/1/6 493/1/6 509/1/6
f 493/3/6 503/3/6 510/3/6
f 509/1/6 493/1/6 510/1/6
f 503/3/6 504/3/6 510/3/6
f 510/3/6 504/3/6 511/3/6
f 505/2/6 506/2/6 512/2/6
f 506/2/6 507/2/6 512/2/6
f 512/2/6 507/2/6 513/2/6
f 511/3/6 504/3/6 514/3/6
f 504/1/6 505/1/6 515/1/6
f 514/3/6 504/3/6 515/3/6
f 505/2/6 512/2/6 516/2/6
f 515/1/6 505/1/6 516/1/6
f 516/2/6 512/2/6 517/2/6
f 518/1/6 519/1/6 523/1/6
f 523/1/6 519/1/6 524/1/6
f 520/1/6 521/1/6 525/1/6
f 525/1/6 521/1/6 526/1/6
f 522/4/6 523/4/6 527/4/6
f 527/4/6 523/4/6 528/4/6
f 524/4/6 525/4/6 529/4/6
f 529/4/6 525/4/6 530/4/6
f 531/2/6 532/2/6 534/2/6
f 533/2/6 534/2/6 540/2/6
f 534/2/6 532/2/6 541/2/6
f 540/2/6 534/2/6 541/2/6
f 541/2/6 532/2/6 542/2/6
f 539/2/6 540/2/6 546/2/6
f 540/2/6 541/2/6 546/2/6
f 543/1/6 544/1/6 547/1/6
f 547/1/6 544/1/6 548/1/6
f 535/1/6 536/1/6 549/1/6
f 549/1/6 536/1/6 550/1/6
f 545/2/6 546/2/6 553/2/6
f 546/2/6 541/2/6 554/2/6
f 553/2/6 546/2/6 554/2/6
f 554/2/6 541/2/6 555/2/6
f 548/1/6 549/1/6 556/1/6
f 549/1/6 550/1/6 556/1/6
f 556/1/6 550/1/6 557/1/6
f 550/3/6 551/3/6 558/3/6
f 537/1/6 538/1/6 559/1/6
f 559/1/6 538/1/6 560/1/6
f 552/2/6 553/2/6 561/2/6
f 553/2/6 554/2/6 561/2/6
f 561/2/6 554/2/6 562/2/6
f 562/2/6 554/2/6 563/2/6
f 557/1/6 550/1/6 564/1/6
f 550/3/6 558/3/6 565/3/6
f 564/1/6 550/1/6 565/1/6
f 558/3/6 559/3/6 565/3/6
f 565/3/6 559/3/6 566/3/6
f 560/2/6 561/2/6 567/2/6
f 561/2/6 562/2/6 567/2/6
f 567/2/6 562/2/6 568/2/6
f 566/3/6 559/3/6 569/3/6
f 559/1/6 560/1/6 570/1/6
f 569/3/6 559/3/6 570/3/6
f 560/2/6 567/2/6 571/2/6
f 570/1/6 560/1/6 571/1/6
f 571/2/6 567/2/6 572/2/6
