# MagicaVoxel @ Ephtracy

# group
g HealthPickups-1

# material
mtllib HealthPickups-1.mtl
usemtl palette

# normals
vn -1 0 0
vn 1 0 0
vn 0 0 1
vn 0 0 -1
vn 0 -1 0
vn 0 1 0

# texcoords
vt 0.970703 0.5
vt 0.974609 0.5
vt 0.978516 0.5
vt 0.982422 0.5

# verts
v -2.5 0 2.5
v -2.5 0 0.5
v -2.5 0 -0.5
v -2.5 0 -2.5
v -2.5 1 0.5
v -2.5 1 -0.5
v -2.5 2 2.5
v -2.5 2 1.5
v -2.5 2 0.5
v -2.5 2 -0.5
v -2.5 2 -1.5
v -2.5 2 -2.5
v -2.5 3 1.5
v -2.5 3 0.5
v -2.5 3 -0.5
v -2.5 3 -1.5
v -2.5 4 1.5
v -2.5 4 0.5
v -2.5 4 -0.5
v -2.5 4 -1.5
v -2.5 5 2.5
v -2.5 5 1.5
v -2.5 5 0.5
v -2.5 5 -0.5
v -2.5 5 -1.5
v -2.5 5 -2.5
v -2.5 6 0.5
v -2.5 6 -0.5
v -2.5 7 2.5
v -2.5 7 0.5
v -2.5 7 -0.5
v -2.5 7 -2.5
v -1.5 2 2.5
v -1.5 2 1.5
v -1.5 2 -1.5
v -1.5 2 -2.5
v -1.5 3 2.5
v -1.5 3 1.5
v -1.5 3 -1.5
v -1.5 3 -2.5
v -1.5 4 2.5
v -1.5 4 1.5
v -1.5 4 -1.5
v -1.5 4 -2.5
v -1.5 5 2.5
v -1.5 5 1.5
v -1.5 5 -1.5
v -1.5 5 -2.5
v 0.5 0 2.5
v 0.5 0 1.5
v 0.5 0 -1.5
v 0.5 0 -2.5
v 0.5 1 2.5
v 0.5 1 1.5
v 0.5 1 -1.5
v 0.5 1 -2.5
v 0.5 6 2.5
v 0.5 6 1.5
v 0.5 6 -1.5
v 0.5 6 -2.5
v 0.5 7 2.5
v 0.5 7 1.5
v 0.5 7 -1.5
v 0.5 7 -2.5
v 1.5 0 1.5
v 1.5 0 0.5
v 1.5 0 -0.5
v 1.5 0 -1.5
v 1.5 1 1.5
v 1.5 1 0.5
v 1.5 1 -0.5
v 1.5 1 -1.5
v 1.5 6 1.5
v 1.5 6 0.5
v 1.5 6 -0.5
v 1.5 6 -1.5
v 1.5 7 1.5
v 1.5 7 0.5
v 1.5 7 -0.5
v 1.5 7 -1.5
v -1.5 0 1.5
v -1.5 0 0.5
v -1.5 0 -0.5
v -1.5 0 -1.5
v -1.5 1 1.5
v -1.5 1 0.5
v -1.5 1 -0.5
v -1.5 1 -1.5
v -1.5 6 1.5
v -1.5 6 0.5
v -1.5 6 -0.5
v -1.5 6 -1.5
v -1.5 7 1.5
v -1.5 7 0.5
v -1.5 7 -0.5
v -1.5 7 -1.5
v -0.5 0 2.5
v -0.5 0 1.5
v -0.5 0 -1.5
v -0.5 0 -2.5
v -0.5 1 2.5
v -0.5 1 1.5
v -0.5 1 -1.5
v -0.5 1 -2.5
v -0.5 6 2.5
v -0.5 6 1.5
v -0.5 6 -1.5
v -0.5 6 -2.5
v -0.5 7 2.5
v -0.5 7 1.5
v -0.5 7 -1.5
v -0.5 7 -2.5
v 1.5 2 2.5
v 1.5 2 1.5
v 1.5 2 -1.5
v 1.5 2 -2.5
v 1.5 3 2.5
v 1.5 3 1.5
v 1.5 3 -1.5
v 1.5 3 -2.5
v 1.5 4 2.5
v 1.5 4 1.5
v 1.5 4 -1.5
v 1.5 4 -2.5
v 1.5 5 2.5
v 1.5 5 1.5
v 1.5 5 -1.5
v 1.5 5 -2.5
v 2.5 0 2.5
v 2.5 0 0.5
v 2.5 0 -0.5
v 2.5 0 -2.5
v 2.5 1 0.5
v 2.5 1 -0.5
v 2.5 2 2.5
v 2.5 2 1.5
v 2.5 2 0.5
v 2.5 2 -0.5
v 2.5 2 -1.5
v 2.5 2 -2.5
v 2.5 3 1.5
v 2.5 3 0.5
v 2.5 3 -0.5
v 2.5 3 -1.5
v 2.5 4 1.5
v 2.5 4 0.5
v 2.5 4 -0.5
v 2.5 4 -1.5
v 2.5 5 2.5
v 2.5 5 1.5
v 2.5 5 0.5
v 2.5 5 -0.5
v 2.5 5 -1.5
v 2.5 5 -2.5
v 2.5 6 0.5
v 2.5 6 -0.5
v 2.5 7 2.5
v 2.5 7 0.5
v 2.5 7 -0.5
v 2.5 7 -2.5
v -2.5 0 2.5
v -2.5 2 2.5
v -2.5 5 2.5
v -2.5 7 2.5
v -1.5 2 2.5
v -1.5 3 2.5
v -1.5 4 2.5
v -1.5 5 2.5
v -0.5 0 2.5
v -0.5 1 2.5
v -0.5 2 2.5
v -0.5 3 2.5
v -0.5 4 2.5
v -0.5 5 2.5
v -0.5 6 2.5
v -0.5 7 2.5
v 0.5 0 2.5
v 0.5 1 2.5
v 0.5 2 2.5
v 0.5 3 2.5
v 0.5 4 2.5
v 0.5 5 2.5
v 0.5 6 2.5
v 0.5 7 2.5
v 1.5 2 2.5
v 1.5 3 2.5
v 1.5 4 2.5
v 1.5 5 2.5
v 2.5 0 2.5
v 2.5 2 2.5
v 2.5 5 2.5
v 2.5 7 2.5
v -2.5 2 1.5
v -2.5 3 1.5
v -2.5 4 1.5
v -2.5 5 1.5
v -1.5 2 1.5
v -1.5 3 1.5
v -1.5 4 1.5
v -1.5 5 1.5
v 1.5 2 1.5
v 1.5 3 1.5
v 1.5 4 1.5
v 1.5 5 1.5
v 2.5 2 1.5
v 2.5 3 1.5
v 2.5 4 1.5
v 2.5 5 1.5
v -2.5 0 -0.5
v -2.5 1 -0.5
v -2.5 6 -0.5
v -2.5 7 -0.5
v -1.5 0 -0.5
v -1.5 1 -0.5
v -1.5 6 -0.5
v -1.5 7 -0.5
v 1.5 0 -0.5
v 1.5 1 -0.5
v 1.5 6 -0.5
v 1.5 7 -0.5
v 2.5 0 -0.5
v 2.5 1 -0.5
v 2.5 6 -0.5
v 2.5 7 -0.5
v -1.5 0 -1.5
v -1.5 1 -1.5
v -1.5 6 -1.5
v -1.5 7 -1.5
v -0.5 0 -1.5
v -0.5 1 -1.5
v -0.5 6 -1.5
v -0.5 7 -1.5
v 0.5 0 -1.5
v 0.5 1 -1.5
v 0.5 6 -1.5
v 0.5 7 -1.5
v 1.5 0 -1.5
v 1.5 1 -1.5
v 1.5 6 -1.5
v 1.5 7 -1.5
v -1.5 0 1.5
v -1.5 1 1.5
v -1.5 6 1.5
v -1.5 7 1.5
v -0.5 0 1.5
v -0.5 1 1.5
v -0.5 6 1.5
v -0.5 7 1.5
v 0.5 0 1.5
v 0.5 1 1.5
v 0.5 6 1.5
v 0.5 7 1.5
v 1.5 0 1.5
v 1.5 1 1.5
v 1.5 6 1.5
v 1.5 7 1.5
v -2.5 0 0.5
v -2.5 1 0.5
v -2.5 6 0.5
v -2.5 7 0.5
v -1.5 0 0.5
v -1.5 1 0.5
v -1.5 6 0.5
v -1.5 7 0.5
v 1.5 0 0.5
v 1.5 1 0.5
v 1.5 6 0.5
v 1.5 7 0.5
v 2.5 0 0.5
v 2.5 1 0.5
v 2.5 6 0.5
v 2.5 7 0.5
v -2.5 2 -1.5
v -2.5 3 -1.5
v -2.5 4 -1.5
v -2.5 5 -1.5
v -1.5 2 -1.5
v -1.5 3 -1.5
v -1.5 4 -1.5
v -1.5 5 -1.5
v 1.5 2 -1.5
v 1.5 3 -1.5
v 1.5 4 -1.5
v 1.5 5 -1.5
v 2.5 2 -1.5
v 2.5 3 -1.5
v 2.5 4 -1.5
v 2.5 5 -1.5
v -2.5 0 -2.5
v -2.5 2 -2.5
v -2.5 5 -2.5
v -2.5 7 -2.5
v -1.5 2 -2.5
v -1.5 3 -2.5
v -1.5 4 -2.5
v -1.5 5 -2.5
v -0.5 0 -2.5
v -0.5 1 -2.5
v -0.5 2 -2.5
v -0.5 3 -2.5
v -0.5 4 -2.5
v -0.5 5 -2.5
v -0.5 6 -2.5
v -0.5 7 -2.5
v 0.5 0 -2.5
v 0.5 1 -2.5
v 0.5 2 -2.5
v 0.5 3 -2.5
v 0.5 4 -2.5
v 0.5 5 -2.5
v 0.5 6 -2.5
v 0.5 7 -2.5
v 1.5 2 -2.5
v 1.5 3 -2.5
v 1.5 4 -2.5
v 1.5 5 -2.5
v 2.5 0 -2.5
v 2.5 2 -2.5
v 2.5 5 -2.5
v 2.5 7 -2.5
v -2.5 0 2.5
v -0.5 0 2.5
v 0.5 0 2.5
v 2.5 0 2.5
v -1.5 0 1.5
v -0.5 0 1.5
v 0.5 0 1.5
v 1.5 0 1.5
v -2.5 0 0.5
v -1.5 0 0.5
v 1.5 0 0.5
v 2.5 0 0.5
v -2.5 0 -0.5
v -1.5 0 -0.5
v 1.5 0 -0.5
v 2.5 0 -0.5
v -1.5 0 -1.5
v -0.5 0 -1.5
v 0.5 0 -1.5
v 1.5 0 -1.5
v -2.5 0 -2.5
v -0.5 0 -2.5
v 0.5 0 -2.5
v 2.5 0 -2.5
v -0.5 1 2.5
v 0.5 1 2.5
v -1.5 1 1.5
v -0.5 1 1.5
v 0.5 1 1.5
v 1.5 1 1.5
v -2.5 1 0.5
v -1.5 1 0.5
v -0.5 1 0.5
v 0.5 1 0.5
v 1.5 1 0.5
v 2.5 1 0.5
v -2.5 1 -0.5
v -1.5 1 -0.5
v -0.5 1 -0.5
v 0.5 1 -0.5
v 1.5 1 -0.5
v 2.5 1 -0.5
v -1.5 1 -1.5
v -0.5 1 -1.5
v 0.5 1 -1.5
v 1.5 1 -1.5
v -0.5 1 -2.5
v 0.5 1 -2.5
v -2.5 5 2.5
v -1.5 5 2.5
v 1.5 5 2.5
v 2.5 5 2.5
v -2.5 5 1.5
v -1.5 5 1.5
v 1.5 5 1.5
v 2.5 5 1.5
v -2.5 5 -1.5
v -1.5 5 -1.5
v 1.5 5 -1.5
v 2.5 5 -1.5
v -2.5 5 -2.5
v -1.5 5 -2.5
v 1.5 5 -2.5
v 2.5 5 -2.5
v -2.5 2 2.5
v -1.5 2 2.5
v 1.5 2 2.5
v 2.5 2 2.5
v -2.5 2 1.5
v -1.5 2 1.5
v 1.5 2 1.5
v 2.5 2 1.5
v -2.5 2 -1.5
v -1.5 2 -1.5
v 1.5 2 -1.5
v 2.5 2 -1.5
v -2.5 2 -2.5
v -1.5 2 -2.5
v 1.5 2 -2.5
v 2.5 2 -2.5
v -0.5 6 2.5
v 0.5 6 2.5
v -1.5 6 1.5
v -0.5 6 1.5
v 0.5 6 1.5
v 1.5 6 1.5
v -2.5 6 0.5
v -1.5 6 0.5
v -0.5 6 0.5
v 0.5 6 0.5
v 1.5 6 0.5
v 2.5 6 0.5
v -2.5 6 -0.5
v -1.5 6 -0.5
v -0.5 6 -0.5
v 0.5 6 -0.5
v 1.5 6 -0.5
v 2.5 6 -0.5
v -1.5 6 -1.5
v -0.5 6 -1.5
v 0.5 6 -1.5
v 1.5 6 -1.5
v -0.5 6 -2.5
v 0.5 6 -2.5
v -2.5 7 2.5
v -0.5 7 2.5
v 0.5 7 2.5
v 2.5 7 2.5
v -1.5 7 1.5
v -0.5 7 1.5
v 0.5 7 1.5
v 1.5 7 1.5
v -2.5 7 0.5
v -1.5 7 0.5
v 1.5 7 0.5
v 2.5 7 0.5
v -2.5 7 -0.5
v -1.5 7 -0.5
v 1.5 7 -0.5
v 2.5 7 -0.5
v -1.5 7 -1.5
v -0.5 7 -1.5
v 0.5 7 -1.5
v 1.5 7 -1.5
v -2.5 7 -2.5
v -0.5 7 -2.5
v 0.5 7 -2.5
v 2.5 7 -2.5

# faces
f 5/3/1 2/3/1 1/3/1
f 6/3/1 4/3/1 3/3/1
f 7/3/1 5/3/1 1/3/1
f 8/3/1 5/3/1 7/3/1
f 9/1/1 6/1/1 5/1/1
f 9/3/1 5/3/1 8/3/1
f 10/3/1 4/3/1 6/3/1
f 10/1/1 6/1/1 9/1/1
f 11/3/1 4/3/1 10/3/1
f 12/3/1 4/3/1 11/3/1
f 13/1/1 9/1/1 8/1/1
f 14/4/1 10/4/1 9/4/1
f 14/1/1 9/1/1 13/1/1
f 15/1/1 11/1/1 10/1/1
f 15/4/1 10/4/1 14/4/1
f 16/1/1 11/1/1 15/1/1
f 17/2/1 14/2/1 13/2/1
f 18/4/1 15/4/1 14/4/1
f 18/2/1 14/2/1 17/2/1
f 19/2/1 16/2/1 15/2/1
f 19/4/1 15/4/1 18/4/1
f 20/2/1 16/2/1 19/2/1
f 22/1/1 18/1/1 17/1/1
f 23/4/1 19/4/1 18/4/1
f 23/1/1 18/1/1 22/1/1
f 24/1/1 20/1/1 19/1/1
f 24/4/1 19/4/1 23/4/1
f 25/1/1 20/1/1 24/1/1
f 27/1/1 24/1/1 23/1/1
f 27/3/1 22/3/1 21/3/1
f 27/3/1 23/3/1 22/3/1
f 28/3/1 25/3/1 24/3/1
f 28/1/1 24/1/1 27/1/1
f 28/3/1 26/3/1 25/3/1
f 29/3/1 27/3/1 21/3/1
f 30/3/1 27/3/1 29/3/1
f 31/3/1 26/3/1 28/3/1
f 32/3/1 26/3/1 31/3/1
f 37/1/1 34/1/1 33/1/1
f 38/1/1 34/1/1 37/1/1
f 39/1/1 36/1/1 35/1/1
f 40/1/1 36/1/1 39/1/1
f 41/2/1 38/2/1 37/2/1
f 42/2/1 38/2/1 41/2/1
f 43/2/1 40/2/1 39/2/1
f 44/2/1 40/2/1 43/2/1
f 45/1/1 42/1/1 41/1/1
f 46/1/1 42/1/1 45/1/1
f 47/1/1 44/1/1 43/1/1
f 48/1/1 44/1/1 47/1/1
f 53/3/1 50/3/1 49/3/1
f 54/3/1 50/3/1 53/3/1
f 55/3/1 52/3/1 51/3/1
f 56/3/1 52/3/1 55/3/1
f 61/3/1 58/3/1 57/3/1
f 62/3/1 58/3/1 61/3/1
f 63/3/1 60/3/1 59/3/1
f 64/3/1 60/3/1 63/3/1
f 69/3/1 66/3/1 65/3/1
f 70/3/1 66/3/1 69/3/1
f 71/3/1 68/3/1 67/3/1
f 72/3/1 68/3/1 71/3/1
f 77/3/1 74/3/1 73/3/1
f 78/3/1 74/3/1 77/3/1
f 79/3/1 76/3/1 75/3/1
f 80/3/1 76/3/1 79/3/1
f 81/3/2 82/3/2 85/3/2
f 85/3/2 82/3/2 86/3/2
f 83/3/2 84/3/2 87/3/2
f 87/3/2 84/3/2 88/3/2
f 89/3/2 90/3/2 93/3/2
f 93/3/2 90/3/2 94/3/2
f 91/3/2 92/3/2 95/3/2
f 95/3/2 92/3/2 96/3/2
f 97/3/2 98/3/2 101/3/2
f 101/3/2 98/3/2 102/3/2
f 99/3/2 100/3/2 103/3/2
f 103/3/2 100/3/2 104/3/2
f 105/3/2 106/3/2 109/3/2
f 109/3/2 106/3/2 110/3/2
f 107/3/2 108/3/2 111/3/2
f 111/3/2 108/3/2 112/3/2
f 113/1/2 114/1/2 117/1/2
f 117/1/2 114/1/2 118/1/2
f 115/1/2 116/1/2 119/1/2
f 119/1/2 116/1/2 120/1/2
f 117/2/2 118/2/2 121/2/2
f 121/2/2 118/2/2 122/2/2
f 119/2/2 120/2/2 123/2/2
f 123/2/2 120/2/2 124/2/2
f 121/1/2 122/1/2 125/1/2
f 125/1/2 122/1/2 126/1/2
f 123/1/2 124/1/2 127/1/2
f 127/1/2 124/1/2 128/1/2
f 129/3/2 130/3/2 133/3/2
f 131/3/2 132/3/2 134/3/2
f 129/3/2 133/3/2 135/3/2
f 135/3/2 133/3/2 136/3/2
f 133/1/2 134/1/2 137/1/2
f 136/3/2 133/3/2 137/3/2
f 134/3/2 132/3/2 138/3/2
f 137/1/2 134/1/2 138/1/2
f 138/3/2 132/3/2 139/3/2
f 139/3/2 132/3/2 140/3/2
f 136/1/2 137/1/2 141/1/2
f 137/4/2 138/4/2 142/4/2
f 141/1/2 137/1/2 142/1/2
f 138/1/2 139/1/2 143/1/2
f 142/4/2 138/4/2 143/4/2
f 143/1/2 139/1/2 144/1/2
f 141/2/2 142/2/2 145/2/2
f 142/4/2 143/4/2 146/4/2
f 145/2/2 142/2/2 146/2/2
f 143/2/2 144/2/2 147/2/2
f 146/4/2 143/4/2 147/4/2
f 147/2/2 144/2/2 148/2/2
f 145/1/2 146/1/2 150/1/2
f 146/4/2 147/4/2 151/4/2
f 150/1/2 146/1/2 151/1/2
f 147/1/2 148/1/2 152/1/2
f 151/4/2 147/4/2 152/4/2
f 152/1/2 148/1/2 153/1/2
f 151/1/2 152/1/2 155/1/2
f 149/3/2 150/3/2 155/3/2
f 150/3/2 151/3/2 155/3/2
f 152/3/2 153/3/2 156/3/2
f 155/1/2 152/1/2 156/1/2
f 153/3/2 154/3/2 156/3/2
f 149/3/2 155/3/2 157/3/2
f 157/3/2 155/3/2 158/3/2
f 156/3/2 154/3/2 159/3/2
f 159/3/2 154/3/2 160/3/2
f 165/3/3 162/3/3 161/3/3
f 168/3/3 164/3/3 163/3/3
f 169/3/3 165/3/3 161/3/3
f 170/3/3 165/3/3 169/3/3
f 171/1/3 166/1/3 165/1/3
f 171/3/3 165/3/3 170/3/3
f 172/2/3 167/2/3 166/2/3
f 172/1/3 166/1/3 171/1/3
f 173/1/3 168/1/3 167/1/3
f 173/2/3 167/2/3 172/2/3
f 174/3/3 164/3/3 168/3/3
f 174/1/3 168/1/3 173/1/3
f 175/3/3 164/3/3 174/3/3
f 176/3/3 164/3/3 175/3/3
f 178/1/3 171/1/3 170/1/3
f 179/4/3 172/4/3 171/4/3
f 179/4/3 173/4/3 172/4/3
f 179/1/3 171/1/3 178/1/3
f 179/4/3 174/4/3 173/4/3
f 180/4/3 174/4/3 179/4/3
f 181/4/3 174/4/3 180/4/3
f 182/1/3 175/1/3 174/1/3
f 182/4/3 174/4/3 181/4/3
f 183/1/3 175/1/3 182/1/3
f 185/3/3 178/3/3 177/3/3
f 185/3/3 179/3/3 178/3/3
f 185/1/3 180/1/3 179/1/3
f 186/2/3 181/2/3 180/2/3
f 186/1/3 180/1/3 185/1/3
f 187/1/3 182/1/3 181/1/3
f 187/2/3 181/2/3 186/2/3
f 188/3/3 184/3/3 183/3/3
f 188/1/3 182/1/3 187/1/3
f 188/3/3 183/3/3 182/3/3
f 189/3/3 185/3/3 177/3/3
f 190/3/3 185/3/3 189/3/3
f 191/3/3 184/3/3 188/3/3
f 192/3/3 184/3/3 191/3/3
f 197/1/3 194/1/3 193/1/3
f 198/2/3 195/2/3 194/2/3
f 198/1/3 194/1/3 197/1/3
f 199/1/3 196/1/3 195/1/3
f 199/2/3 195/2/3 198/2/3
f 200/1/3 196/1/3 199/1/3
f 205/1/3 202/1/3 201/1/3
f 206/2/3 203/2/3 202/2/3
f 206/1/3 202/1/3 205/1/3
f 207/1/3 204/1/3 203/1/3
f 207/2/3 203/2/3 206/2/3
f 208/1/3 204/1/3 207/1/3
f 213/3/3 210/3/3 209/3/3
f 214/3/3 210/3/3 213/3/3
f 215/3/3 212/3/3 211/3/3
f 216/3/3 212/3/3 215/3/3
f 221/3/3 218/3/3 217/3/3
f 222/3/3 218/3/3 221/3/3
f 223/3/3 220/3/3 219/3/3
f 224/3/3 220/3/3 223/3/3
f 229/3/3 226/3/3 225/3/3
f 230/3/3 226/3/3 229/3/3
f 231/3/3 228/3/3 227/3/3
f 232/3/3 228/3/3 231/3/3
f 237/3/3 234/3/3 233/3/3
f 238/3/3 234/3/3 237/3/3
f 239/3/3 236/3/3 235/3/3
f 240/3/3 236/3/3 239/3/3
f 241/3/4 242/3/4 245/3/4
f 245/3/4 242/3/4 246/3/4
f 243/3/4 244/3/4 247/3/4
f 247/3/4 244/3/4 248/3/4
f 249/3/4 250/3/4 253/3/4
f 253/3/4 250/3/4 254/3/4
f 251/3/4 252/3/4 255/3/4
f 255/3/4 252/3/4 256/3/4
f 257/3/4 258/3/4 261/3/4
f 261/3/4 258/3/4 262/3/4
f 259/3/4 260/3/4 263/3/4
f 263/3/4 260/3/4 264/3/4
f 265/3/4 266/3/4 269/3/4
f 269/3/4 266/3/4 270/3/4
f 267/3/4 268/3/4 271/3/4
f 271/3/4 268/3/4 272/3/4
f 273/1/4 274/1/4 277/1/4
f 274/2/4 275/2/4 278/2/4
f 277/1/4 274/1/4 278/1/4
f 275/1/4 276/1/4 279/1/4
f 278/2/4 275/2/4 279/2/4
f 279/1/4 276/1/4 280/1/4
f 281/1/4 282/1/4 285/1/4
f 282/2/4 283/2/4 286/2/4
f 285/1/4 282/1/4 286/1/4
f 283/1/4 284/1/4 287/1/4
f 286/2/4 283/2/4 287/2/4
f 287/1/4 284/1/4 288/1/4
f 289/3/4 290/3/4 293/3/4
f 291/3/4 292/3/4 296/3/4
f 289/3/4 293/3/4 297/3/4
f 297/3/4 293/3/4 298/3/4
f 293/1/4 294/1/4 299/1/4
f 298/3/4 293/3/4 299/3/4
f 294/2/4 295/2/4 300/2/4
f 299/1/4 294/1/4 300/1/4
f 295/1/4 296/1/4 301/1/4
f 300/2/4 295/2/4 301/2/4
f 296/3/4 292/3/4 302/3/4
f 301/1/4 296/1/4 302/1/4
f 302/3/4 292/3/4 303/3/4
f 303/3/4 292/3/4 304/3/4
f 298/1/4 299/1/4 306/1/4
f 299/4/4 300/4/4 307/4/4
f 300/4/4 301/4/4 307/4/4
f 306/1/4 299/1/4 307/1/4
f 301/4/4 302/4/4 307/4/4
f 307/4/4 302/4/4 308/4/4
f 308/4/4 302/4/4 309/4/4
f 302/1/4 303/1/4 310/1/4
f 309/4/4 302/4/4 310/4/4
f 310/1/4 303/1/4 311/1/4
f 305/3/4 306/3/4 313/3/4
f 306/3/4 307/3/4 313/3/4
f 307/1/4 308/1/4 313/1/4
f 308/2/4 309/2/4 314/2/4
f 313/1/4 308/1/4 314/1/4
f 309/1/4 310/1/4 315/1/4
f 314/2/4 309/2/4 315/2/4
f 311/3/4 312/3/4 316/3/4
f 315/1/4 310/1/4 316/1/4
f 310/3/4 311/3/4 316/3/4
f 305/3/4 313/3/4 317/3/4
f 317/3/4 313/3/4 318/3/4
f 316/3/4 312/3/4 319/3/4
f 319/3/4 312/3/4 320/3/4
f 325/3/5 322/3/5 321/3/5
f 326/3/5 322/3/5 325/3/5
f 327/3/5 324/3/5 323/3/5
f 328/3/5 324/3/5 327/3/5
f 329/3/5 325/3/5 321/3/5
f 330/3/5 325/3/5 329/3/5
f 331/3/5 324/3/5 328/3/5
f 332/3/5 324/3/5 331/3/5
f 337/3/5 334/3/5 333/3/5
f 340/3/5 336/3/5 335/3/5
f 341/3/5 338/3/5 337/3/5
f 341/3/5 337/3/5 333/3/5
f 342/3/5 338/3/5 341/3/5
f 343/3/5 340/3/5 339/3/5
f 344/3/5 336/3/5 340/3/5
f 344/3/5 340/3/5 343/3/5
f 348/1/5 346/1/5 345/1/5
f 349/1/5 346/1/5 348/1/5
f 352/1/5 348/1/5 347/1/5
f 352/1/5 350/1/5 349/1/5
f 352/1/5 349/1/5 348/1/5
f 353/1/5 350/1/5 352/1/5
f 354/1/5 350/1/5 353/1/5
f 355/1/5 350/1/5 354/1/5
f 357/1/5 352/1/5 351/1/5
f 357/1/5 353/1/5 352/1/5
f 358/1/5 353/1/5 357/1/5
f 359/4/5 354/4/5 353/4/5
f 359/1/5 353/1/5 358/1/5
f 360/1/5 356/1/5 355/1/5
f 360/4/5 354/4/5 359/4/5
f 360/1/5 355/1/5 354/1/5
f 361/1/5 356/1/5 360/1/5
f 362/1/5 356/1/5 361/1/5
f 363/1/5 359/1/5 358/1/5
f 363/1/5 361/1/5 360/1/5
f 363/1/5 360/1/5 359/1/5
f 364/1/5 361/1/5 363/1/5
f 365/1/5 361/1/5 364/1/5
f 366/1/5 361/1/5 365/1/5
f 367/1/5 365/1/5 364/1/5
f 368/1/5 365/1/5 367/1/5
f 373/3/5 370/3/5 369/3/5
f 374/3/5 370/3/5 373/3/5
f 375/3/5 372/3/5 371/3/5
f 376/3/5 372/3/5 375/3/5
f 381/3/5 378/3/5 377/3/5
f 382/3/5 378/3/5 381/3/5
f 383/3/5 380/3/5 379/3/5
f 384/3/5 380/3/5 383/3/5
f 385/3/6 386/3/6 389/3/6
f 389/3/6 386/3/6 390/3/6
f 387/3/6 388/3/6 391/3/6
f 391/3/6 388/3/6 392/3/6
f 393/3/6 394/3/6 397/3/6
f 397/3/6 394/3/6 398/3/6
f 395/3/6 396/3/6 399/3/6
f 399/3/6 396/3/6 400/3/6
f 401/1/6 402/1/6 404/1/6
f 404/1/6 402/1/6 405/1/6
f 403/1/6 404/1/6 408/1/6
f 405/1/6 406/1/6 408/1/6
f 404/1/6 405/1/6 408/1/6
f 408/1/6 406/1/6 409/1/6
f 409/1/6 406/1/6 410/1/6
f 410/1/6 406/1/6 411/1/6
f 407/1/6 408/1/6 413/1/6
f 408/1/6 409/1/6 413/1/6
f 413/1/6 409/1/6 414/1/6
f 409/4/6 410/4/6 415/4/6
f 414/1/6 409/1/6 415/1/6
f 411/1/6 412/1/6 416/1/6
f 415/4/6 410/4/6 416/4/6
f 410/1/6 411/1/6 416/1/6
f 416/1/6 412/1/6 417/1/6
f 417/1/6 412/1/6 418/1/6
f 414/1/6 415/1/6 419/1/6
f 416/1/6 417/1/6 419/1/6
f 415/1/6 416/1/6 419/1/6
f 419/1/6 417/1/6 420/1/6
f 420/1/6 417/1/6 421/1/6
f 421/1/6 417/1/6 422/1/6
f 420/1/6 421/1/6 423/1/6
f 423/1/6 421/1/6 424/1/6
f 425/3/6 426/3/6 429/3/6
f 429/3/6 426/3/6 430/3/6
f 427/3/6 428/3/6 431/3/6
f 431/3/6 428/3/6 432/3/6
f 425/3/6 429/3/6 433/3/6
f 433/3/6 429/3/6 434/3/6
f 432/3/6 428/3/6 435/3/6
f 435/3/6 428/3/6 436/3/6
f 437/3/6 438/3/6 441/3/6
f 439/3/6 440/3/6 444/3/6
f 441/3/6 442/3/6 445/3/6
f 437/3/6 441/3/6 445/3/6
f 445/3/6 442/3/6 446/3/6
f 443/3/6 444/3/6 447/3/6
f 444/3/6 440/3/6 448/3/6
f 447/3/6 444/3/6 448/3/6
